<?xml version="1.0" encoding="UTF-8"?>
<svg width="22px" height="22px" viewBox="0 0 22 22" version="1.1" xmlns="http://www.w3.org/2000/svg" xmlns:xlink="http://www.w3.org/1999/xlink">
    <!-- Generator: Sketch 52.2 (67145) - http://www.bohemiancoding.com/sketch -->
    <title>人民币</title>
    <desc>Created with Sketch.</desc>
    <g id="Page-1" stroke="none" stroke-width="1" fill="none" fill-rule="evenodd">
        <g id="我的账户-copy" transform="translate(-40.000000, -384.000000)">
            <g id="人民币" transform="translate(40.000000, 384.000000)">
                <path d="M11,0 C4.928,0 0,4.928 0,11 C0,17.072 4.928,22 11,22 C17.072,22 22,17.072 22,11 C22,4.928 17.072,0 11,0 Z" id="路径" fill="#FFFFFF"></path>
                <path d="M11,0 C4.928,0 0,4.928 0,11 C0,17.072 4.928,22 11,22 C17.072,22 22,17.072 22,11 C22,4.928 17.072,0 11,0 Z M15.4,10.67 L11.66,10.67 L11.66,12.54 L14.63,12.54 C15.026,12.54 15.345,12.859 15.345,13.255 C15.345,13.651 15.026,13.97 14.63,13.97 L11.66,13.97 L11.66,17.303 C11.66,17.699 11.341,18.018 10.945,18.018 C10.549,18.018 10.23,17.699 10.23,17.303 L10.23,13.97 L7.37,13.97 C6.974,13.97 6.655,13.651 6.655,13.255 C6.655,12.859 6.974,12.54 7.37,12.54 L10.23,12.54 L10.23,10.67 L6.6,10.67 C6.204,10.67 5.885,10.351 5.885,9.955 C5.885,9.559 6.204,9.24 6.6,9.24 L9.46,9.24 L6.38,5.929 C6.105,5.632 6.127,5.181 6.424,4.906 C6.721,4.631 7.183,4.653 7.458,4.95 L10.956,8.745 L14.443,4.95 C14.718,4.653 15.18,4.631 15.477,4.906 C15.774,5.181 15.796,5.621 15.521,5.929 L12.452,9.24 L15.4,9.24 C15.796,9.24 16.115,9.559 16.115,9.955 C16.115,10.351 15.785,10.67 15.4,10.67 Z" id="形状" fill="#E6726D" fill-rule="nonzero"></path>
            </g>
        </g>
    </g>
</svg>