<?xml version="1.0" encoding="UTF-8"?>
<svg width="12px" height="10px" viewBox="0 0 12 10" version="1.1" xmlns="http://www.w3.org/2000/svg" xmlns:xlink="http://www.w3.org/1999/xlink">
    <!-- Generator: Sketch 52.2 (67145) - http://www.bohemiancoding.com/sketch -->
    <title>眼睛 (1)</title>
    <desc>Created with Sketch.</desc>
    <g id="Page-1" stroke="none" stroke-width="1" fill="none" fill-rule="evenodd" opacity="0.395252046">
        <g id="文章详情" transform="translate(-216.000000, -135.000000)" fill="#000000" fill-rule="nonzero">
            <g id="眼睛-(1)" transform="translate(216.000000, 135.000000)">
                <path d="M6,1 C8.18624499,1.0012728 10.1764458,2.55795422 11.1126036,4.99894068 L12,4.99894068 C11.0110247,1.97800937 8.63750029,0.000491385478 6,0 C3.36228901,0.00066599415 0.988704878,1.97865277 8.61533067e-14,5 L0.886539011,5 C1.82233484,2.55784219 3.81305312,1.0001923 6,0.998940678 L6,1 Z M6,8.99894068 C3.81344518,8.99807698 1.82282954,7.44133217 0.886539011,5 L0,5 C0.988587675,8.02098941 3.36174415,9.99890244 5.99914261,10 C8.63716611,9.99976565 11.011178,8.02170511 12,5 L11.1117462,5 C10.1758357,7.44139927 8.1855836,8.9985332 5.99914261,9 L6,8.99894068 Z M3.84109746,5 C3.82552609,5.96506 4.23332588,6.86516052 4.90729771,7.35332982 C5.58126955,7.84149913 6.41615829,7.84149913 7.09013013,7.35332982 C7.76410196,6.86516052 8.17190175,5.96506 8.15633038,5 C8.13290922,3.54843661 7.17380517,2.38682968 5.99871392,2.38682968 C4.82362267,2.38682968 3.86451862,3.54843661 3.84109746,5 Z M7.34781366,5 C7.36016977,5.60552406 7.10576944,6.17170057 6.68327396,6.47895552 C6.26077847,6.78621047 5.73664937,6.78621047 5.31415388,6.47895552 C4.89165839,6.17170057 4.63725806,5.60552406 4.64961418,5 C4.6680651,4.09579327 5.26663985,3.37465097 5.99871392,3.37465097 C6.73078799,3.37465097 7.32936274,4.09579327 7.34781366,5 Z" id="形状"></path>
            </g>
        </g>
    </g>
</svg>