<?xml version="1.0" encoding="UTF-8"?>
<svg width="128px" height="128px" viewBox="0 0 128 128" version="1.1" xmlns="http://www.w3.org/2000/svg" xmlns:xlink="http://www.w3.org/1999/xlink">
    <!-- Generator: Sketch 55.1 (78136) - https://sketchapp.com -->
    <title>zanwu</title>
    <desc>Created with Sketch.</desc>
    <g id="页面-1" stroke="none" stroke-width="1" fill="none" fill-rule="evenodd">
        <g id="我的原创_文章缺省页" transform="translate(-119.000000, -123.000000)" fill-rule="nonzero">
            <g id="zanwu" transform="translate(119.000000, 123.000000)">
                <polygon id="路径" fill="#E4E7EA" points="31.9090447 61.6832636 91.3449851 61.6832636 106.204448 97.7697115 106.204448 127.487363 17.0502189 127.487363 17.0502189 97.7703482"></polygon>
                <polygon id="路径" fill="#E4E7EA" points="31.9090447 61.6832636 91.3449851 61.6832636 91.3449851 89.278408 31.9090447 89.278408"></polygon>
                <path d="M17.0502189,127.487363 L17.0502189,97.7703482 L51.0135224,97.7703482 C51.0135224,103.631602 55.7654427,108.383522 61.6273334,108.383522 C67.4885871,108.383522 72.2405075,103.631602 72.2405075,97.7703482 L106.204448,97.7703482 L106.204448,127.488 L17.0502189,127.488 L17.0502189,127.487363 Z" id="路径" fill="#EFF1F3"></path>
                <path d="M125.308925,61.6832636 L123.185781,61.6832636 L123.185781,63.8057711 C123.185781,64.9779996 122.235502,65.9282786 121.063274,65.9282786 C119.891045,65.9282786 118.940766,64.9779996 118.940766,63.8057711 L118.940766,61.6832636 L116.817622,61.6832636 C115.645218,61.6832636 114.694796,60.7328421 114.694796,59.5604378 C114.694796,58.3880335 115.645218,57.437612 116.817622,57.437612 L118.940766,57.437612 L118.940766,55.3151045 C118.940766,54.142876 119.891045,53.192597 121.063274,53.192597 C122.235502,53.192597 123.185781,54.142876 123.185781,55.3151045 L123.185781,57.437612 L125.308925,57.437612 C126.48133,57.437612 127.431751,58.3880335 127.431751,59.5604378 C127.431751,60.7328421 126.48133,61.6832636 125.308925,61.6832636 Z M99.8362885,29.8424676 L118.940766,8.61548263 L112.572607,36.2106269 L99.8362885,29.8424676 L99.8362885,29.8424676 Z M82.8543184,23.4743085 L118.940766,8.61548263 L95.5906369,29.8424676 L82.8543184,23.4743085 L82.8543184,23.4743085 Z M83.4911344,50.5816518 C83.8413831,50.936995 83.8553931,51.5037613 83.5229751,51.8762985 C82.6687833,52.7879841 81.7793232,53.6659728 80.8566269,54.5082588 C80.4922109,54.8235927 79.9416214,54.7857681 79.6237512,54.4235623 C79.2850501,54.0346535 79.3062214,53.4496567 79.6721492,53.0862488 C80.5618597,52.2893937 81.4160216,51.4537173 82.2321492,50.5816518 C82.3960308,50.4090249 82.6236141,50.311274 82.8616418,50.311274 C83.0996695,50.311274 83.3272528,50.4090249 83.4911344,50.5816518 L83.4911344,50.5816518 Z M74.9386965,58.817592 C74.6550741,58.987639 74.3008463,58.987639 74.0172239,58.817592 C73.7343521,58.630721 73.572675,58.3071242 73.5931045,57.9687164 C73.6058409,57.6350249 73.7981592,57.3338109 74.096189,57.1828856 C75.1216481,56.6032878 76.1086404,55.9581267 77.0510149,55.2514229 C77.4615827,54.9948025 78.0014299,55.1070952 78.275612,55.5061492 C78.5551742,55.9124377 78.4793931,56.4645572 78.0992139,56.7797811 C77.0923071,57.530979 76.0348081,58.2118637 74.9342387,58.817592 L74.9386965,58.817592 L74.9386965,58.817592 Z M71.2005871,55.4214528 C70.6997779,55.4631029 70.2587409,55.0939154 70.211612,54.593592 C70.1575562,53.4962385 69.8108079,52.4333465 69.2073533,51.5152239 C68.9240383,51.0929933 69.023081,50.5225857 69.4321493,50.2205771 C69.6274023,50.0787007 69.8724122,50.0233723 70.1096859,50.067575 C70.3469596,50.1117778 70.5556102,50.2516206 70.6866766,50.4542885 C71.4819035,51.6475575 71.938984,53.0339837 72.0093433,54.4662289 C72.0293717,54.9481648 71.6750857,55.3643191 71.1961294,55.4214527 L71.2005871,55.4214527 L71.2005871,55.4214528 Z M66.7428756,49.3500497 C65.7605761,48.8202035 64.6952509,48.4614342 63.5925473,48.2891144 C63.2664311,48.2462446 62.9913806,48.0252219 62.8793134,47.7159801 C62.7596574,47.4017484 62.8119983,47.0479048 63.0175025,46.7817711 C63.2219204,46.5283184 63.5435125,46.3996816 63.8663781,46.4423482 C65.1635721,46.6556816 66.4174628,47.0791641 67.5790149,47.6943284 C67.8802288,47.8439801 68.0776418,48.1445572 68.0948359,48.4801592 C68.1156662,48.8186489 67.9538943,49.1424354 67.6707164,49.3290349 C67.3919677,49.5213931 67.0255508,49.5296525 66.7384179,49.3500498 L66.7428756,49.3500498 L66.7428756,49.3500497 Z M64.6840498,60.0275422 C64.625602,60.2614364 64.4744741,60.4614673 64.2654489,60.5815967 C64.0564237,60.7017262 63.8075076,60.7316056 63.57599,60.6643582 C62.3166281,60.2990507 61.1275172,59.7249452 60.0582189,58.9659701 C59.6698144,58.6595481 59.5779948,58.1080789 59.8461592,57.6923382 C59.9699726,57.49342 60.1682432,57.3523246 60.3967486,57.3005221 C60.625254,57.2487196 60.8649871,57.2905189 61.0624776,57.416597 C61.9816904,58.0600971 62.9967513,58.55441 64.0701592,58.8812736 C64.5522312,59.0328411 64.8235405,59.5431406 64.679592,60.0275422 L64.6840497,60.0275422 L64.6840498,60.0275422 Z M60.1792139,48.3101294 C59.1314602,48.4595127 58.1494033,48.9091798 57.3517512,49.6047761 C57.1155502,49.8199645 56.786056,49.9001182 56.477403,49.8174726 C56.3216614,49.7747829 56.1824731,49.6859865 56.0781194,49.5627463 C55.7360519,49.1852656 55.7511968,48.6055528 56.1125075,48.2464478 C57.1621019,47.2978313 58.4668708,46.6778834 59.8652636,46.4633631 C60.0212835,46.4455323 60.1798508,46.4595423 60.3301393,46.5060299 C60.8026544,46.7021783 61.0394785,47.2334247 60.8695224,47.7159801 C60.7622287,48.0247187 60.4969887,48.2517544 60.175393,48.3101294 L60.1792139,48.3101294 L60.1792139,48.3101294 Z M49.9519503,10.73799 C48.0559755,10.73799 46.3040226,9.72649959 45.3560352,8.08453731 C44.4080479,6.44257504 44.4080479,4.41959408 45.3560352,2.77763181 C46.3040226,1.13566954 48.0559755,0.124179125 49.9519503,0.124179125 C52.8828731,0.124179125 55.2588556,2.50016166 55.2588556,5.43108456 C55.2588556,8.36200746 52.8828731,10.73799 49.9519503,10.73799 L49.9519503,10.73799 Z M49.9519503,2.24732337 C48.1934316,2.24732337 46.7678706,3.67288438 46.7678706,5.431403 C46.7678706,7.18992162 48.1934316,8.61548262 49.9519502,8.61548262 C51.7104689,8.61548262 53.1360299,7.18992162 53.1360299,5.431403 C53.1360299,3.67288438 51.7104689,2.24732337 49.9519502,2.24732337 L49.9519503,2.24732337 Z M57.0804676,56.2493134 C56.1443483,55.2304079 55.4400299,54.0204576 55.0146369,52.7041592 C54.9199194,52.3837413 55.0007085,52.0371223 55.2273334,51.791602 C55.4407208,51.5453297 55.7779693,51.4458463 56.0908558,51.5368756 C56.4092638,51.6113831 56.6595324,51.857194 56.740408,52.1736915 C57.0966046,53.2227592 57.6703752,54.1847582 58.4241493,54.9966965 C58.754622,55.3850206 58.7218245,55.9644439 58.3496418,56.312995 C58.1770738,56.4815157 57.9420462,56.5704371 57.7011462,56.5583498 C57.4602462,56.5462625 57.2353,56.4342616 57.0804676,56.2493134 L57.0804676,56.2493134 Z M84.7985174,49.0743085 C84.4283196,48.7402938 84.3731419,48.1794128 84.6711543,47.7796617 C85.4353334,46.8454527 86.1740399,45.8902289 86.8853631,44.91399 C87.0254976,44.7240315 87.2364858,44.5988056 87.4703586,44.566783 C87.7042313,44.5347605 87.9411155,44.5986623 88.1271543,44.7439603 C88.5149751,45.0610946 88.5996716,45.620219 88.3245671,46.038607 C87.5922289,47.0364975 86.8388756,48.0343881 86.0447661,48.989612 C85.8923633,49.1687061 85.6741147,49.2786916 85.4394935,49.2946367 C85.2048724,49.3105818 84.9737499,49.2311361 84.7985174,49.0743085 L84.7985174,49.0743085 Z M89.6809851,43.3002985 C89.3461834,43.2816152 89.0501803,43.0766522 88.9148955,42.7698309 C88.7719416,42.4588973 88.8041595,42.095537 88.999592,41.814607 C89.6593333,40.7957015 90.2961493,39.7557811 90.9100398,38.694209 C91.0287303,38.4850023 91.2272874,38.3329614 91.4602063,38.2729308 C91.6931252,38.2129001 91.9404367,38.2500264 92.1454626,38.375801 C92.5708556,38.6509055 92.7064975,39.2100299 92.455592,39.6494329 C91.8315124,40.73202 91.1819601,41.814607 90.5024776,42.8545274 C90.3369145,43.1484861 90.0176813,43.3217134 89.6809851,43.3002985 L89.6809851,43.3002985 Z M92.9943383,36.8264279 C92.5529896,36.5667621 92.3925539,36.0067768 92.6294428,35.552796 C92.977781,34.8943284 93.317204,34.2154826 93.6464377,33.536 C93.8572244,33.1196344 94.3578483,32.9422017 94.783791,33.1328955 C95.2443649,33.3515414 95.4527075,33.8928401 95.2575821,34.3638607 C94.9200696,35.0643582 94.5717314,35.7648557 94.2151144,36.4443382 C94.1048331,36.6578131 93.9137538,36.8183144 93.6844454,36.8900854 C93.4551369,36.9618565 93.2066483,36.9389351 92.9943382,36.8264279 L92.9943383,36.8264279 Z M101.958796,34.0881194 L97.7131442,40.4562786 L97.7131442,31.9649751 L101.958796,34.0887563 L101.958796,34.0881194 Z M68.6023781,61.322189 C68.605169,61.3058877 68.6134898,61.2910453 68.6259403,61.2801593 L68.744388,60.9827661 C68.3202686,61.0464478 67.8955124,61.1101293 67.4707562,61.1311443 C66.9715432,61.1310476 66.5602393,60.7392326 66.5359288,60.2406118 C66.5116182,59.741991 66.8828556,59.3120227 67.3796915,59.2633631 L67.3924279,59.2633631 C68.1000589,59.2174207 68.8032,59.118006 69.4958309,58.9659701 C69.6021791,58.6265473 69.7085274,58.2871244 69.8015025,57.9470646 C69.8605339,57.7111236 70.0116803,57.508692 70.2211266,57.3850589 C70.4305728,57.2614258 70.6808376,57.2269101 70.9159304,57.2892339 C71.3801691,57.4395224 71.6546369,57.9164975 71.5527463,58.3928359 C71.5234528,58.520199 71.4788756,58.6265474 71.4470349,58.7539105 C71.501801,58.7965771 71.5680299,58.7965771 71.6164279,58.838607 C71.9840644,59.2000218 72.0091082,59.7843769 71.6737413,60.1759204 C71.5610249,60.3013731 71.4126468,60.3898905 71.2496219,60.4306468 C71.1305373,60.4733134 71.0076319,60.4943284 70.8866369,60.536995 C70.7420796,60.9190845 70.5809653,61.3011741 70.4128458,61.6832636 L91.3449851,61.6832636 L106.096189,97.7697115 L106.204448,97.7697115 L106.204448,127.487363 L17.0502189,127.487363 L17.0502189,97.7703482 L17.1584776,97.7703482 L31.9090448,61.6832636 L68.5940995,61.6832636 C68.5723747,61.563587 68.5751912,61.4407442 68.6023781,61.322189 Z M91.3449851,66.9898508 L91.3449851,89.278408 L94.8156319,97.7697115 L103.657184,97.7697115 L91.3449851,66.9898508 Z M19.1727264,120.440995 L19.1727264,125.365493 L104.081303,125.365493 L104.081303,99.8928557 L72.2405075,99.8928557 C72.2405075,105.754746 67.4885871,110.506667 61.6273334,110.506667 C55.7654429,110.506667 51.0135224,105.754746 51.0135224,99.8928557 L19.1727264,99.8928557 L19.1727264,120.440995 L19.1727264,120.440995 Z M31.9090447,66.9904875 L19.5974826,97.7703482 L28.438398,97.7703482 L31.9090447,89.278408 L31.9090447,66.9898508 L31.9090447,66.9904875 Z M30.6354129,97.7703482 L53.1360299,97.7703482 L53.1360299,99.8928557 C53.1366667,104.581731 56.9378209,108.382886 61.6273334,108.382886 C66.316209,108.382886 70.1173633,104.581731 70.118,99.8928557 L70.118,97.7703482 L92.6186169,97.7703482 L89.2224776,89.278408 L34.0315522,89.278408 L30.6354129,97.7703482 Z M34.0315522,87.1565374 L89.2224776,87.1565374 L89.2224776,63.806408 L34.0315522,63.806408 L34.0315522,87.1565374 Z M65.942398,68.4978309 C65.7846968,68.6797092 65.559593,68.7893412 65.3191666,68.8013625 C65.0787402,68.8133838 64.8438233,68.7267529 64.6687661,68.5615125 C64.3035848,68.2064914 64.281172,67.6273982 64.6178209,67.2452139 C65.4115949,66.352538 66.1469465,65.4095777 66.8192935,64.422209 C66.9592043,64.2365571 67.1672876,64.1142649 67.3975564,64.0823594 C67.6278252,64.050454 67.8613201,64.1115623 68.0464377,64.2521791 C68.4376509,64.5450914 68.5423881,65.0872441 68.2884279,65.504796 C67.5757853,66.5549513 66.791935,67.5549775 65.942398,68.4978309 L65.942398,68.4978309 Z M60.4683284,73.6133731 C60.2797259,73.7515099 60.0439406,73.8089936 59.8129243,73.7731586 C59.581908,73.7373236 59.3746176,73.6111105 59.2367264,73.4223284 C58.9453671,73.0188249 59.0049518,72.4605963 59.3749154,72.1276816 C60.3492438,71.3635025 61.2598905,70.5783085 62.102398,69.7924776 C62.280535,69.630345 62.5170524,69.5478096 62.7573865,69.563912 C62.9977206,69.5800144 63.2211137,69.6933638 63.3760299,69.877811 C63.7071741,70.2649951 63.6753334,70.8432239 63.3059801,71.1934726 C62.3942764,72.0393477 61.4475638,72.8466879 60.4683284,73.6133731 L60.4683284,73.6133731 Z M54.3950149,77.8590249 C54.1904902,77.9817576 53.9444715,78.0149156 53.7147516,77.9507097 C53.4850316,77.8865037 53.2918571,77.7305927 53.180607,77.519602 C52.93143,77.0849765 53.0558533,76.5319837 53.4671741,76.2459701 C54.484806,75.6301691 55.4865174,74.9723383 56.4729453,74.2718408 C56.6718443,74.137308 56.916524,74.0885002 57.1518183,74.1364216 C57.3871127,74.1843431 57.5932131,74.3249595 57.7236518,74.5265671 C58.0024113,74.9612764 57.8944018,75.5378853 57.477204,75.8422289 C56.4665771,76.5427264 55.439393,77.201194 54.3950149,77.8590249 L54.3950149,77.8590249 Z M48.0058408,81.4678608 C47.7950843,81.5764016 47.5492876,81.5947109 47.324776,81.5185931 C47.1002644,81.4424752 46.9162841,81.2784554 46.814995,81.0641194 C46.5858114,80.6048487 46.7541426,80.0465364 47.198995,79.7904875 C48.2695854,79.2529338 49.3255923,78.6868139 50.3658806,78.0927364 C50.5753349,77.9810128 50.8210212,77.9585741 51.0472489,78.0305066 C51.2734766,78.1024391 51.4610864,78.2626507 51.5675523,78.4748259 C51.80122,78.9160382 51.6538145,79.462829 51.2300397,79.726806 C50.1646467,80.3215921 49.0903382,80.9157414 48.0058407,81.4678608 L48.0058408,81.4678608 Z M3.25232838,31.9649751 C1.49380976,31.9649751 0.06824875,30.5394141 0.06824875,28.7808955 C0.06824875,27.0223769 1.49380976,25.5968159 3.25232838,25.5968159 C5.01084699,25.5968159 6.436408,27.0223769 6.436408,28.7808955 C6.436408,30.5394141 5.01084699,31.9649751 3.25232838,31.9649751 L3.25232838,31.9649751 Z" id="形状" fill="#C5CAD2"></path>
            </g>
        </g>
    </g>
</svg>