<?xml version="1.0" encoding="UTF-8"?>
<svg width="20px" height="20px" viewBox="0 0 20 20" version="1.1" xmlns="http://www.w3.org/2000/svg" xmlns:xlink="http://www.w3.org/1999/xlink">
    <!-- Generator: Sketch 55.1 (78136) - https://sketchapp.com -->
    <title>icon_eos</title>
    <desc>Created with Sketch.</desc>
    <g id="页面-1" stroke="none" stroke-width="1" fill="none" fill-rule="evenodd">
        <g id="我的账户" transform="translate(-20.000000, -57.000000)">
            <g id="icon_eos" transform="translate(20.000000, 57.000000)">
                <circle id="椭圆形" fill="#333333" cx="10" cy="10" r="10"></circle>
                <path d="M10.4876211,14.2030913 L11.8348436,9.97132172 L9.63631482,6.15513765 L7.47022332,9.91512173 L8.80577472,14.2030913 L10.4876211,14.2030913 Z M10.7290339,14.2030913 L14.2727348,14.2030913 L11.9902478,10.2411237 L10.7290339,14.2030913 Z M9.77978513,3 L9.75165886,5.89458841 L11.9292637,9.67455005 L12.7223722,7.18340287 L9.77978513,3 Z M10.4144402,14.4329907 L8.87737843,14.4329907 L9.63752399,16.8735106 L10.4144402,14.4329907 Z M14.061078,14.4329907 L10.6557479,14.4329907 L9.83898176,16.9984754 L14.061078,14.4329907 Z M8.63659646,14.4329907 L5.21165682,14.4329907 L9.4361188,17 L8.63659646,14.4329907 Z M5,14.2030913 L8.56494016,14.2030913 L7.31392533,10.1865009 L5,14.2030913 Z M12.0847206,9.94435203 L14.1910897,13.6006632 L12.830619,7.60151183 L12.0847206,9.94435203 Z M7.37711746,9.61608944 L9.5217068,5.89353696 L9.54972794,3.00683443 L6.60766657,7.14581354 L7.37711746,9.61608944 Z M5.09005667,13.5859429 L7.22076688,9.88741602 L6.4967912,7.56313392 L5.09005667,13.5859429 Z" id="形状" fill="#FFFFFF" fill-rule="nonzero"></path>
            </g>
        </g>
    </g>
</svg>