<?xml version="1.0" encoding="UTF-8"?>
<svg width="14px" height="14px" viewBox="0 0 14 14" version="1.1" xmlns="http://www.w3.org/2000/svg" xmlns:xlink="http://www.w3.org/1999/xlink">
    <!-- Generator: Sketch 52.2 (67145) - http://www.bohemiancoding.com/sketch -->
    <title>脸盘子</title>
    <desc>Created with Sketch.</desc>
    <g id="Page-1" stroke="none" stroke-width="1" fill="none" fill-rule="evenodd" opacity="0.447684152">
        <g id="文章详情" transform="translate(-20.000000, -133.000000)" fill="#000000" fill-rule="nonzero">
            <g id="脸盘子" transform="translate(20.000000, 133.000000)">
                <path d="M4.9,6.82499999 C4.41675084,6.82499999 4.025,7.21675084 4.025,7.7 C4.025,8.18324915 4.41675084,8.575 4.9,8.575 C5.38324916,8.575 5.775,8.18324915 5.775,7.7 C5.775,7.21675084 5.38324916,6.82499999 4.9,6.82499999 Z M9.1,6.82499999 C8.61675084,6.82499999 8.225,7.21675084 8.225,7.7 C8.225,8.18324915 8.61675084,8.575 9.1,8.575 C9.58324916,8.575 9.975,8.18324915 9.975,7.7 C9.975,7.21675084 9.58324916,6.82499999 9.1,6.82499999 Z M7,0 C3.13250001,0 0,3.13250001 0,7 C0,10.8675 3.13249999,14 7,14 C10.8675,14 14,10.8675 14,7 C14,3.13249999 10.8675,0 7,0 Z M7,12.6 C3.913,12.6 1.40000001,10.087 1.40000001,7 C1.40000001,6.79700001 1.414,6.59750001 1.435,6.4015 C3.0835,5.67 4.3995,4.31900001 5.082,2.6425 C6.349,4.4275 8.43149999,5.60000001 10.7905,5.60000001 C11.333,5.60000001 11.8615,5.53350001 12.3655,5.4145 C12.516,5.9185 12.6,6.45050001 12.6,7 C12.6,10.087 10.087,12.6 7,12.6 Z" id="形状"></path>
            </g>
        </g>
    </g>
</svg>