<?xml version="1.0" encoding="UTF-8"?>
<svg width="25px" height="20px" viewBox="0 0 25 20" version="1.1" xmlns="http://www.w3.org/2000/svg" xmlns:xlink="http://www.w3.org/1999/xlink">
    <!-- Generator: Sketch 55.1 (78136) - https://sketchapp.com -->
    <title>tag</title>
    <desc>Created with Sketch.</desc>
    <g id="Page-1" stroke="none" stroke-width="1" fill="none" fill-rule="evenodd">
        <g id="专题页_点击标签后进入" transform="translate(-123.000000, -79.000000)" fill="#FFFFFF" fill-rule="nonzero">
            <g id="tag" transform="translate(123.000000, 79.000000)">
                <path d="M19.28,11.4133334 C19.28,10.9688889 19.1288889,10.5866667 18.8177778,10.2488889 L9.71555555,1.16444445 C9.39555555,0.844444453 8.95111109,0.568888906 8.41777776,0.337777786 C7.86666664,0.106666667 7.37777776,0 6.93333331,0 L1.63555555,0 C1.19111109,0 0.80888888,0.168888906 0.48888888,0.488888906 C0.16888888,0.808888906 0,1.19111112 0,1.63555557 L0,6.91555557 C0,7.36000003 0.106666667,7.86666669 0.337777786,8.40000003 C0.568888906,8.95111115 0.826666667,9.37777781 1.16444445,9.69777781 L10.2666667,18.8 C10.5866667,19.12 10.9688889,19.2622222 11.4133333,19.2622222 C11.8577778,19.2622222 12.24,19.1111111 12.5777778,18.8 L18.8177778,12.56 C19.1111111,12.24 19.28,11.8577778 19.28,11.4133334 L19.28,11.4133334 L19.28,11.4133334 Z M5.21777779,5.23555557 C4.89777779,5.55555557 4.51555557,5.70666669 4.07111112,5.70666669 C3.62666667,5.70666669 3.24444445,5.55555557 2.92444445,5.23555557 C2.60444445,4.91555557 2.45333333,4.53333336 2.45333333,4.08888891 C2.45333333,3.64444445 2.60444445,3.26222224 2.92444445,2.94222224 C3.24444445,2.62222224 3.62666667,2.47111112 4.07111112,2.47111112 C4.51555557,2.47111112 4.89777779,2.62222224 5.21777779,2.94222224 C5.53777779,3.26222224 5.68,3.64444445 5.68,4.08888891 C5.70666667,4.54222224 5.53777779,4.91555557 5.21777779,5.23555557 L5.21777779,5.23555557 L5.21777779,5.23555557 Z M23.6977778,10.24 L14.5955555,1.16444445 C14.2755555,0.844444453 13.8311111,0.568888906 13.2977778,0.337777786 C12.7466667,0.106666693 12.2577778,2.60416666e-08 11.8133333,2.60416666e-08 L8.95111112,2.60416666e-08 C9.39555557,2.60416666e-08 9.90222224,0.106666693 10.4355556,0.337777812 C10.9866667,0.568888932 11.4133334,0.826666693 11.7333334,1.16444448 L20.8355556,10.24 C21.1555556,10.5777778 21.3066667,10.96 21.3066667,11.4044445 C21.3066667,11.8488889 21.1555556,12.2311111 20.8355556,12.5511111 L14.8711111,18.5333334 C15.1288889,18.7911111 15.36,18.9777778 15.5466667,19.1022222 C15.7333333,19.2266667 15.9911111,19.2711111 16.2933333,19.2711111 C16.7377778,19.2711111 17.12,19.12 17.4577778,18.8 L23.6977778,12.5422222 C24.0177778,12.2222222 24.16,11.84 24.16,11.3955555 C24.16,10.9511111 24.0088889,10.5866667 23.6977778,10.24 L23.6977778,10.24 L23.6977778,10.24 Z" id="形状"></path>
            </g>
        </g>
    </g>
</svg>