<?xml version="1.0" encoding="UTF-8"?>
<svg width="13px" height="12px" viewBox="0 0 13 12" version="1.1" xmlns="http://www.w3.org/2000/svg" xmlns:xlink="http://www.w3.org/1999/xlink">
    <!-- Generator: Sketch 52.2 (67145) - http://www.bohemiancoding.com/sketch -->
    <title>分组 3 copy</title>
    <desc>Created with Sketch.</desc>
    <g id="Page-1" stroke="none" stroke-width="1" fill="none" fill-rule="evenodd" opacity="0.59828404">
        <g id="文章详情" transform="translate(-43.000000, -980.000000)" fill="#000000">
            <g id="分组-4" transform="translate(38.000000, 913.000000)">
                <g id="分组-3-copy" transform="translate(2.000000, 65.000000)">
                    <path d="M7.76137338,11.7851339 C10.7989395,11.7851339 13.2613734,9.32270001 13.2613734,6.28513388 L2.26137338,6.28513388 L0.00288263175,6.29413953 C2.11205956,8.36604274 3.3355242,9.58950738 3.67327657,9.96453346 C4.67999121,11.0823472 6.13860999,11.7851339 7.76137338,11.7851339 Z" id="椭圆形" transform="translate(6.632128, 9.035134) rotate(45.000000) translate(-6.632128, -9.035134) "></path>
                    <path d="M14.3583675,9.38212801 C17.3959336,9.38212801 19.8583675,6.91969413 19.8583675,3.88212801 L8.85836751,3.88212801 L6.59987676,3.89113365 C8.70905368,5.96303686 9.93251833,7.18650151 10.2702707,7.56152759 C11.2769853,8.67934136 12.7356041,9.38212801 14.3583675,9.38212801 Z" id="椭圆形" transform="translate(13.229122, 6.632128) scale(-1, -1) rotate(45.000000) translate(-13.229122, -6.632128) "></path>
                </g>
            </g>
        </g>
    </g>
</svg>