<?xml version="1.0" encoding="UTF-8"?>
<svg width="26px" height="26px" viewBox="0 0 26 26" version="1.1" xmlns="http://www.w3.org/2000/svg" xmlns:xlink="http://www.w3.org/1999/xlink">
    <!-- Generator: Sketch 52.2 (67145) - http://www.bohemiancoding.com/sketch -->
    <title>选择 copy</title>
    <desc>Created with Sketch.</desc>
    <g id="Page-1" stroke="none" stroke-width="1" fill="none" fill-rule="evenodd">
        <g id="登录选择弹窗" transform="translate(-107.000000, -325.000000)" fill-rule="nonzero">
            <g id="选择-copy" transform="translate(107.000000, 325.000000)">
                <path d="M13,0 C5.821979,0 0,5.821979 0,13 C0,20.178021 5.821979,26 13,26 C20.178021,26 26,20.178021 26,13 C26,5.821979 20.178021,0 13,0 Z M13,24.5539424 C6.61760107,24.5539424 1.44605763,19.3823989 1.44605763,13 C1.44605763,6.61760107 6.61760107,1.44605763 13,1.44605763 C19.3823989,1.44605763 24.5539424,6.61760107 24.5539424,13 C24.5539424,19.3853027 19.3853027,24.5539424 13,24.5539424 Z" id="形状" fill="#DBDBDB"></path>
                <path d="M12.9956342,0 C5.81820217,0 0,5.81529162 0,12.9956342 C0,20.1730662 5.81529162,26 12.9956342,26 C20.1730662,26 26,20.1730662 26,12.9956342 C25.9970894,5.81529162 20.1730662,0 12.9956342,0 Z M20.4321057,9.63976268 L11.7906638,18.2899362 L11.6509571,18.4296429 C11.4093809,18.6712191 11.0106347,18.6712191 10.7719691,18.4296429 L10.6322624,18.2899362 L6.37120788,14.0317922 C6.1296317,13.7902161 6.1296317,13.3914698 6.37120788,13.1528042 L6.51091459,13.0130975 C6.76122243,12.7715213 7.15123699,12.7715213 7.39863428,13.0130975 L11.2143737,16.8288369 L19.4105004,8.62397851 C19.6520766,8.38240233 20.0508228,8.38240233 20.2894884,8.62397851 L20.4291951,8.76368521 C20.6824135,9.00235083 20.6824135,9.40109706 20.4321057,9.63976268 Z" id="形状" fill="#478970"></path>
            </g>
        </g>
    </g>
</svg>