<?xml version="1.0" encoding="UTF-8"?>
<svg width="20px" height="18px" viewBox="0 0 20 18" version="1.1" xmlns="http://www.w3.org/2000/svg" xmlns:xlink="http://www.w3.org/1999/xlink">
    <!-- Generator: Sketch 55.1 (78136) - https://sketchapp.com -->
    <title>logo</title>
    <desc>Created with Sketch.</desc>
    <g id="页面-1" stroke="none" stroke-width="1" fill="none" fill-rule="evenodd">
        <g id="侧边栏" transform="translate(-19.000000, -688.000000)">
            <g id="logo" transform="translate(19.000000, 688.000000)">
                <path d="M19.15,9.94609375 L19.15,1.80133594 C19.15,1.21549884 18.6024111,0.65 17.9791071,0.65 L1.82089286,0.65 C1.19758889,0.65 0.65,1.21549884 0.65,1.80133594 L0.65,9.94609375 L19.15,9.94609375 Z" id="路径" stroke="#000000" stroke-width="1.3" fill-rule="nonzero"></path>
                <path d="M4.81056152,2.03862305 C5.1336481,2.03862305 5.39556152,2.30053647 5.39556152,2.62362305 L5.39556152,7.75362305 C5.39556152,8.07670963 5.1336481,8.33862305 4.81056152,8.33862305 C4.48747494,8.33862305 4.22556152,8.07670963 4.22556152,7.75362305 L4.22556152,2.62362305 C4.22556152,2.30053647 4.48747494,2.03862305 4.81056152,2.03862305 Z" id="矩形" fill="#000000" transform="translate(4.810562, 5.188623) rotate(-330.000000) translate(-4.810562, -5.188623) "></path>
                <path d="M7.785,2.25 C8.10808658,2.25 8.37,2.51191342 8.37,2.835 L8.37,7.965 C8.37,8.28808658 8.10808658,8.55 7.785,8.55 C7.46191342,8.55 7.2,8.28808658 7.2,7.965 L7.2,2.835 C7.2,2.51191342 7.46191342,2.25 7.785,2.25 Z" id="矩形备份" fill="#000000" transform="translate(7.785000, 5.400000) rotate(-330.000000) translate(-7.785000, -5.400000) "></path>
                <path d="M19.2585937,11.7 L0.54140625,11.7 C0.2475,11.7 0,11.9828571 0,12.31875 C0,12.6546429 0.2475,12.9375 0.54140625,12.9375 L19.2585937,12.9375 C19.5525,12.9375 19.8,12.6546429 19.8,12.31875 C19.8,11.9828571 19.5525,11.7 19.2585937,11.7 Z" id="路径" fill="#000000" fill-rule="nonzero"></path>
                <path d="M4.1765625,16.340625 C4.1765625,16.340625 4.1765625,17.1140625 4.7942728,17.1140625 C5.4140625,17.1140625 5.4140625,16.340625 5.4140625,16.3096875 L5.4140625,12.8601563 L4.1765625,12.8601563 L4.1765625,16.340625 Z" id="路径" fill="#000000" fill-rule="nonzero"></path>
                <path d="M14.3859375,16.4179688 C14.3859375,16.4179688 14.3859375,17.1914062 15.0036478,17.1914062 C15.6234375,17.1914062 15.6234375,16.4179688 15.6234375,16.3870312 L15.6234375,12.9375 L14.3859375,12.9375 L14.3859375,16.4179688 Z" id="路径备份" fill="#000000" fill-rule="nonzero"></path>
            </g>
        </g>
    </g>
</svg>