<?xml version="1.0" encoding="UTF-8"?>
<svg width="114px" height="30px" viewBox="0 0 114 30" version="1.1" xmlns="http://www.w3.org/2000/svg" xmlns:xlink="http://www.w3.org/1999/xlink">
    <!-- Generator: Sketch 55.1 (78136) - https://sketchapp.com -->
    <title>分组 9</title>
    <desc>Created with Sketch.</desc>
    <g id="Page-1" stroke="none" stroke-width="1" fill="none" fill-rule="evenodd">
        <g id="登录" transform="translate(-130.000000, -554.000000)">
            <g id="分组-9" transform="translate(130.000000, 554.000000)">
                <rect id="矩形" fill="#882592" x="0" y="0" width="114" height="30" rx="6"></rect>
                <text id="GitHub登录" font-family="PingFangSC-Medium, PingFang SC" font-size="12" font-weight="400" letter-spacing="1.129413" fill="#FFFFFF">
                    <tspan x="31.230348" y="19">GitHub登录</tspan>
                </text>
                <g id="github" transform="translate(10.000000, 7.000000)" fill="#FFFFFF" fill-rule="nonzero">
                    <path d="M8.5,0 C3.805875,0 0,3.67220643 0,8.20261104 C0,11.8266271 2.43578125,14.9015809 5.8129375,15.9858636 C6.2379375,16.0617377 6.394125,15.8079695 6.394125,15.5911129 C6.394125,15.3957883 6.38615625,14.74932 6.3824375,14.0638893 C4.0173125,14.5601473 3.51846875,13.0959812 3.51846875,13.0959812 C3.13171875,12.1480669 2.57496875,11.8958367 2.57496875,11.8958367 C1.80359375,11.3867621 2.63340625,11.3970154 2.63340625,11.3970154 C3.48659375,11.4549463 3.93603125,12.242397 3.93603125,12.242397 C4.694125,13.4963711 5.9245,13.1339183 6.40953125,12.924239 C6.4855,12.3941453 6.70596875,12.0322051 6.94928125,11.8271398 C5.06121875,11.6200239 3.07646875,10.9161373 3.07646875,7.77351195 C3.07646875,6.87788936 3.4085,6.14631898 3.9525,5.57162355 C3.8643125,5.36502028 3.5731875,4.53091727 4.03484375,3.4010076 C4.03484375,3.4010076 4.74884375,3.18056243 6.372875,4.24177523 C7.05075,4.0597798 7.77803125,3.96903842 8.50053125,3.96544977 C9.2225,3.96852575 9.9503125,4.0597798 10.6297813,4.24177523 C12.2522187,3.18056243 12.964625,3.4010076 12.964625,3.4010076 C13.4273437,4.53091727 13.1362187,5.36502028 13.0480312,5.57162355 C13.5930937,6.14580632 13.923,6.87788936 13.923,7.77351195 C13.923,10.9238272 11.9345312,11.6174605 10.0416875,11.8209878 C10.346625,12.0757814 10.6180937,12.5746027 10.6180937,13.3400089 C10.6180937,14.4376208 10.608,15.3209394 10.608,15.5911129 C10.608,15.8095074 10.761,16.0653264 11.1918438,15.9848383 C14.5674062,14.8990176 17,11.8256018 17,8.20261104 C17,3.67220643 13.194125,0 8.5,0 Z" id="路径"></path>
                </g>
            </g>
        </g>
    </g>
</svg>