<svg width="14" height="14" xmlns="http://www.w3.org/2000/svg"><g><path d="M12.548.002H4.686c-.801 0-1.451.65-1.452 1.451v1.768H1.25C.56 3.22 0 3.78 0 4.47v8.28c0 .691.56 1.25 1.25 1.25h8.281c.69 0 1.25-.559 1.25-1.25v-1.968h1.767c.802 0 1.452-.65 1.452-1.452V1.453c0-.801-.65-1.451-1.452-1.451zM9.531 13.064H1.25a.312.312 0 0 1-.313-.312V4.47c0-.173.14-.313.313-.313h8.281c.173 0 .313.14.313.313v8.28c0 .173-.14.313-.313.313zm3.547-3.733c0 .284-.23.515-.514.515h-1.767V4.47c0-.69-.56-1.25-1.25-1.25H4.172V1.453c0-.284.23-.514.514-.514h7.878c.284 0 .514.23.514.514v7.878z"/><path d="M7.475 6.736H3.328a.469.469 0 1 0-.01.938h4.147a.469.469 0 1 0 .01-.938zm0 2.813H3.328a.469.469 0 1 0-.01.938h4.147a.469.469 0 1 0 .01-.938z"/></g></svg>