<?xml version="1.0" encoding="UTF-8"?>
<svg width="9px" height="17px" viewBox="0 0 9 17" version="1.1" xmlns="http://www.w3.org/2000/svg" xmlns:xlink="http://www.w3.org/1999/xlink">
    <!-- Generator: Sketch 55.1 (78136) - https://sketchapp.com -->
    <title>back</title>
    <desc>Created with Sketch.</desc>
    <defs>
        <polygon id="path-1" points="4.58143765e-17 0 9 0 9 16.137931 4.58143765e-17 16.137931"></polygon>
    </defs>
    <g id="页面-1" stroke="none" stroke-width="1" fill="none" fill-rule="evenodd">
        <g id="文章详情_上拉" transform="translate(-20.000000, -14.000000)">
            <g id="back" transform="translate(20.000000, 14.000000)">
                <mask id="mask-2" fill="white">
                    <use xlink:href="#path-1"></use>
                </mask>
                <g id="Clip-2"></g>
                <path d="M7.53307512,0.248188697 C7.86738588,-0.0814951746 8.41073646,-0.0828768349 8.74691903,0.244951664 C9.0831016,0.572799902 9.0845105,1.1058839 8.75021987,1.43533091 L1.4669753,8.59659437 C1.13266455,8.92629798 0.58923346,8.9277586 0.253050888,8.59983141 C-0.0830511755,8.27208186 -0.0845405792,7.73899786 0.249750047,7.40931399 L7.53307512,0.248188697 Z" id="Fill-1" fill="#ffffff" mask="url(#mask-2)"></path>
                <path d="M8.75022099,14.7023726 C9.08451012,15.0320589 9.08310123,15.5651467 8.74692017,15.8929776 C8.41073911,16.2208085 7.86739097,16.2194268 7.53308172,15.8897405 L0.24970889,8.72856358 C-0.0845802337,8.39887733 -0.0830103287,7.86578949 0.253090223,7.53795862 C0.589271284,7.21012776 1.13269993,7.21174628 1.46700918,7.54127463 L8.75022099,14.7023726 Z" id="Fill-3" fill="#ffffff" mask="url(#mask-2)"></path>
            </g>
        </g>
    </g>
</svg>