<?xml version="1.0" encoding="UTF-8"?>
<svg width="335px" height="60px" viewBox="0 0 335 60" version="1.1" xmlns="http://www.w3.org/2000/svg" xmlns:xlink="http://www.w3.org/1999/xlink">
    <!-- Generator: Sketch 55.1 (78136) - https://sketchapp.com -->
    <title>bought_alert</title>
    <desc>Created with Sketch.</desc>
    <defs>
        <rect id="path-1" x="0" y="0" width="335" height="60" rx="6"></rect>
    </defs>
    <g id="页面-1" stroke="none" stroke-width="1" fill="none" fill-rule="evenodd">
        <g id="商品详情_购买后" transform="translate(-20.000000, -1099.000000)">
            <g id="bought_alert" transform="translate(20.000000, 1099.000000)">
                <mask id="mask-2" fill="white">
                    <use xlink:href="#path-1"></use>
                </mask>
                <use id="矩形" fill="#1C9CFE" xlink:href="#path-1"></use>
                <g id="iocn_yigoumaide" mask="url(#mask-2)" fill="#5BB8FF" fill-rule="nonzero">
                    <g transform="translate(25.500000, 30.500000) rotate(10.000000) translate(-25.500000, -30.500000) translate(-16.000000, -12.000000)" id="形状">
                        <path d="M47.0023044,43.5011161 L39.4379853,51.1328125 L36.5806735,48.2455357 C35.2563779,46.9107143 33.1115948,46.9107143 31.7872991,48.2455357 C30.4630035,49.5803571 30.4630035,51.749442 31.7872991,53.0842634 L37.0412981,58.3872768 C38.3655938,59.7220982 40.5103769,59.7220982 41.8346725,58.3872768 L51.7956789,48.3398438 C53.1199745,47.0050223 53.1199745,44.8359375 51.7956789,43.5011161 C50.4713832,42.1662946 48.3266001,42.1662946 47.0023044,43.5011161 Z M51.6733255,27.1060268 C51.6733255,21.4402902 47.1246578,16.8409598 41.5035986,16.8409598 C35.8825394,16.8409598 31.3338718,21.4330357 31.3338718,27.1060268 L51.6733255,27.1060268 Z M24.5612512,27.1060268 C24.5612512,17.6607143 32.1471621,10 41.5035986,10 C50.8600352,10 58.4459461,17.6607143 58.4459461,27.1060268 L62.224507,27.1060268 C64.8730983,27.1060268 67.0826567,29.1590402 67.2913773,31.828683 L69.9831521,65.8231027 C70.1774781,68.2315848 68.673251,70.4514509 66.3773254,71.1478795 C57.9061517,73.7159598 49.6077121,75 41.5035986,75 C33.3994851,75 25.1010456,73.7159598 16.6226746,71.1478795 C14.326749,70.4514509 12.8225219,68.2315848 13.0168479,65.8231027 L15.7086227,31.828683 C15.9173433,29.1590402 18.1269017,27.1060268 20.775493,27.1060268 L24.5612512,27.1060268 Z" transform="translate(41.500000, 42.500000) rotate(-30.000000) translate(-41.500000, -42.500000) "></path>
                    </g>
                </g>
            </g>
        </g>
    </g>
</svg>