<?xml version="1.0" encoding="UTF-8"?>
<svg width="20px" height="19px" viewBox="0 0 20 19" version="1.1" xmlns="http://www.w3.org/2000/svg" xmlns:xlink="http://www.w3.org/1999/xlink">
    <!-- Generator: Sketch 55.1 (78136) - https://sketchapp.com -->
    <title>caogaoxiang-2</title>
    <desc>Created with Sketch.</desc>
    <g id="页面-1" stroke="none" stroke-width="1" fill="none" fill-rule="evenodd" stroke-linejoin="round">
        <g id="侧边栏图标" transform="translate(-9.000000, -220.000000)" fill="#1C9CFE" fill-rule="nonzero" stroke="#1C9CFE" stroke-width="0.2">
            <g id="caogaoxiang-2" transform="translate(10.000000, 221.000000)">
                <path d="M16.9790105,16.6581065 L1.02098951,16.6581065 L1.02098951,7.32977067 L8.74812593,11.8185263 C8.75712143,11.8275218 8.76611693,11.8275218 8.77511245,11.8275218 C8.78410795,11.8365173 8.80209895,11.8365173 8.81109445,11.8455128 C8.82908545,11.8545083 8.84707646,11.8635038 8.86506746,11.8635038 L8.90104948,11.8724993 C8.9370315,11.8814948 8.9730135,11.8814948 9.0089955,11.8814948 L9.05397302,11.8814948 C9.07196402,11.8814948 9.08995504,11.8724993 9.10794604,11.8724993 C9.11694154,11.8724993 9.13493254,11.8635038 9.14392804,11.8635038 C9.16191904,11.8545083 9.17991005,11.8455128 9.19790105,11.8455128 C9.20689655,11.8365173 9.22488755,11.8365173 9.23388305,11.8275218 C9.24287855,11.8275218 9.25187405,11.8185263 9.26086957,11.8185263 L16.9790105,7.32977067 L16.9790105,16.6581065 Z M2.28935533,6.89798656 L1.09295353,6.20533288 L2.28935533,5.51267921 L2.28935533,6.89798656 L2.28935533,6.89798656 Z M3.62968516,1.02392358 L14.3703148,1.02392358 C14.6221889,1.02392358 14.7031484,1.1048831 14.7031484,1.34776167 L14.7031484,7.4916897 L9,10.8020345 L3.30584708,7.4916897 L3.30584708,1.34776167 C3.30584708,1.0958876 3.37781109,1.02392358 3.62968516,1.02392358 Z M15.7106447,5.51267921 L16.9070465,6.20533288 L15.7106447,6.89798656 L15.7106447,5.51267921 Z M16.9790105,5.0808951 L15.7106447,4.34326391 L15.7106447,0.520175461 C15.7106447,0.385242926 15.6566717,0.250310391 15.5577211,0.160355373 C15.4587706,0.0614048555 15.3328336,0.00743183789 15.197901,0.00743183789 L2.80209895,0.00743183789 C2.66716642,0.00743183789 2.53223388,0.0614048555 2.44227887,0.160355373 C2.34332835,0.259305891 2.28935533,0.385242926 2.28935533,0.520175461 L2.28935533,4.33426841 L1.02098951,5.0808951 L0.00449775,5.58464323 L0.00449775,17.1708501 C0.00449775,17.2428141 0.02248875,17.3057827 0.0404797676,17.3687512 C0.0404797676,17.3777467 0.0494752676,17.3777467 0.0494752676,17.3867422 C0.130434785,17.5576567 0.301349338,17.6745983 0.490254873,17.6835938 L17.4827586,17.6835938 C17.7616192,17.6835938 17.9865068,17.4587062 17.9865068,17.1798456 L17.9865068,5.62962074 L16.9790105,5.0808951 Z M6.1256,7.371 C5.7796,7.371 5.5,7.0914 5.5,6.7468 C5.5,6.4022 5.7796,6.1226 6.1256,6.1226 L9.7506,6.1226 C10.0952,6.1226 10.3748,6.4022 10.3748,6.7468 C10.3748,7.0914 10.095,7.371 9.7504,7.371 L6.1256,7.371 Z M11.7504,4.2484 L6.1256,4.2484 C5.7796,4.2484 5.5,3.9688 5.5,3.6242 C5.5,3.2796 5.7796,3 6.1256,3 L11.7506,3 C12.0952,3 12.3748,3.2796 12.3748,3.6242 C12.3748,3.9688 12.095,4.2484 11.7504,4.2484 L11.7504,4.2484 Z" id="形状"></path>
            </g>
        </g>
    </g>
</svg>