<?xml version="1.0" encoding="UTF-8"?>
<svg width="21px" height="21px" viewBox="0 0 21 21" version="1.1" xmlns="http://www.w3.org/2000/svg" xmlns:xlink="http://www.w3.org/1999/xlink">
    <!-- Generator: Sketch 55.1 (78136) - https://sketchapp.com -->
    <title>gonglue2</title>
    <desc>Created with Sketch.</desc>
    <g id="页面-1" stroke="none" stroke-width="1" fill="none" fill-rule="evenodd">
        <g id="侧边栏图标" transform="translate(-9.000000, -324.000000)" fill-rule="nonzero" stroke="#1C9CFE" stroke-width="1.3">
            <g id="gonglue2" transform="translate(10.000000, 325.000000)">
                <path d="M15.1624351,0.00569054948 L3.79828377,0.00569054948 C1.71487184,0.00569054948 0.0102530977,1.6987044 0.0102530977,3.76795014 L0.0102530977,15.0542345 C0.0102530977,17.1234802 1.71487679,18.8164694 3.79828377,18.8164694 L15.1624351,18.8164694 C17.2458718,18.8164694 18.9504559,17.1234802 18.9504559,15.0542345 L18.9504559,3.76795017 C18.9504559,1.6987044 17.2458718,0.00569054948 15.1624351,0.00569054948 Z M6.63932653,0.00569054948 L12.321422,0.00569054948 L12.321422,4.70850516 L9.48037921,2.78035256 L6.63932653,4.61443483 L6.63932653,0.00569054948 Z M13.1737116,10.1162614 L11.7531877,11.4801156 C11.6584499,11.5741365 11.6111799,11.6681821 11.6584499,11.8092752 L11.9899532,13.690405 C12.0372975,14.0195894 11.7058139,14.2547281 11.4217289,14.0666617 L9.6698005,13.1730849 C9.57503793,13.1260869 9.43300531,13.1260869 9.29089854,13.1730849 L7.53899493,14.113635 C7.25488026,14.2547282 6.92343625,14.0195894 6.97078044,13.7374526 L7.30222448,11.8563228 C7.30222448,11.7152296 7.30222448,11.621184 7.20752123,11.5271631 L5.78700231,10.1633089 C5.55025657,9.92814543 5.69232875,9.55239809 5.97640384,9.50537529 L7.91775842,9.22320384 C8.05985532,9.22320384 8.15451898,9.12912361 8.20188296,9.03510273 L9.05420223,7.2950809 C9.19623485,7.01286989 9.62240683,7.01286989 9.76446417,7.2950809 L10.6167834,9.03510273 C10.6641524,9.12912361 10.806185,9.22320384 10.9008734,9.22320384 L12.8422774,9.50537529 C13.2684,9.50537529 13.3631132,9.88114732 13.1737116,10.1162614 Z" id="形状"></path>
            </g>
        </g>
    </g>
</svg>