<?xml version="1.0" encoding="UTF-8"?>
<svg width="17px" height="17px" viewBox="0 0 17 17" version="1.1" xmlns="http://www.w3.org/2000/svg" xmlns:xlink="http://www.w3.org/1999/xlink">
    <!-- Generator: Sketch 55.1 (78136) - https://sketchapp.com -->
    <title>gonglue_innovationbar</title>
    <desc>Created with Sketch.</desc>
    <g id="页面-1" stroke="none" stroke-width="1" fill="none" fill-rule="evenodd">
        <g id="商品详情" transform="translate(-297.000000, -13.000000)" fill="#1C9CFE" fill-rule="nonzero">
            <g id="gonglue_innovationbar" transform="translate(297.000000, 13.000000)">
                <path d="M13.5663893,0.00509154427 L3.39846442,0.00509154427 C1.53435902,0.00509154427 0.00917382422,1.51989341 0.00917382422,3.37132381 L0.00917382422,13.4695782 C0.00917382422,15.3210086 1.53436344,16.8357884 3.39846442,16.8357884 L13.5663893,16.8357884 C15.4305168,16.8357884 16.9556711,15.3210086 16.9556711,13.4695782 L16.9556711,3.37132383 C16.9556711,1.51989341 15.4305169,0.00509154427 13.5663893,0.00509154427 Z M5.94045005,0.00509154427 L11.0244302,0.00509154427 L11.0244302,4.21287304 L8.48244456,2.48768387 L5.94045005,4.12870485 L5.94045005,0.00509154427 Z M11.7870051,9.05139175 L10.5160101,10.2716824 C10.4312446,10.3558063 10.3889504,10.4399524 10.4312446,10.5661936 L10.7278529,12.2493098 C10.7702135,12.5438431 10.4736229,12.7542304 10.2194416,12.5859604 L8.65192676,11.7864444 C8.5671392,11.7443935 8.44005738,11.7443935 8.31290922,11.7864444 L6.74541652,12.6279892 C6.49120866,12.7542305 6.19465349,12.5438431 6.23701408,12.2914049 L6.53356927,10.6082888 C6.53356927,10.4820476 6.53356927,10.3979015 6.44883479,10.3137775 L5.17784417,9.09348691 C4.96601904,8.88307749 5.09313625,8.5468825 5.3473087,8.50480947 L7.08431017,8.25234028 C7.21144949,8.25234028 7.29614856,8.16816323 7.33852686,8.08403929 L8.10112831,6.52717765 C8.22821013,6.27467306 8.6095219,6.27467306 8.73662583,6.52717765 L9.49922728,8.08403929 C9.54161001,8.16816323 9.66869181,8.25234028 9.75341301,8.25234028 L11.4904587,8.50480947 C11.8717263,8.50480947 11.9564697,8.84102655 11.7870051,9.05139175 Z" id="形状"></path>
            </g>
        </g>
    </g>
</svg>