<?xml version="1.0" encoding="UTF-8"?>
<svg width="12px" height="13px" viewBox="0 0 12 13" version="1.1" xmlns="http://www.w3.org/2000/svg" xmlns:xlink="http://www.w3.org/1999/xlink">
    <!-- Generator: Sketch 55.1 (78136) - https://sketchapp.com -->
    <title>goumai</title>
    <desc>Created with Sketch.</desc>
    <g id="页面-1" stroke="none" stroke-width="1" fill="none" fill-rule="evenodd">
        <g id="商品详情" transform="translate(-256.000000, -781.000000)" fill="#FFFFFF" fill-rule="nonzero">
            <g id="goumai" transform="translate(256.000000, 781.000000)">
                <path d="M10.8876204,4.14424593 C10.8876204,3.54828741 10.3921181,3.06511111 9.78013593,3.06511111 L8.88095963,3.06511111 C8.86493593,1.37399407 7.47826926,0.00766518519 5.76866333,0.00766518519 C4.05905741,0.00766518519 2.67239074,1.37399407 2.65636704,3.06511111 L1.84593741,3.06511111 C1.23457148,3.06511111 0.739069259,3.54828741 0.739069259,4.14424593 L0.000746296296,11.8775319 C0.000746296296,12.4728741 0.496864815,12.9560504 1.10823074,12.9560504 L10.5184589,12.9560504 C11.1298248,12.9560504 11.6259433,12.4728741 11.6259433,11.8775319 L10.8876204,4.14424593 Z M4.23450846,11.3701896 L5.07613265,8.88779776 L3.81334481,8.88779776 L7.39218117,5.37018963 L6.3396236,8.0603338 L7.81334481,8.0603338 L4.23450846,11.3701896 L4.23450846,11.3701896 Z M3.20610333,3.06511111 C3.22151074,1.67474667 4.36227519,0.552471111 5.76866333,0.552471111 C7.17505148,0.552471111 8.31519963,1.67474667 8.33122333,3.06511111" id="形状"></path>
            </g>
        </g>
    </g>
</svg>