<?xml version="1.0" encoding="UTF-8"?>
<svg width="20px" height="22px" viewBox="0 0 20 22" version="1.1" xmlns="http://www.w3.org/2000/svg" xmlns:xlink="http://www.w3.org/1999/xlink">
    <!-- Generator: Sketch 55.1 (78136) - https://sketchapp.com -->
    <title>goumaijilu2</title>
    <desc>Created with Sketch.</desc>
    <g id="页面-1" stroke="none" stroke-width="1" fill="none" fill-rule="evenodd">
        <g id="侧边栏图标" transform="translate(-9.000000, -273.000000)" fill="#1C9CFE" fill-rule="nonzero" stroke="#1C9CFE" stroke-width="0.3">
            <g id="goumaijilu2" transform="translate(10.000000, 274.000000)">
                <path d="M16.01875,20 L2.01875,20 C0.91875,20 0.01875,19.11 0.01875,18 L0.01875,2 C0.01875,0.9 0.90875,0 2.01875,0 L16.01875,0 C17.11875,0 18.01875,0.89 18.01875,2 L18.01875,18.01 C18.01875,19.11 17.12875,20 16.01875,20 Z M17.01875,2 C17.01875,1.45 16.56875,1 16.01875,1 L2.01875,1 C1.46875,1 1.01875,1.45 1.01875,2 L1.01875,18.01 C1.01875,18.56 1.46875,19.01 2.01875,19.01 L16.01875,19.01 C16.56875,19.01 17.01875,18.56 17.01875,18.01 L17.01875,2 Z M13.93875,5.41 C13.50875,7.74 11.47875,9.5 9.01875,9.5 C6.55875,9.5 4.52875,7.74 4.09875,5.41 C3.75875,5.26 3.51875,4.91 3.51875,4.5 C3.51875,3.95 3.96875,3.5 4.51875,3.5 C5.06875,3.5 5.51875,3.95 5.51875,4.5 C5.51875,4.83 5.34875,5.13 5.09875,5.31 C5.47875,7.14 7.08875,8.5 9.01875,8.5 C10.94875,8.5 12.55875,7.14 12.93875,5.31 C12.68875,5.12 12.51875,4.84 12.51875,4.5 C12.51875,3.95 12.96875,3.5 13.51875,3.5 C14.06875,3.5 14.51875,3.95 14.51875,4.5 C14.51875,4.91 14.27875,5.25 13.93875,5.41 Z" id="形状"></path>
            </g>
        </g>
    </g>
</svg>