<?xml version="1.0" encoding="UTF-8"?>
<svg width="14px" height="10px" viewBox="0 0 14 10" version="1.1" xmlns="http://www.w3.org/2000/svg" xmlns:xlink="http://www.w3.org/1999/xlink">
    <!-- Generator: Sketch 55.1 (78136) - https://sketchapp.com -->
    <title>select</title>
    <desc>Created with Sketch.</desc>
    <g id="页面-1" stroke="none" stroke-width="1" fill="none" fill-rule="evenodd">
        <g id="上传图片后" transform="translate(-338.000000, -782.000000)" fill="#FFFFFF" fill-rule="nonzero">
            <g id="selected" transform="translate(335.000000, 777.000000)">
                <path d="M7.94416778,15 C7.74839488,14.999273 7.56013315,14.918895 7.41721925,14.7750203 L3.28687256,10.6087294 C3.06196571,10.4126279 2.95749685,10.0980577 3.01601098,9.79312783 C3.07452511,9.48819794 3.28625945,9.24378424 3.56498511,9.15942432 C3.84371076,9.0750644 4.14292383,9.16483326 4.34076965,9.3921725 L7.94416778,13.0251781 L15.6934111,5.22588164 C15.8955144,5.02196091 16.1834398,4.94946762 16.4487287,5.03570927 C16.7140176,5.12195092 16.9163663,5.35382537 16.9795519,5.64398774 C17.0427375,5.93415011 16.9571607,6.23851785 16.7550574,6.44243856 L8.46336709,14.7750203 C8.32241562,14.9169551 8.13725854,14.9971874 7.94416778,15 L7.94416778,15 Z" id="select"></path>
            </g>
        </g>
    </g>
</svg>