<?xml version="1.0" encoding="UTF-8"?>
<svg width="21px" height="20px" viewBox="0 0 21 20" version="1.1" xmlns="http://www.w3.org/2000/svg" xmlns:xlink="http://www.w3.org/1999/xlink">
    <!-- Generator: Sketch 55.1 (78136) - https://sketchapp.com -->
    <title>setting</title>
    <desc>Created with Sketch.</desc>
    <g id="页面-1" stroke="none" stroke-width="1" fill="none" fill-rule="evenodd">
        <g id="侧边栏" transform="translate(-235.000000, -20.000000)" fill="#000000" fill-rule="nonzero">
            <g id="setting" transform="translate(235.000000, 20.000000)">
                <path d="M17.2054636,13.963461 C17.9159508,12.7422208 19.2163787,12.1008068 20.4433039,12.2460121 C20.6228088,11.4826067 20.7179147,10.6866782 20.7179147,9.86850697 C20.7179147,9.14674447 20.6439145,8.44229764 20.503281,7.76220171 C19.2608878,7.92654657 17.9367959,7.27916329 17.2215001,6.03812028 C16.4946685,4.77710859 16.6132725,3.27943363 17.412162,2.28661343 C16.3148793,1.26704988 14.9959276,0.48287044 13.5356318,0.014186713 C13.0826293,1.21597931 11.8366829,2.07927546 10.3703704,2.07927546 C8.90405789,2.07927546 7.65808785,1.2159556 7.20510903,0.014186713 C5.75852833,0.478464514 4.45073354,1.25243458 3.35965699,2.25804611 C4.15463799,3.25408782 4.26722537,4.75230759 3.53527718,6.0104531 C2.81488856,7.24872468 1.48795414,7.89075456 0.246129444,7.7211984 C0.0999293056,8.41396722 0.0228260185,9.13222396 0.0228260185,9.86850697 C0.0228260185,10.672134 0.114449815,11.454371 0.287795995,12.2053167 C1.51547919,12.0647779 2.81360942,12.7114743 3.51926433,13.9357701 C4.21267271,15.1388419 4.13673014,16.5574001 3.43455731,17.5473777 C4.53274016,18.5399137 5.84477505,19.3003107 7.29334551,19.7508497 C7.80573292,18.6591573 8.9904941,17.8945912 10.3703704,17.8945912 C11.7502467,17.8945912 12.9350079,18.6591573 13.4473953,19.7508497 C14.8824638,19.3045034 16.1834602,18.5540552 17.2753658,17.5750686 C16.5773857,16.5822958 16.5072466,15.1635954 17.2054636,13.963461 Z M10.3703704,14.3678091 C7.88548919,14.3678091 5.87109199,12.3534119 5.87109199,9.86853067 C5.87109199,7.38364949 7.88548919,5.36925229 10.3703704,5.36925229 C12.8552516,5.36925229 14.8696487,7.38364949 14.8696487,9.86853067 C14.8696487,12.3534119 12.8552516,14.3678091 10.3703704,14.3678091 Z" id="形状"></path>
            </g>
        </g>
    </g>
</svg>