<?xml version="1.0" encoding="UTF-8"?>
<svg width="21px" height="18px" viewBox="0 0 21 18" version="1.1" xmlns="http://www.w3.org/2000/svg" xmlns:xlink="http://www.w3.org/1999/xlink">
    <!-- Generator: Sketch 55.1 (78136) - https://sketchapp.com -->
    <title>shouye</title>
    <desc>Created with Sketch.</desc>
    <g id="页面-1" stroke="none" stroke-width="1" fill="none" fill-rule="evenodd">
        <g id="侧边栏图标" transform="translate(-37.000000, -66.000000)" fill="#000000" fill-rule="nonzero">
            <g id="shouye" transform="translate(37.000000, 66.000000)">
                <path d="M20.315607,10.2117258 C20.1665625,10.2117258 20.0173498,10.1581867 19.8949129,10.0455596 L10.5233263,1.47815088 L1.04526743,10.0455596 C0.789708534,10.2761719 0.395621995,10.2546122 0.16141226,9.99725151 C-0.0676231971,9.73993317 -0.0462109375,9.34313347 0.209390024,9.10731128 L10.1079958,0.164514307 C10.347527,-0.0499176393 10.7096845,-0.0499176393 10.9439363,0.164514307 L20.7307692,9.11269061 C20.9863281,9.34857634 21.00753,9.7453125 20.7733203,10.0026308 C20.656226,10.142091 20.4857692,10.2117258 20.3153966,10.2117258 L20.315607,10.2117258 Z M17.7970162,5.73493741 C17.4509285,5.73493741 17.1740415,5.45084949 17.1740415,5.10767366 L17.1740415,2.50740305 L14.1921845,2.50740305 C13.8460968,2.50740305 13.5692097,2.22873682 13.5692097,1.88013931 C13.5692097,1.53154179 13.8459706,1.25287556 14.1921845,1.25287556 L17.7969742,1.25287556 C18.1430619,1.25287556 18.4199489,1.53154179 18.4199489,1.88013931 L18.4199489,5.1077372 C18.4252494,5.45620764 18.1431881,5.73500094 17.7969742,5.73500094 L17.7970162,5.73493741 Z" id="形状"></path>
                <path d="M17.5414573,17.9749671 L12.6214123,17.9749671 C12.2753245,17.9749671 11.9984375,17.6908156 11.9984375,17.3476398 L11.9984375,12.7798052 L9.0911238,12.7798052 L9.0911238,17.3476398 C9.0911238,17.6961102 8.80897837,17.9749671 8.46814904,17.9749671 L3.47888221,17.9749671 C3.13279447,17.9749671 2.85590745,17.6908156 2.85590745,17.3476398 L2.85590745,9.42359046 C2.85590745,9.07512001 3.13805288,8.79632671 3.47888221,8.79632671 C3.82496995,8.79632671 4.10185697,9.07499294 4.10185697,9.42359046 L4.10185697,16.7204607 L7.84515325,16.7204607 L7.84515325,12.1472468 C7.84515325,11.7987764 8.12191406,11.5199831 8.468128,11.5199831 L12.6213912,11.5199831 C12.967479,11.5199831 13.244366,11.7986493 13.244366,12.1472468 L13.244366,16.7204607 L16.9130349,16.7204607 L16.9130349,9.86861352 C16.9130349,9.52014307 17.1951803,9.24134977 17.5360096,9.24134977 C17.8820974,9.24134977 18.1589844,9.52543769 18.1589844,9.86861352 L18.1589844,17.3477033 C18.1697115,17.6961738 17.8874609,17.9749671 17.5413311,17.9749671 L17.5414573,17.9749671 Z" id="路径"></path>
            </g>
        </g>
    </g>
</svg>