<?xml version="1.0" encoding="UTF-8"?>
<svg width="13px" height="13px" viewBox="0 0 13 13" version="1.1" xmlns="http://www.w3.org/2000/svg" xmlns:xlink="http://www.w3.org/1999/xlink">
    <!-- Generator: Sketch 55.1 (78136) - https://sketchapp.com -->
    <title>touzi</title>
    <desc>Created with Sketch.</desc>
    <g id="页面-1" stroke="none" stroke-width="1" fill="none" fill-rule="evenodd">
        <g id="商品详情" transform="translate(-181.000000, -781.000000)" fill="#FFFFFF" fill-rule="nonzero">
            <g id="touzi" transform="translate(181.000000, 781.000000)">
                <path d="M12.5401564,9.6010198 C12.2439721,9.94900558 11.8735375,10.2722858 11.4299069,10.5617593 L11.417762,10.5697767 L11.4170642,10.5701182 C10.0907303,11.4312635 8.28274239,11.9054345 6.32447239,11.9054345 C4.6512811,11.9054345 3.02911921,11.5432698 1.75627934,10.8858264 C1.03687909,10.5139814 0.453181132,10.0560085 0.0241303069,9.54338344 C0.11863195,10.4766707 0.828173734,11.3910576 2.13058899,12.0639865 C3.33498384,12.6863314 4.83430102,12.9927008 6.32447239,12.9927008 C8.04465468,12.9927008 9.75233572,12.5846883 10.9818815,11.7831243 L10.9843461,11.7817139 C11.9481589,11.1527026 12.458156,10.3821987 12.5401564,9.6010198 Z M11.4299069,8.65903218 L11.417762,8.66694567 L11.4170642,8.66737624 C10.0907303,9.52853637 8.28274239,10.0026035 6.32447239,10.0026035 C4.6512811,10.0026035 3.02911921,9.64052787 1.75627934,8.98299539 C1.03687909,8.61123944 0.453181132,8.15317743 0.0241303069,7.6406415 C0.11863195,8.57394358 0.828173734,9.48831563 2.13058899,10.1612594 C3.33498384,10.7836043 4.83430102,11.0899737 6.32447239,11.0899737 C8.04465468,11.0899737 9.75233572,10.6818721 10.9818815,9.88039723 L10.9843461,9.87889767 C11.9481738,9.24996066 12.458156,8.47944192 12.5401564,7.69818876 C12.2439869,8.04617456 11.8735375,8.36952903 11.4299069,8.65903218 Z M11.4299069,6.7561863 L11.417762,6.76418887 L11.4170642,6.76463428 C10.0907303,7.62569049 8.28274239,8.09984673 6.32447239,8.09984673 C4.6512811,8.09984673 3.02911921,7.73779562 1.75627934,7.08023859 C1.03687909,6.70848264 0.453181132,6.25042063 0.0241303069,5.73779562 C0.11863195,6.67118679 0.828173734,7.58555883 2.13058899,8.25839866 C3.33498384,8.88083265 4.83430102,9.18711299 6.32447239,9.18711299 C8.04465468,9.18711299 9.75233572,8.77913017 10.9818815,7.97762559 L10.9843461,7.97612603 C11.9481738,7.34709994 12.458156,6.57667029 12.5401564,5.79541712 C12.2439869,6.1434326 11.8735375,6.46677225 11.4299069,6.7561863 Z M0.0162168036,3.50014819 C-0.0453688683,4.54792123 0.670482922,5.60589421 2.13058898,6.3601257 C4.72518984,7.70072763 8.68713222,7.57543315 10.9818815,6.07944172 L10.9843461,6.07785307 C11.9903989,5.42137474 12.5077749,4.61090252 12.5538751,3.7949072 C12.5568594,3.74396688 12.551069,3.69299686 12.5501782,3.64196747 C12.5494804,3.57816958 12.5526428,3.51422322 12.5457835,3.4503511 C12.4488172,2.51915731 11.7392754,1.60723502 10.4398741,0.935968994 C9.23547928,0.313713171 7.73650359,0.00725466741 6.24651037,0.00725466741 C6.13441494,0.00725466741 6.02266099,0.0137725279 5.9109219,0.0172022065 C5.9045822,0.0173803761 5.89842066,0.0176476161 5.89209581,0.0177218583 C5.69834146,0.0241506484 5.50581943,0.0356868281 5.31401004,0.0522116127 C5.30574022,0.0529985045 5.29764857,0.0537111685 5.28972023,0.0544980603 C5.0986235,0.0716761239 4.90926389,0.0934864821 4.72131475,0.120760569 C4.71374275,0.121918643 4.70599257,0.123136102 4.69827209,0.124294175 C4.50928365,0.152176984 4.32290831,0.184736631 4.13883424,0.222923304 C4.13389017,0.223903208 4.12949543,0.224942511 4.12492253,0.2260115 C3.17904498,0.42337367 2.30127097,0.752177026 1.58645847,1.21800405 L1.58470651,1.21904334 C0.580049379,1.87474963 0.0623169799,2.68450918 0.0162168036,3.50014819 Z M10.311922,5.72661578 L10.3114024,5.72704635 C8.34521887,7.00922503 4.94725755,7.11762354 2.72466504,5.969024 C0.499800931,4.81954849 0.293025702,2.84859907 2.25903104,1.56643525 C4.22628353,0.283024262 7.62106758,0.17480392 9.84576837,1.32419034 C12.0683609,2.47271564 12.2791745,4.44348689 10.311922,5.72661578 Z M2.51913697,1.70089037 C0.683518657,2.90262759 0.879737625,4.74115593 2.95485412,5.81892006 C5.03965092,6.89044843 8.20812098,6.79030489 10.0512964,5.59244275 C11.8869296,4.39077977 11.6924774,2.5511082 9.61559413,1.47429428 C7.5325493,0.401726624 4.3624906,0.502998539 2.51913697,1.70089037 Z M8.62000253,2.51542709 C8.66990495,2.88243635 8.48832099,3.14257004 8.07525068,3.29582816 C8.39960667,3.35229113 8.64218111,3.45614239 8.80297401,3.60738197 C8.96376691,3.75862154 9.0261425,3.97439122 8.99010079,4.25469101 C8.97069483,4.39786344 8.92564633,4.52389583 8.85495529,4.63278818 C8.78426424,4.74168054 8.69485615,4.83141606 8.58673102,4.90199477 C8.47860589,4.97257347 8.34415172,5.03155786 8.18336853,5.07894793 C8.02258534,5.126338 7.85416833,5.16112271 7.6781175,5.18330207 C7.50206667,5.20548142 7.300383,5.22060644 7.07306648,5.22867712 L7.07306648,6 L6.43266995,6 L6.43266995,5.24077254 C6.21088899,5.24077254 6.04178064,5.23976503 5.9253449,5.23775001 L5.9253449,6 L5.28494837,6 L5.28494837,5.22867712 C5.23504595,5.22867712 5.16019476,5.2337182 5.06039478,5.24380037 C4.9605948,5.25388253 4.88435608,5.25892362 4.83167861,5.25892362 L4,5.25892362 L4.12890891,4.7053872 L4.59049655,4.7053872 C4.72910843,4.7053872 4.80950246,4.65396532 4.83167861,4.55112157 L4.83167861,3.33514227 L4.89821436,3.33514227 C4.88158345,3.33312724 4.85940487,3.33211973 4.83167861,3.33211973 L4.83167861,2.46400698 C4.79564175,2.32688315 4.67227567,2.25832123 4.46158036,2.25832123 L4,2.25832123 L4,1.76225529 L4.88158588,1.76527782 C5.05900968,1.76527782 5.19346384,1.76427031 5.28494837,1.76225529 L5.28494837,1 L5.9253449,1 L5.9253449,1.74712145 C6.15267112,1.7430914 6.32177947,1.74107638 6.43266995,1.74107638 L6.43266995,1 L7.07306648,1 L7.07306648,1.76224999 C7.29207725,1.77636573 7.4861368,1.79905149 7.65524515,1.83030727 C7.8243535,1.86156305 7.98098867,1.90693633 8.12515066,1.96642712 C8.26931266,2.02591791 8.38366953,2.104562 8.46822128,2.20235938 C8.55277302,2.30015676 8.60336678,2.4156041 8.62000253,2.54870142 L8.62000253,2.51542709 Z M7.72594348,4.16394621 C7.72594348,4.09134896 7.70514999,4.02681885 7.66356303,3.97035589 C7.62197607,3.91389292 7.57068855,3.86751389 7.50970049,3.8312188 C7.44871242,3.7949237 7.36900973,3.76417079 7.27059243,3.73896008 C7.17217513,3.71374937 7.08138436,3.69509718 6.99822014,3.68300352 C6.91505592,3.67090986 6.81248089,3.6618352 6.69049505,3.65577955 C6.56850921,3.6497239 6.47286454,3.64670664 6.40356102,3.64670664 C6.3342575,3.64670664 6.24485183,3.64772123 6.13534403,3.64972919 C6.02583622,3.65173715 5.95999424,3.65274466 5.93781808,3.65275172 L5.93781808,4.67513541 C5.95999909,4.67513541 6.0112866,4.68017649 6.09168063,4.69025866 C6.17207465,4.70034082 6.23861039,4.70538721 6.29128786,4.70538721 C6.34396533,4.70538721 6.41743142,4.70387682 6.51168615,4.70084546 C6.60594088,4.69781411 6.68702866,4.6937823 6.75494951,4.68875004 C6.82287035,4.68371778 6.9018817,4.67514776 6.99198355,4.66303998 C7.0820854,4.6509322 7.15901546,4.63681646 7.22277373,4.62069276 C7.286532,4.60456905 7.35237398,4.58339544 7.42029967,4.55717193 C7.48822537,4.53094841 7.54297685,4.50070014 7.58455411,4.46642712 C7.62613137,4.4321541 7.66009179,4.39182367 7.68643537,4.34543582 C7.71277896,4.29904796 7.72594348,4.24762609 7.72594348,4.19117018 L7.72594348,4.16394621 Z M7.43069156,2.72414067 C7.43069156,2.65759554 7.41336447,2.59861115 7.37871029,2.54718751 C7.3440561,2.49576387 7.30178023,2.45341664 7.25188266,2.42014584 C7.2019851,2.38687504 7.13544935,2.35864356 7.05227543,2.3354514 C6.9691015,2.31225924 6.89286521,2.29562384 6.82356654,2.2855452 C6.75426787,2.27546656 6.66901993,2.26739941 6.56782273,2.26134376 C6.46662552,2.25528811 6.38622907,2.25276845 6.32663338,2.25378478 C6.26703769,2.25480112 6.1921865,2.25580863 6.10207979,2.25680732 C6.01197309,2.257806 5.95721919,2.26284709 5.93781808,2.27193057 L5.93781808,3.20054691 C5.95168364,3.20054691 5.99950719,3.205588 6.08128874,3.21567017 C6.16307029,3.22575233 6.22752474,3.22575233 6.27465211,3.21567017 C6.32177947,3.205588 6.39108784,3.20357121 6.48257722,3.20961981 C6.57406659,3.2156684 6.65030289,3.21012268 6.71128611,3.19298264 C6.77226932,3.1758426 6.84365655,3.16475293 6.92544781,3.15971361 C7.00723906,3.15467429 7.07446614,3.13602034 7.12712905,3.10375175 C7.17979196,3.07148317 7.23107948,3.04426096 7.2809916,3.02208513 C7.33090371,2.99990931 7.3683281,2.96109102 7.39326475,2.90563027 C7.4182014,2.85016953 7.43069156,2.79874765 7.43069156,2.75136464 L7.43069156,2.72414067 Z" id="形状"></path>
            </g>
        </g>
    </g>
</svg>