<?xml version="1.0" encoding="UTF-8"?>
<svg width="18px" height="20px" viewBox="0 0 18 20" version="1.1" xmlns="http://www.w3.org/2000/svg" xmlns:xlink="http://www.w3.org/1999/xlink">
    <!-- Generator: Sketch 55.1 (78136) - https://sketchapp.com -->
    <title>yuanchuang</title>
    <desc>Created with Sketch.</desc>
    <g id="页面-1" stroke="none" stroke-width="1" fill="none" fill-rule="evenodd">
        <g id="侧边栏图标" transform="translate(-39.000000, -122.000000)" fill="#000000" fill-rule="nonzero">
            <g id="yuanchuang" transform="translate(39.000000, 122.000000)">
                <path d="M13.1445312,0.0198 C13.0665312,0.0198 5.64433125,0 5.64433125,0 C4.32293125,0 3.15273125,1.063 3.15273125,2.3498 L3.14473125,2.4996 L2.42233125,2.5168 C1.09953125,2.5168 0.01933125,3.7136 0.01933125,5.0006 L0.01933125,17.5004 C0.01933125,18.786 1.19753125,20 2.51893125,20 L11.8947312,20 C13.2161312,20 14.3943312,18.9476 14.3943312,17.6606 L14.3943312,17.4936 L15.0199312,17.5002 C16.3413312,17.5002 17.5195312,16.2862 17.5195312,14.9992 L17.5195312,6.2504 L17.5195312,5.0152 L13.1445312,0.0198 Z M13.1499312,17.6036 C13.1499312,18.2412 12.5509312,18.75 11.8947312,18.75 L2.51893125,18.75 C1.86413125,18.75 1.26913125,18.1364 1.26913125,17.5002 L1.26913125,5.0006 C1.26913125,4.3632 1.80473125,3.7706 2.46073125,3.7706 L3.14453125,3.7494 L3.14453125,14.9992 C3.14453125,16.2862 4.32293125,17.5002 5.64433125,17.5002 L13.1499312,17.4936 L13.1499312,17.6036 Z M16.2699313,14.9994 C16.2699313,15.637 15.6749312,16.2492 15.0201313,16.2492 L5.64433125,16.2492 C4.98833125,16.2492 4.39453125,15.6368 4.39453125,14.9994 L4.39453125,2.4996 C4.39453125,1.8634 4.98833125,1.2498 5.64433125,1.2498 L11.8947313,1.2498 C11.8841312,2.6906 11.8947313,3.7666 11.8947313,3.7666 C11.8947313,5.0642 13.0625313,6.2504 14.3943312,6.2504 C14.3943312,6.2504 15.0583313,6.2504 16.2697313,6.2504 L16.2697312,14.9994 L16.2699313,14.9994 Z M14.3945312,5.0152 C13.7291313,5.0152 13.1447312,3.7906 13.1447312,3.1424 C13.1447312,3.1424 13.1447312,2.4836 13.1447312,1.2696 L13.1447312,1.2684 L16.2699312,5.0152 L14.3945312,5.0152 Z" id="形状"></path>
                <path d="M13.1445312,13.1318 L7.51973125,13.1318 C7.17373125,13.1318 6.89413125,12.8522 6.89413125,12.5076 C6.89413125,12.163 7.17373125,11.8834 7.51973125,11.8834 L13.1447312,11.8834 C13.4893312,11.8834 13.7689312,12.163 13.7689312,12.5076 C13.7689312,12.8522 13.4891312,13.1318 13.1445312,13.1318 L13.1445312,13.1318 Z" id="路径"></path>
                <path d="M13.1445312,10.0092 L7.51973125,10.0092 C7.17373125,10.0092 6.89413125,9.7296 6.89413125,9.385 C6.89413125,9.0404 7.17373125,8.7608 7.51973125,8.7608 L13.1447312,8.7608 C13.4893312,8.7608 13.7689312,9.0404 13.7689312,9.385 C13.7689312,9.7296 13.4891312,10.0092 13.1445312,10.0092 L13.1445312,10.0092 Z" id="路径"></path>
            </g>
        </g>
    </g>
</svg>