<?xml version="1.0" encoding="UTF-8"?>
<svg width="18px" height="20px" viewBox="0 0 18 20" version="1.1" xmlns="http://www.w3.org/2000/svg" xmlns:xlink="http://www.w3.org/1999/xlink">
    <!-- Generator: Sketch 55.1 (78136) - https://sketchapp.com -->
    <title>zhanghu2</title>
    <desc>Created with Sketch.</desc>
    <g id="页面-1" stroke="none" stroke-width="1" fill="none" fill-rule="evenodd">
        <g id="侧边栏图标" transform="translate(-10.000000, -12.000000)" fill="#1C9CFE" fill-rule="nonzero">
            <g id="zhanghu2" transform="translate(10.000000, 12.000000)">
                <path d="M14.0499515,0 L3.25827333,0 C1.47336264,0 0.0173082249,1.45172736 0.0173082249,3.24096511 L0.0173082249,16.1464103 C0.0173082249,17.931321 1.46903559,19.3873754 3.25827333,19.3873754 L14.047788,19.3873754 C15.8348622,19.3873754 17.2909166,17.935648 17.2909166,16.1464103 L17.2909166,14.9369981 C17.2909166,14.621123 16.8625381,14.3658266 16.546663,14.3658266 C16.2307879,14.3658266 15.8629881,14.621123 15.8629881,14.9369981 L15.8629881,16.1464103 C15.8629881,17.3038978 15.2074391,17.9594468 14.0499515,17.9594468 L3.25827333,17.9594468 C2.10078579,17.9594468 1.44523678,17.3038978 1.44523678,16.1464103 L1.44523678,3.24096511 C1.44523678,2.08347757 2.10078579,1.71351426 3.25827333,1.71351426 L14.0499515,1.71351426 C15.2074391,1.71351426 15.8629881,2.08347757 15.8629881,3.24096511 L15.8629881,4.50662905 C15.8629881,4.82250415 16.2740584,5.07780047 16.5899335,5.07780047 C16.9058086,5.07780047 17.2909166,4.82250415 17.2909166,4.50662905 L17.2909166,3.24096511 C17.2909166,1.45389089 15.8391893,0 14.0499515,0 L14.0499515,0 Z" id="路径"></path>
                <path d="M16.7197452,6.20067156 L7.71730476,6.20067156 C5.79176475,6.20067156 4.2253704,7.76706591 4.2253704,9.69260593 C4.2253704,11.6181459 5.79176475,13.1845403 7.71730476,13.1845403 L16.7197452,13.1845403 C17.0356203,13.1845403 17.2909166,12.929244 17.2909166,12.6133689 L17.2909166,6.77184298 C17.2909166,6.45596788 17.0356203,6.20067156 16.7197452,6.20067156 Z M15.8629881,11.7587753 L7.71730476,11.7587753 C6.42135143,11.7587753 5.65329895,10.9885593 5.65329895,9.69476945 C5.65329895,8.39881612 6.42351495,7.63076364 7.71730476,7.63076364 L15.8629881,7.63076364 L15.8629881,11.7587753 Z" id="形状"></path>
                <path d="M6.75237123,9.64933536 C6.75237123,10.2529597 7.24132858,10.7440806 7.84711645,10.7440806 C8.45074079,10.7440806 8.94186167,10.2551232 8.94186167,9.64933536 C8.94186167,9.04571102 8.45290432,8.55459014 7.84711645,8.55459014 C7.24132858,8.55675367 6.75237123,9.04571102 6.75237123,9.64933536 Z" id="路径"></path>
            </g>
        </g>
    </g>
</svg>