<?xml version="1.0" encoding="UTF-8"?>
<svg width="19px" height="17px" viewBox="0 0 19 17" version="1.1" xmlns="http://www.w3.org/2000/svg" xmlns:xlink="http://www.w3.org/1999/xlink">
    <!-- Generator: Sketch 55.1 (78136) - https://sketchapp.com -->
    <title>zhuye</title>
    <desc>Created with Sketch.</desc>
    <g id="页面-1" stroke="none" stroke-width="1" fill="none" fill-rule="evenodd">
        <g id="文章详情_上拉" transform="translate(-45.000000, -13.000000)" fill="#ffffff" fill-rule="nonzero">
            <g id="zhuye" transform="translate(45.000000, 13.000000)">
                <path d="M18.6700382,6.60829913 L15.190343,4.03647971 C15.190343,4.03283174 15.1921989,4.03100775 15.1921989,4.02918377 L15.1921989,1.29502964 C15.1921989,1.25307798 15.1569379,1.21842225 15.1142537,1.21842225 L13.3994599,1.21842225 C13.3567756,1.21842225 13.3215147,1.25307798 13.3215147,1.29502964 L13.3215147,2.65572275 L9.93275553,0.153214774 C9.79727939,0.0528955768 9.63582154,-1.56298585e-15 9.46694033,-1.56298585e-15 C9.29620328,-1.56298585e-15 9.13474543,0.0528955768 8.99926929,0.15503876 L0.308382526,6.60465116 C0.143212993,6.72685819 0.0374302586,6.90560876 0.00773685942,7.10807114 C-0.031235727,7.37802098 0.0782586824,7.64614683 0.308382526,7.8248974 C0.388183536,7.88508892 0.479119571,7.92886457 0.577478956,7.95257638 C0.818737824,8.01094391 1.05628502,7.96352029 1.24558044,7.82307342 L9.37043678,1.79115367 C9.42796774,1.74920201 9.50776875,1.74920201 9.56344388,1.79115367 L17.7625337,7.84678523 C17.8980099,7.94710442 18.0594677,8 18.2283489,8 C18.4825986,8 18.7164342,7.88144095 18.8630453,7.67715458 C19.1098717,7.33424533 19.0096565,6.85818513 18.6700382,6.60829913 Z" id="路径"></path>
                <path d="M16.8349625,8.24832746 L13.2532145,5.66453548 L9.60657974,3.03460436 C9.54354691,2.98846521 9.45641329,2.98846521 9.39338046,3.03460436 L5.74859962,5.66453548 L2.16685162,8.24832746 C2.06303283,8.32399565 2,8.44395742 2,8.57314702 L2,15.8096101 C2,16.4647859 2.53763298,17 3.19576991,17 L7.76935807,17 L7.76935807,12.2495139 C7.76935807,11.6958442 8.22541915,11.241835 8.7815912,11.241835 L10.218369,11.241835 C10.7745411,11.241835 11.2306021,11.6958442 11.2306021,12.2495139 L11.2306021,17 L15.8041903,17 C16.4623272,17 17,16.4647859 17,15.8096101 L17,8.57314702 C17.0018141,8.44580299 16.9387813,8.32399565 16.8349625,8.24832746 Z" id="路径"></path>
            </g>
        </g>
    </g>
</svg>