<?xml version="1.0" encoding="UTF-8"?>
<svg width="20px" height="20px" viewBox="0 0 20 20" version="1.1" xmlns="http://www.w3.org/2000/svg" xmlns:xlink="http://www.w3.org/1999/xlink">
    <!-- Generator: Sketch 55.1 (78136) - https://sketchapp.com -->
    <title>del_pic</title>
    <desc>Created with Sketch.</desc>
    <g id="页面-1" stroke="none" stroke-width="1" fill="none" fill-rule="evenodd">
        <g id="上传图片后" transform="translate(-336.000000, -483.000000)" fill-rule="nonzero">
            <g id="del_pic" transform="translate(336.000000, 483.000000)">
                <path d="M4,0 L16,0 C18.6666667,0 20,1.33333333 20,4 L20,16 C20,18.6666667 18.6666667,20 16,20 L4,20 C1.33333333,20 5.68434189e-14,18.6666667 5.68434189e-14,16 L5.68434189e-14,4 C5.68434189e-14,1.33333333 1.33333333,0 4,0 Z" id="路径" fill="#1C9CFE"></path>
                <path d="M15.25,9.25 L10.75,9.25 L9.25,9.25 L4.75,9.25 C4.33578644,9.25 4,9.58578644 4,10 C4,10.4142136 4.33578644,10.75 4.75,10.75 L9.25,10.75 L10.75,10.75 L15.25,10.75 C15.6642136,10.75 16,10.4142136 16,10 C16,9.58578644 15.6642136,9.25 15.25,9.25 Z" id="路径" fill="#FFFFFF"></path>
            </g>
        </g>
    </g>
</svg>