<?xml version="1.0" encoding="UTF-8"?>
<svg width="11px" height="16px" viewBox="0 0 11 16" version="1.1" xmlns="http://www.w3.org/2000/svg" xmlns:xlink="http://www.w3.org/1999/xlink">
    <!-- Generator: Sketch 55.1 (78136) - https://sketchapp.com -->
    <title>eos_icon</title>
    <desc>Created with Sketch.</desc>
    <g id="页面-1" stroke="none" stroke-width="1" fill="none" fill-rule="evenodd" fill-opacity="0.85">
        <g id="文章详情" transform="translate(-20.000000, -2136.000000)" fill="#000000" fill-rule="nonzero">
            <g id="eos_icon" transform="translate(20.000000, 2136.000000)">
                <path d="M9.1996875,5.079375 L10.9934375,12.6190625 C11.0252083,12.6508333 11.0304687,12.6825521 11.0092188,12.7142188 C10.9880729,12.7354688 10.9563542,12.7619271 10.9140625,12.7935938 L5.6125,16 L5.3584375,16 L0.0728125,12.7935937 C0.0410416667,12.7935937 0.01984375,12.7724479 0.00921875,12.7301563 L0.00921875,12.6190625 L1.85046875,5.079375 L1.85046875,5.0159375 L5.3584375,0.0953125 C5.39020833,0.0317708333 5.443125,0 5.5171875,0 C5.59125,0 5.64416667,0.0317708333 5.6759375,0.0953125 L9.1996875,5.0159375 L9.1996875,5.079375 Z M8.3584375,8.0159375 L9.8346875,10.396875 L8.88234375,6.49203125 L8.3584375,8.0159375 Z M4.2790625,12.9365625 L1.64421875,12.9365625 L4.9140625,14.9046875 L4.2790625,12.9365625 L4.2790625,12.9365625 Z M3.00921875,8.9046875 L1.02515625,12.238125 L4.08859375,12.238125 L3.00921875,8.9046875 Z M5.86640625,3.920625 L7.85046875,7.25390625 L8.50140625,5.28578125 L5.86640625,1.6190625 L5.86640625,3.920625 L5.86640625,3.920625 Z M7.5965625,8.1428125 L5.48546875,4.74609375 L3.4378125,8.1428125 L4.78703125,12.238125 L6.26328125,12.238125 L7.5965625,8.1428125 Z M5.18390625,3.920625 L5.18390625,1.6190625 L2.54890625,5.28578125 L3.1996875,7.25390625 L5.18390625,3.920625 Z M9.39015625,12.9365625 L6.77125,12.9365625 L6.13625,14.9046875 L9.39015625,12.9365625 Z M7.02515625,12.238125 L10.0885938,12.238125 L8.1203125,8.9046875 L7.02515625,12.238125 L7.02515625,12.238125 Z M2.739375,8.0159375 L2.24734375,6.42859375 L1.2790625,10.4603125 L2.739375,8.0159375 Z M6.0728125,12.9365625 L5.056875,12.9365625 L5.54890625,14.5396875 L6.0728125,12.9365625 Z" id="形状"></path>
            </g>
        </g>
    </g>
</svg>