<?xml version="1.0" encoding="UTF-8"?>
<svg width="22px" height="24px" viewBox="0 0 22 24" version="1.1" xmlns="http://www.w3.org/2000/svg" xmlns:xlink="http://www.w3.org/1999/xlink">
    <!-- Generator: Sketch 55.1 (78136) - https://sketchapp.com -->
    <title>github_white</title>
    <desc>Created with Sketch.</desc>
    <g id="页面1" stroke="none" stroke-width="1" fill="none" fill-rule="evenodd" opacity="0.496605283">
        <g id="文章页" transform="translate(-1473.000000, -4896.000000)" fill="#FFFFFF" fill-rule="nonzero">
            <g id="github_white" transform="translate(1473.000000, 4896.000000)">
                <path d="M19.9702768,4.09433036 C20.9244107,2.322375 19.8339643,0.00519642857 19.8339643,0.00519642857 C17.3804732,0.00519642857 15.6085179,1.64083929 15.6085179,1.64083929 C14.6543839,1.09561607 11.5193839,1.09561607 11.5193839,1.09561607 C11.5193839,1.09561607 8.38438393,1.09561607 7.43025,1.64083929 C7.43025,1.64083929 5.65829464,0.00519642857 3.20480357,0.00519642857 C3.20480357,0.00519642857 2.11435714,2.322375 3.06849107,4.09433036 C3.06849107,4.09433036 0.887625,6.13891071 1.70544643,10.5006429 C2.47395536,14.5993393 6.06717857,15.6802232 8.38435714,15.6802232 C8.38435714,15.6802232 7.43022321,16.4980446 7.56653571,17.8610893 C7.56653571,17.8610893 6.20349107,18.6789107 4.84044643,18.1336875 C3.47740179,17.5884643 2.79586607,16.2254196 2.79586607,16.2254196 C2.79586607,16.2254196 1.43282143,14.4534643 0.0697767857,15.1349732 C0.0697767857,15.1349732 -0.339133929,15.5438839 1.16022321,16.2254196 C1.16022321,16.2254196 2.25066964,17.8610625 2.65958036,18.8151964 C3.06849107,19.7693304 5.24935714,20.5871518 7.43025,20.0419286 L7.43025,23.1769286 C7.43025,23.1769286 7.43025,23.4495268 6.88502679,23.5858393 C6.33980357,23.7221518 6.33980357,23.99475 6.61242857,23.99475 L16.4263393,23.99475 C16.6989375,23.99475 16.6989375,23.7221518 16.1537411,23.5858393 C15.6085179,23.4495268 15.6085179,23.1769286 15.6085179,23.1769286 L15.6085179,20.0419286 C15.6085179,20.0419286 15.6204911,18.4071964 15.6085179,17.8610625 C15.5785446,16.4915625 14.6543839,15.6801964 14.6543839,15.6801964 C16.9715625,15.6801964 20.5647857,14.5993125 21.3332946,10.5006161 C22.1511429,6.13891071 19.9702768,4.09433036 19.9702768,4.09433036 Z" id="路径"></path>
            </g>
        </g>
    </g>
</svg>