<?xml version="1.0" encoding="UTF-8"?>
<svg width="28px" height="23px" viewBox="0 0 28 23" version="1.1" xmlns="http://www.w3.org/2000/svg" xmlns:xlink="http://www.w3.org/1999/xlink">
    <!-- Generator: Sketch 55.1 (78136) - https://sketchapp.com -->
    <title>weixin</title>
    <desc>Created with Sketch.</desc>
    <g id="页面1" stroke="none" stroke-width="1" fill="none" fill-rule="evenodd">
        <g id="指向底部信息栏时" transform="translate(-1405.000000, -200.000000)" fill="#00C800" fill-rule="nonzero">
            <g id="weixin" transform="translate(1405.000000, 200.000000)">
                <path d="M18.696875,6.79375 C19.003125,6.79375 19.309375,6.79375 19.615625,6.84375 C18.75,2.9125 14.559375,0 9.75625,0 C4.39375,0 0,3.678125 0,8.275 C0,10.93125 1.43125,13.178125 3.88125,14.865625 L2.909375,17.778125 L6.33125,16.09375 C7.55625,16.35 8.528125,16.603125 9.753125,16.603125 C10.059375,16.603125 10.365625,16.603125 10.725,16.553125 C10.521875,15.8875 10.41875,15.225 10.41875,14.509375 C10.421875,10.26875 14.05,6.79375 18.696875,6.79375 Z M13.434375,4.1375 C14.2,4.1375 14.659375,4.646875 14.659375,5.3625 C14.659375,6.078125 14.15,6.5875 13.434375,6.5875 C12.66875,6.5875 11.953125,6.075 11.953125,5.3625 C11.953125,4.596875 12.721875,4.1375 13.434375,4.1375 L13.434375,4.1375 Z M6.675,6.421875 C5.903125,6.421875 5.18125,5.915625 5.18125,5.209375 C5.18125,4.45 5.953125,3.996875 6.675,3.996875 C7.396875,3.996875 7.90938913,4.503125 7.90938913,5.209375 C7.9125,5.91875 7.396875,6.421875 6.675,6.421875 Z" id="形状"></path>
                <path d="M27.5875,14.40625 C27.5875,10.471875 23.70625,7.30625 19.3125,7.30625 C14.6625,7.30625 10.984375,10.525 10.984375,14.40625 C10.984375,18.340625 14.6625,21.50625 19.3125,21.50625 C20.284375,21.50625 21.253125,21.25 22.225,20.996875 L24.88125,22.478125 L24.165625,20.025 C26.10625,18.54375 27.5875,16.603125 27.5875,14.40625 L27.5875,14.40625 Z M16.603125,13.18125 C16.14375,13.18125 15.63125,12.721875 15.63125,12.209375 C15.63125,11.75 16.140625,11.2375 16.603125,11.2375 C17.31875,11.2375 17.828125,11.746875 17.828125,12.209375 C17.828125,12.721875 17.36875,13.18125 16.603125,13.18125 Z M22.165625,12.94375 C21.703125,12.94375 21.1875,12.4875 21.1875,11.984375 C21.1875,11.528125 21.703125,11.025 22.165625,11.025 C22.8875,11.025 23.4,11.53125 23.4,11.984375 C23.4,12.490625 22.8875,12.94375 22.165625,12.94375 Z" id="形状"></path>
            </g>
        </g>
    </g>
</svg>