<?xml version="1.0" encoding="UTF-8" standalone="no"?>
<!-- Generator: Adobe Illustrator 16.0.0, SVG Export Plug-In . SVG Version: 6.00 Build 0)  -->

<svg
   xmlns:dc="http://purl.org/dc/elements/1.1/"
   xmlns:cc="http://creativecommons.org/ns#"
   xmlns:rdf="http://www.w3.org/1999/02/22-rdf-syntax-ns#"
   xmlns:svg="http://www.w3.org/2000/svg"
   xmlns="http://www.w3.org/2000/svg"
   xmlns:sodipodi="http://sodipodi.sourceforge.net/DTD/sodipodi-0.dtd"
   xmlns:inkscape="http://www.inkscape.org/namespaces/inkscape"
   version="1.1"
   id="Capa_1"
   x="0px"
   y="0px"
   width="25"
   height="25"
   viewBox="0 0 25 24.999999"
   xml:space="preserve"
   sodipodi:docname="footer_facebook_active.svg"
   inkscape:version="0.92.4 (5da689c313, 2019-01-14)"><metadata
   id="metadata41"><rdf:RDF><cc:Work
       rdf:about=""><dc:format>image/svg+xml</dc:format><dc:type
         rdf:resource="http://purl.org/dc/dcmitype/StillImage" /><dc:title></dc:title></cc:Work></rdf:RDF></metadata><defs
   id="defs39" /><sodipodi:namedview
   pagecolor="#ffffff"
   bordercolor="#666666"
   borderopacity="1"
   objecttolerance="10"
   gridtolerance="10"
   guidetolerance="10"
   inkscape:pageopacity="0"
   inkscape:pageshadow="2"
   inkscape:window-width="1920"
   inkscape:window-height="1001"
   id="namedview37"
   showgrid="false"
   inkscape:zoom="3.885861"
   inkscape:cx="30.367001"
   inkscape:cy="30.366501"
   inkscape:window-x="-9"
   inkscape:window-y="-9"
   inkscape:window-maximized="1"
   inkscape:current-layer="Capa_1" />
<g
   id="g4"
   transform="matrix(0.4116446,0,0,0.4116446,0,-4.1370898e-4)"
   style="fill-opacity:0.50265067;fill:#ffffff">
	<path
   d="M 57.378,0.001 H 3.352 C 1.502,0.001 0,1.5 0,3.353 v 54.026 c 0,1.853 1.502,3.354 3.352,3.354 H 32.438 V 37.214 h -7.914 v -9.167 h 7.914 v -6.76 c 0,-7.843 4.789,-12.116 11.787,-12.116 3.355,0 6.232,0.251 7.071,0.36 v 8.198 l -4.854,0.002 c -3.805,0 -4.539,1.809 -4.539,4.462 v 5.851 h 9.078 l -1.187,9.166 h -7.892 v 23.52 h 15.475 c 1.852,0 3.355,-1.503 3.355,-3.351 V 3.351 C 60.731,1.5 59.23,0.001 57.378,0.001 Z"
   id="path2"
   inkscape:connector-curvature="0"
   style="fill-opacity:0.50265067;fill:#ffffff" />
</g>
<g
   id="g6"
   transform="translate(0,-35.733002)">
</g>
<g
   id="g8"
   transform="translate(0,-35.733002)">
</g>
<g
   id="g10"
   transform="translate(0,-35.733002)">
</g>
<g
   id="g12"
   transform="translate(0,-35.733002)">
</g>
<g
   id="g14"
   transform="translate(0,-35.733002)">
</g>
<g
   id="g16"
   transform="translate(0,-35.733002)">
</g>
<g
   id="g18"
   transform="translate(0,-35.733002)">
</g>
<g
   id="g20"
   transform="translate(0,-35.733002)">
</g>
<g
   id="g22"
   transform="translate(0,-35.733002)">
</g>
<g
   id="g24"
   transform="translate(0,-35.733002)">
</g>
<g
   id="g26"
   transform="translate(0,-35.733002)">
</g>
<g
   id="g28"
   transform="translate(0,-35.733002)">
</g>
<g
   id="g30"
   transform="translate(0,-35.733002)">
</g>
<g
   id="g32"
   transform="translate(0,-35.733002)">
</g>
<g
   id="g34"
   transform="translate(0,-35.733002)">
</g>
</svg>