<?xml version="1.0" encoding="UTF-8"?>
<svg width="19px" height="29px" viewBox="0 0 19 29" version="1.1" xmlns="http://www.w3.org/2000/svg" xmlns:xlink="http://www.w3.org/1999/xlink">
    <!-- Generator: Sketch 54.1 (76490) - https://sketchapp.com -->
    <title>Page-1</title>
    <desc>Created with Sketch.</desc>
    <g id="Page-1" stroke="none" stroke-width="1" fill="none" fill-rule="evenodd">
        <g id="icon_logo_eos" fill="#FFFFFF" fill-rule="nonzero">
            <g id="Page-1">
                <g id="icon_eos_article">
                    <g id="Page-1">
                        <g id="文章详情">
                            <g id="ic_EOS">
                                <path d="M4.50529287,14.5400922 L2.70853917,9.00737326 L0,22.0774194 L0.0268172263,22.1041475 L0.12067749,22.1041475 L4.50529287,14.5400922 Z M0.697247712,22.5986175 L9.21171489,29 L7.11997178,22.5986175 L0.697247712,22.5986175 Z M9.23853212,6.36129032 L9.17148905,6.24101382 L9.37261822,6.13410138 L9.45306987,6.00046082 L9.53352152,6.040553 L9.61397317,6.00046082 L9.69442485,6.13410138 L9.89555399,6.24101382 L9.82851095,6.36129032 L13.7974594,13.2170507 L15.1785462,8.36589862 L9.54693013,0 L3.11079748,8.459447 L4.88073396,13.8986175 L9.23853212,6.36129032 Z M11.8398024,22.1041475 L18.3563867,22.1041475 L13.9851799,14.5534562 L11.8398024,22.1041475 Z M0.710656325,22.1041475 L6.97247706,22.1041475 L4.71983063,15.1815668 L0.710656325,22.1041475 Z M18.7720536,21.8368664 L19,21.6497696 L15.5271701,9.11428571 L14.1729005,13.8852535 L18.7720536,21.8368664 Z M9.53352152,28.1981567 L11.1291461,22.5852535 L7.70995059,22.5852535 L9.53352152,28.1981567 Z" id="形状"></path>
                                <path d="M5,14.6164053 L7.51524711,22.1266586 L11.3017876,22.1266586 L13.6803365,13.9794934 L9.53838065,7 L5,14.6164053 Z M9.88012618,29 L18,22.6176116 L11.7392219,22.6176116 L9.88012618,29 Z" id="形状"></path>
                            </g>
                        </g>
                    </g>
                </g>
            </g>
        </g>
    </g>
</svg>