<?xml version="1.0" encoding="UTF-8"?>
<svg width="12px" height="18px" viewBox="0 0 12 18" version="1.1" xmlns="http://www.w3.org/2000/svg" xmlns:xlink="http://www.w3.org/1999/xlink">
    <!-- Generator: Sketch 54.1 (76490) - https://sketchapp.com -->
    <title>Shape</title>
    <desc>Created with Sketch.</desc>
    <g id="Page-1" stroke="none" stroke-width="1" fill="none" fill-rule="evenodd">
        <g id="icon_article_eos_orange" fill="#F7B500" fill-rule="nonzero">
            <path d="M6.73432258,13.7482581 L8.38761291,8.55509678 L5.6896129,3.87193549 L3.03141936,8.48612904 L4.6703871,13.7482581 L6.73432258,13.7482581 Z M7.03058064,13.7482581 L11.3793548,13.7482581 L8.57832258,8.88619356 L7.03058064,13.7482581 Z M5.86567742,1.77635684e-15 L5.83116129,3.55219355 L8.50348387,8.19090323 L9.47677419,5.13380646 L5.86567742,1.77635684e-15 Z M6.64451613,14.0303871 L4.75825806,14.0303871 L5.69109677,17.0253548 L6.64451613,14.0303871 Z M11.1196129,14.0303871 L6.94064515,14.0303871 L5.93832259,17.1787097 L11.1196129,14.0303871 Z M4.46277419,14.0303871 L0.259741934,14.0303871 L5.44393549,17.1805806 L4.46277419,14.0303871 Z M0,13.7482581 L4.37483871,13.7482581 L2.8396129,8.81916129 L0,13.7482581 Z M8.69425806,8.522 L11.2791613,13.0089678 L9.60961291,5.64690322 L8.69425806,8.522 Z M2.9171613,8.1191613 L5.54896774,3.55090322 L5.58335484,0.00838710352 L1.97290322,5.08767741 L2.9171613,8.1191613 Z M0.110516133,12.9909032 L2.72529032,8.45212903 L1.83683871,5.59980645 L0.110516133,12.9909032 Z" id="Shape"></path>
        </g>
    </g>
</svg>