<?xml version="1.0" encoding="UTF-8"?>
<svg width="24px" height="24px" viewBox="0 0 24 24" version="1.1" xmlns="http://www.w3.org/2000/svg" xmlns:xlink="http://www.w3.org/1999/xlink">
    <!-- Generator: Sketch 57.1 (83088) - https://sketch.com -->
    <title>icon_EOS</title>
    <desc>Created with Sketch.</desc>
    <g id="Page-1" stroke="none" stroke-width="1" fill="none" fill-rule="evenodd">
        <g id="icon_EOS" fill-rule="nonzero">
            <circle id="椭圆形" fill="#3289FF" transform="translate(12.000000, 12.000000) scale(-1, -1) translate(-12.000000, -12.000000) " cx="12" cy="12" r="12"></circle>
            <g id="Shape-2" transform="translate(5.000000, 7.000000)" fill="#FFFFFF">
                <path d="M9.07674227,0 C8.62314974,0 8.23181501,0.2722334 8.06282955,0.661770624 L5.93717045,0.661770624 C5.76818499,0.2722334 5.37685026,0 4.92325773,0 C4.31402071,0 3.81818182,0.491348089 3.81818182,1.1 C3.81818182,1.70643863 4.31179722,2.2 4.92325773,2.2 C5.37685026,2.2 5.76818499,1.9277666 5.93717045,1.53822938 L8.06282955,1.53822938 C8.23181501,1.9277666 8.62314974,2.2 9.07674227,2.2 C9.68597929,2.2 10.1818182,1.70865191 10.1818182,1.1 C10.1818182,0.493561368 9.68597929,0 9.07674227,0 Z M8.20316002,7.43245967 L7.21392195,8.78567028 C6.80569925,8.70474739 6.37371756,8.87558461 6.12532809,9.25547263 C5.79270219,9.76573643 5.91797688,10.4603246 6.4082761,10.8064948 C6.89857532,11.1526649 7.56598703,11.0222891 7.89861293,10.5120253 C8.1470024,10.1321373 8.14052267,9.65109567 7.9180521,9.28694265 L8.90729017,7.93373204 C9.31551287,8.01465493 9.74749456,7.84381771 9.99588403,7.46392968 C10.3285099,6.95366588 10.2032352,6.25907771 9.71293602,5.91290756 C9.2226368,5.5667374 8.55522509,5.69936103 8.22259919,6.20737698 C7.97420972,6.587265 7.98068945,7.06830665 8.20316002,7.43245967 Z M6.0819479,4.35286346 L5.09270983,5.70592091 C4.68448713,5.62500717 4.25250544,5.79582506 4.00411597,6.17567009 C3.67149007,6.68587613 3.79676476,7.38038569 4.28706398,7.72651666 C4.7773632,8.07264764 5.44477491,7.94228662 5.77740081,7.43208057 C6.02579028,7.05223554 6.01931055,6.57124834 5.79683998,6.20713654 L6.78607805,4.85407909 C7.19430075,4.93499283 7.62628244,4.76417494 7.87467191,4.38432991 C8.20729781,3.87412387 8.08202312,3.17961431 7.5917239,2.83348334 C7.10358459,2.48735236 6.43401297,2.61771338 6.10138707,3.12791943 C5.8529976,3.50776446 5.85947733,3.98875166 6.0819479,4.35286346 Z M4.00987993,3.43718759 C3.73946664,3.07503666 3.30427025,2.94065361 2.91343855,3.05681523 L1.97966767,1.65832042 C2.1676894,1.27111502 2.13811295,0.783691753 1.86769966,0.421540819 C1.50433181,-0.0658824502 0.843086817,-0.141045852 0.390989602,0.250714907 C-0.0611076124,0.642475666 -0.130823538,1.35538914 0.232544317,1.84281241 C0.502957604,2.20496334 0.938153989,2.33934639 1.32898569,2.22318477 L2.26275658,3.62167958 C2.07473484,4.00888498 2.10431129,4.49630825 2.37472458,4.85845918 C2.73809243,5.34588245 3.39933743,5.42104585 3.85143464,5.02928509 C4.30353185,4.63524666 4.37324778,3.92233318 4.00987993,3.43718759 Z M11.9598871,0.51793423 C11.7199224,0.900547443 11.7465851,1.37383778 11.9887717,1.72327643 L11.0244691,3.09449142 C10.602309,3.03256558 10.1645957,3.21613146 9.92463097,3.60095631 C9.60245615,4.11626775 9.76021072,4.79302869 10.2779123,5.11371606 C10.7956139,5.43440344 11.4755139,5.27737721 11.7976887,4.76206577 C12.0376534,4.37945256 12.0109906,3.90616222 11.7688041,3.55672357 L12.7331066,2.18550858 C13.1552667,2.24743442 13.5929801,2.06386854 13.8329448,1.67904369 C14.1551196,1.16373225 13.997365,0.486971311 13.4796634,0.166283936 C12.9641837,-0.15440344 12.2842838,0.00262279237 11.9598871,0.51793423 Z" id="Shape"></path>
            </g>
        </g>
    </g>
</svg>