<?xml version="1.0" encoding="UTF-8"?>
<svg width="11px" height="12px" viewBox="0 0 11 12" version="1.1" xmlns="http://www.w3.org/2000/svg" xmlns:xlink="http://www.w3.org/1999/xlink">
    <!-- Generator: Sketch 52.2 (67145) - http://www.bohemiancoding.com/sketch -->
    <title>层级 copy</title>
    <desc>Created with Sketch.</desc>
    <g id="Page-1" stroke="none" stroke-width="1" fill="none" fill-rule="evenodd" opacity="0.697707403">
        <g id="文章详情" transform="translate(-134.000000, -947.000000)" fill="#000000" fill-rule="nonzero">
            <g id="层级-copy" transform="translate(134.000000, 947.000000)">
                <path d="M9.23218134,7.5000605 C8.25579231,7.5000605 7.46427817,6.74459866 7.46427817,5.81246219 C7.46427817,4.88052738 8.25579231,4.12487732 9.23218134,4.12487732 C10.2084577,4.12487732 11,4.88052738 11,5.81246219 C11,6.74459866 10.2084577,7.5000605 9.23218134,7.5000605 Z M9.23218134,4.87064565 C8.68721871,4.87064565 8.2454401,5.29238726 8.2454401,5.81246219 C8.2454401,6.33269845 8.68721871,6.75431906 9.23218134,6.75431906 C9.77710172,6.75431906 10.2188381,6.33269845 10.2188381,5.81246219 C10.2188381,5.29238726 9.77710172,4.87064565 9.23218134,4.87064565 Z M1.76781866,3.37499496 C0.791429629,3.37499496 0,2.61938523 0,1.68739665 C0,0.755461842 0.791471883,0 1.76781866,0 C2.74416544,0 3.53572183,0.755502176 3.53572183,1.68739665 C3.53572183,2.61934489 2.74420769,3.37499496 1.76781866,3.37499496 Z M1.76781866,0.745741444 C1.22285603,0.745741444 0.781077423,1.16732171 0.781077423,1.68741009 C0.781077423,2.20768669 1.22285603,2.62941485 1.76781866,2.62941485 C2.31278129,2.62941485 2.7545599,2.20767324 2.7545599,1.68741009 C2.7545599,1.16732171 2.31282355,0.745741444 1.76781866,0.745741444 Z M9.23218134,12 C8.25579231,12 7.46427817,11.2444978 7.46427817,10.3126034 C7.46427817,9.38062822 8.25579231,8.62501849 9.23218134,8.62501849 C10.2084577,8.62501849 11,9.38062822 11,10.3126034 C11,11.2445382 10.2084577,12 9.23218134,12 Z M9.23218134,9.37058515 C8.68721871,9.37058515 8.2454401,9.79247465 8.2454401,10.3125899 C8.2454401,10.8328262 8.68721871,11.2544064 9.23218134,11.2544064 C9.77710172,11.2544064 10.2188381,10.8328262 10.2188381,10.3125899 C10.2188381,9.79247465 9.77710172,9.37058515 9.23218134,9.37058515 Z M5.50000704,10.1251328 L2.3571338,10.1251328 C2.14020228,10.1251328 1.96428521,9.95717019 1.96428521,9.74994958 L1.96428521,6.37495462 L5.50000704,6.37495462 C5.71696673,6.37495462 5.89285563,6.20718028 5.89285563,6.00010756 C5.89285563,5.79284661 5.71696673,5.62507226 5.50000704,5.62507226 L1.96428521,5.62507226 L1.96428521,4.50008739 L1.96428521,4.4999395 C1.96428521,4.29286678 1.78839631,4.12509243 1.57143662,4.12509243 C1.35443467,4.12509243 1.17858803,4.29286678 1.17858803,4.4999395 L1.17858803,10.1251328 C1.17858803,10.5392648 1.530394,10.875042 1.96428521,10.875042 L5.50000704,10.875042 C5.71696673,10.875042 5.89285563,10.7072273 5.89285563,10.5000067 C5.89285563,10.2929474 5.71696673,10.1251328 5.50000704,10.1251328 Z" id="形状"></path>
            </g>
        </g>
    </g>
</svg>