<?xml version="1.0" standalone="no"?><!DOCTYPE svg PUBLIC "-//W3C//DTD SVG 1.1//EN" "http://www.w3.org/Graphics/SVG/1.1/DTD/svg11.dtd"><svg t="1557473581403" class="icon" style="" viewBox="0 0 1024 1024" version="1.1" xmlns="http://www.w3.org/2000/svg" p-id="1976" xmlns:xlink="http://www.w3.org/1999/xlink" width="200" height="200"><defs><style type="text/css"></style></defs><path d="M896 810.666667l-128 0c-23.466667 0-42.666667-19.2-42.666667-42.666667 0-23.466667 19.2-42.666667 42.666667-42.666667l106.666667 0c12.8 0 21.333333-8.533333 21.333333-21.333333L896 106.666667c0-12.8-8.533333-21.333333-21.333333-21.333333L448 85.333333c-12.8 0-21.333333 8.533333-21.333333 21.333333l0 21.333333c0 23.466667-19.2 42.666667-42.666667 42.666667-23.466667 0-42.666667-19.2-42.666667-42.666667L341.333333 85.333333c0-46.933333 38.4-85.333333 85.333333-85.333333l469.333333 0c46.933333 0 85.333333 38.4 85.333333 85.333333l0 640C981.333333 772.266667 942.933333 810.666667 896 810.666667zM682.666667 298.666667l0 640c0 46.933333-38.4 85.333333-85.333333 85.333333L128 1024c-46.933333 0-85.333333-38.4-85.333333-85.333333L42.666667 298.666667c0-46.933333 38.4-85.333333 85.333333-85.333333l469.333333 0C644.266667 213.333333 682.666667 251.733333 682.666667 298.666667zM576 298.666667 149.333333 298.666667c-12.8 0-21.333333 8.533333-21.333333 21.333333l0 597.333333c0 12.8 8.533333 21.333333 21.333333 21.333333l426.666667 0c12.8 0 21.333333-8.533333 21.333333-21.333333L597.333333 320C597.333333 307.2 588.8 298.666667 576 298.666667z" p-id="1977" fill="#8a8a8a"></path></svg>