<?xml version="1.0" encoding="UTF-8"?>
<svg width="16px" height="18px" viewBox="0 0 16 18" version="1.1" xmlns="http://www.w3.org/2000/svg" xmlns:xlink="http://www.w3.org/1999/xlink">
    <!-- Generator: Sketch 52.2 (67145) - http://www.bohemiancoding.com/sketch -->
    <title>设置</title>
    <desc>Created with Sketch.</desc>
    <g id="Page-1" stroke="none" stroke-width="1" fill="none" fill-rule="evenodd">
        <g id="右上角入口" transform="translate(-336.000000, -55.000000)" fill="#4D4D4D" fill-rule="nonzero">
            <g id="设置" transform="translate(336.000000, 55.000000)">
                <path d="M15.9400826,11.4792453 C15.8106929,11.0377358 15.5519135,10.6641509 15.1637444,10.4264151 L14.0639319,9.74716981 C14.0962793,9.4754717 14.0962793,9.23773585 14.0962793,9 C14.0962793,8.76226415 14.0962793,8.5245283 14.0639319,8.25283019 L15.1637444,7.57358491 C15.9724301,7.09811321 16.2312095,6.01132075 15.7783455,5.19622642 L15.0343547,3.83773585 C14.8079227,3.43018868 14.452101,3.15849057 14.0315845,3.02264151 C13.6110679,2.88679245 13.158204,2.95471698 12.7700348,3.19245283 L11.6702224,3.83773585 C11.2820532,3.53207547 10.8615367,3.29433962 10.4410202,3.09056604 L10.4410202,1.76603774 C10.4410202,0.81509434 9.69702934,0 8.75895398,0 L7.27097237,0 C6.36524443,0 5.5889062,0.781132075 5.5889062,1.76603774 L5.5889062,3.09056604 C5.13604223,3.29433962 4.71552568,3.53207547 4.35970399,3.83773585 L3.2598915,3.19245283 C2.45120584,2.71698113 1.44843562,2.98867925 0.995571652,3.83773585 L0.251580846,5.19622642 C0.0251488614,5.60377358 -0.0395459913,6.07924528 0.0898437142,6.52075472 C0.21923342,6.96226415 0.478012831,7.33584906 0.866181947,7.57358491 L1.96599444,8.25283019 C1.93364702,8.5245283 1.93364702,8.76226415 1.93364702,9 C1.93364702,9.23773585 1.93364702,9.4754717 1.96599444,9.74716981 L0.866181947,10.4264151 C0.478012831,10.6641509 0.21923342,11.0377358 0.0898437142,11.4792453 C-0.0718934177,11.9207547 -0.00719856493,12.3962264 0.21923342,12.8037736 L0.963224226,14.1622642 C1.18965621,14.5698113 1.5454779,14.8415094 1.96599444,14.9773585 C2.38651099,15.1132075 2.83937495,15.045283 3.22754407,14.8075472 L4.32735657,14.1622642 C4.71552568,14.4679245 5.13604223,14.7056604 5.55655877,14.909434 L5.55655877,16.2339623 C5.55655877,17.1849057 6.30054958,18 7.23862494,18 L8.72660655,18 C9.63233449,18 10.4086727,17.2188679 10.4086727,16.2339623 L10.4086727,14.909434 C10.8615367,14.7056604 11.2820532,14.4679245 11.6378749,14.1622642 L12.7376874,14.8075472 C13.1258565,15.045283 13.5787205,15.1132075 13.999237,14.9773585 C14.4197536,14.8415094 14.7755753,14.5698113 15.0020073,14.1622642 L15.7459981,12.8037736 C15.9724301,12.3962264 16.0371249,11.9207547 15.9400826,11.4792453 Z M14.9373124,12.2943396 L14.1933216,13.6528302 C14.0962793,13.8226415 13.9345422,13.9245283 13.7728051,13.9924528 C13.5787205,14.0264151 13.4169834,14.0264151 13.2552462,13.9245283 L12.0907389,13.2113208 C11.7996121,13.0415094 11.4437904,13.0754717 11.1526635,13.2792453 C10.7968418,13.5509434 10.4086727,13.7886792 9.98815618,13.9924528 C9.66468192,14.1283019 9.47059736,14.4679245 9.47059736,14.8075472 L9.47059736,16.2339623 C9.47059736,16.6415094 9.1471231,16.9811321 8.75895398,16.9811321 L7.27097237,16.9811321 C6.88280325,16.9811321 6.55932899,16.6415094 6.55932899,16.2339623 L6.55932899,14.8075472 C6.55932899,14.4339623 6.36524443,14.1283019 6.04177016,13.9924528 C5.62125362,13.8226415 5.23308451,13.5849057 4.87726282,13.2792453 C4.71552568,13.1433962 4.55378855,13.109434 4.35970399,13.109434 C4.23031429,13.109434 4.06857716,13.1433962 3.93918745,13.2113208 L2.7746801,13.9245283 C2.61294297,14.0264151 2.41885841,14.0603774 2.25712128,13.9924528 C2.09538415,13.9245283 1.93364702,13.8226415 1.83660474,13.6528302 L1.09261393,12.2943396 C0.995571652,12.1245283 0.963224226,11.9207547 1.02791908,11.7509434 C1.06026651,11.5471698 1.18965621,11.4113208 1.35139334,11.309434 L2.51590069,10.5962264 C2.80702753,10.4264151 2.96876466,10.0867925 2.93641723,9.71320755 C2.90406981,9.4754717 2.90406981,9.23773585 2.90406981,9 C2.90406981,8.76226415 2.90406981,8.55849057 2.93641723,8.28679245 C2.96876466,7.94716981 2.83937495,7.57358491 2.51590069,7.40377358 L1.35139334,6.69056604 C1.18965621,6.58867925 1.06026651,6.41886792 1.02791908,6.2490566 C0.995571652,6.07924528 0.995571652,5.8754717 1.09261393,5.70566038 L1.83660474,4.34716981 C2.0306893,4.00754717 2.45120584,3.87169811 2.7746801,4.0754717 L3.93918745,4.78867925 C4.23031429,4.95849057 4.58613598,4.9245283 4.87726282,4.72075472 C5.23308451,4.4490566 5.62125362,4.21132075 6.04177016,4.00754717 C6.36524443,3.87169811 6.55932899,3.53207547 6.55932899,3.19245283 L6.55932899,1.76603774 C6.55932899,1.35849057 6.88280325,1.01886792 7.27097237,1.01886792 L8.75895398,1.01886792 C9.1471231,1.01886792 9.47059736,1.35849057 9.47059736,1.76603774 L9.47059736,3.19245283 C9.47059736,3.56603774 9.66468192,3.87169811 9.98815618,4.00754717 C10.4086727,4.17735849 10.7968418,4.41509434 11.1526635,4.72075472 C11.4114429,4.9245283 11.7996121,4.95849057 12.0907389,4.78867925 L13.2552462,4.0754717 C13.5787205,3.87169811 13.999237,4.00754717 14.1933216,4.34716981 L14.9373124,5.70566038 C15.131397,6.04528302 15.0020073,6.48679245 14.678533,6.69056604 L13.4816782,7.40377358 C13.1905514,7.57358491 13.0288143,7.91320755 13.0611617,8.28679245 C13.0935091,8.5245283 13.0935091,8.76226415 13.0935091,9 C13.0935091,9.23773585 13.0935091,9.44150943 13.0611617,9.71320755 C13.0288143,10.0867925 13.158204,10.4264151 13.4816782,10.5962264 L14.6461856,11.309434 C14.8079227,11.4113208 14.904965,11.5811321 14.9696598,11.7509434 C15.0343547,11.9207547 15.0020073,12.1245283 14.9373124,12.2943396 Z" id="形状"></path>
                <path d="M8,6 C6.35789474,6 5,7.35789474 5,9 C5,10.6421053 6.35789474,12 8,12 C9.64210526,12 11,10.6421053 11,9 C11,7.32631579 9.67368421,6 8,6 Z M8,11.0526316 C6.86315789,11.0526316 5.94736842,10.1368421 5.94736842,9 C5.94736842,7.86315789 6.86315789,6.94736842 8,6.94736842 C9.13684211,6.94736842 10.0526316,7.86315789 10.0526316,9 C10.0526316,10.1368421 9.13684211,11.0526316 8,11.0526316 Z" id="形状"></path>
            </g>
        </g>
    </g>
</svg>