<?xml version="1.0" encoding="UTF-8"?>
<svg width="22px" height="22px" viewBox="0 0 22 22" version="1.1" xmlns="http://www.w3.org/2000/svg" xmlns:xlink="http://www.w3.org/1999/xlink">
    <g stroke="none" stroke-width="1" fill="none" fill-rule="evenodd">
        <g transform="translate(-40.000000, -323.000000)">
            <g transform="translate(40.000000, 323.000000)">
                <path d="M-9.70443479e-14,11 C-5.85604931e-08,14.9299215 2.09658808,18.5613188 5.49999995,20.5262796 C8.90341182,22.4912404 13.0965882,22.4912404 16.5,20.5262796 C19.9034119,18.5613188 22.0000001,14.9299215 22,11 C22,4.92486775 17.0751322,9.98233595e-14 11,9.9475983e-14 C4.92486775,9.91286066e-14 -9.89549183e-14,4.92486775 -9.70443479e-14,11 Z" id="路径" fill="#F6931A"></path>
                <path d="M14.74968,11.39996 C14.74968,11.39996 16.52068,10.95204 16.21268,8.75996 C16.03668,7.513 14.59964,6.93396 13.88068,6.78744 L14.35412,4.91216 L13.11728,4.62 L12.63328,6.49748 C12.63328,6.49748 12.18008,6.37824 11.66528,6.26472 L12.144,4.38548 L10.93048,4.103 L10.44208,5.97476 L8.02912,5.39088 L7.69296,6.73552 L8.76392,7.0026 C9.02322439,7.06739258 9.18790585,7.32211016 9.14056,7.58516 L9.14056,7.59396 C8.99756,8.25396 7.8672,12.79344 7.8672,12.79344 C7.85002086,12.8792236 7.81880133,12.9615837 7.7748,13.0372 C7.67482541,13.2624727 7.42740956,13.3833037 7.18828,13.32364 L7.18168,13.32364 C7.14497403,13.3194305 7.10854054,13.3131134 7.07256,13.30472 C6.82572,13.24928 6.61716,13.19032 6.48164,13.1494 L6.3096,13.1054 L5.75256,14.6344 L8.14704,15.1998 L7.68856,17.08784 L8.90736,17.3756 L9.37464,15.488 L10.37388,15.72384 L9.91408,17.61144 L11.1166,17.89568 L11.58212,16.00368 C11.58212,16.00368 14.53716,16.70768 15.50868,14.95868 C16.368,13.41472 16.20168,12.32396 14.74968,11.39996 Z M12.59368,14.38096 C11.74668,14.73296 9.7152,13.97748 9.7152,13.97748 L10.40468,11.36696 C11.2112,11.46244 13.03412,11.90772 13.32408,12.50172 C13.66112,13.20572 13.44068,14.02896 12.59368,14.38096 Z M12.6192,10.49444 C11.98868,10.53844 10.69068,10.15696 10.69068,10.15696 L11.29744,7.60276 C13.1824,8.08676 13.8006,8.43172 13.88068,9.25496 C13.95328,10.00516 13.24972,10.45044 12.6192,10.49444 Z" id="形状" fill="#FFFFFF" fill-rule="nonzero"></path>
            </g>
        </g>
    </g>
</svg>