<?xml version="1.0" encoding="UTF-8"?>
<svg width="10px" height="10px" viewBox="0 0 10 10" version="1.1" xmlns="http://www.w3.org/2000/svg" xmlns:xlink="http://www.w3.org/1999/xlink">
    <!-- Generator: Sketch 52.2 (67145) - http://www.bohemiancoding.com/sketch -->
    <title>时间 (1) copy</title>
    <desc>Created with Sketch.</desc>
    <g id="Page-1" stroke="none" stroke-width="1" fill="none" fill-rule="evenodd" opacity="0.498232887">
        <g id="文章详情" transform="translate(-142.000000, -135.000000)" fill="#000000" fill-rule="nonzero">
            <g id="时间-(1)-copy" transform="translate(142.000000, 135.000000)">
                <path d="M7.27097614,4.54993492 L5.45509761,4.54993492 L5.45509761,2.72850325 C5.45509761,2.47861171 5.24963124,2.27314534 4.9997397,2.27314534 C4.74984816,2.27314534 4.54438178,2.47861171 4.54438178,2.72850325 L4.54438178,4.9997397 C4.54438178,5.24963124 4.74984816,5.45509761 4.9997397,5.45509761 L7.27097614,5.45509761 C7.52086768,5.45509761 7.72633406,5.24963124 7.72633406,4.9997397 C7.72633406,4.74984816 7.52086768,4.54993492 7.27097614,4.54993492 Z M4.9997397,0.00190889371 C2.23982646,0.00190889371 0.00190889371,2.23982646 0.00190889371,4.9997397 C0.00190889371,7.75965293 2.23982646,9.9975705 4.9997397,9.9975705 C7.75965293,9.9975705 9.9975705,7.75965293 9.9975705,4.9997397 C9.9975705,2.23982646 7.75965293,0.00190889371 4.9997397,0.00190889371 Z M4.9997397,9.09240781 C2.73960954,9.09240781 0.912624729,7.25986985 0.912624729,5.00529284 C0.912624729,2.75071584 2.74516269,0.918177874 4.9997397,0.918177874 C7.25986985,0.918177874 9.08685466,2.75071584 9.08685466,5.00529284 C9.08685466,7.25986985 7.25986985,9.09240781 4.9997397,9.09240781 Z" id="形状"></path>
            </g>
        </g>
    </g>
</svg>