<?xml version="1.0" encoding="UTF-8"?>
<svg width="10px" height="12px" viewBox="0 0 10 12" version="1.1" xmlns="http://www.w3.org/2000/svg" xmlns:xlink="http://www.w3.org/1999/xlink">
    <g id="页面1" stroke="none" stroke-width="1" fill="none" fill-rule="evenodd">
        <g id="文章部分内容解锁" transform="translate(-560.000000, -527.000000)" fill="#FFFFFF" fill-rule="nonzero">
            <g id="lock" transform="translate(560.000000, 527.000000)">
                <path d="M4.58948996,0.0112353333 C4.98492318,0.0112353333 5.36594497,0.0854101528 5.73254112,0.233688736 C6.09919412,0.381981528 6.42460257,0.585873458 6.70883751,0.845364514 C6.99307247,1.10491243 7.22165143,1.40766621 7.39468811,1.75366851 C7.56771058,2.09972767 7.65417918,2.47043121 7.65417918,2.86586443 L7.65417918,4.69486568 L6.15888644,4.69486568 L6.15888644,3.21192357 C6.15888644,2.6928846 6.01266868,2.28920814 5.7201905,2.00080894 C5.42772653,1.71248081 5.03435411,1.56829542 4.54005903,1.56829542 C4.09513803,1.56829542 3.7367851,1.71248081 3.46490078,2.00080894 C3.19300224,2.28920815 3.05711693,2.6928846 3.05711693,3.21192357 L3.05711693,4.71955272 L1.5,4.71955272 L1.5,2.86586443 C1.5,2.47043121 1.57826801,2.09972765 1.73480403,1.75366851 C1.89134004,1.40766622 2.10762524,1.10491243 2.38361696,0.845364514 C2.65960868,0.585873444 2.98501712,0.381981528 3.3598565,0.233688736 C3.73471008,0.0854101528 4.14456896,0.0112353333 4.58948996,0.0112353333 L4.58948996,0.0112353333 Z M9.27231953,8.43927993 L9.27231953,9.50204492 L9.27231953,10.0828654 C9.27231953,10.305262 9.23322104,10.515379 9.15493882,10.7131027 C9.07667081,10.9108264 8.96956572,11.0796988 8.83362357,11.2197342 C8.6976814,11.3598406 8.53705221,11.4710389 8.3516649,11.5534001 C8.16629181,11.6358323 7.96239989,11.6770058 7.73994649,11.6770058 L1.48690543,11.6770058 C1.26445203,11.6770058 1.06262092,11.6379074 0.881355222,11.5596252 C0.700132167,11.4813571 0.543581944,11.3742521 0.411747181,11.2383099 C0.279955056,11.1023677 0.179003958,10.9437567 0.108993389,10.7625337 C0.0389828194,10.5812538 0.00396331944,10.3876801 0.00396331944,10.1817131 L0.00396331944,6.25192576 C0.00396331944,6.02128599 0.0843063472,5.82764125 0.244935556,5.67111944 C0.405578972,5.51458343 0.593012875,5.43631542 0.80723725,5.43631542 L8.45670918,5.43631542 C8.68740581,5.43631542 8.88097949,5.51458343 9.0375155,5.67111944 C9.19405151,5.82764125 9.27231953,6.02128599 9.27231953,6.25192576 L9.27231953,8.43927993 L9.27231953,8.43927993 Z" id="形状"></path>
            </g>
        </g>
    </g>
</svg>