<?xml version="1.0" encoding="UTF-8"?>
<svg width="207px" height="107px" viewBox="0 0 207 107" version="1.1" xmlns="http://www.w3.org/2000/svg" xmlns:xlink="http://www.w3.org/1999/xlink">
    <!-- Generator: Sketch 55.1 (78136) - https://sketchapp.com -->
    <title>new</title>
    <desc>Created with Sketch.</desc>
    <g id="页面1" stroke="none" stroke-width="1" fill="none" fill-rule="evenodd">
        <g id="打开新文章时的提醒" transform="translate(-859.000000, -421.000000)">
            <g id="new" transform="translate(858.000000, 420.000000)">
                <path d="M101.5,14.5999817 C120.198867,14.5834137 137.065728,25.8346285 144.232877,43.1054095 C151.400026,60.3761906 147.455411,80.2638965 134.239035,93.4917198 C121.022659,106.719543 101.138376,110.681375 83.8613962,103.529181 C66.5844164,96.3769878 55.3189952,79.5198744 55.3189952,60.821 C55.3134293,48.5676514 60.175848,36.8139844 68.8365232,28.1458077 C77.4971984,19.477631 89.2466512,14.605038 101.5,14.5999817 L101.5,14.5999817 Z" id="椭圆_1" fill="#26CAD3"></path>
                <text id="NEW!" font-family="Montserrat-BlackItalic, Montserrat" font-size="20" font-style="italic" font-weight="700" fill="#FFFFFF">
                    <tspan x="73.11" y="68">NEW!</tspan>
                </text>
                <path d="M179.859,57.343 C178.518129,52.9370225 175.069978,49.4888708 170.664,48.148 C166.064,46.6146667 166.064,45.0813333 170.664,43.548 C175.0696,42.2065009 178.517501,38.7586005 179.859,34.353 C181.392333,29.753 182.925667,29.753 184.459,34.353 C185.799833,38.7586458 189.2475,42.2066874 193.653,43.548 C198.253,45.0813333 198.253,46.6146667 193.653,48.148 C189.247123,49.488684 185.799205,52.9369771 184.459,57.343 C182.924333,61.9403333 181.391,61.9403333 179.859,57.343 Z" id="多边形_1" fill="#26CAD3"></path>
                <path d="M9.492,77.527 C8.59072254,74.561658 6.27146675,72.2401523 3.307,71.336 C0.214333333,70.304 0.214333333,69.2706667 3.307,68.236 C6.27146675,67.3318477 8.59072254,65.010342 9.492,62.045 C10.5226667,58.9503333 11.5536667,58.9503333 12.585,62.045 C13.4862775,65.010342 15.8055332,67.3318477 18.77,68.236 C21.8626667,69.2673333 21.8626667,70.3006667 18.77,71.336 C15.8055332,72.2401523 13.4862775,74.561658 12.585,77.527 C11.5543333,80.6223333 10.5233333,80.6223333 9.492,77.527 Z" id="多边形_1_拷贝" fill="#FF97A3"></path>
                <path d="M181.123,102.2 C180.513427,100.19729 178.945856,98.630094 176.943,98.021 C174.853667,97.3243333 174.853667,96.6276667 176.943,95.931 C178.945811,95.3212401 180.51324,93.7538107 181.123,91.751 C181.819,89.6623333 182.515333,89.6623333 183.212,91.751 C183.82176,93.7538107 185.389189,95.3212401 187.392,95.931 C189.480667,96.6283333 189.480667,97.325 187.392,98.021 C185.389144,98.630094 183.821573,100.19729 183.212,102.2 C182.516,104.287333 181.819667,104.287333 181.123,102.2 Z" id="多边形_1_拷贝_2" fill="#97CFFF"></path>
                <path d="M196.39,18.8 C195.488438,15.8350413 193.169229,13.5139578 190.205,12.61 C187.112333,11.578 187.112333,10.5446667 190.205,9.51 C193.169467,8.60584771 195.488723,6.28434204 196.39,3.319 C197.421333,0.223666667 198.452333,0.223666667 199.483,3.319 C200.384277,6.28434204 202.703533,8.60584771 205.668,9.51 C208.760667,10.542 208.760667,11.5753333 205.668,12.61 C202.70311,13.5128579 200.383462,15.8343816 199.483,18.8 C198.452333,21.8946667 197.421333,21.8946667 196.39,18.8 Z" id="多边形_1_拷贝_3" fill="#FFEA97"></path>
            </g>
        </g>
    </g>
</svg>