<?xml version="1.0" encoding="UTF-8"?>
<svg width="29px" height="30px" viewBox="0 0 29 30" version="1.1" xmlns="http://www.w3.org/2000/svg" xmlns:xlink="http://www.w3.org/1999/xlink">
    <defs>
        <filter x="-34.2%" y="-32.5%" width="168.4%" height="165.0%" filterUnits="objectBoundingBox" id="filter-1">
            <feOffset dx="0" dy="1" in="SourceAlpha" result="shadowOffsetOuter1"></feOffset>
            <feGaussianBlur stdDeviation="1" in="shadowOffsetOuter1" result="shadowBlurOuter1"></feGaussianBlur>
            <feColorMatrix values="0 0 0 0 0   0 0 0 0 0   0 0 0 0 0  0 0 0 0.25 0" type="matrix" in="shadowBlurOuter1" result="shadowMatrixOuter1"></feColorMatrix>
            <feMerge>
                <feMergeNode in="shadowMatrixOuter1"></feMergeNode>
                <feMergeNode in="SourceGraphic"></feMergeNode>
            </feMerge>
        </filter>
    </defs>
    <g stroke="none" stroke-width="1" fill="none" fill-rule="evenodd">
        <g transform="translate(-689.000000, -98.000000)" fill-rule="nonzero">
            <g filter="url(#filter-1)" transform="translate(694.000000, 103.000000)">
                <path d="M18.4896778,12.7563444 L18.4896778,7.11865556 C18.4896778,5.58727245 17.6690122,4.17333269 16.3392778,3.41376667 L11.3615,0.569322229 C10.0497268,-0.180318041 8.43931765,-0.180318041 7.12754444,0.569322229 L2.14976667,3.41376667 C0.820580038,4.17369669 0.000480697141,5.5875675 0.000788808997,7.11865556 L0.000788808997,12.7563444 C0.000480697141,14.2874325 0.820580038,15.7013033 2.14976667,16.4612333 L7.12754444,19.3056778 C8.43931765,20.055318 10.0497268,20.055318 11.3615,19.3056778 L16.3392778,16.4612333 C17.6690122,15.7016673 18.4896778,14.2877275 18.4896778,12.7563444 Z" fill="#FFFFFF"></path>
                <path d="M15.6893222,4.6838111 C16.5649619,5.20955416 17.0915132,6.16440346 17.0688778,7.1855 L16.9408778,12.9170556 C16.9185976,13.9230998 16.3664163,14.8425006 15.4887889,15.3348333 L10.4868333,18.1366111 C9.59659696,18.6354366 8.50736274,18.619155 7.63243333,18.0939444 L2.79972223,15.1911889 C1.9240826,14.6654458 1.39753125,13.7105965 1.42016667,12.6895 L1.54816667,6.95794444 C1.57044682,5.95190021 2.12262814,5.03249938 3.00025556,4.54016667 L8.0022111,1.7383889 C8.89281223,1.23901208 9.98274799,1.25529598 10.8580333,1.78105556 L15.6893222,4.6838111 Z" fill="#FA6400"></path>
                <path d="M6.60416667,14.1017667 L5.89305556,7.67474444 C5.88900369,7.44745417 5.80489771,7.22887936 5.65554444,7.0575 C5.65554444,6.93376667 5.41945554,6.81003333 5.2999889,6.81003333 L5.41945556,6.56256667 L7.43332223,6.56256667 C7.67083333,6.56256667 7.78887779,6.56256667 7.90834444,6.6863 C8.02638888,6.81003333 8.02638888,6.93376667 8.14443333,7.18123333 L8.4999889,11.6299444 L10.7527889,7.30496667 L10.7527889,7.0575 C10.7527889,6.93376667 10.7527889,6.93376667 10.6347444,6.81003333 C10.5167,6.81003333 10.3972333,6.6863 10.2791889,6.6863 L10.3972333,6.43883333 L12.6486111,6.43883333 C12.7666555,6.43883333 12.8861222,6.43883333 13.0041667,6.56256667 C13.0041667,6.6863 13.1222111,6.81003333 13.1222111,6.93234444 L8.7375,14.1003444 L6.60416667,14.1017667 Z" fill="#FFFFFF"></path>
            </g>
        </g>
    </g>
</svg>