<?xml version="1.0" encoding="UTF-8"?>
<svg width="11px" height="11px" viewBox="0 0 11 11" version="1.1" xmlns="http://www.w3.org/2000/svg" xmlns:xlink="http://www.w3.org/1999/xlink">
    <!-- Generator: Sketch 55.1 (78136) - https://sketchapp.com -->
    <title>share2</title>
    <desc>Created with Sketch.</desc>
    <g id="页面-1" stroke="none" stroke-width="1" fill="none" fill-rule="evenodd">
        <g id="文章详情_上拉" transform="translate(-331.000000, -782.000000)" fill="#542DE0" fill-rule="nonzero">
            <g id="share2" transform="translate(331.000000, 782.000000)">
                <path d="M10.8291705,0.06875 C10.9652826,0.166375 11.0189025,0.298375 10.9941549,0.460625 L9.42267924,9.889 C9.4020562,10.00725 9.33606247,10.099375 9.22607293,10.165375 C9.16970329,10.197 9.10508443,10.214875 9.03634096,10.214875 C8.99097028,10.214875 8.94147498,10.203875 8.88922995,10.18325 L6.10924422,9.0475 L4.6230105,10.85975 C4.54876756,10.954625 4.4484021,11 4.32191413,11 C4.26966909,11 4.2242984,10.99175 4.18580206,10.97525 C4.10880938,10.946375 4.0455654,10.899625 3.99881984,10.830875 C3.95207428,10.7635 3.92732664,10.68925 3.92732664,10.60675 L3.92732664,8.465875 L9.23019754,1.964875 L2.66932122,7.643625 L0.245426643,6.6495 C0.0941910198,6.593125 0.0116988616,6.480375 0.000699907227,6.31125 C-0.00754930859,6.147625 0.0570695486,6.026625 0.197306218,5.94825 L10.4098354,0.055 C10.4717045,0.017875 10.5363234,0 10.6064417,0 C10.6889339,0 10.7631768,0.023375 10.8291705,0.06875 Z" id="路径"></path>
            </g>
        </g>
    </g>
</svg>