<?xml version="1.0" encoding="UTF-8"?>
<svg width="201px" height="70px" viewBox="0 0 201 70" version="1.1" xmlns="http://www.w3.org/2000/svg" xmlns:xlink="http://www.w3.org/1999/xlink">
    <!-- Generator: Sketch 55.1 (78136) - https://sketchapp.com -->
    <title>文字logo</title>
    <desc>Created with Sketch.</desc>
    <g id="页面-1" stroke="none" stroke-width="1" fill="none" fill-rule="evenodd">
        <g id="长图" transform="translate(-87.000000, -45.000000)" fill="#FFFFFF" fill-rule="nonzero">
            <g id="文字logo" transform="translate(87.000000, 45.000000)">
                <path d="M10.781893,6.67210145 C10.2880658,6.67210145 9.89712078,6.86835553 9.6090535,7.26086957 C9.32098621,7.65338361 9.17695473,8.13647056 9.17695473,8.71014493 C9.17695473,9.82730027 9.58161461,10.7632812 10.3909465,11.5181159 C11.2002784,12.2729506 12.4554099,13.1485457 14.1563786,14.1449275 C15.4458226,14.8695688 16.4746189,15.5111687 17.2427984,16.0697464 C18.0109778,16.628324 18.6625488,17.3152133 19.1975309,18.1304348 C19.732513,18.9456562 20,19.8816372 20,20.9384058 C20,23.836971 19.0123556,25.905187 17.037037,27.1431159 C15.0617185,28.3810448 12.4828691,29 9.30041152,29 C6.91356831,29 4.76681337,28.6150401 2.8600823,27.8451087 C0.953351235,27.0751773 0,25.7844293 0,23.9728261 C0,22.6141236 0.528115432,21.6026603 1.58436214,20.9384058 C2.64060885,20.2741513 3.89574033,19.942029 5.34979424,19.942029 C5.73388395,19.942029 6.19341296,19.9722219 6.72839506,20.0326087 C7.26337716,20.0929955 7.64060247,20.1835743 7.8600823,20.3043478 C7.80521235,21.330923 7.77777778,22.1310358 7.77777778,22.7047101 C7.77777778,23.9124457 7.87379877,24.8182337 8.06584362,25.4221014 C8.25788848,26.0259692 8.72427613,26.3278986 9.46502058,26.3278986 C10.0411551,26.3278986 10.5006842,26.0788068 10.8436214,25.5806159 C11.1865586,25.082425 11.3580247,24.4861146 11.3580247,23.7916667 C11.3580247,22.6443179 10.9396475,21.6932405 10.1028807,20.9384058 C9.26611379,20.1835711 8.0109823,19.3381689 6.33744856,18.4021739 C5.04800453,17.6775326 4.01920823,17.0359327 3.25102881,16.4773551 C2.48284938,15.9187774 1.8312784,15.2318881 1.2962963,14.4166667 C0.761314198,13.6014452 0.49382716,12.6654642 0.49382716,11.6086957 C0.49382716,8.89129076 1.47461296,6.94384647 3.43621399,5.76630435 C5.39781502,4.58876223 7.88750206,4 10.9053498,4 C13.0452782,4 15.0960121,4.31702582 17.0576132,4.95108696 C19.0192142,5.5851481 20,6.65699728 20,8.16666667 C20,9.34420879 19.4375914,10.2801898 18.3127572,10.9746377 C17.187923,11.6690856 15.9670848,12.0163043 14.6502058,12.0163043 C13.3607617,12.0163043 12.5377247,11.9106291 12.18107,11.6992754 L12.2633745,9.29891304 C12.2633745,8.54407835 12.1467776,7.91757495 11.9135802,7.41938406 C11.6803829,6.92119316 11.3031576,6.67210145 10.781893,6.67210145 Z M22,4.8440367 L30.0090192,4.33761468 L30.4261556,8.13577982 C31.0101495,6.61650617 31.8861272,5.54740371 33.054115,4.92844037 C34.2221028,4.30947703 35.7098745,4 37.5174746,4 C40.6042995,4 42.7733872,4.99876677 44.0248027,6.99633028 C45.1649813,4.99876677 47.3062601,4 50.4487035,4 C55.2875101,4 57.7068771,6.64462187 57.7068771,11.933945 L57.7068771,20.7119266 C57.7068771,21.696641 57.804208,22.611005 57.9988726,23.4550459 C58.1935372,24.2990868 58.527243,25.1290479 59,25.9449541 C58.4994363,26.2825705 57.8181178,26.5428125 56.9560316,26.7256881 C56.0939453,26.9085636 55.2874897,27 54.5366404,27 C52.3675202,27 50.6850868,26.493583 49.4892897,25.4807339 C48.2934927,24.4678848 47.6956032,22.9204997 47.6956032,20.8385321 L47.6956032,11.7651376 C47.6956032,11.5963294 47.7025554,11.0617782 47.71646,10.1614679 C47.7303646,9.26115758 47.6260815,8.53669999 47.4036077,7.98807339 C47.1811338,7.4394468 46.847428,7.16513761 46.4024803,7.16513761 C45.9297233,7.16513761 45.5960175,7.39724539 45.4013529,7.86146789 C45.2066882,8.32569039 45.095453,8.7969395 45.0676437,9.27522936 C45.0398345,9.75351921 45.0259301,10.5131446 45.0259301,11.5541284 L45.0259301,26.3669725 L35.0146561,26.3669725 L35.0146561,10.2036697 C35.0146561,9.30335941 34.8895165,8.57186826 34.6392334,8.00917431 C34.3889503,7.44648037 33.9996268,7.16513761 33.4712514,7.16513761 C32.8872575,7.16513761 32.4979341,7.43241323 32.3032694,7.96697248 C32.1086048,8.50153172 32.011274,9.21895574 32.011274,10.1192661 L32.011274,26.3669725 L22,26.3669725 L22,4.8440367 Z M74.0885246,26.0108696 C73.662293,27.0676381 72.9519175,27.8300097 71.957377,28.2980072 C70.9628366,28.7660048 69.8120284,29 68.504918,29 C65.805451,29 63.5464572,28.4565272 61.7278689,27.3695652 C59.9092805,26.2826033 59,24.5465095 59,22.1612319 C59,19.1720865 60.356817,17.2019975 63.0704918,16.2509058 C65.7841666,15.2998141 69.2436948,14.8242754 73.4491803,14.8242754 L73.4491803,10.884058 C73.4491803,9.5857423 73.3213128,8.55918252 73.0655738,7.80434783 C72.8098348,7.04951313 72.255742,6.67210145 71.4032787,6.67210145 C70.2950764,6.67210145 69.5491822,7.07215784 69.1655738,7.87228261 C68.7819653,8.67240738 68.5901639,9.7970942 68.5901639,11.2463768 C68.5901639,11.8200512 68.618579,12.6201639 68.6754098,13.6467391 C68.4480863,13.7675127 68.0573798,13.8580915 67.5032787,13.9184783 C66.9491776,13.978865 66.4874335,14.009058 66.1180328,14.009058 C64.5835989,14.009058 63.2694044,13.6769357 62.1754098,13.0126812 C61.0814153,12.3484266 60.5344262,11.3369633 60.5344262,9.97826087 C60.5344262,7.65337002 61.7065457,6.07578918 64.0508197,5.24547101 C66.3950937,4.41515285 68.9453414,4 71.7016393,4 C75.4808932,4 78.4218474,4.61140693 80.5245902,5.83423913 C82.6273329,7.05707133 83.6786885,9.28380027 83.6786885,12.5144928 L83.6786885,21.9347826 C83.6786885,22.9915512 83.7781411,23.9728216 83.9770492,24.8786232 C84.1759573,25.7844248 84.5169375,26.6751164 85,27.5507246 C84.488522,27.9130453 83.7710429,28.1923299 82.847541,28.388587 C81.9240391,28.584844 81.0928999,28.682971 80.3540984,28.682971 C77.2283997,28.682971 75.139896,27.7922794 74.0885246,26.0108696 Z M71.5238095,25 C72.444449,25 73.0872998,24.600004 73.452381,23.8 C73.8174621,23 74,22.0386021 74,20.9157895 L74,17 C72.1904671,17 70.9047657,17.3578912 70.1428571,18.0736842 C69.3809486,18.7894773 69,19.9473604 69,21.5473684 C69,22.5298295 69.1984107,23.3508739 69.5952381,24.0105263 C69.9920655,24.6701787 70.6349162,25 71.5238095,25 Z M98.2055336,7.9490566 C97.624503,7.9490566 97.2717398,8.20943136 97.1472332,8.73018868 C97.0227267,9.250946 96.9604743,10.234584 96.9604743,11.6811321 L96.9604743,27 L87,27 L87,4.86792453 L94.9683794,4.34716981 L95.3833992,8.25283019 C95.8814254,6.864144 96.676872,5.80817972 97.7697628,5.08490566 C98.8626537,4.3616316 100.142285,4 101.608696,4 C103.573132,4 105.129441,4.55691267 106.277668,5.67075472 C107.425895,6.78459676 108,8.35407792 108,10.3792453 C108,12.144034 107.522732,13.5182341 106.568182,14.5018868 C105.613632,15.4855395 104.278665,15.9773585 102.563241,15.9773585 C102.203556,15.9773585 101.733204,15.9411953 101.152174,15.8688679 C100.571143,15.7965405 100.169962,15.688051 99.9486166,15.5433962 C100.086957,14.8779841 100.156126,13.9232767 100.156126,12.6792453 C100.156126,11.2616281 100.038539,10.1188723 99.8033597,9.2509434 C99.5681806,8.38301453 99.0355773,7.9490566 98.2055336,7.9490566 Z M108,6.96713615 L108.041237,5.56494523 C109.470798,5.06833346 111.10652,4.27960895 112.948454,3.19874804 C114.790387,2.11788714 116.288654,1.05164845 117.443299,0 L120.247423,0 L120.247423,4.99530516 L124,4.99530516 L124,6.96713615 L120.28866,6.96713615 L120.28866,21.9092332 C120.28866,22.8440318 120.460479,23.5889383 120.804124,24.143975 C121.147768,24.6990116 121.731955,25.0933739 122.556701,25.3270736 C121.979379,26.2910846 121.16839,26.9775671 120.123711,27.3865415 C119.079033,27.7955159 117.938151,28 116.701031,28 C114.72164,28 113.182136,27.4741837 112.082474,26.4225352 C110.982812,25.3708868 110.43299,23.8372558 110.43299,21.8215962 L110.43299,6.96713615 L108,6.96713615 Z" id="smart"></path>
                <path d="M10.781893,41.5652174 C10.2880658,41.5652174 9.89712078,41.7536213 9.6090535,42.1304348 C9.32098621,42.5072483 9.17695473,42.9710117 9.17695473,43.5217391 C9.17695473,44.5942083 9.58161461,45.49275 10.3909465,46.2173913 C11.2002784,46.9420326 12.4554099,47.7826039 14.1563786,48.7391304 C15.4458226,49.4347861 16.4746189,50.050722 17.2427984,50.5869565 C18.0109778,51.1231911 18.6625488,51.7826048 19.1975309,52.5652174 C19.732513,53.34783 20,54.2463717 20,55.2608696 C20,58.0434922 19.0123556,60.0289796 17.037037,61.2173913 C15.0617185,62.405803 12.4828691,63 9.30041152,63 C6.91356831,63 4.76681337,62.6304385 2.8600823,61.8913043 C0.953351235,61.1521702 0,59.9130522 0,58.173913 C0,56.8695587 0.528115432,55.8985539 1.58436214,55.2608696 C2.64060885,54.6231852 3.89574033,54.3043478 5.34979424,54.3043478 C5.73388395,54.3043478 6.19341296,54.333333 6.72839506,54.3913043 C7.26337716,54.4492757 7.64060247,54.5362313 7.8600823,54.6521739 C7.80521235,55.6376861 7.77777778,56.4057943 7.77777778,56.9565217 C7.77777778,58.1159478 7.87379877,58.9855043 8.06584362,59.5652174 C8.25788848,60.1449304 8.72427613,60.4347826 9.46502058,60.4347826 C10.0411551,60.4347826 10.5006842,60.1956546 10.8436214,59.7173913 C11.1865586,59.239128 11.3580247,58.66667 11.3580247,58 C11.3580247,56.8985452 10.9396475,55.9855109 10.1028807,55.2608696 C9.26611379,54.5362283 8.0109823,53.7246422 6.33744856,52.826087 C5.04800453,52.1304313 4.01920823,51.5144954 3.25102881,50.9782609 C2.48284938,50.4420263 1.8312784,49.7826126 1.2962963,49 C0.761314198,48.2173874 0.49382716,47.3188457 0.49382716,46.3043478 C0.49382716,43.6956391 1.47461296,41.8260926 3.43621399,40.6956522 C5.39781502,39.5652117 7.88750206,39 10.9053498,39 C13.0452782,39 15.0960121,39.3043448 17.0576132,39.9130435 C19.0192142,40.5217422 20,41.5507174 20,43 C20,44.1304404 19.4375914,45.0289822 18.3127572,45.6956522 C17.187923,46.3623222 15.9670848,46.6956522 14.6502058,46.6956522 C13.3607617,46.6956522 12.5377247,46.5942039 12.18107,46.3913043 L12.2633745,44.0869565 C12.2633745,43.3623152 12.1467776,42.760872 11.9135802,42.2826087 C11.6803829,41.8043454 11.3031576,41.5652174 10.781893,41.5652174 Z M27.6833333,30 C29.2722302,30 30.5555507,30.3156831 31.5333333,30.9470588 C32.511116,31.5784345 33,32.4431318 33,33.5411765 C33,34.6392212 32.4881996,35.4901931 31.4645833,36.0941176 C30.4409671,36.6980422 29.1041749,37 27.4541667,37 C25.8347141,37 24.5208384,36.7049049 23.5125,36.1147059 C22.5041616,35.5245069 22,34.694123 22,33.6235294 C22,32.5254847 22.5347169,31.6470621 23.6041667,30.9882353 C24.6736165,30.3294085 26.0333251,30 27.6833333,30 Z M33.6273063,55.7561905 C33.6273063,56.7339731 33.7306263,57.6419006 33.9372694,58.48 C34.1439125,59.3180994 34.4981525,60.1422182 35,60.952381 C34.468632,61.2876207 33.738012,61.5460308 32.8081181,61.727619 C31.8782241,61.9092073 31.0295241,62 30.2619926,62 C27.9298776,62 26.1365376,61.4971479 24.8819188,60.4914286 C23.6273,59.4857093 23,57.9492167 23,55.8819048 L23,40 L33.6273063,40 L33.6273063,55.7561905 Z M47.1539823,67.6348774 C47.9681457,67.6348774 48.5584052,67.2829281 48.9247788,66.5790191 C49.2911523,65.87511 49.5150438,64.9178081 49.5964602,63.7070845 C49.6778765,62.4963609 49.7185841,60.6943807 49.7185841,58.3010899 L49.7185841,56.6961853 C48.4430615,58.1040034 46.434822,58.8079019 43.6938053,58.8079019 C41.1156213,58.8079019 39.1887969,57.9773017 37.9132743,56.3160763 C36.6377517,54.6548509 36,52.3742198 36,49.4741144 C36,45.9827255 36.9905506,43.392379 38.9716814,41.7029973 C40.9528123,40.0136155 43.7344954,39.1689373 47.3168142,39.1689373 C49.4336389,39.1689373 51.2247714,39.4645747 52.6902655,40.0558583 L59,39 L59,57.2874659 C59,60.4691349 58.6200628,62.9750136 57.860177,64.8051771 C57.1002912,66.6353407 55.8519261,67.9586699 54.1150442,68.7752044 C52.3781624,69.5917389 49.9764165,70 46.9097345,70 C45.498518,70 44.0466151,69.8099474 42.5539823,69.4298365 C41.0613495,69.0497256 39.7994152,68.4443729 38.7681416,67.6137602 C37.736868,66.7831475 37.2212389,65.7624947 37.2212389,64.5517711 C37.2212389,63.2847348 37.736868,62.3415108 38.7681416,61.7220708 C39.7994152,61.1026309 41.0477803,60.7929155 42.5132743,60.7929155 C42.8932172,60.7929155 43.347785,60.8210715 43.8769912,60.8773842 C44.4061973,60.9336969 44.7657808,61.0181647 44.9557522,61.1307902 C44.9557522,61.6376047 44.942183,62.0177099 44.9150442,62.2711172 L44.8743363,63.3692098 C44.8743363,64.6644025 45.0303819,65.6991333 45.3424779,66.4734332 C45.6545738,67.2477332 46.2584026,67.6348774 47.1539823,67.6348774 Z M49,41.1728395 C48.7750993,41.0576126 48.5020096,41 48.1807229,41 L47.6024096,41 C46.5421634,41 45.8433752,41.5113118 45.5060241,42.5339506 C45.168673,43.5565895 45,44.9320901 45,46.6604938 L45,48.6481481 C45,50.578199 45.0963846,52.1193358 45.2891566,53.2716049 C45.4819287,54.4238741 46.028108,55 46.9277108,55 C47.8273137,55 48.3975892,54.5823087 48.6385542,53.7469136 C48.8795193,52.9115185 49,51.8456855 49,50.5493827 L49,41.1728395 Z M62,40.8073394 L70.2332762,40.3229358 L70.6620926,43.9559633 C71.2624387,42.502745 72.1629443,41.4801253 73.3636364,40.8880734 C74.5643285,40.2960215 76.0937586,40 77.9519726,40 C80.58206,40 82.5260086,40.6324096 83.7838765,41.8972477 C85.0417444,43.1620858 85.670669,45.0593146 85.670669,47.5889908 L85.670669,55.9853211 C85.670669,56.9272218 85.7707251,57.8018308 85.9708405,58.6091743 C86.1709558,59.4165178 86.5140056,60.2103937 87,60.9908257 C86.4854177,61.3137631 85.7850244,61.5626903 84.8987993,61.7376147 C84.0125742,61.9125391 83.1835373,62 82.4116638,62 C80.181807,62 78.4522646,61.5156012 77.2229846,60.546789 C75.9937045,59.5779768 75.3790738,58.0978693 75.3790738,56.106422 L75.3790738,45.933945 C75.3790738,45.0727786 75.2504301,44.3730914 74.9931389,43.8348624 C74.7358478,43.2966334 74.3356231,43.0275229 73.7924528,43.0275229 C73.1921068,43.0275229 72.7918821,43.2831779 72.5917667,43.7944954 C72.3916514,44.305813 72.2915952,44.9920446 72.2915952,45.853211 L72.2915952,61.3944954 L62,61.3944954 L62,40.8073394 Z M102.088525,60.1304348 C101.662293,61.1449326 100.951918,61.8768093 99.957377,62.326087 C98.9628366,62.7753646 97.8120284,63 96.504918,63 C93.805451,63 91.5464572,62.4782661 89.7278689,61.4347826 C87.9092805,60.3912991 87,58.7246491 87,56.4347826 C87,53.565203 88.356817,51.6739176 91.0704918,50.7608696 C93.7841666,49.8478215 97.2436948,49.3913043 101.44918,49.3913043 L101.44918,45.6086957 C101.44918,44.3623126 101.321313,43.3768152 101.065574,42.6521739 C100.809835,41.9275326 100.255742,41.5652174 99.4032787,41.5652174 C98.2950764,41.5652174 97.5491822,41.9492715 97.1655738,42.7173913 C96.7819653,43.4855111 96.5901639,44.5652104 96.5901639,45.9565217 C96.5901639,46.5072491 96.618579,47.2753574 96.6754098,48.2608696 C96.4480863,48.3768122 96.0573798,48.4637678 95.5032787,48.5217391 C94.9491776,48.5797104 94.4874335,48.6086957 94.1180328,48.6086957 C92.5835989,48.6086957 91.2694044,48.2898583 90.1754098,47.6521739 C89.0814153,47.0144896 88.5344262,46.0434848 88.5344262,44.7391304 C88.5344262,42.5072352 89.7065457,40.9927576 92.0508197,40.1956522 C94.3950937,39.3985467 96.9453414,39 99.7016393,39 C103.480893,39 106.421847,39.5869507 108.52459,40.7608696 C110.627333,41.9347885 111.678689,44.0724483 111.678689,47.173913 L111.678689,56.2173913 C111.678689,57.2318891 111.778141,58.1739087 111.977049,59.0434783 C112.175957,59.9130478 112.516937,60.7681117 113,61.6086957 C112.488522,61.9565235 111.771043,62.2246367 110.847541,62.4130435 C109.924039,62.6014502 109.0929,62.6956522 108.354098,62.6956522 C105.2284,62.6956522 103.139896,61.8405883 102.088525,60.1304348 Z M98.5238095,60 C99.444449,60 100.0873,59.600004 100.452381,58.8 C100.817462,58 101,57.0386021 101,55.9157895 L101,52 C99.1904671,52 97.9047657,52.3578912 97.1428571,53.0736842 C96.3809486,53.7894773 96,54.9473604 96,56.5473684 C96,57.5298295 96.1984107,58.3508739 96.5952381,59.0105263 C96.9920655,59.6701787 97.6349162,60 98.5238095,60 Z M113,42.7183099 L113.041237,41.3661972 C114.470798,40.8873215 116.10652,40.1267658 117.948454,39.084507 C119.790387,38.0422483 121.288654,37.0140896 122.443299,36 L125.247423,36 L125.247423,40.8169014 L129,40.8169014 L129,42.7183099 L125.28866,42.7183099 L125.28866,57.1267606 C125.28866,58.0281735 125.460479,58.7464762 125.804124,59.2816901 C126.147768,59.8169041 126.731955,60.197182 127.556701,60.4225352 C126.979379,61.3521173 126.16839,62.0140825 125.123711,62.4084507 C124.079033,62.8028189 122.938151,63 121.701031,63 C119.72164,63 118.182136,62.4929628 117.082474,61.4788732 C115.982812,60.4647837 115.43299,58.9859252 115.43299,57.0422535 L115.43299,42.7183099 L113,42.7183099 Z M153.686441,55.5488722 C153.686441,56.5137893 153.78531,57.4097703 153.983051,58.2368421 C154.180792,59.0639139 154.519772,59.877189 155,60.6766917 C154.491523,61.0075205 153.771191,61.2625304 152.838983,61.4417293 C151.906775,61.6209282 151.07345,61.7105263 150.338983,61.7105263 C147.231623,61.7105263 145.155372,60.8972512 144.110169,59.2706767 C143.347454,60.2631629 142.464694,60.9661633 141.461864,61.3796992 C140.459035,61.7932352 139.265544,62 137.881356,62 C135.734453,62 134.088989,61.5795781 132.944915,60.7387218 C131.800842,59.8978655 131.024013,58.7124137 130.614407,57.1823308 C130.2048,55.652248 130,53.7017662 130,51.3308271 L130,40 L140.423729,40 L140.423729,51.1240602 C140.423729,53.9912424 140.487288,55.9624006 140.614407,57.037594 C140.741526,58.1127873 141.087568,58.6503759 141.652542,58.6503759 C142.471756,58.6503759 142.987287,58.271307 143.199153,57.5131579 C143.411018,56.7550087 143.516949,55.7142923 143.516949,54.3909774 L143.516949,40 L153.686441,40 L153.686441,55.5488722 Z M167.205534,42.7773585 C166.624503,42.7773585 166.27174,43.0264126 166.147233,43.5245283 C166.022727,44.022644 165.960474,44.9635151 165.960474,46.3471698 L165.960474,61 L156,61 L156,39.8301887 L163.968379,39.3320755 L164.383399,43.0679245 C164.881425,41.739616 165.676872,40.7295632 166.769763,40.0377358 C167.862654,39.3459085 169.142285,39 170.608696,39 C172.573132,39 174.129441,39.5326991 175.277668,40.5981132 C176.425895,41.6635273 177,43.1647702 177,45.1018868 C177,46.7899455 176.522732,48.1043978 175.568182,49.045283 C174.613632,49.9861682 173.278665,50.4566038 171.563241,50.4566038 C171.203556,50.4566038 170.733204,50.4220129 170.152174,50.3528302 C169.571143,50.2836475 169.169962,50.1798749 168.948617,50.0415094 C169.086957,49.4050283 169.156126,48.4918298 169.156126,47.3018868 C169.156126,45.9459052 169.038539,44.8528343 168.80336,44.0226415 C168.568181,43.1924487 168.035577,42.7773585 167.205534,42.7773585 Z M198.687386,53.9565217 C199.107863,54.188407 199.430224,54.5507222 199.654479,55.0434783 C199.878734,55.5362343 199.990859,56.0724609 199.990859,56.6521739 C199.990859,58.1014565 199.528341,59.2970967 198.603291,60.2391304 C197.67824,61.1811641 196.493913,61.8768093 195.050274,62.326087 C193.606635,62.7753646 192.099947,63 190.530165,63 C186.605709,63 183.536269,61.905808 181.321755,59.7173913 C179.107241,57.5289746 178,54.42031 178,50.3913043 C178,42.7970635 182.400931,39 191.202925,39 C193.893981,39 196.199564,39.4927487 198.119744,40.4782609 C200.039924,41.463773 201,43.05796 201,45.2608696 C201,47.9275496 200.060948,49.7318793 198.182815,50.673913 C196.304683,51.6159467 193.683746,52.0869565 190.319927,52.0869565 C189.394877,52.0869565 188.708107,52.0289861 188.259598,51.9130435 C188.399757,53.5072543 188.81322,54.7101409 189.5,55.5217391 C190.18678,56.3333374 191.301028,56.7391304 192.842779,56.7391304 C194.076179,56.7391304 195.225467,56.514495 196.290676,56.0652174 C197.355886,55.6159398 198.154781,54.9130483 198.687386,53.9565217 Z M190.873042,42 C189.652921,42 188.861502,42.833325 188.498763,44.5 C188.136025,46.166675 187.971146,47.99999 188.004122,50 C189.78484,49.8888883 191.062651,49.4791702 191.837593,48.7708333 C192.612535,48.0624965 193,46.9027858 193,45.2916667 C193,43.0972113 192.291021,42 190.873042,42 Z" id="signature"></path>
            </g>
        </g>
    </g>
</svg>