<?xml version="1.0" encoding="UTF-8"?>
<svg width="20px" height="20px" viewBox="0 0 20 20" version="1.1" xmlns="http://www.w3.org/2000/svg" xmlns:xlink="http://www.w3.org/1999/xlink">
    <g stroke="none" stroke-width="1" fill="none" fill-rule="evenodd">
        <g transform="translate(-879.000000, -430.000000)" fill-rule="nonzero">
            <g transform="translate(879.000000, 430.000000)">
                <path d="M10,0 C4.4771525,0 0,4.4771525 0,10 C0,15.5228475 4.4771525,20 10,20 C15.5228475,20 20,15.5228475 20,10 C20,4.4771525 15.5228475,0 10,0 Z" fill="#7ED321"></path>
                <path d="M15.4357143,8.66428572 L9.71571428,14.0242857 C9.53198539,14.1942964 9.29031101,14.2877984 9.04,14.2857484 C8.79026022,14.2870047 8.5493137,14.1935869 8.36571428,14.0242857 L4.56571428,10.4571429 C4.38868318,10.2959244 4.28715624,10.0680068 4.28571428,9.82857143 C4.28571428,9.3342857 4.7142857,8.93571428 5.23857143,8.93571428 C5.48882983,8.9339182 5.73040191,9.02738055 5.91428572,9.19714285 L9.04,12.1314286 L14.0857143,7.40285715 C14.2698171,7.23361444 14.5113642,7.1406724 14.7614286,7.14281949 C15.2871429,7.14281949 15.7142857,7.54285715 15.7142857,8.03428572 C15.7126907,8.27339109 15.6117848,8.50107614 15.4357143,8.66285715 L15.4357143,8.66428572 Z" fill="#FFFFFF"></path>
            </g>
        </g>
    </g>
</svg>