<?xml version="1.0" encoding="UTF-8"?>
<svg width="430px" height="145px" viewBox="0 0 430 145" version="1.1" xmlns="http://www.w3.org/2000/svg" xmlns:xlink="http://www.w3.org/1999/xlink">
    <g stroke="none" stroke-width="1" fill="none" fill-rule="evenodd">
        <g transform="translate(-580.000000, -65.000000)">
            <g transform="translate(580.000000, 65.000000)">
                <path d="M13.199262,0 L143.800738,0 C151.090489,0 157,5.93406196 157,13.2540984 C157,20.5741348 151.090489,26.5081967 143.800738,26.5081967 L11.8206125,26.5081967 C5.13262731,26.5081967 1.07749077,33 1.07749077,33 C0.482409052,33 0,32.5155868 0,31.9180328 L0,13.2540984 C0,5.93406196 5.90951089,0 13.199262,0 Z" fill="#FF634E"></path>
                <g transform="translate(2.100000, 40.360000)" fill-rule="nonzero">
                    <path d="M3.27,23.64 L3.27,14.04 L13.92,14.04 L13.92,11.25 L3.27,11.25 L3.27,5.01 L14.55,5.01 L14.55,2.22 L0,2.22 L0,23.64 L3.27,23.64 Z M21.78,24.06 C23.16,24.06 24.36,23.79 25.38,23.31 C26.28,22.86 27.03,22.23 27.63,21.45 L27.63,23.64 L30.57,23.64 L30.57,13.74 C30.57,11.85 30.09,10.41 29.16,9.42 C28.08,8.28 26.4,7.71 24.12,7.71 C22.2,7.71 20.64,8.04 19.5,8.76 C18.18,9.54 17.34,10.8 17.01,12.48 L20.16,12.75 C20.34,11.88 20.79,11.25 21.51,10.83 C22.11,10.47 22.92,10.29 23.91,10.29 C26.25,10.29 27.42,11.37 27.42,13.53 L27.42,14.16 L23.94,14.25 C21.66,14.31 19.86,14.76 18.6,15.66 C17.22,16.59 16.53,17.94 16.53,19.68 C16.53,20.97 17.01,22.02 18,22.83 C18.9,23.64 20.16,24.06 21.78,24.06 Z M22.5,21.63 C21.69,21.63 21.03,21.42 20.55,21.03 C20.04,20.64 19.8,20.16 19.8,19.56 C19.8,17.64 21.24,16.62 24.15,16.56 L27.42,16.47 L27.42,17.37 C27.42,18.57 26.91,19.59 25.95,20.4 C24.99,21.21 23.85,21.63 22.5,21.63 Z M37.38,23.64 L37.38,14.31 C37.5,13.05 37.95,12.06 38.67,11.34 C39.33,10.68 40.14,10.38 41.04,10.38 C43.44,10.38 44.67,11.7 44.67,14.34 L44.67,23.64 L47.85,23.64 L47.85,14.07 C47.85,9.81 45.9,7.71 42.06,7.71 C41.1,7.71 40.23,7.89 39.45,8.31 C38.67,8.7 37.98,9.27 37.38,10.05 L37.38,8.13 L34.2,8.13 L34.2,23.64 L37.38,23.64 Z M75.99,11.46 L75.99,4.38 L69.27,4.38 L69.27,2.46 L78.09,2.46 L78.09,1.76214598e-12 L51.27,1.76214598e-12 L51.27,2.46 L60.09,2.46 L60.09,4.38 L53.37,4.38 L53.37,11.46 L75.99,11.46 Z M66.57,4.38 L62.79,4.38 L62.79,2.46 L66.57,2.46 L66.57,4.38 Z M73.26,9.15 L69.27,9.15 L69.27,6.72 L73.26,6.72 L73.26,9.15 Z M66.57,9.15 L62.79,9.15 L62.79,6.72 L66.57,6.72 L66.57,9.15 Z M60.09,9.15 L56.1,9.15 L56.1,6.72 L60.09,6.72 L60.09,9.15 Z M74.79,15.54 L74.79,13.2 L54.75,13.2 L54.75,15.54 L74.79,15.54 Z M63.39,26.61 C65.37,26.61 66.39,25.62 66.39,23.7 L66.39,19.62 L77.61,19.62 L77.61,17.19 L51.75,17.19 L51.75,19.62 L63.63,19.62 L63.63,23.1 C63.63,23.85 63.24,24.24 62.46,24.24 C61.71,24.24 60.93,24.18 60.09,24.09 L60.63,26.61 L63.39,26.61 Z M75.93,26.37 L77.91,24.39 C76.05,23.01 73.8,21.6 71.1,20.22 L69.21,22.02 C72.09,23.58 74.34,25.02 75.93,26.37 Z M53.4,26.37 C56.28,25.11 58.74,23.64 60.72,21.96 L58.86,20.28 C56.91,21.75 54.51,23.04 51.69,24.15 L53.4,26.37 Z M119.67,14.16 L119.67,11.52 L89.67,11.52 L89.67,14.16 L119.67,14.16 Z M149.67,14.16 L149.67,11.52 L119.67,11.52 L119.67,14.16 L149.67,14.16 Z M179.67,14.16 L179.67,11.52 L149.67,11.52 L149.67,14.16 L179.67,14.16 Z M209.67,14.16 L209.67,11.52 L179.67,11.52 L179.67,14.16 L209.67,14.16 Z M10.41,66.43 C14.58,63.97 17.64,61.06 19.59,57.64 C21.69,60.61 23.4,63.43 24.66,66.07 L26.85,63.88 C25.2,60.88 23.22,57.88 20.88,54.85 L21.24,53.74 C22.5,49.78 23.13,44.92 23.13,39.22 L20.19,39.22 C20.13,44.95 19.53,49.63 18.33,53.26 C16.77,57.52 13.5,61.12 8.49,64.06 L10.41,66.43 Z M1.56,63.67 C5.16,62.35 8.55,60.82 11.73,59.02 L10.92,56.23 C8.76,57.55 6.63,58.63 4.47,59.53 L4.47,39.67 L1.53,39.67 L1.53,58.87 C1.53,59.77 1.2,60.46 0.6,60.97 L1.56,63.67 Z M13.2,52.15 L15.63,50.5 C14.25,48.1 12.24,45.34 9.63,42.16 L7.23,43.66 C9.75,46.78 11.76,49.63 13.2,52.15 Z M30.57,52.33 C35.55,49.84 39.66,46.3 42.9,41.71 C45.6,45.91 49.71,49.45 55.23,52.3 L56.94,49.69 C50.91,46.63 46.65,43.06 44.16,39.04 L41.64,39.04 C38.64,43.42 34.38,46.99 28.86,49.75 L30.57,52.33 Z M44.34,66.7 L44.34,47.98 L41.46,47.98 L41.46,66.7 L44.34,66.7 Z M60.57,66.64 C66.87,62.56 71.01,57.4 72.99,51.16 C75.27,57.58 79.29,62.74 85.05,66.58 L86.94,64.09 C80.1,59.89 75.78,53.8 74.04,45.82 C74.16,43.96 74.25,41.74 74.25,39.1 L71.37,39.1 C71.37,40.24 71.34,41.8 71.34,43.81 C71.1,52.42 66.93,59.17 58.83,64.09 L60.57,66.64 Z M94.98,66.79 L94.98,46.45 C96.06,44.38 96.93,42.22 97.62,40 L94.95,38.74 C93.6,43.36 91.53,47.44 88.77,50.92 L89.7,53.98 C90.6,52.96 91.41,51.94 92.19,50.92 L92.19,66.79 L94.98,66.79 Z M116.79,45.34 L116.79,42.67 L108.69,42.67 C108.36,41.53 107.88,40.3 107.25,38.95 L104.52,39.7 C105.03,40.66 105.48,41.65 105.87,42.67 L97.08,42.67 L97.08,45.34 L116.79,45.34 Z M114.24,49.72 L114.24,47.17 L99.81,47.17 L99.81,49.72 L114.24,49.72 Z M114.24,53.98 L114.24,51.4 L99.81,51.4 L99.81,53.98 L114.24,53.98 Z M101.91,66.73 L101.91,65.17 L112.11,65.17 L112.11,66.73 L114.87,66.73 L114.87,55.87 L99.15,55.87 L99.15,66.73 L101.91,66.73 Z M112.11,62.5 L101.91,62.5 L101.91,58.51 L112.11,58.51 L112.11,62.5 Z M121.2,66.52 C123.06,64.06 124.17,60.94 124.53,57.16 L131.58,57.16 L131.58,65.71 L134.46,65.71 L134.46,57.16 L141.9,57.16 L141.9,61.63 C141.9,62.8 141.39,63.4 140.43,63.4 C139.41,63.4 138.33,63.34 137.16,63.25 L137.91,66.04 L141.36,66.04 C143.64,66.04 144.81,64.9 144.81,62.65 L144.81,40.06 L121.8,40.06 L121.8,54.76 C121.74,58.72 120.81,61.99 119.01,64.57 L121.2,66.52 Z M141.9,47.32 L134.46,47.32 L134.46,42.82 L141.9,42.82 L141.9,47.32 Z M131.58,47.32 L124.68,47.32 L124.68,42.82 L131.58,42.82 L131.58,47.32 Z M131.58,54.52 L124.68,54.52 L124.68,49.93 L131.58,49.93 L131.58,54.52 Z M141.9,54.52 L134.46,54.52 L134.46,49.93 L141.9,49.93 L141.9,54.52 Z M172.74,49.93 C173.88,49.93 174.75,49.72 175.29,49.36 C175.86,48.94 176.25,47.71 176.49,45.64 L174,44.83 C173.91,46.09 173.73,46.84 173.43,47.08 C173.19,47.29 172.8,47.41 172.29,47.41 L167.73,47.41 C167.16,47.41 166.89,47.14 166.89,46.66 L166.89,44.59 C170.04,43.93 172.83,43.09 175.23,42.13 L173.64,39.97 C171.6,40.81 169.35,41.53 166.89,42.1 L166.89,38.98 L164.13,38.98 L164.13,47.23 C164.13,49.03 165.06,49.93 166.92,49.93 L172.74,49.93 Z M149.88,50.35 C153.48,49.93 156.27,49.42 158.31,48.88 L158.31,49.93 L161.04,49.93 L161.04,39.04 L158.31,39.04 L158.31,41.44 L150.54,41.44 L150.54,44.08 L158.31,44.08 L158.31,46.45 C156,46.99 153.06,47.38 149.49,47.62 L149.88,50.35 Z M156.42,66.7 L156.42,61.96 L169.77,61.96 L169.77,63.25 C169.77,63.85 169.41,64.18 168.75,64.18 L165.33,64.09 L166.05,66.67 L169.62,66.67 C171.57,66.67 172.56,65.74 172.56,63.88 L172.56,51.04 L153.63,51.04 L153.63,66.7 L156.42,66.7 Z M169.77,55.33 L156.42,55.33 L156.42,53.41 L169.77,53.41 L169.77,55.33 Z M169.77,59.65 L156.42,59.65 L156.42,57.67 L169.77,57.67 L169.77,59.65 Z M192.69,66.76 L192.69,54.73 L202.32,54.73 C202.23,58.06 202.02,59.95 201.69,60.37 C201.36,60.76 200.82,60.97 200.07,61.03 C199.08,61.03 198.03,61 196.89,61 L197.67,63.67 L199.59,63.67 C200.31,63.67 201.06,63.58 201.78,63.43 C202.62,63.25 203.22,62.92 203.61,62.5 C204.57,61.48 205.08,58 205.11,52 L200.94,52 L201.51,45.31 L201.51,43.93 L192.69,43.93 L192.69,38.92 L189.84,38.92 L189.84,43.93 L181.2,43.93 L181.2,46.66 L189.84,46.66 L189.84,52 L179.49,52 L179.49,54.73 L189.84,54.73 L189.84,66.76 L192.69,66.76 Z M204.63,45.07 L206.13,42.73 C204.33,41.29 202.35,40.03 200.16,38.98 L198.69,41.14 C200.73,42.1 202.71,43.39 204.63,45.07 Z M198.15,52 L192.69,52 L192.69,46.66 L198.66,46.66 L198.15,52 Z M216.84,66.91 C220.29,65.56 223.2,64.06 225.57,62.41 C228.03,63.97 231.09,65.44 234.72,66.76 L236.19,64.06 C232.98,62.98 230.22,61.81 227.94,60.55 C230.16,58.57 231.63,56.35 232.41,53.89 L232.41,51.49 L220.41,51.49 C220.71,50.59 221.04,49.66 221.34,48.67 L235.8,48.67 L235.8,45.94 L222.06,45.94 C222.57,43.87 223.02,41.65 223.38,39.28 L220.47,38.92 C220.11,41.38 219.66,43.72 219.09,45.94 L214.65,45.94 L216.21,40.39 L213.36,39.91 L210.99,48.67 L218.31,48.67 C216.27,54.97 213.18,59.95 209.04,63.61 L210.51,66.25 C213.78,63.61 216.51,60.07 218.67,55.63 C219.63,57.4 221.1,59.08 223.05,60.64 C220.92,61.93 218.34,63.13 215.34,64.21 L216.84,66.91 Z M231.6,45.73 L233.64,43.69 C232.23,42.1 230.49,40.51 228.42,38.95 L226.5,40.84 C228.72,42.55 230.4,44.17 231.6,45.73 Z M225.42,58.99 C223.29,57.49 221.73,55.84 220.74,54.07 L229.53,54.07 C228.69,55.81 227.31,57.46 225.42,58.99 Z M239.85,49.33 C243.69,46.69 246.39,43.75 248.01,40.45 L245.4,39.25 C244.02,42.01 241.89,44.41 238.98,46.48 L239.85,49.33 Z M265.14,43.51 L265.14,40.72 L250.5,40.72 L250.5,43.51 L265.14,43.51 Z M246.33,66.73 L246.33,51.91 C247.56,50.47 248.58,48.94 249.39,47.32 L246.81,46.12 C245.19,49.36 242.64,52.18 239.22,54.58 L240.06,57.4 C241.32,56.53 242.46,55.63 243.54,54.7 L243.54,66.73 L246.33,66.73 Z M258.54,66.61 C260.67,66.61 261.75,65.65 261.75,63.73 L261.75,51.01 L266.43,51.01 L266.43,48.22 L249.75,48.22 L249.75,51.01 L258.87,51.01 L258.87,63.04 C258.87,63.67 258.42,64 257.55,64 C256.29,64 254.94,63.94 253.56,63.82 L254.19,66.61 L258.54,66.61 Z M291.03,66.4 C293.58,66.4 295.02,65.32 295.32,63.16 C295.62,60.76 295.77,54.37 295.77,44.02 L286.5,44.02 C286.98,42.55 287.4,40.99 287.7,39.31 L284.88,38.95 C284.16,43.09 282.78,46.6 280.8,49.48 L282.51,51.73 C283.65,50.23 284.61,48.58 285.45,46.78 L292.98,46.78 C292.92,55.33 292.83,60.37 292.65,61.87 C292.47,63.13 291.78,63.76 290.58,63.76 C289.62,63.76 288.48,63.7 287.16,63.64 L287.85,66.25 C289.35,66.34 290.43,66.4 291.03,66.4 Z M272.82,65.74 L272.82,63.31 L277.56,63.31 L277.56,64.87 L280.29,64.87 L280.29,43.99 L275.67,43.99 C276.24,42.55 276.69,41.02 276.99,39.37 L274.14,38.98 C273.9,40.72 273.48,42.37 272.94,43.99 L270.09,43.99 L270.09,65.74 L272.82,65.74 Z M277.56,52.21 L272.82,52.21 L272.82,46.69 L277.56,46.69 L277.56,52.21 Z M288,59.23 L290.25,57.64 C289.2,55.78 287.67,53.65 285.69,51.19 L283.38,52.63 C285.3,55.06 286.86,57.25 288,59.23 Z M277.56,60.67 L272.82,60.67 L272.82,54.76 L277.56,54.76 L277.56,60.67 Z" fill="#000000"></path>
                    <path d="M316.26,66.67 L316.26,54.61 C317.31,55.39 318.39,56.32 319.47,57.43 L321.09,54.97 C319.65,53.71 318.06,52.63 316.38,51.67 C318,49.57 319.17,47.47 319.92,45.37 L319.92,42.97 L316.74,42.97 C316.38,41.74 315.87,40.39 315.27,38.92 L312.57,39.67 C313.08,40.75 313.56,41.83 314.01,42.97 L309.78,42.97 L309.78,45.7 L317.04,45.7 C315.66,48.76 312.99,51.88 309.06,55.09 L309.96,58.09 C311.22,57.07 312.39,56.02 313.47,54.94 L313.47,66.67 L316.26,66.67 Z M336.63,65.71 L336.63,62.92 L329.31,62.92 L329.31,50.62 L335.94,50.62 L335.94,47.83 L329.31,47.83 L329.31,39.25 L326.43,39.25 L326.43,47.83 L319.98,47.83 L319.98,50.62 L326.43,50.62 L326.43,62.92 L318.93,62.92 L318.93,65.71 L336.63,65.71 Z M366.27,45.1 L366.27,42.37 L354.6,42.37 C354.09,41.05 353.55,39.88 352.98,38.83 L349.8,39.37 C350.4,40.27 350.94,41.29 351.45,42.37 L339.54,42.37 L339.54,45.1 L366.27,45.1 Z M364.14,55.3 L366.24,53.2 C363.96,50.62 361.17,48.04 357.84,45.46 L355.89,47.35 C359.43,50.2 362.19,52.84 364.14,55.3 Z M341.34,55.12 C344.7,52.9 347.52,50.32 349.8,47.32 L347.73,45.49 C345.51,48.25 342.75,50.68 339.48,52.72 L341.34,55.12 Z M341.04,66.85 C345.72,65.62 349.71,63.7 353.01,61.12 C356.25,63.55 360.21,65.41 364.89,66.73 L366.66,64.06 C362.16,62.95 358.35,61.33 355.23,59.17 C357.21,57.19 358.86,54.91 360.24,52.3 L357.6,51.13 C356.4,53.47 354.84,55.57 352.92,57.37 C350.91,55.63 349.29,53.59 348.06,51.31 L345.6,52.72 C346.95,55.15 348.66,57.31 350.7,59.2 C347.61,61.42 343.8,63.1 339.3,64.21 L341.04,66.85 Z M394.95,52.03 L395.97,49.54 C391.53,48.73 388.53,47.26 386.94,45.13 C387.12,44.59 387.27,44.05 387.39,43.45 L391.77,43.45 C391.47,44.47 391.08,45.4 390.63,46.21 L393.36,47.02 C393.9,45.58 394.35,44.11 394.68,42.67 L394.68,40.96 L382.92,40.96 C383.16,40.42 383.37,39.88 383.55,39.28 L380.76,38.92 C380.1,40.96 378.81,42.7 376.92,44.08 L378.6,46.3 C379.68,45.46 380.64,44.5 381.42,43.45 L384.69,43.45 C384.3,44.83 383.61,45.97 382.65,46.84 C381.39,47.92 379.35,48.73 376.53,49.33 L377.58,51.88 C381,51.04 383.43,49.93 384.84,48.52 C385.17,48.16 385.47,47.8 385.77,47.38 C387.66,49.6 390.72,51.16 394.95,52.03 Z M375.03,43.87 L376.56,41.56 C375.06,40.72 373.38,40.03 371.58,39.46 L370.17,41.59 C371.82,42.13 373.44,42.88 375.03,43.87 Z M371.49,51.4 C373.71,50.08 375.57,48.67 377.07,47.14 L375.39,45.19 C373.83,46.63 371.88,47.95 369.6,49.21 L371.49,51.4 Z M375.87,61.6 L375.87,54.97 L389.82,54.97 L389.82,61.3 L392.7,61.3 L392.7,52.33 L373.02,52.33 L373.02,61.6 L375.87,61.6 Z M371.13,66.73 C376.74,66.25 380.28,65.23 381.78,63.64 C383.16,62.41 384.09,59.86 384.51,56.02 L381.66,55.78 C381.42,58.72 380.64,60.76 379.32,61.96 C377.82,63.19 374.73,63.91 370.02,64.15 L371.13,66.73 Z M394.14,66.97 L395.7,64.6 C392.49,63.22 388.95,62.05 385.08,61.09 L383.64,63.25 C387.24,64.15 390.72,65.38 394.14,66.97 Z M425.82,66.07 L425.82,63.37 L420.03,63.37 C420.81,61.87 421.53,60.19 422.19,58.3 L419.61,57.37 C418.89,59.5 418.08,61.51 417.15,63.37 L414.33,63.37 L414.33,56.02 L424.77,56.02 L424.77,53.38 L414.33,53.38 L414.33,49.75 L420.9,49.75 L420.9,48.19 C422.16,48.91 423.54,49.57 424.98,50.17 L426.6,47.8 C421.02,45.49 416.85,42.61 414.06,39.13 L411.78,39.13 C408.54,42.67 404.34,45.58 399.15,47.86 L400.8,50.23 C402.24,49.57 403.62,48.85 404.94,48.07 L404.94,49.75 L411.51,49.75 L411.51,53.38 L401.04,53.38 L401.04,56.02 L411.51,56.02 L411.51,63.37 L408.63,63.37 C407.91,61.12 407.13,59.2 406.29,57.58 L403.74,58.51 C404.58,60.04 405.3,61.66 405.87,63.37 L399.99,63.37 L399.99,66.07 L425.82,66.07 Z M419.25,47.2 L406.35,47.2 C408.75,45.64 410.94,43.84 412.92,41.8 C414.69,43.84 416.79,45.64 419.25,47.2 Z" fill="#542DE0"></path>
                </g>
                <path d="M315.521484,73.1640625 C316.349609,73.1640625 317.042969,72.890625 317.601562,72.34375 C318.15625,71.8007812 318.433594,71.1132812 318.433594,70.28125 C318.433594,69.6601562 318.263672,69.1357422 317.923828,68.7080078 C317.583984,68.2802734 317.046875,67.9179688 316.3125,67.6210938 L316.3125,67.6210938 L315.410156,67.2519531 C314.753906,66.9824219 314.425781,66.6269531 314.425781,66.1855469 C314.425781,65.8652344 314.550781,65.5996094 314.800781,65.3886719 C315.050781,65.1738281 315.365234,65.0664062 315.744141,65.0664062 C316.052734,65.0664062 316.304688,65.1289062 316.5,65.2539062 C316.6875,65.3632812 316.884766,65.5976562 317.091797,65.9570312 L317.091797,65.9570312 L318.199219,65.3007812 C317.613281,64.2851562 316.798828,63.7773438 315.755859,63.7773438 C314.982422,63.7773438 314.335938,64.0078125 313.816406,64.46875 C313.296875,64.9257812 313.037109,65.4941406 313.037109,66.1738281 C313.037109,67.1816406 313.65625,67.9472656 314.894531,68.4707031 L314.894531,68.4707031 L315.767578,68.8339844 C315.994141,68.9316406 316.189453,69.0341797 316.353516,69.1416016 C316.517578,69.2490234 316.651367,69.3642578 316.754883,69.4873047 C316.858398,69.6103516 316.93457,69.7451172 316.983398,69.8916016 C317.032227,70.0380859 317.056641,70.1992188 317.056641,70.375 C317.056641,70.8125 316.916016,71.1738281 316.634766,71.4589844 C316.353516,71.7441406 316,71.8867188 315.574219,71.8867188 C315.035156,71.8867188 314.625,71.6914062 314.34375,71.3007812 C314.1875,71.0976562 314.078125,70.7304688 314.015625,70.1992188 L314.015625,70.1992188 L312.632812,70.5039062 C312.757812,71.3476562 313.072266,72.0019531 313.576172,72.4667969 C314.087891,72.9316406 314.736328,73.1640625 315.521484,73.1640625 Z M326.310547,73.1640625 C327.630859,73.1640625 328.757812,72.7089844 329.691406,71.7988281 C330.621094,70.8925781 331.085938,69.7890625 331.085938,68.4882812 C331.085938,67.1953125 330.623047,66.0878906 329.697266,65.1660156 C328.775391,64.2441406 327.669922,63.7832031 326.380859,63.7832031 C325.076172,63.7832031 323.958984,64.2402344 323.029297,65.1542969 C322.095703,66.0683594 321.628906,67.1621094 321.628906,68.4355469 C321.628906,69.8847656 322.140625,71.0566406 323.164062,71.9511719 C324.09375,72.7597656 325.142578,73.1640625 326.310547,73.1640625 Z M326.328125,71.8867188 C325.453125,71.8867188 324.681641,71.5644531 324.013672,70.9199219 C323.341797,70.2753906 323.005859,69.453125 323.005859,68.453125 C323.005859,67.5 323.330078,66.6992188 323.978516,66.0507812 C324.626953,65.3945312 325.421875,65.0664062 326.363281,65.0664062 C327.308594,65.0664062 328.101562,65.3945312 328.742188,66.0507812 C329.386719,66.703125 329.708984,67.5117188 329.708984,68.4765625 C329.708984,69.4296875 329.382812,70.2382812 328.730469,70.9023438 C328.078125,71.5585938 327.277344,71.8867188 326.328125,71.8867188 Z M339.027344,73.1640625 C339.886719,73.1640625 340.707031,72.9433594 341.488281,72.5019531 L341.488281,72.5019531 L341.488281,70.8554688 C341.265625,71.0429688 341.053711,71.203125 340.852539,71.3359375 C340.651367,71.46875 340.457031,71.5742188 340.269531,71.6523438 C339.933594,71.8085938 339.525391,71.8867188 339.044922,71.8867188 C338.115234,71.8867188 337.330078,71.5605469 336.689453,70.9082031 C336.048828,70.2558594 335.728516,69.4550781 335.728516,68.5058594 C335.728516,67.5449219 336.048828,66.7324219 336.689453,66.0683594 C337.326172,65.4003906 338.109375,65.0664062 339.039062,65.0664062 C339.882812,65.0664062 340.699219,65.3964844 341.488281,66.0566406 L341.488281,66.0566406 L341.488281,64.4394531 C340.730469,63.9980469 339.945312,63.7773438 339.132812,63.7773438 C337.644531,63.7773438 336.431641,64.3300781 335.494141,65.4355469 C334.732422,66.3378906 334.351562,67.3652344 334.351562,68.5175781 C334.351562,69.8027344 334.806641,70.9003906 335.716797,71.8105469 C336.630859,72.7128906 337.734375,73.1640625 339.027344,73.1640625 Z M346.576172,73 L346.576172,63.953125 L345.210938,63.953125 L345.210938,73 L346.576172,73 Z M351.183594,73 L352.191406,70.8027344 L356.064453,70.8027344 L357.013672,73 L358.507812,73 L354.189453,63.3847656 L349.712891,73 L351.183594,73 Z M355.507812,69.5195312 L352.759766,69.5195312 L354.166016,66.4433594 L355.507812,69.5195312 Z M365.664062,73 L365.664062,71.7167969 L363.003906,71.7167969 L363.003906,63.953125 L361.638672,63.953125 L361.638672,73 L365.664062,73 Z M379.332031,73.4160156 L382.009766,67.5390625 L382.882812,73 L384.283203,73 L382.572266,63.2734375 L379.355469,70.3046875 L376.25,63.2734375 L374.345703,73 L375.757812,73 L376.730469,67.5332031 L379.332031,73.4160156 Z M392.429688,73.1640625 C393.75,73.1640625 394.876953,72.7089844 395.810547,71.7988281 C396.740234,70.8925781 397.205078,69.7890625 397.205078,68.4882812 C397.205078,67.1953125 396.742188,66.0878906 395.816406,65.1660156 C394.894531,64.2441406 393.789062,63.7832031 392.5,63.7832031 C391.195312,63.7832031 390.078125,64.2402344 389.148438,65.1542969 C388.214844,66.0683594 387.748047,67.1621094 387.748047,68.4355469 C387.748047,69.8847656 388.259766,71.0566406 389.283203,71.9511719 C390.212891,72.7597656 391.261719,73.1640625 392.429688,73.1640625 Z M392.447266,71.8867188 C391.572266,71.8867188 390.800781,71.5644531 390.132812,70.9199219 C389.460938,70.2753906 389.125,69.453125 389.125,68.453125 C389.125,67.5 389.449219,66.6992188 390.097656,66.0507812 C390.746094,65.3945312 391.541016,65.0664062 392.482422,65.0664062 C393.427734,65.0664062 394.220703,65.3945312 394.861328,66.0507812 C395.505859,66.703125 395.828125,67.5117188 395.828125,68.4765625 C395.828125,69.4296875 395.501953,70.2382812 394.849609,70.9023438 C394.197266,71.5585938 393.396484,71.8867188 392.447266,71.8867188 Z M408.884766,73.5507812 L408.884766,63.953125 L407.519531,63.953125 L407.519531,70.2402344 L400.921875,63.3378906 L400.921875,73 L402.287109,73 L402.287109,66.6660156 L408.884766,73.5507812 Z M418.044922,73 L418.044922,71.7167969 L414.417969,71.7167969 L414.417969,68.6933594 L417.939453,68.6933594 L417.939453,67.4101562 L414.417969,67.4101562 L414.417969,65.2363281 L418.044922,65.2363281 L418.044922,63.953125 L413.052734,63.953125 L413.052734,73 L418.044922,73 Z M425.03125,73 L425.03125,69.0917969 L427.996094,63.953125 L426.425781,63.953125 L424.351562,67.5683594 L422.283203,63.953125 L420.712891,63.953125 L423.666016,69.0917969 L423.666016,73 L425.03125,73 Z" fill="#FA6400" fill-rule="nonzero"></path>
                <text font-family="PingFangSC-Medium, PingFang SC" font-size="12" font-weight="400" fill="#FFFFFF">
                    <tspan x="12" y="17">Powered by Blockchain</tspan>
                </text>
                <text font-family="PingFangSC-Regular, PingFang SC" font-size="16" font-weight="normal" fill="#000000">
                    <tspan x="0" y="140">将社区的价值与平台脱钩，实现跨平台网络价值</tspan>
                </text>
            </g>
        </g>
    </g>
</svg>