<?xml version="1.0" encoding="UTF-8"?>
<svg width="13px" height="12px" viewBox="0 0 13 12" version="1.1" xmlns="http://www.w3.org/2000/svg" xmlns:xlink="http://www.w3.org/1999/xlink">
    <g id="页面1" stroke="none" stroke-width="1" fill="none" fill-rule="evenodd">
        <g id="文章部分内容解锁_已解锁" transform="translate(-559.000000, -517.000000)" fill="#FFFFFF" fill-rule="nonzero">
            <g id="unlock" transform="translate(559.000000, 517.000000)">
                <path d="M9.2970634,0.0112353333 C9.69249663,0.0112353333 10.0735184,0.0854101528 10.4401146,0.233688736 C10.8067676,0.381981528 11.132176,0.585873458 11.416411,0.845364514 C11.7006459,1.10491243 11.9292249,1.40766621 12.1022616,1.75366851 C12.275284,2.09972767 12.3617526,2.47043121 12.3617526,2.86586443 L12.3617526,4.69486568 L10.8664599,4.69486568 L10.8664599,3.21192357 C10.8664599,2.6928846 10.7202421,2.28920814 10.4277639,2.00080894 C10.1353,1.71248081 9.74192756,1.56829542 9.24763247,1.56829542 C8.80271147,1.56829542 8.44435854,1.71248081 8.17247422,2.00080894 C7.90057568,2.28920815 7.76469038,2.6928846 7.76469038,3.21192357 L7.76469038,4.71955272 L6.20757344,4.71955272 L6.20757344,2.86586443 C6.20757344,2.47043121 6.28584146,2.09972765 6.44237747,1.75366851 C6.59891349,1.40766622 6.81519868,1.10491243 7.0911904,0.845364514 C7.36718213,0.585873444 7.69259057,0.381981528 8.06742994,0.233688736 C8.44228353,0.0854101528 8.8521424,0.0112353333 9.2970634,0.0112353333 L9.2970634,0.0112353333 Z M9.27231953,8.43927993 L9.27231953,9.50204492 L9.27231953,10.0828654 C9.27231953,10.305262 9.23322104,10.515379 9.15493882,10.7131027 C9.07667081,10.9108264 8.96956572,11.0796988 8.83362357,11.2197342 C8.6976814,11.3598406 8.53705221,11.4710389 8.3516649,11.5534001 C8.16629181,11.6358323 7.96239989,11.6770058 7.73994649,11.6770058 L1.48690543,11.6770058 C1.26445203,11.6770058 1.06262092,11.6379074 0.881355222,11.5596252 C0.700132167,11.4813571 0.543581944,11.3742521 0.411747181,11.2383099 C0.279955056,11.1023677 0.179003958,10.9437567 0.108993389,10.7625337 C0.0389828194,10.5812538 0.00396331944,10.3876801 0.00396331944,10.1817131 L0.00396331944,6.25192576 C0.00396331944,6.02128599 0.0843063472,5.82764125 0.244935556,5.67111944 C0.405578972,5.51458343 0.593012875,5.43631542 0.80723725,5.43631542 L8.45670918,5.43631542 C8.68740581,5.43631542 8.88097949,5.51458343 9.0375155,5.67111944 C9.19405151,5.82764125 9.27231953,6.02128599 9.27231953,6.25192576 L9.27231953,8.43927993 L9.27231953,8.43927993 Z" id="形状"></path>
            </g>
        </g>
    </g>
</svg>