<svg class="icon" viewBox="0 0 1024 1024" xmlns="http://www.w3.org/2000/svg" width="200" height="200"><defs><style/></defs><path d="M632.9 576.5l-57.3 57.3c-11.6 11.7-11.6 30.7 0 42.4 11.7 11.7 30.7 11.7 42.4 0l111.3-111.3c.6-.5 1.1-1 1.7-1.5 5.8-5.8 8.8-13.5 8.7-21.3 0-7.7-2.9-15.4-8.7-21.3-.5-.5-1.1-1.1-1.7-1.5L618.1 407.9c-11.7-11.7-30.7-11.7-42.4 0-11.6 11.7-11.6 30.7 0 42.4l66.2 66.3H492.6c-111.3 0-217 42.8-297.6 120.5-80.4 77.4-127.1 181.1-131.5 291.8-.7 16.6 12.2 30.5 28.8 31.2h1.2c16 0 29.3-12.7 30-28.8 3.8-95.2 44-184.3 113.2-251 69.4-66.9 160.3-103.7 256-103.7h140.2z"/><path d="M903.7 64.2H183.2c-30.6 0-55.7 27-55.7 60v277.5c0 15.3 12.5 27.9 27.9 27.9 15.3 0 27.9-12.5 27.9-27.9V124.2h720.5v775.6l-310.4.1c-.6 0-1.2-.1-1.8-.1H442.5c-16.5 0-30 13.5-30 30s13.5 30 30 30h461.1c30.6 0 55.7-27 55.7-60V124.2c.1-33-24.9-60-55.6-60z"/></svg>