<?xml version="1.0" encoding="UTF-8"?>
<svg width="60px" height="60px" viewBox="0 0 60 60" version="1.1" xmlns="http://www.w3.org/2000/svg" xmlns:xlink="http://www.w3.org/1999/xlink">
    <!-- Generator: Sketch 55.1 (78136) - https://sketchapp.com -->
    <title>avatar</title>
    <desc>Created with Sketch.</desc>
    <defs>
        <circle id="path-1" cx="30.9632353" cy="30" r="30"></circle>
        <circle id="path-3" cx="32" cy="30" r="30"></circle>
    </defs>
    <g id="页面-1" stroke="none" stroke-width="1" fill="none" fill-rule="evenodd">
        <g id="默认头像" transform="translate(-20.000000, -20.000000)">
            <g id="avatar" transform="translate(18.000000, 20.000000)">
                <g id="路径" transform="translate(1.036765, 0.000000)">
                    <mask id="mask-2" fill="white">
                        <use xlink:href="#path-1"></use>
                    </mask>
                    <use id="蒙版" fill="#FFFFFF" xlink:href="#path-1"></use>
                    <path d="M30.25,0.0220588235 C12.9926471,0.0220588235 -1,14.0147059 -1,31.2720588 C-1,43.2941176 5.79411765,53.7352941 15.75,58.9632353 C15.4264706,56.8529412 15.5588235,54.6102941 16.2132353,53.4558824 L19.1838235,48.1911765 C13.8529412,44.5367647 10.3602941,38.4779412 10.3602941,31.6102941 C10.3602941,20.4411765 19.5808824,11.3897059 30.9558824,11.3897059 C42.3308824,11.3897059 51.5514706,20.4411765 51.5514706,31.6102941 C51.5514706,38.7867647 47.7352941,45.0735294 41.9926471,48.6617647 L44.8529412,53.4558824 C45.5220588,54.5735294 45.5661765,56.6985294 45.1544118,58.75 C54.8897059,53.4558824 61.5,43.1397059 61.5,31.2794118 C61.5,14.0147059 47.5073529,0.0220588235 30.25,0.0220588235 Z" fill="#BBBBBB" fill-rule="nonzero" mask="url(#mask-2)"></path>
                </g>
                <g id="icon_touxiang">
                    <path d="M40.4264706,32.1176471 C42.3269799,32.1176471 43.8676471,30.6066081 43.8676471,28.7426471 C43.8676471,26.878686 42.3269799,25.3676471 40.4264706,25.3676471 C38.5259613,25.3676471 36.9852941,26.878686 36.9852941,28.7426471 C36.9852941,30.6066081 38.5259613,32.1176471 40.4264706,32.1176471 Z" id="路径" fill="#BBBBBB" fill-rule="nonzero"></path>
                    <path d="M20.4264706,28.7426471 C20.4264706,30.6066081 21.9671378,32.1176471 23.8676471,32.1176471 C25.7681563,32.1176471 27.3088235,30.6066081 27.3088235,28.7426471 C27.3088235,26.878686 25.7681563,25.3676471 23.8676471,25.3676471 C21.9671378,25.3676471 20.4264706,26.878686 20.4264706,28.7426471 Z" id="路径" fill="#BBBBBB" fill-rule="nonzero"></path>
                    <mask id="mask-4" fill="white">
                        <use xlink:href="#path-3"></use>
                    </mask>
                    <circle stroke="#BBBBBB" stroke-width="2" cx="32" cy="30" r="29"></circle>
                </g>
            </g>
        </g>
    </g>
</svg>