<?xml version="1.0" encoding="UTF-8"?>
<svg width="15px" height="10px" viewBox="0 0 15 10" version="1.1" xmlns="http://www.w3.org/2000/svg" xmlns:xlink="http://www.w3.org/1999/xlink">
    <g stroke="none" stroke-width="1" fill="none" fill-rule="evenodd">
        <g transform="translate(-218.000000, -358.000000)" fill="#FFFFFF" fill-rule="nonzero">
            <g transform="translate(218.000000, 358.000000)">
                <path d="M7.16495528,0.005535125 C2.43309148,0.005535125 0.00365064063,4.78913984 0.00365064063,4.78913984 C0.00365064063,4.78913984 1.83693567,9.57335214 7.16495528,9.57335214 C11.9899879,9.57335214 14.3259082,4.80779919 14.3259082,4.80779919 C14.3259082,4.80779919 11.9713605,0.005535125 7.16495528,0.005535125 L7.16495528,0.005535125 L7.16495528,0.005535125 Z M7.17571598,7.77916061 C5.44556103,7.77916061 4.19488898,6.47094358 4.19488898,4.78909187 C4.19488898,3.10709627 5.44565697,1.79921502 7.17571598,1.79921502 C8.905775,1.79921502 10.1563991,3.10698434 10.1563991,4.78909188 C10.1563991,6.47094358 8.905791,7.77916061 7.17571598,7.77916061 L7.17571598,7.77916061 L7.17571598,7.77916061 Z M7.17571598,2.99492923 C6.18686642,2.99720277 5.38726455,3.82807944 5.38726455,4.78910786 C5.38726455,5.74962462 6.18688241,6.58318747 7.17571598,6.58318747 C8.16450159,6.58318747 8.96405548,5.74956067 8.96405548,4.78910786 C8.96411945,3.82774367 8.16451758,2.99307756 7.17571598,2.99492923 L7.17571598,2.99492923 L7.17571598,2.99492923 Z" id="形状"></path>
            </g>
        </g>
    </g>
</svg>