<?xml version="1.0" encoding="UTF-8"?>
<svg width="11px" height="11px" viewBox="0 0 11 11" version="1.1" xmlns="http://www.w3.org/2000/svg" xmlns:xlink="http://www.w3.org/1999/xlink">
    <g stroke="none" stroke-width="1" fill="none" fill-rule="evenodd">
        <g transform="translate(-281.000000, -375.000000)" fill="#FFFFFF" fill-rule="nonzero">
            <g transform="translate(281.000000, 375.000000)">
                <path d="M6.56197485,11 C6.00429994,10.914157 5.42803586,10.8454827 4.87036093,10.7253025 C4.10820522,10.5536166 3.34604949,10.3304248 2.56530461,10.1244017 C2.56530461,10.0900645 2.54671545,10.0042215 2.54671545,9.93554718 L2.54671545,5.24852105 C2.54671545,5.14550949 2.6210721,4.99099215 2.71401793,4.95665496 C4.31268603,4.14973105 5.20496589,2.89642369 5.53957083,1.26540727 C5.57674916,1.05938415 5.61392749,0.870529605 5.65110582,0.664506481 C5.70687331,0.372640385 5.85558662,0.115111477 6.19019157,0.0464370992 C6.56197485,-0.0394058736 6.91516897,-0.022237279 7.23118475,0.235291639 C7.54720054,0.509989141 7.64014636,0.88769821 7.67732468,1.26540727 C7.75168134,1.83197087 7.62155719,2.38136587 7.43566555,2.91359228 C7.21259559,3.56599885 7.52861138,3.9780451 8.27217792,3.9780451 L9.70354354,3.9780451 C10.7073584,3.99521369 11.2650333,4.78496901 10.8746609,5.64339871 C10.8374825,5.74641027 10.781715,5.84942183 10.7073584,5.9352648 C10.5958234,6.10695074 10.5958234,6.26146809 10.7073584,6.45032262 C10.9861959,6.91387465 10.9304284,7.17140356 10.4842884,7.49760685 C10.1682726,7.73796717 10.1310943,7.82381014 10.2983968,8.1843506 C10.5214667,8.68223982 10.4285209,8.97410592 9.94520267,9.3003092 C9.83366768,9.38615218 9.72213271,9.54066952 9.70354354,9.67801827 C9.66636521,10.2445819 9.33176026,10.6051223 8.79267451,10.7939769 C8.53242622,10.8798198 8.2349996,10.9313256 7.9747513,11 L6.56197485,11 Z M1.67302474,5.16267808 L1.67302474,10.1930761 C1.15252816,10.1930761 0.650620726,10.1930761 0.130124141,10.1759075 C0.0743566468,10.1759075 0,10.0557273 0,9.98705296 L0,5.35153261 C0,5.28285823 0.111534988,5.16267808 0.185891634,5.16267808 C0.669209891,5.14550949 1.17111732,5.16267808 1.67302474,5.16267808 L1.67302474,5.16267808 Z" id="形状"></path>
            </g>
        </g>
    </g>
</svg>