<?xml version="1.0" encoding="UTF-8"?>
<svg width="98px" height="98px" viewBox="0 0 98 98" version="1.1" xmlns="http://www.w3.org/2000/svg" xmlns:xlink="http://www.w3.org/1999/xlink">
    <!-- Generator: Sketch 55.1 (78136) - https://sketchapp.com -->
    <title>widget</title>
    <desc>Created with Sketch.</desc>
    <g id="Page-1" stroke="none" stroke-width="1" fill="none" fill-rule="evenodd">
        <g id="分享弹窗" transform="translate(-70.000000, -346.000000)">
            <g id="widget" transform="translate(70.000000, 346.000000)">
                <circle id="椭圆形" fill="#FFFFFF" cx="48.75" cy="48.75" r="48.75"></circle>
                <g id="icon_widget" transform="translate(24.000000, 20.000000)">
                    <circle id="椭圆形" fill="#542DE0" cx="1.5" cy="12.5151367" r="1.5"></circle>
                    <circle id="椭圆形备份-2" fill="#32C5FF" cx="48.5" cy="49" r="1.5"></circle>
                    <circle id="椭圆形备份-3" fill="#32C5FF" cx="4.5" cy="17" r="1.5"></circle>
                    <g id="资源-1" transform="translate(1.000000, 9.500000)">
                        <path d="M8.62206148,32 L8.62206148,33.7905263 L2.95479204,33.7905263 C2.54138044,33.7905263 2.14490111,33.6471301 1.85257496,33.3918832 C1.56024882,33.1366363 1.3960217,32.7904473 1.3960217,32.4294737 L1.3960217,32 L0,32 L0,33.5789474 C0,36.0206273 2.26691266,38 5.06329114,38 L10,38 L10,32 L8.62206148,32 Z" id="路径" fill="#542DE0" fill-rule="nonzero"></path>
                        <path d="M39.4190384,32.6351551 L14.5848371,32.6351551 C12.9879054,32.6349504 11.5841051,31.5600435 11.1433935,30 L11,30 L11,38 L43,38 L43,30.0039389 L42.8566065,30.0039389 C42.4148645,31.5610193 41.0134526,32.6337013 39.4190384,32.6351551 L39.4190384,32.6351551 Z" id="路径" fill="#32C5FF" fill-rule="nonzero"></path>
                        <path d="M21,0.5 L22,0.5" id="路径" stroke="#333333" stroke-width="3" stroke-linecap="round" stroke-linejoin="round"></path>
                        <path d="M26.1750169,1 L40.7535385,1 C42.5465097,1 44,2.42713931 44,4.18760486 L44,35.8123951 C44,37.5728607 42.5465097,39 40.7535385,39 L10,39 L10,4.18760486 C10,2.42713931 11.4534903,1 13.2464615,1 L17.1613121,1" id="路径" stroke="#333333" stroke-width="3" stroke-linecap="round" stroke-linejoin="round"></path>
                        <path d="M10,39 L5.06329114,39 C2.26691266,39 0,36.6036518 0,33.6476064 L0,21.3523936 C0,18.3963482 2.26691266,16 5.06329114,16 L5.65280289,16" id="路径" stroke="#333333" stroke-width="3" stroke-linecap="round" stroke-linejoin="round"></path>
                        <path d="M32,11.5 L38,11.5" id="路径" stroke="#333333" stroke-width="3" stroke-linecap="round" stroke-linejoin="round"></path>
                        <path d="M38,19.5 L32,19.5" id="路径" stroke="#333333" stroke-width="3" stroke-linecap="round" stroke-linejoin="round"></path>
                        <path d="M24,27.5 L37,27.5" id="路径" stroke="#333333" stroke-width="3" stroke-linecap="round" stroke-linejoin="round"></path>
                        <rect id="矩形" stroke="#333333" stroke-width="3" stroke-linejoin="round" x="16.5" y="10.5" width="9" height="9" rx="1"></rect>
                    </g>
                    <rect id="矩形" fill="#32C5FF" x="1" y="4.01513672" width="10" height="3" rx="1.5"></rect>
                    <rect id="矩形备份-2" fill="#32C5FF" transform="translate(6.097168, 5.500000) rotate(-270.000000) translate(-6.097168, -5.500000) " x="1.09716797" y="4" width="10" height="3" rx="1.5"></rect>
                </g>
            </g>
        </g>
    </g>
</svg>