<?xml version="1.0" encoding="UTF-8"?>
<svg width="12px" height="12px" viewBox="0 0 12 12" version="1.1" xmlns="http://www.w3.org/2000/svg" xmlns:xlink="http://www.w3.org/1999/xlink">
    <g stroke="none" stroke-width="1" fill="none" fill-rule="evenodd">
        <g transform="translate(-1243.000000, -552.000000)">
            <g transform="translate(1243.000000, 552.000000)">
                <circle  fill="#DBDBDB" cx="6" cy="6" r="6"></circle>
                <path d="M5.83834082,7.74141267 C5.66884756,7.74141267 5.52543233,7.69435923 5.40809084,7.60025096 C5.29074935,7.50614268 5.23207949,7.35104063 5.23207949,7.13494014 C5.23207949,7.02340441 5.25326583,6.88572955 5.29563914,6.72191144 C5.33801246,6.55809333 5.39831204,6.38382136 5.4765397,6.1990903 C5.55476736,6.01435924 5.65255047,5.82963095 5.76989196,5.64489989 C5.88723345,5.46016883 6.0241298,5.28763958 6.18058512,5.12730696 C6.29792661,5.00182926 6.39733944,4.88680975 6.47882658,4.782245 C6.56031373,4.67768025 6.62387275,4.57834523 6.66950555,4.48423695 C6.71513835,4.39012868 6.74773272,4.29602181 6.76728964,4.20191354 C6.78684655,4.10780526 6.79662486,4.00149936 6.79662486,3.88299264 C6.79662486,3.59718232 6.72165781,3.40374043 6.57172147,3.30266117 C6.42178512,3.20158191 6.24251609,3.15452848 6.03390899,3.16149946 C5.8253019,3.16847045 5.63951399,3.21378116 5.4765397,3.29743296 C5.31356541,3.38108476 5.23207949,3.51353146 5.23207949,3.69477703 C5.23207949,3.8760226 5.15711244,4.01195473 5.00717609,4.10257752 C4.85723974,4.1932003 4.7040462,4.23851102 4.54759088,4.23851102 C4.35202173,4.23154003 4.21186594,4.18274388 4.12711931,4.0921211 C4.04237268,4.00149831 4,3.86905161 4,3.69477703 C4,3.45079261 4.05378071,3.22598177 4.16134374,3.02033775 C4.26890677,2.81469374 4.41558144,2.63867905 4.60137213,2.4922884 C4.78716282,2.34589775 5.0055451,2.22913553 5.25652551,2.14199824 C5.50750592,2.05486094 5.77640946,2.00780751 6.06324422,2.00083653 C6.34356,1.99386554 6.60431496,2.03046266 6.84551691,2.11062897 C7.08671886,2.19079528 7.29369311,2.31452838 7.46644585,2.48183198 C7.6391986,2.64913558 7.77283552,2.85477651 7.86736061,3.09876093 C7.9618857,3.34274535 8.0058881,3.62506594 7.99936912,3.94573118 C7.99285015,4.22457051 7.94232888,4.48772119 7.84780379,4.7351911 C7.7532787,4.98266101 7.56586108,5.24929713 7.28554529,5.53510745 C7.09649512,5.73029498 6.94656102,5.8993388 6.8357385,6.04224396 C6.72491598,6.18514912 6.64017062,6.31411037 6.58149987,6.4291316 C6.52282913,6.54415283 6.4853456,6.65742961 6.46904818,6.76896534 C6.45275075,6.88050108 6.44460215,7.00249146 6.44460215,7.13494014 C6.44460215,7.33709866 6.38593229,7.48871528 6.2685908,7.58979454 C6.15124931,7.6908738 6.00783408,7.74141267 5.83834082,7.74141267 Z M5.83834082,10 C5.64929064,10 5.49120795,9.93203393 5.364088,9.79609975 C5.23696805,9.66016558 5.17340903,9.49112177 5.17340903,9.28896325 C5.17340903,9.08680473 5.23696805,8.91776092 5.364088,8.78182674 C5.49120795,8.64589256 5.64929064,8.57792649 5.83834082,8.57792649 C6.027391,8.57792649 6.18547369,8.64589256 6.31259364,8.78182674 C6.43971359,8.91776092 6.50327261,9.08680473 6.50327261,9.28896325 C6.50327261,9.49112177 6.43971359,9.66016558 6.31259364,9.79609975 C6.18547369,9.93203393 6.027391,10 5.83834082,10 Z"  fill="#FFFFFF" fill-rule="nonzero"></path>
            </g>
        </g>
    </g>
</svg>