<svg width="30" height="35" xmlns="http://www.w3.org/2000/svg"><g stroke="#542DE0"><path d="M21.073 1H3.951a2.918 2.918 0 00-2.918 2.918v26.87a2.918 2.918 0 002.918 2.917h21.823c1.6 0 2.917-1.318 2.917-2.918V8.618L21.073 1zm.526 3.1l3.992 3.993h-3.566a.441.441 0 01-.426-.427V4.101h0zm5.268 26.687a1.09 1.09 0 01-1.093 1.094H3.95a1.09 1.09 0 01-1.093-1.094V3.917A1.09 1.09 0 013.95 2.826v-.02h15.827V7.67a2.255 2.255 0 002.248 2.248h4.841v20.87h0z"/><path d="M8.084 12.126h7.843a.906.906 0 00.91-.91.906.906 0 00-.91-.911H8.084a.906.906 0 00-.91.91.907.907 0 00.91.911h0zM21.62 22.864H8.084a.906.906 0 00-.91.911c0 .506.403.91.91.91H21.62c.507 0 .91-.404.91-.91a.906.906 0 00-.91-.91zM8.084 16.682a.906.906 0 00-.91.911.906.906 0 00.91.91H21.62a.906.906 0 00.91-.91.906.906 0 00-.91-.91H8.084h0z"/></g></svg>