<svg width="24" height="24" xmlns="http://www.w3.org/2000/svg"><path d="M14.678 9.342c-.001.04-.028.254-.292 1.311l-.697 2.637c-.223.78-.707 1.49-1.442 2.11-.781.67-1.573 1.01-2.355 1.01-.686 0-1.214-.237-1.621-.733-.385-.438-.581-1.076-.581-1.896 0-1.91.545-3.522 1.618-4.787l.005-.006c.993-1.222 2.116-1.815 3.436-1.815.613 0 1.075.238 1.423.743.34.447.506.915.506 1.426m8.678 7.763a.35.35 0 00-.305-.179h-1.672a.35.35 0 00-.285.147c-.855 1.205-2.01 2.191-3.427 2.93-1.644.821-3.585 1.238-5.77 1.238-2.852 0-5.184-.827-6.93-2.455-1.762-1.686-2.656-4.055-2.656-7.04 0-2.787.926-5.116 2.756-6.926 1.807-1.827 4.115-2.752 6.86-2.752 2.569 0 4.666.764 6.227 2.267C19.618 5.8 20.36 7.638 20.36 9.8c0 1.835-.558 3.47-1.653 4.854-.94 1.145-1.86 1.725-2.738 1.725-.546 0-.592-.223-.592-.47 0-.447.107-.993.323-1.643L17.889 6a.35.35 0 00-.338-.439h-1.52a.35.35 0 00-.337.255l-.242.853c-.612-1.119-1.59-1.685-2.916-1.685-1.903 0-3.578.85-4.973 2.52-1.47 1.678-2.214 3.78-2.214 6.247 0 1.36.409 2.502 1.21 3.391.797.906 1.887 1.366 3.243 1.366 1.422 0 2.693-.577 3.786-1.716.364 1.346 1.379 1.654 2.23 1.654 1.603 0 3.116-.86 4.502-2.567 1.399-1.817 2.108-3.862 2.108-6.079 0-2.777-.913-5.099-2.715-6.9C17.81.974 15.22 0 12.02 0 8.555 0 5.65 1.16 3.387 3.443 1.14 5.65 0 8.423 0 11.685c0 3.465 1.11 6.3 3.3 8.428 2.185 2.08 5.077 3.135 8.598 3.135 2.496 0 4.788-.524 6.813-1.557 1.975-.998 3.535-2.422 4.638-4.233a.349.349 0 00.007-.353"/></svg>