<svg width="23" height="27" xmlns="http://www.w3.org/2000/svg"><path d="M19.996 17.83v-6.67c0-3.093-1.7-5.58-4.345-6.88C15.131 2.248 13.4.741 11.33.741c-2.01 0-3.64 1.446-4.155 3.46-2.74 1.274-4.512 3.802-4.512 6.96v6.66c-1.564.345-2.656 1.582-2.656 3.145v1.138c0 .972.83 1.764 1.849 1.764h7.661c-.056.176-.113.356-.113.553 0 1.046.863 1.894 1.926 1.894s1.926-.848 1.926-1.894c0-.197-.058-.377-.114-.555h7.661c1.02 0 1.85-.792 1.85-1.764v-1.138c0-1.548-1.075-2.78-2.657-3.134zM11.33 2.636c.666 0 1.28.309 1.743.797a10.83 10.83 0 00-1.743-.144c-.576 0-1.129.055-1.664.139.43-.491 1.01-.792 1.664-.792zm9.396 19.336l-18.793.13v-1.138c0-.792.67-1.345 1.693-1.345h.963V11.16c0-3.52 2.771-5.976 6.74-5.976 3.97 0 6.741 2.457 6.741 5.976v7.415H8.74a.956.956 0 00-.964.947c0 .523.432.947.963.947h11.877c.066.152.11.317.11.497v1.006z"/></svg>