<?xml version="1.0" encoding="UTF-8"?>
<svg width="23px" height="27px" viewBox="0 0 23 27" version="1.1" xmlns="http://www.w3.org/2000/svg" xmlns:xlink="http://www.w3.org/1999/xlink">
    <!-- Generator: Sketch 57.1 (83088) - https://sketch.com -->
    <title>编组</title>
    <desc>Created with Sketch.</desc>
    <g id="页面1" stroke="none" stroke-width="1" fill="none" fill-rule="evenodd">
        <g id="消息提醒_关注" transform="translate(-1291.000000, -16.000000)" fill="#000000" fill-rule="nonzero">
            <g id="导航栏_新logo">
                <g id="编组" transform="translate(1291.000000, 16.721311)">
                    <path d="M19.9963043,17.1091327 L19.9963043,10.439118 C19.9963043,7.34563292 18.295714,4.85836047 15.6514278,3.55882962 C15.1314237,1.52619166 13.3999922,0.0201883901 11.3296377,0.0201883901 C9.3208893,0.0201883901 7.68963463,1.46557039 7.17540217,3.47927672 C4.43480377,4.75417392 2.66294558,7.28123534 2.66294558,10.439118 L2.66294558,17.0996793 C1.09911954,17.4444753 0.00711609375,18.6814592 0.00711609375,20.2443074 L0.00711609375,21.3828067 C0.00711609375,22.3545976 0.837185163,23.1464504 1.8560138,23.1464504 L9.51735283,23.1464504 C9.46149282,23.3226372 9.40372589,23.5026003 9.40372589,23.6996194 C9.40372589,24.7453112 10.2665431,25.5939589 11.3296631,25.5939589 C12.3927831,25.5939589 13.2555749,24.7452862 13.2555749,23.6996194 C13.2555749,23.5026003 13.1978334,23.3226372 13.141948,23.1445747 L20.8033124,23.1445747 C21.8220902,23.1445747 22.6521847,22.352722 22.6521847,21.3809311 L22.6521847,20.2424317 C22.6521847,18.6947388 21.5775215,17.4633819 19.9963043,17.1091327 Z M11.3296377,1.91452787 C11.9960168,1.91452787 12.6103753,2.22331118 13.072587,2.71205761 C12.5140886,2.62112571 11.9324529,2.56808211 11.3296377,2.56808211 C10.753799,2.56808211 10.2010468,2.62302638 9.66563481,2.70638062 C10.0950984,2.21573352 10.6767341,1.91452787 11.3296377,1.91452787 Z M20.726222,21.2502102 L1.9330279,21.3809311 L1.9330279,20.2424317 C1.9330279,19.450604 2.60324631,18.8974349 3.62591421,18.8974349 L4.58890825,18.8974349 L4.58890823,10.439118 C4.58890823,6.91940842 7.360297,4.4624466 11.3296377,4.4624466 C15.2989783,4.4624466 18.0703671,6.91943344 18.0703671,10.439118 L18.0703671,17.8536438 L8.73927905,17.8536438 C8.20773178,17.8536438 7.77631045,18.2779676 7.77631045,18.800801 C7.77631045,19.3236345 8.20773178,19.7479833 8.73927905,19.7479833 L20.6164852,19.7479833 C20.6819561,19.8995364 20.726222,20.0643442 20.726222,20.2443074 L20.726222,21.2502102 Z" id="形状"></path>
                </g>
            </g>
        </g>
    </g>
</svg>