<svg class="icon" viewBox="0 0 1024 1024" xmlns="http://www.w3.org/2000/svg" width="200" height="200"><defs><style/></defs><path d="M777.515 131.67a53.333 53.333 0 010 75.434l-48.768 48.725h49.92a160 160 0 01160 160.043v320a160 160 0 01-160 160H245.333a160 160 0 01-160-160v-320a160 160 0 01160-160h49.75L246.4 207.147a53.333 53.333 0 1175.392-75.435l113.152 113.152c3.37 3.37 6.187 7.04 8.448 10.965H580.48a52.046 52.046 0 018.49-11.008L702.08 131.67a53.333 53.333 0 0175.435 0zm1.152 231.253H245.333a53.333 53.333 0 00-53.205 49.365l-.128 4.01v320c0 28.118 21.76 51.158 49.365 53.163l3.968.171h533.334a53.333 53.333 0 0053.205-49.365l.128-3.968v-320c0-29.44-23.893-53.334-53.333-53.334zM352 469.589c29.44 0 53.333 23.894 53.333 53.334v53.333a53.333 53.333 0 11-106.666 0v-53.333c0-29.44 23.893-53.334 53.333-53.334zm320 0c29.44 0 53.333 23.894 53.333 53.334v53.333a53.333 53.333 0 11-106.666 0v-53.333c0-29.44 23.893-53.334 53.333-53.334z"/></svg>