<svg width="40" height="40" xmlns="http://www.w3.org/2000/svg"><path d="M36.377 15.738c-.142-.435-.596-1.195-2.044-1.406l-5.767-.838c-1.417-.206-3.151-1.465-3.787-2.751l-2.578-5.225c-.649-1.314-1.512-1.51-1.97-1.51-.457 0-1.32.196-1.968 1.51l-2.58 5.225c-.634 1.285-2.368 2.545-3.786 2.751l-5.766.838c-1.45.21-1.903.971-2.045 1.406-.14.435-.221 1.317.828 2.34l4.173 4.066c1.026 1.001 1.688 3.04 1.446 4.452l-.985 5.743c-.19 1.111.117 1.757.409 2.104.593.703 1.657.8 2.777.212l5.156-2.712c1.204-.631 3.48-.632 4.683 0l5.158 2.712c.498.261.972.394 1.412.394.55 0 1.034-.215 1.364-.606.292-.346.6-.993.41-2.103l-.985-5.744c-.242-1.412.42-3.45 1.446-4.45l4.172-4.068c1.049-1.023.968-1.905.827-2.34z"/></svg>