<svg width="12" height="12" xmlns="http://www.w3.org/2000/svg"><path d="M10.563 2.188h-.41c.208-.352.299-.688.27-1-.025-.261-.148-.635-.602-.932-.375-.248-.859-.308-1.395-.174-.87.218-1.899.969-2.576 1.876C5.173 1.05 4.145.3 3.275.082 2.74-.053 2.255.008 1.88.256c-.453.297-.577.67-.6.932-.03.312.06.648.27 1h-.41c-.622 0-1.127.506-1.127 1.127v1.452c0 .491.324.926.793 1.071-.044.124-.068.251-.068.38v4.355c0 .62.506 1.127 1.127 1.127h7.974c.62 0 1.126-.506 1.126-1.127V6.218c0-.13-.023-.258-.067-.38.468-.147.792-.581.792-1.071V3.316c0-.622-.505-1.128-1.126-1.128zm-.725 8.71H6.251V5.893h3.587c.179 0 .324.146.324.324v4.355a.324.324 0 01-.324.324zm-3.145-8.71c.57-.658 1.32-1.175 1.927-1.327.316-.08.574-.058.761.066.2.13.235.247.242.335.032.322-.314.757-.477.926H6.693zm4.193 1.128v1.45a.324.324 0 01-.323.325H6.25v-2.1h4.312c.178 0 .323.146.323.325zM5.449 5.894v5.003H1.864a.324.324 0 01-.324-.324V6.218c0-.178.145-.324.324-.324H5.45zM2.077 1.262c.008-.088.044-.205.242-.335.186-.124.444-.146.762-.066.604.151 1.352.669 1.924 1.327h-2.45c-.147-.148-.51-.596-.478-.926zM.814 3.316c0-.18.145-.325.324-.325H5.45v2.1H1.14a.324.324 0 01-.325-.324V3.316z"/></svg>