<svg width="17" height="14" xmlns="http://www.w3.org/2000/svg"><path d="M9.126 12.672a.826.826 0 00.8-.62l.05-.213c.06-.31.089-.629.089-.939 0-.77-.08-1.364-.247-1.825l-.445-1.178 1.394-.009c1.344-.009 3.391-.018 3.589-.018.356-.017.494-.124.613-.3a.83.83 0 00.138-.497c-.089-.505-1.216-5.067-1.404-5.75a.838.838 0 00-.277-.265C13.24.943 13.23.943 13.14.943H4.983l.01 6.635c1.967.55 3.41 2.188 3.46 4.084v.186c-.01.399.208.824.673.824zM2.363 7.374V.943H1.008v6.431h1.355zm6.763 6.202c-1.009 0-1.681-.789-1.681-1.728v-.16c-.05-1.762-1.612-3.189-3.46-3.383L3.974.048h9.175c.336 0 .533.08.84.266.297.177.514.416.662.69.04.054 1.434 5.662 1.464 5.99.03.354-.06.717-.277 1.045-.336.514-.84.717-1.434.744l-3.618.018c.237.638.306 1.39.306 2.108 0 .452-.05.904-.158 1.347h-.01c-.208.753-.93 1.32-1.8 1.32zM2.66 8.278H.712C.316 8.278 0 7.986 0 7.622V.694C0 .331.316.04.712.04H2.66c.395 0 .711.292.711.655v6.928c0 .364-.316.656-.711.656zM4.267 0h-.124.124c-.062 0-.062 0 0 0z"/><path d="M2.707 0H.775C.343 0 0 .317 0 .713v6.88c0 .396.343.713.775.713h1.932c.432 0 .775-.317.775-.713V.713C3.482.317 3.14 0 2.707 0zM.775 8.174c-.343 0-.628-.264-.628-.581V.713c0-.326.285-.581.628-.581h1.932c.344 0 .628.264.628.58v6.88c0 .326-.284.582-.628.582H.775zM4.198 0h-.265v.062l-.157.035.157.009.01 8.217.069.009c1.873.194 3.325 1.61 3.374 3.3v.158c0 1.02.746 1.786 1.746 1.786.863 0 1.609-.537 1.825-1.311l.02-.062a5.68 5.68 0 00.156-1.346c0-.827-.088-1.496-.274-2.024l3.501-.017c.667-.027 1.148-.273 1.472-.766.215-.325.314-.695.284-1.082-.03-.299-1.363-5.719-1.461-5.974a1.913 1.913 0 00-.677-.712c-.314-.185-.52-.273-.873-.273H4.267L4.198 0zm-.127.132h9.024c.324 0 .5.07.794.246.265.159.49.387.628.651.098.256 1.423 5.666 1.452 5.93a1.53 1.53 0 01-.265 1.003c-.304.45-.745.678-1.363.704-.079 0-2.384.01-3.59.018h-.098l.029.088c.196.537.294 1.214.294 2.067 0 .423-.049.854-.147 1.267l-.02.053c-.186.748-.882 1.267-1.696 1.267-.913 0-1.6-.712-1.6-1.654v-.15C7.466 9.89 5.994 8.43 4.082 8.2L4.07.132zM2.48.897H.992v6.52h1.49V.897zm-1.343.132h1.197v6.256H1.138V1.029zM4.924.897l.01 6.705.049.017c1.972.555 3.325 2.156 3.384 3.995v.185c0 .422.235.888.746.888a.881.881 0 00.863-.669l.049-.21c.059-.317.088-.634.088-.95 0-.775-.078-1.373-.255-1.831l-.402-1.09 1.275-.01c1.138 0 3.355-.017 3.56-.017.383-.018.54-.141.668-.335a.821.821 0 00.147-.528c-.088-.51-1.217-5.076-1.403-5.727l-.01-.018a.95.95 0 00-.294-.281c-.186-.115-.216-.124-.324-.124h-8.15zm.167 6.608l-.01-6.476h8.024c.068 0 .078 0 .245.097a.854.854 0 01.245.238c.187.686 1.305 5.2 1.393 5.692 0 .106-.01.282-.127.449-.108.167-.226.255-.55.264-.206 0-2.413.009-3.55.017l-1.492.018.471 1.258c.167.44.246 1.03.246 1.786 0 .308-.03.616-.089.924l-.049.202a.737.737 0 01-.716.564c-.412 0-.598-.396-.598-.757v-.176c-.069-1.874-1.442-3.52-3.443-4.1z"/></svg>