<svg width="25" height="22" xmlns="http://www.w3.org/2000/svg"><path d="M13.888 21.484c.673 0 1.275-.463 1.435-1.117l.088-.382c.107-.559.16-1.133.16-1.691 0-1.388-.142-2.457-.443-3.286l-.797-2.122 2.498-.016a2257.5 2257.5 0 016.431-.032c.638-.032.886-.223 1.099-.542.212-.335.265-.67.248-.894-.16-.909-2.18-9.124-2.516-10.352a1.506 1.506 0 00-.496-.479c-.337-.207-.355-.207-.514-.207H6.464l.018 11.948c3.526.989 6.112 3.94 6.2 7.354V20c-.017.718.373 1.484 1.206 1.484zM3.506 12.265H.938c-.52 0-.938-.433-.938-.972V1.016C0 .476.417.043.938.043h2.568c.521 0 .938.434.938.973v10.277c0 .539-.417.972-.938.972zM5.18-1.333h-.222.222c-.11 0-.11 0 0 0z"/></svg>