<?xml version="1.0" encoding="UTF-8"?>
<svg width="17px" height="14px" viewBox="0 0 17 14" version="1.1" xmlns="http://www.w3.org/2000/svg" xmlns:xlink="http://www.w3.org/1999/xlink">
    <!-- Generator: Sketch 55.1 (78136) - https://sketchapp.com -->
    <title>bullshit</title>
    <desc>Created with Sketch.</desc>
    <g id="页面1" stroke="none" stroke-width="1" fill="none" fill-rule="evenodd">
        <g id="点击小按钮后" transform="translate(-182.000000, -58.000000)" fill="#1C9CFE" fill-rule="nonzero">
            <g id="bullshit" transform="translate(182.000000, 58.000000)">
                <path d="M9.12562167,0.90364002 C9.50132441,0.90364002 9.83747948,1.16055728 9.92646169,1.52378514 L9.97589628,1.73640632 C10.0352178,2.04647889 10.0648785,2.36541065 10.0648785,2.67548322 C10.0648785,3.44623501 9.98578319,4.03980248 9.81770565,4.50048171 L9.37279452,5.67875743 L10.7668494,5.68761665 C12.1114697,5.69647586 14.1580609,5.70533508 14.3557992,5.70533508 C14.7117281,5.72305351 14.8501449,5.82936411 14.9687879,6.00654841 C15.0874308,6.19259195 15.1170916,6.37863549 15.1072047,6.50266452 C15.0182224,7.00763984 13.8911142,11.570136 13.7032629,12.2522957 C13.6340545,12.3586063 13.5351853,12.4560576 13.4264293,12.5180722 C13.2385779,12.633242 13.228691,12.633242 13.1397088,12.633242 L4.98300469,12.633242 L4.99289161,5.9976892 C6.96038751,5.4484178 8.40387695,3.80946285 8.45331151,1.91359064 L8.45331151,1.7275471 C8.4434246,1.32888239 8.66093671,0.90364002 9.12562167,0.90364002 L9.12562167,0.90364002 Z M2.36297247,6.20145116 L2.36297247,12.633242 L1.00846524,12.633242 L1.00846524,6.20145116 L2.36297247,6.20145116 L2.36297247,6.20145116 Z M9.12562167,-2.30926389e-14 C8.11715645,-2.30926389e-14 7.44484629,0.788470223 7.44484627,1.7275471 L7.44484627,1.887013 C7.39541171,3.64999698 5.83327929,5.07633075 3.98442636,5.2712335 L3.97453945,13.5280228 L13.1495957,13.5280228 C13.4857508,13.5280228 13.683489,13.4482898 13.9899834,13.2622463 C14.2865908,13.085062 14.5041029,12.8458631 14.6524066,12.5712275 C14.6919543,12.5180722 16.0860091,6.91018845 16.1156699,6.58239745 C16.1453306,6.22802881 16.0563484,5.86480095 15.8388363,5.53700997 C15.5026812,5.02317544 14.9984486,4.81941347 14.4052338,4.79283583 C14.375573,4.79283583 10.7866232,4.7751174 10.7866232,4.7751174 C11.0239092,4.13725385 11.0931175,3.38422049 11.0931176,2.666624 C11.0931176,2.21480399 11.043683,1.76298398 10.9349269,1.32002317 L10.92504,1.32002317 C10.7174148,0.566989808 9.99567011,-2.30926389e-14 9.12562167,-2.30926389e-14 Z M2.65957988,5.29781114 L0.711857827,5.29781114 C0.316381261,5.29781114 3.32178729e-13,5.59016526 3.32178729e-13,5.95339312 L3.32178729e-13,12.8813 C3.32178729e-13,13.2445279 0.316381241,13.536882 0.711857827,13.536882 L2.65957988,13.536882 C3.05505645,13.536882 3.37143769,13.2445279 3.37143769,12.8813 L3.37143769,5.95339312 C3.37143769,5.59016526 3.05505645,5.29781114 2.65957988,5.29781114 Z M4.26662632,13.5757576 L4.14261699,13.5757576 L4.26662632,13.5757576 C4.20462166,13.5757576 4.20462166,13.5757576 4.26662632,13.5757576 Z" id="形状" transform="translate(8.060606, 6.787879) scale(1, -1) translate(-8.060606, -6.787879) "></path>
                <path d="M2.70727003,13.5757576 L0.774907012,13.5757576 C0.343313238,13.5757576 3.32178729e-13,13.2590192 3.32178729e-13,12.8630963 L3.32178729e-13,5.98283548 C3.32178729e-13,5.58691255 0.343313238,5.27017421 0.774907012,5.27017421 L2.70727003,5.27017421 C3.1388638,5.27017421 3.48217704,5.58691256 3.48217704,5.98283548 L3.48217704,12.8630963 C3.48217704,13.2590192 3.1388638,13.5757576 2.70727003,13.5757576 Z M0.774907012,5.40214851 C0.431593774,5.40214851 0.147134247,5.66609713 0.147134247,5.98283548 L0.147134247,12.8630963 C0.147134247,13.1886329 0.431593774,13.4437833 0.774907012,13.4437833 L2.70727003,13.4437833 C3.05058327,13.4437833 3.33504279,13.1798346 3.33504279,12.8630963 L3.33504279,5.98283548 C3.33504279,5.65729884 3.05058327,5.40214851 2.70727003,5.40214851 L0.774907012,5.40214851 Z M4.19823034,13.5757576 L3.93338871,13.5757576 L3.93338871,13.5141696 L3.77644552,13.4789764 L3.93338871,13.4701781 L3.94319766,5.25257762 L4.0118603,5.24377933 C5.88536963,5.05021701 7.33709415,3.63369272 7.38613889,1.94442154 L7.38613889,1.83884208 L7.38613889,1.78605236 C7.38613889,0.765451013 8.13161904,-2.30926389e-14 9.13213188,-2.30926389e-14 C9.99531943,-2.30926389e-14 10.7407996,0.536695541 10.9565965,1.31094484 L10.9762144,1.37253285 C11.0841128,1.81244722 11.1331576,2.26995816 11.1331576,2.71867084 C11.1331576,3.54570986 11.044877,4.2143797 10.858507,4.74227695 C12.4671747,4.75107524 14.3308751,4.75987353 14.3603019,4.75987353 C15.0273105,4.78626839 15.507949,5.03262043 15.8316443,5.52532454 C16.0474412,5.85086118 16.1455307,6.22038924 16.1161038,6.60751389 C16.086677,6.90665566 14.7526599,12.3264008 14.6545704,12.5815511 C14.4976272,12.8718946 14.2622124,13.1182466 13.9777529,13.2942124 C13.6638665,13.4789764 13.4578786,13.5669593 13.1047564,13.5669593 L4.26689298,13.5669593 L4.19823034,13.5757576 Z M4.07071399,13.4437833 L13.0949474,13.4437833 C13.4186428,13.4437833 13.5952039,13.373397 13.8894723,13.1974312 C14.154314,13.039062 14.3799198,12.8103066 14.5172451,12.5463579 C14.6153346,12.2912076 15.9395428,6.88026082 15.9689696,6.61631218 C15.9983965,6.26438068 15.9101159,5.91244917 15.704128,5.61330741 C15.4000505,5.16459475 14.9586478,4.93583928 14.340684,4.90944442 C14.2622124,4.90944442 11.9571093,4.90064613 10.7506085,4.89184785 L10.652519,4.89184785 L10.6819459,4.80386496 C10.8781249,4.26716942 10.9762144,3.58970129 10.9762144,2.73626741 C10.9762144,2.31394961 10.9271696,1.88283353 10.8290801,1.46931402 L10.8094622,1.41652428 C10.6230922,0.668669842 9.92665677,0.149570891 9.11251399,0.149570891 C8.2002817,0.149570891 7.51365524,0.862232184 7.51365524,1.80364893 L7.51365524,1.95321982 C7.4646105,3.68648246 5.99326808,5.14699818 4.08052294,5.37575365 L4.07071399,13.4437833 Z M2.48166419,12.6783323 L0.99070388,12.6783323 L0.99070388,6.15880124 L2.48166419,6.15880124 L2.48166419,12.6783323 Z M1.13783813,12.5463579 L2.33452997,12.5463579 L2.33452997,6.29077555 L1.13783813,6.29077555 L1.13783813,12.5463579 L1.13783813,12.5463579 Z M4.92409259,12.6783323 L4.93390154,5.9740372 L4.98294628,5.95644062 C6.95454511,5.40214851 8.30818013,3.80086019 8.36703384,1.96201811 L8.36703384,1.77725407 C8.36703384,1.35493628 8.60244862,0.888627045 9.11251399,0.888627045 C9.52448986,0.888627045 9.87761203,1.16137395 9.97570154,1.55729689 L10.0247463,1.76845579 C10.0836,2.08519414 10.1130268,2.40193248 10.1130268,2.71867084 C10.1130268,3.49292014 10.0345552,4.09120369 9.85799413,4.54871463 L9.4558272,5.63970227 L10.7309906,5.64850055 C11.8688288,5.64850055 14.0856513,5.66609713 14.2916393,5.66609715 C14.6741883,5.68369372 14.8311315,5.80686975 14.9586478,6.00043206 C15.0959731,6.20279267 15.115591,6.39635499 15.1057821,6.52832931 C15.0175015,7.03862999 13.8894724,11.6049412 13.7031023,12.2560144 L13.6932933,12.273611 C13.6148218,12.3879888 13.5167322,12.4847699 13.3990249,12.5551562 C13.2126548,12.669534 13.183228,12.6783323 13.0753295,12.6783323 L4.92409259,12.6783323 Z M5.09084474,6.07081837 L5.08103579,12.5463579 L13.1047564,12.5463579 C13.173419,12.5463579 13.183228,12.5463579 13.3499801,12.4495768 C13.4480696,12.3879888 13.5265412,12.3088042 13.5952039,12.212023 C13.7815739,11.5257566 14.8997941,7.01223512 14.9880747,6.51953103 C14.9880747,6.41395157 14.9782657,6.23798583 14.8605583,6.07081837 C14.7526599,5.9036509 14.6349525,5.81566804 14.3112572,5.80686973 C14.1052692,5.80686973 11.8982556,5.79807145 10.7604175,5.78927316 L9.26945718,5.77167659 L9.74028675,4.51352148 C9.9070389,4.07360711 9.98551048,3.48412185 9.98551048,2.72746912 C9.98551048,2.41952905 9.95608364,2.111589 9.89722993,1.80364893 L9.84818519,1.60128832 C9.7697136,1.26695339 9.46563615,1.03819792 9.13213188,1.03819792 C8.72015601,1.03819792 8.53378596,1.43412086 8.53378596,1.79485065 L8.53378596,1.9708164 C8.46512332,3.84485162 7.09187041,5.49013139 5.09084474,6.07081837 L5.09084474,6.07081837 Z" id="形状" transform="translate(8.060606, 6.787879) scale(1, -1) translate(-8.060606, -6.787879) "></path>
            </g>
        </g>
    </g>
</svg>