<?xml version="1.0" encoding="UTF-8"?>
<svg width="25px" height="22px" viewBox="0 0 25 22" version="1.1" xmlns="http://www.w3.org/2000/svg" xmlns:xlink="http://www.w3.org/1999/xlink">
    <!-- Generator: Sketch 55.1 (78136) - https://sketchapp.com -->
    <title>bullshit2</title>
    <desc>Created with Sketch.</desc>
    <g id="页面1" stroke="none" stroke-width="1" fill="none" fill-rule="evenodd">
        <g id="鼠标离开浅灰色区域后" transform="translate(-209.000000, -70.000000)" fill="#FFFFFF" fill-rule="nonzero">
            <g id="bullshit2" transform="translate(221.500000, 80.000000) scale(1, -1) translate(-221.500000, -80.000000) translate(209.000000, 68.000000)">
                <path d="M13.8877122,0.515978807 C14.560964,0.515978807 15.1633472,0.978582799 15.3228015,1.63260915 L15.4113873,2.01545384 C15.5176902,2.57376903 15.5708417,3.14803604 15.5708417,3.70635123 C15.5708417,5.09416324 15.4291045,6.162938 15.1279129,6.99243482 L14.330641,9.11403248 L16.8287594,9.12998434 C19.2382921,9.1459362 22.9057425,9.16188806 23.2600855,9.16188806 C23.897903,9.19379178 24.1459431,9.38521414 24.3585489,9.70425136 C24.5711548,10.0392405 24.6243062,10.3742296 24.606589,10.5975557 C24.4471347,11.5068118 22.4273794,19.7220208 22.0907535,20.9503141 C21.9667334,21.1417365 21.7895619,21.317207 21.5946732,21.42887 C21.2580474,21.6362442 21.2403302,21.6362442 21.0808759,21.6362442 L6.46422569,21.6362442 L6.48194284,9.6882995 C10.007656,8.69928404 12.5943602,5.74818956 12.6829459,2.33449108 L12.6829459,1.99950198 C12.6652288,1.28166818 13.0550061,0.515978807 13.8877122,0.515978807 L13.8877122,0.515978807 Z M3.50602803,9.73460717 L0.938416444,9.73460717 C0.417073981,9.73460717 0,10.1682989 0,10.7071281 L0,20.9843085 C0,21.5231376 0.417073955,21.9568294 0.938416444,21.9568294 L3.50602803,21.9568294 C4.02737049,21.9568294 4.44444444,21.5231376 4.44444444,20.9843085 L4.44444444,10.7071281 C4.44444444,10.1682989 4.02737049,9.73460717 3.50602803,9.73460717 Z M5.18049,23.3333333 L4.95826778,23.3333333 L5.18049,23.3333333 C5.06937889,23.3333333 5.06937889,23.3333333 5.18049,23.3333333 Z" id="形状"></path>
            </g>
        </g>
    </g>
</svg>