<svg width="40" height="40" xmlns="http://www.w3.org/2000/svg"><path d="M22.058 34.903c.876 0 1.659-.586 1.866-1.414l.115-.485c.139-.707.208-1.435.208-2.142 0-1.758-.185-3.112-.576-4.163l-1.037-2.687 3.248-.02c3.134-.02 7.902-.04 8.363-.04.83-.041 1.152-.284 1.428-.688.277-.424.346-.848.323-1.131-.207-1.152-2.834-11.558-3.271-13.114a1.936 1.936 0 00-.646-.607c-.437-.262-.46-.262-.668-.262H12.405l.023 15.134c4.585 1.253 7.948 4.991 8.064 9.316v.424c-.023.91.483 1.88 1.566 1.88zm-13.5-11.677H5.22c-.678 0-1.22-.55-1.22-1.232V8.976c0-.683.542-1.232 1.22-1.232h3.34c.678 0 1.22.549 1.22 1.232v13.018c0 .682-.542 1.232-1.22 1.232zM10.737 6h-.289.29c-.145 0-.145 0 0 0z"/></svg>