<svg t="1566529939059" class="icon" viewBox="0 0 1024 1024" version="1.1" xmlns="http://www.w3.org/2000/svg" p-id="15647" width="200" height="200"><path d="M699.812 803.124c-56.976 41.732-123.45 62.6-191.504 62.034-8.97 0-17.938-0.564-26.906-1.128l-11.08-1.692c-6.858-1.128-13.716-1.692-20.574-3.384-4.22-0.564-8.44-2.254-12.134-2.82-6.86-1.69-13.19-3.382-19.52-5.074l-9.496-3.384c-7.386-2.82-14.772-5.076-22.158-8.46-1.582-0.564-3.166-1.692-4.748-2.254-8.44-3.948-16.882-7.896-24.796-12.408-0.528 0-0.528-0.564-1.054-0.564-27.434-15.79-52.23-35.528-74.388-58.65l-1.054-1.128a386.396 386.396 0 0 1-19.52-22.558c-1.056-1.692-2.638-3.384-3.692-5.076-45.372-59.214-72.278-133.654-72.278-214.3h75.97c2.11 0 3.692-1.126 4.748-2.82a5.42 5.42 0 0 0 0-5.64L137.958 312.492c-1.056-1.69-2.638-2.82-4.748-2.82-2.11 0-3.694 1.13-4.748 2.82L0.792 513.256a5.42 5.42 0 0 0 0 5.64c1.054 1.692 3.164 2.82 4.748 2.82h75.968c0 94.742 27.96 183.28 75.97 256.03l1.582 3.384c4.748 7.332 10.552 14.1 15.828 21.43 2.11 2.82 3.692 5.64 5.802 7.896 7.914 10.15 16.354 19.174 24.796 28.76l2.638 2.82c29.016 30.454 61.196 55.832 96.544 76.134 1.054 0.564 2.11 1.128 2.638 1.692 10.024 5.64 20.574 10.714 31.126 15.79 2.638 1.128 5.276 2.82 7.914 3.948 8.968 3.946 18.464 7.33 27.96 10.714 4.22 1.692 8.968 3.384 13.19 4.512 8.44 2.82 16.88 4.512 25.322 6.768 5.804 1.128 11.08 2.82 16.882 3.946 2.638 0.564 4.748 1.128 6.86 1.692 7.912 1.692 15.826 2.256 24.266 3.384 3.166 0.564 5.804 0.564 8.44 1.128 14.246 1.692 28.49 2.256 42.734 2.256 87.576 0 173.04-28.198 246.372-81.772 23.212-16.92 29.016-50.756 12.66-75.57-15.826-24.812-48.006-30.452-71.22-13.534zM1023.208 502.54c-1.054-1.692-2.638-2.82-4.748-2.82h-75.968c0-94.742-27.96-182.718-75.97-255.466a33.012 33.012 0 0 0-2.11-3.948c-5.804-9.024-12.66-16.92-18.992-25.378-0.528-1.128-1.582-2.256-2.11-3.384C799.52 155.714 744.656 112.854 682.4 85.22c-1.58-0.564-3.164-1.692-5.274-2.256-10.024-4.51-20.048-7.894-30.072-11.842-3.692-1.128-7.386-2.82-11.08-3.948-8.968-2.82-17.936-5.076-26.904-7.332-5.276-1.128-10.024-2.82-15.3-3.382-2.638-0.564-4.748-1.128-7.386-1.692-6.858-1.128-13.716-1.692-20.574-2.82l-14.244-1.692a349.006 349.006 0 0 0-34.292-1.692c-2.11 0-4.22-0.564-6.332-0.564h-1.054c-87.576 0-172.514 27.634-245.844 81.772-23.214 16.92-29.016 50.756-12.662 75.57 16.354 24.248 48.536 30.452 71.748 13.534 56.45-41.732 122.396-62.6 189.924-62.034 9.496 0 19.52 0.564 29.016 1.692 3.164 0.564 5.802 0.564 8.44 1.128 7.914 1.128 15.3 2.256 23.212 3.948 3.166 0.562 6.86 1.69 10.024 2.254 7.386 1.692 14.772 3.948 22.16 6.204 2.108 0.564 4.746 1.692 6.856 2.256 8.44 2.82 16.356 6.204 24.268 9.588 1.056 0.564 1.584 0.564 2.64 1.126 48.006 21.994 90.212 55.268 123.448 97l0.528 0.564c47.48 58.65 75.44 134.782 75.44 217.12H763.12c-2.11 0-3.692 1.126-4.748 2.82a5.42 5.42 0 0 0 0 5.64l127.67 200.764c1.056 1.692 2.638 2.82 4.748 2.82 2.11 0 3.694-1.128 4.748-2.82l127.67-200.766a5.42 5.42 0 0 0 0-5.64z" p-id="15648" fill="#ffffff"></path></svg>