<svg width="15" height="12" xmlns="http://www.w3.org/2000/svg"><path d="M14.124 11.845H.014V1.374a.455.455 0 11.912 0v9.56h13.2a.455.455 0 11-.002.91zm-1.364-1.822h-.911a.911.911 0 01-.911-.911v-5.46c0-.503.407-.912.91-.912h.912c.502 0 .91.407.91.911v5.463a.91.91 0 01-.91.909zm-4.552 0h-.91a.911.911 0 01-.912-.911V.92c0-.502.407-.91.911-.91h.911c.502 0 .911.406.911.91v8.194a.912.912 0 01-.91.909zm-4.553 0h-.91a.911.911 0 01-.912-.911v-3.64c0-.503.407-.912.911-.912h.911c.502 0 .911.408.911.911v3.643a.91.91 0 01-.91.909z"/></svg>