<svg t="1566973183063" class="icon" viewBox="0 0 1131 1024" version="1.1" xmlns="http://www.w3.org/2000/svg" p-id="2072" width="200" height="200"><path d="M797.209 454.01a42.792 42.792 0 0 0-60.147-4.796L479.392 667.65l-81.865-85.962a42.846 42.846 0 0 0-60.362-1.617 42.253 42.253 0 0 0-1.617 60.039l109.73 115.173a42.63 42.63 0 0 0 58.636 3.125l288.444-244.52a42.361 42.361 0 0 0 4.85-59.876z m-525.58-201.78a43.547 43.547 0 0 0 63.973 2.964 42.63 42.63 0 0 0 12.611-30.45V43.117a42.146 42.146 0 0 0-12.773-30.45 42.846 42.846 0 0 0-20.049-11.102 43.116 43.116 0 0 0-54.11 41.498V224.69a42.577 42.577 0 0 0 10.348 27.594z m554.899 15.305a43.493 43.493 0 0 0 30.827-12.557 42.63 42.63 0 0 0 12.665-30.397V43.064A43.008 43.008 0 0 0 826.528 0.057a43.116 43.116 0 0 0-43.493 43.007v181.517c0 11.857 4.85 22.636 12.719 30.397a43.978 43.978 0 0 0 30.774 12.557z" fill="#ffffff" p-id="2073"></path><path d="M1128.715 220.809c-1.94-50.122-26.624-90.381-69.525-113.34-26.57-14.175-52.17-16.169-73.673-16.169h-33.523a42.577 42.577 0 0 0-42.684 42.47 42.577 42.577 0 0 0 42.684 42.468c36.81 0 89.411-4.204 91.46 46.242 0 204.476 0.538 408.952 0.43 613.428v55.78c0 25.547-19.779 45.757-43.654 45.757H130.964c-24.792 0-43.655-21.773-43.655-45.756V222.803c0-32.498 27.27-49.098 57.129-49.098h33.576a42.577 42.577 0 0 0 42.684-42.469 42.523 42.523 0 0 0-42.684-42.415H144.49c-61.062 0-123.257 35.894-139.048 97.55a151.605 151.605 0 0 0-5.066 36.486v668.832c0 47.211 26.085 93.076 68.23 116.25 18.54 10.24 39.775 16.061 62.41 16.061h869.267c72.218 0 130.64-61.17 130.64-132.311l-2.156-670.88z" fill="#ffffff" p-id="2074"></path><path d="M434.606 176.4h262.09a42.577 42.577 0 0 0 42.684-42.47 42.577 42.577 0 0 0-42.685-42.468H434.606a42.577 42.577 0 0 0-42.685 42.469 42.577 42.577 0 0 0 42.685 42.469z" fill="#ffffff" p-id="2075"></path></svg>