<svg width="16" height="16" xmlns="http://www.w3.org/2000/svg"><g><path d="M4.854.659A3 3 0 000 3.016c0 .7.242 1.343.644 1.853a8.026 8.026 0 014.21-4.21zM11 7.266H8.75v-3.25a.75.75 0 10-1.5 0v4c0 .414.336.75.75.75h3a.75.75 0 100-1.5zm2.063-7.25c-.659 0-1.298.221-1.814.63a7.857 7.857 0 014.121 4.121A2.937 2.937 0 0013.062.016z"/><path d="M8 .766a7.25 7.25 0 00-7.25 7.25 7.22 7.22 0 001.976 4.964L1.72 13.986a.748.748 0 00.243 1.223.75.75 0 00.817-.163l1.082-1.082A7.211 7.211 0 008 15.266c1.542 0 2.97-.485 4.145-1.306l1.09 1.09A.742.742 0 0014.283 14l-1.014-1.014a7.216 7.216 0 001.982-4.97A7.252 7.252 0 008 .766zm0 13a5.75 5.75 0 110-11.5 5.75 5.75 0 010 11.5z"/></g></svg>