<svg class="icon" viewBox="0 0 1024 1024" xmlns="http://www.w3.org/2000/svg" width="200" height="200"><path d="M907.5 759c20.8 21.5 36 41.2 45.6 59.1 9.7 17.9 8.1 38.3-4.8 61.2-2.9 4.3-6.8 9.5-11.8 15.6-5 6.1-10.2 12-15.6 17.7-5.4 5.7-10.7 10.9-16.1 15.6s-9.8 8.1-13.4 10.2c-17.9 10.7-39 13.6-63.4 8.6-24.3-5-46.2-17.2-65.5-36.5l-45.1-45.1-60.1-60.1-70.9-70.9L509 657 371.6 794.4c-42.2 42.2-76.6 77-103.1 104.2-27.2 27.2-54.2 44-81.1 50.5-26.8 6.4-50.7.4-71.4-18.3l-7.5-7.5-11.8-11.8-11.8-11.8c-4.3-4.3-6.8-7.2-7.5-8.6-7.9-10-12.5-20.2-14-30.6-1.4-10.4-.5-20.6 2.7-30.6s8.1-19.7 14.5-29 13.6-17.9 21.5-25.8c6.4-5.7 17.9-16.5 34.4-32.2l58-60.1c23.6-22.9 49.9-48.7 78.9-77.3s59.2-58.7 90.7-90.2c-34.4-34.4-67.1-66.9-98.3-97.7s-59.1-58.4-83.8-82.7c-24.7-24.3-44.9-44.2-60.7-59.6-15.8-15.4-25.4-24.9-29-28.5-18.6-18.6-28.1-37.1-28.5-55.3-.4-18.3 5.9-36.7 18.8-55.3 5.7-7.2 14-15.6 24.7-25.2s18.3-15.9 22.6-18.8c21.5-14.3 40.8-20.6 58-18.8 17.2 1.8 34.4 11.6 51.5 29.5l33.3 33.3c16.5 16.5 36.9 36.5 61.2 60.1s51.7 50.3 82.2 80c30.4 29.7 62.1 60.7 95 92.9 27.2-27.2 53.9-53.7 80-79.5 26.1-25.8 50.5-49.9 73-72.5 22.6-22.6 43-42.8 61.2-60.7s33.5-32.9 45.6-45.1c17.2-16.5 35.8-27.4 55.8-32.8 20-5.4 39.4-.9 58 13.4.7.7 3 2.5 7 5.4 3.9 2.9 7.9 6.1 11.8 9.7 3.9 3.6 7.7 7 11.3 10.2 3.6 3.2 6.1 5.2 7.5 5.9 19.3 18.6 28.8 38.8 28.5 60.7-.4 21.8-9.8 42.1-28.5 60.7-12.9 12.9-28.8 29-47.8 48.3-19 19.3-40.1 40.5-63.4 63.4-23.3 22.9-47.8 47.3-73.6 73l-81.6 81.6c26.5 25.8 52.4 51 77.9 75.7 25.4 24.7 49 47.8 70.9 69.3 21.8 21.5 41.5 41.2 59.1 59.1 17.7 17.9 32.2 32.5 43.7 44z"/></svg>