<?xml version="1.0" encoding="UTF-8"?>
<svg width="22px" height="18px" viewBox="0 0 22 18" version="1.1" xmlns="http://www.w3.org/2000/svg" xmlns:xlink="http://www.w3.org/1999/xlink">
    <!-- Generator: Sketch 57.1 (83088) - https://sketch.com -->
    <title>编组</title>
    <desc>Created with Sketch.</desc>
    <g id="页面1" stroke="none" stroke-width="1" fill="none" fill-rule="evenodd">
        <g id="消息提醒_关注" transform="translate(-597.000000, -202.000000)" fill="#B2B2B2" fill-rule="nonzero">
            <g id="编组" transform="translate(597.000000, 202.000000)">
                <path d="M4.98579545,7.11051136 C4.98579545,7.74595262 5.50092238,8.26107955 6.13636364,8.26107955 C6.7718049,8.26107955 7.28693182,7.74595262 7.28693182,7.11051136 C7.28693182,6.4750701 6.7718049,5.95994318 6.13636364,5.95994318 C5.50092238,5.95994318 4.98579545,6.4750701 4.98579545,7.11051136 Z" id="路径"></path>
                <path d="M9.58806818,7.11051136 C9.58806818,7.74595262 10.1031951,8.26107955 10.7386364,8.26107955 C11.3740776,8.26107955 11.8892045,7.74595262 11.8892045,7.11051136 C11.8892045,6.4750701 11.3740776,5.95994318 10.7386364,5.95994318 C10.1031951,5.95994318 9.58806818,6.4750701 9.58806818,7.11051136 Z" id="路径"></path>
                <path d="M14.1903409,7.11051136 C14.1903409,7.74595262 14.7054678,8.26107955 15.3409091,8.26107955 C15.9763504,8.26107955 16.4914773,7.74595262 16.4914773,7.11051136 C16.4914773,6.4750701 15.9763504,5.95994318 15.3409091,5.95994318 C14.7054678,5.95994318 14.1903409,6.4750701 14.1903409,7.11051136 Z" id="路径"></path>
                <path d="M20.7102273,0.0153409091 L0.767045455,0.0153409091 C0.343417948,0.0153409091 0,0.358758857 0,0.782386364 L0,12.8633523 C0,13.2869798 0.343417948,13.6303977 0.767045455,13.6303977 L6.39404297,13.6303977 L9.65398615,16.8903409 C10.2534697,17.488521 11.2240428,17.488521 11.8235263,16.8903409 L11.8424627,16.8706854 L14.8615057,13.6303977 L20.7102273,13.6303977 C21.1338548,13.6303977 21.4772727,13.2869798 21.4772727,12.8633523 L21.4772727,0.782386364 C21.4772727,0.358758857 21.1338548,0.0153409091 20.7102273,0.0153409091 Z M19.9431818,12.0963068 L14.5259233,12.0963068 C14.3130061,12.0962823 14.1096583,12.1847586 13.9645419,12.3405629 L10.7386364,15.8052113 L7.25409268,12.3206676 C7.11017922,12.1769141 6.915059,12.0962104 6.71164773,12.0963068 L1.53409091,12.0963068 L1.53409091,1.54943182 L19.9431818,1.54943182 L19.9431818,12.0963068 Z" id="形状"></path>
            </g>
        </g>
    </g>
</svg>