
<svg t="1568211191033" class="icon" viewBox="0 0 1024 1024" version="1.1" xmlns="http://www.w3.org/2000/svg" p-id="1993" width="200" height="200"><path d="M846 849 714 849c1 1 2 1 2 1-323 0-560 123-560 123l0-92L156 850c0-1 0-2 0-3C68 836 0 762 0 671l0-410C0 162 80 82 178 82l668 0c98 0 178 80 178 178l0 410C1024 769 944 849 846 849zM298 412c-37 0-67 29-67 65s30 65 67 65 67-29 67-65S335 412 298 412zM529 412c-36 0-65 29-65 65s29 65 65 65c36 0 65-29 65-65S565 412 529 412zM760 412c-37 0-67 29-67 65s30 65 67 65 67-29 67-65S797 412 760 412z" p-id="1994"></path></svg>