<svg width="22" height="18" xmlns="http://www.w3.org/2000/svg"><g><path d="M4.986 7.11a1.15 1.15 0 102.3 0 1.15 1.15 0 00-2.3 0zM9.588 7.11a1.15 1.15 0 102.301 0 1.15 1.15 0 00-2.3 0zM14.19 7.11a1.15 1.15 0 102.301 0 1.15 1.15 0 00-2.3 0z"/><path d="M20.71.015H.767A.767.767 0 000 .782v12.081c0 .424.343.767.767.767h5.627l3.26 3.26c.6.599 1.57.599 2.17 0l.018-.02 3.02-3.24h5.848a.767.767 0 00.767-.767V.783a.767.767 0 00-.767-.768zm-.767 12.081h-5.417a.767.767 0 00-.561.245l-3.226 3.464-3.485-3.484a.767.767 0 00-.542-.225H1.534V1.55h18.41v10.547z"/></g></svg>