<svg class="icon" viewBox="0 0 1024 1024" xmlns="http://www.w3.org/2000/svg" width="200" height="200"><path d="M896 810.667H768c-23.467 0-42.667-19.2-42.667-42.667 0-23.467 19.2-42.667 42.667-42.667h106.667c12.8 0 21.333-8.533 21.333-21.333V106.667c0-12.8-8.533-21.334-21.333-21.334H448c-12.8 0-21.333 8.534-21.333 21.334V128c0 23.467-19.2 42.667-42.667 42.667-23.467 0-42.667-19.2-42.667-42.667V85.333C341.333 38.4 379.733 0 426.667 0H896c46.933 0 85.333 38.4 85.333 85.333v640c0 46.934-38.4 85.334-85.333 85.334zm-213.333-512v640c0 46.933-38.4 85.333-85.334 85.333H128c-46.933 0-85.333-38.4-85.333-85.333v-640c0-46.934 38.4-85.334 85.333-85.334h469.333c46.934 0 85.334 38.4 85.334 85.334zm-106.667 0H149.333C136.533 298.667 128 307.2 128 320v597.333c0 12.8 8.533 21.334 21.333 21.334H576c12.8 0 21.333-8.534 21.333-21.334V320c0-12.8-8.533-21.333-21.333-21.333z"/></svg>