<svg width="13" height="13" xmlns="http://www.w3.org/2000/svg"><g><path d="M11.652 0h-7.3c-.745 0-1.348.603-1.349 1.348v1.64H1.161C.52 2.989 0 3.509 0 4.15v7.69C0 12.48.52 13 1.16 13h7.69c.641 0 1.161-.52 1.161-1.16V10.01h1.641c.744 0 1.348-.603 1.348-1.348V1.348C13 .603 12.396 0 11.652 0zM8.85 12.13H1.16a.29.29 0 01-.29-.29V4.15c0-.16.13-.29.29-.29h7.69c.16 0 .29.13.29.29v7.69c0 .16-.13.29-.29.29zm3.294-3.467a.478.478 0 01-.478.478h-1.64V4.15c0-.641-.52-1.161-1.161-1.161H3.874V1.348c0-.264.214-.478.478-.478h7.314c.264 0 .478.214.478.478v7.315z"/><path d="M7.04 6.5H2.97c-.243 0-.451.15-.469.347a.336.336 0 00.122.283c.087.077.21.12.337.12h4.07c.243 0 .451-.15.469-.347a.336.336 0 00-.122-.283.514.514 0 00-.337-.12zm0 2.25H2.97c-.243 0-.451.15-.469.347a.336.336 0 00.122.283c.087.077.21.12.337.12h4.07c.243 0 .451-.15.469-.347a.336.336 0 00-.122-.283.514.514 0 00-.337-.12z"/></g></svg>