<?xml version="1.0" encoding="UTF-8"?>
<svg width="29px" height="31px" viewBox="0 0 29 31" version="1.1" xmlns="http://www.w3.org/2000/svg" xmlns:xlink="http://www.w3.org/1999/xlink">
    <g  stroke="none" stroke-width="1" fill="none" fill-rule="evenodd">
        <g  transform="translate(-224.000000, -259.000000)">
            <g  transform="translate(208.000000, 246.000000)">
                <g  transform="translate(13.775510, 11.020408)">
                    <g  transform="translate(5.510204, 6.734694)">
                        <polygon  fill="#7743F8" fill-rule="nonzero" points="13.4693878 18.1135124 14.5754433 23.494898 23.4349888 1.01562142"></polygon>
                        <path d="M14.8123118,4.23653396 L14.5754433,4.33489461"  stroke="#333333" stroke-width="2" stroke-linecap="round" stroke-linejoin="round"></path>
                        <polyline  stroke="#333333" stroke-width="2" stroke-linecap="round" stroke-linejoin="round" points="16.8025247 3.21847486 24.4897959 0 14.201052 24.4897959 12.0742268 12.3727111 10.5189985 12.0989696 7.91752577 11.6420629 0 10.2532276 12.0742268 5.19706198"></polyline>
                        <path d="M17.1428571,7.34693878 L12.244898,11.6326531"  stroke="#333333" stroke-width="2" stroke-linecap="round" stroke-linejoin="round"></path>
                    </g>
                    <circle  fill="#7743F8" transform="translate(10.965743, 30.351741) rotate(4.000000) translate(-10.965743, -30.351741) " cx="10.9657431" cy="30.3517409" r="1"></circle>
                    <circle  fill="#7743F8" transform="translate(5.846680, 24.245498) scale(-1, -1) rotate(4.000000) translate(-5.846680, -24.245498) " cx="5.84667975" cy="24.2454984" r="1"></circle>
                    <circle  fill="#542DE0" transform="translate(7.621589, 27.857143) scale(-1, -1) rotate(4.000000) translate(-7.621589, -27.857143) " cx="7.62158947" cy="27.8571429" r="1"></circle>
                    <g  transform="translate(7.666191, 7.624815) rotate(35.000000) translate(-7.666191, -7.624815) translate(2.266191, 2.524815)" fill="#7743F8">
                        <path d="M4.73314949,7.31607763 L5.95763929,7.31607763 C6.46483957,7.31607763 6.87600664,7.7272447 6.87600664,8.23444498 C6.87600664,8.74164526 6.46483957,9.15281233 5.95763929,9.15281233 L4.73314949,9.15281233 C4.22594921,9.15281233 3.81478215,8.74164526 3.81478215,8.23444498 C3.81478215,7.7272447 4.22594921,7.31607763 4.73314949,7.31607763 Z"  transform="translate(5.345394, 8.234445) scale(-1, -1) rotate(-270.000000) translate(-5.345394, -8.234445) "></path>
                        <path d="M1.53061224,4.98929813 L2.75510204,4.98929813 C3.26230232,4.98929813 3.67346939,5.40046519 3.67346939,5.90766547 C3.67346939,6.41486575 3.26230232,6.82603282 2.75510204,6.82603282 L1.53061224,6.82603282 C1.02341196,6.82603282 0.612244898,6.41486575 0.612244898,5.90766547 C0.612244898,5.40046519 1.02341196,4.98929813 1.53061224,4.98929813 Z"  transform="translate(2.142857, 5.907665) scale(-1, -1) rotate(-198.000000) translate(-2.142857, -5.907665) "></path>
                        <path d="M2.75387262,1.2244898 L3.97836242,1.2244898 C4.4855627,1.2244898 4.89672977,1.63565686 4.89672977,2.14285714 C4.89672977,2.65005742 4.4855627,3.06122449 3.97836242,3.06122449 L2.75387262,3.06122449 C2.24667234,3.06122449 1.83550528,2.65005742 1.83550528,2.14285714 C1.83550528,1.63565686 2.24667234,1.2244898 2.75387262,1.2244898 Z"  transform="translate(3.366118, 2.142857) scale(-1, -1) rotate(-126.000000) translate(-3.366118, -2.142857) "></path>
                        <path d="M6.71242636,1.2244898 L7.93691616,1.2244898 C8.44411644,1.2244898 8.85528351,1.63565686 8.85528351,2.14285714 C8.85528351,2.65005742 8.44411644,3.06122449 7.93691616,3.06122449 L6.71242636,3.06122449 C6.20522608,3.06122449 5.79405902,2.65005742 5.79405902,2.14285714 C5.79405902,1.63565686 6.20522608,1.2244898 6.71242636,1.2244898 Z"  transform="translate(7.324671, 2.142857) scale(-1, -1) rotate(-54.000000) translate(-7.324671, -2.142857) "></path>
                        <path d="M7.93568674,4.98929813 L9.16017654,4.98929813 C9.66737682,4.98929813 10.0785439,5.40046519 10.0785439,5.90766547 C10.0785439,6.41486575 9.66737682,6.82603282 9.16017654,6.82603282 L7.93568674,6.82603282 C7.42848646,6.82603282 7.0173194,6.41486575 7.0173194,5.90766547 C7.0173194,5.40046519 7.42848646,4.98929813 7.93568674,4.98929813 Z"  transform="translate(8.547932, 5.907665) scale(-1, -1) rotate(18.000000) translate(-8.547932, -5.907665) "></path>
                    </g>
                    <path d="M13.9550467,23.6557701 L10.7205771,26.4674516 C10.3377881,26.800205 9.75772655,26.7596431 9.42497323,26.3768542 C9.0922199,25.9940653 9.13278176,25.4140037 9.51557067,25.0812504 L12.7500403,22.2695688 C13.1328292,21.9368155 13.7128908,21.9773773 14.0456441,22.3601663 C14.3783975,22.7429552 14.3378356,23.3230168 13.9550467,23.6557701 Z"  fill="#7743F8"></path>
                    <path d="M9.52546332,22.1927861 L8.60132914,22.9961237 C8.21854023,23.328877 7.63847864,23.2883151 7.30572531,22.9055262 C6.97297199,22.5227373 7.01353385,21.9426757 7.39632276,21.6099224 L8.32045694,20.8065848 C8.70324585,20.4738315 9.28330744,20.5143934 9.61606076,20.8971823 C9.94881409,21.2799712 9.90825223,21.8600328 9.52546332,22.1927861 Z"  fill="#7743F8"></path>
                    <path d="M12.9673444,27.1611917 L14.1918342,27.1611917 C14.6990344,27.1611917 15.1102015,27.5723588 15.1102015,28.0795591 C15.1102015,28.5867593 14.6990344,28.9979264 14.1918342,28.9979264 L12.9673444,28.9979264 C12.4601441,28.9979264 12.048977,28.5867593 12.048977,28.0795591 C12.048977,27.5723588 12.4601441,27.1611917 12.9673444,27.1611917 Z"  fill="#7743F8" transform="translate(13.579589, 28.079559) rotate(-221.000000) translate(-13.579589, -28.079559) "></path>
                </g>
            </g>
        </g>
    </g>
</svg>