<svg class="icon" viewBox="0 0 1271 1024" xmlns="http://www.w3.org/2000/svg" width="200" height="200"><path d="M710.091 896a323.266 323.266 0 0049.082 64.088H127.117A128 128 0 010 831.912V128A127.823 127.823 0 01127.117 0h953.38a127.823 127.823 0 01127.117 128v379.586a316.734 316.734 0 00-95.338-64.794V160.309a63.912 63.912 0 00-63.559-63.912h-889.82a63.912 63.912 0 00-63.559 63.559v497.876l195.266-296.607a35.31 35.31 0 0127.19-15.537 34.251 34.251 0 0128.777 13.948l140.36 187.674a35.31 35.31 0 0049.433 6.356l112.11-90.218a35.31 35.31 0 0140.078-3.001l38.841 23.481a36.193 36.193 0 019.181 52.966 320.441 320.441 0 00-25.777 358.4zm275.07-447.912a284.954 284.954 0 01202.327 84.215 286.014 286.014 0 11-404.656 0 284.954 284.954 0 01202.328-84.215zm31.78 335.449v-191.56a31.78 31.78 0 10-63.56 0v192.09a31.78 31.78 0 1063.56 0zm-31.78 128a32.132 32.132 0 10-31.78-31.603 32.132 32.132 0 0031.78 32.132z"/></svg>