<svg t="1566210081490" class="icon" viewBox="0 0 1271 1024" version="1.1" xmlns="http://www.w3.org/2000/svg" p-id="19181" width="200" height="200"><path d="M710.09113 896a323.266 323.266 0 0 0 49.082 64.088H127.11713A128 128 0 0 1 0.00013 831.912V128A127.823 127.823 0 0 1 127.11713 0h953.38a127.823 127.823 0 0 1 127.117 128v379.586a316.734 316.734 0 0 0-95.338-64.794V160.309a63.912 63.912 0 0 0-63.559-63.912h-889.82a63.912 63.912 0 0 0-63.559 63.559v497.876l195.266-296.607a35.31 35.31 0 0 1 27.19-15.537 34.251 34.251 0 0 1 28.777 13.948L486.93013 547.31a35.31 35.31 0 0 0 49.434 6.356l112.11-90.218a35.31 35.31 0 0 1 40.078-3.001l38.841 23.481a36.193 36.193 0 0 1 9.181 52.966 320.441 320.441 0 0 0-25.777 358.4zM985.16013 448.088a284.954 284.954 0 0 1 202.328 84.215 286.014 286.014 0 1 1-404.656 0 284.954 284.954 0 0 1 202.328-84.215z m31.78 335.449v-191.56a31.78 31.78 0 1 0-63.56 0v192.09a31.78 31.78 0 1 0 63.56 0z m-31.78 128a32.132 32.132 0 1 0-31.78-31.603 32.132 32.132 0 0 0 31.78 32.132z" p-id="19182"></path></svg>