<?xml version="1.0" encoding="UTF-8"?>
<svg width="16px" height="16px" viewBox="0 0 16 16" version="1.1" xmlns="http://www.w3.org/2000/svg" xmlns:xlink="http://www.w3.org/1999/xlink">
    <!-- Generator: Sketch 57.1 (83088) - https://sketch.com -->
    <title>编组</title>
    <desc>Created with Sketch.</desc>
    <g id="页面1" stroke="none" stroke-width="1" fill="none" fill-rule="evenodd">
        <g id="购买全文" transform="translate(-673.000000, -823.000000)" fill-rule="nonzero">
            <g id="编组" transform="translate(673.000000, 823.000000)">
                <path d="M8,0 C3.584,0 0,3.584 0,8 C0,12.416 3.584,16 8,16 C12.416,16 16,12.416 16,8 C16,3.584 12.416,0 8,0 Z" id="路径" fill="#FFFFFF"></path>
                <path d="M8,0 C3.584,0 0,3.584 0,8 C0,12.416 3.584,16 8,16 C12.416,16 16,12.416 16,8 C16,3.584 12.416,0 8,0 Z M11.2,7.76 L8.48,7.76 L8.48,9.12 L10.64,9.12 C10.928,9.12 11.16,9.352 11.16,9.64 C11.16,9.928 10.928,10.16 10.64,10.16 L8.48,10.16 L8.48,12.584 C8.48,12.872 8.248,13.104 7.96,13.104 C7.672,13.104 7.44,12.872 7.44,12.584 L7.44,10.16 L5.36,10.16 C5.072,10.16 4.84,9.928 4.84,9.64 C4.84,9.352 5.072,9.12 5.36,9.12 L7.44,9.12 L7.44,7.76 L4.8,7.76 C4.512,7.76 4.28,7.528 4.28,7.24 C4.28,6.952 4.512,6.72 4.8,6.72 L6.88,6.72 L4.64,4.312 C4.44,4.096 4.456,3.768 4.672,3.568 C4.888,3.368 5.224,3.384 5.424,3.6 L7.968,6.36 L10.504,3.6 C10.704,3.384 11.04,3.368 11.256,3.568 C11.472,3.768 11.488,4.088 11.288,4.312 L9.056,6.72 L11.2,6.72 C11.488,6.72 11.72,6.952 11.72,7.24 C11.72,7.528 11.48,7.76 11.2,7.76 Z" id="形状" fill="#E6726D"></path>
            </g>
        </g>
    </g>
</svg>