<svg width="22" height="20" xmlns="http://www.w3.org/2000/svg"><path d="M21.66 9.73a.84.84 0 01-.027.294l-1.95 8.292a.855.855 0 01-.13.27 2.586 2.586 0 01-.949 1.015c-.445.272-.941.4-1.432.399v-.005l-12.526-.006a.94.94 0 01-.268 0l-3.332-.001A.936.936 0 01.902 20C.404 20 0 19.61 0 19.13L.008 8.695c0-.48.404-.87.903-.87.037 0 .074.004.11.008l2.995-.007V7.81c2.755-.19 4.939-2.366 5.017-5.051a2.49 2.49 0 01-.012-.229C9.02 1.132 10.196 0 11.646 0c1.246 0 2.287.837 2.556 1.959l.013-.002a8.784 8.784 0 01-.3 4.993l5.038.005c.046 0 .092.004.136.01.86.033 1.689.46 2.176 1.218a2.49 2.49 0 01.394 1.548zM1.805 18.25H3.61l.007-8.685-1.803.004-.008 8.68zM19.742 9.09a.88.88 0 00-.787-.395v-.003h-.002l-6.367-.006c-.499 0-.903-.39-.903-.87 0-.138.035-.268.094-.384l-.01-.008c.361-.646.624-1.351.772-2.095h.012s.12-.469.118-1.37c-.001-.712-.136-1.363-.136-1.363h-.007l.002-.038c0-.45-.378-.813-.844-.813-.466 0-.844.364-.844.813l.003.055h-.012s.015.68-.126 1.383c-.06.299-.144.577-.22.798a.292.292 0 01-.004-.002c-.76 2.237-2.67 3.97-5.057 4.555l-.009 8.903 11.761.005c.04 0 .079.003.117.008a.858.858 0 00.34-.12.817.817 0 00.325-.371l.003.001 1.877-7.983-.007-.002a.81.81 0 00-.089-.698z"/></svg>