<svg width="22" height="22" xmlns="http://www.w3.org/2000/svg"><g><path d="M19.065 10.888c0-.295.156-.57.412-.715a.826.826 0 011.237.715v4.86a4.992 4.992 0 01-4.992 4.992H5.32a4.992 4.992 0 01-4.992-4.992V5.341A4.992 4.992 0 015.319.35h4.519c.455 0 .828.37.828.825 0 .455-.37.825-.828.825h-4.52A3.34 3.34 0 001.98 5.338v10.407a3.34 3.34 0 003.339 3.338h10.407a3.34 3.34 0 003.339-3.338v-4.857z"/><path d="M15.726 21.067H5.319a5.323 5.323 0 01-5.316-5.315V5.342A5.323 5.323 0 015.32.025h4.519a1.152 1.152 0 110 2.304h-4.52c-.803 0-1.56.312-2.129.881a2.994 2.994 0 00-.882 2.13v10.407c0 .804.313 1.561.882 2.13a2.994 2.994 0 002.13.882h10.407a3.015 3.015 0 003.011-3.012v-4.86c0-.41.22-.793.576-1a1.163 1.163 0 011.152 0c.356.207.576.587.576 1v4.86a5.322 5.322 0 01-5.315 5.32zM5.319.677A4.672 4.672 0 00.654 5.34v10.407a4.672 4.672 0 004.665 4.665h10.407a4.672 4.672 0 004.665-4.665v-4.86a.505.505 0 00-.754-.434.505.505 0 00-.249.434v4.86a3.666 3.666 0 01-3.662 3.662H5.319c-.978 0-1.899-.38-2.589-1.073a3.634 3.634 0 01-1.073-2.589V5.341c0-.978.38-1.899 1.073-2.588A3.634 3.634 0 015.32 1.679h4.519a.5.5 0 100-1.003h-4.52zm13.746 1.329h-4.377a.825.825 0 010-1.65h5.205c.455 0 .828.37.828.825v5.205a.821.821 0 01-.412.715.826.826 0 01-1.237-.715v-4.38h-.007z"/><path d="M19.89 7.485a1.11 1.11 0 01-.552-.146 1.108 1.108 0 01-.55-.953V2.28h-4.1a1.103 1.103 0 010-2.205h5.205c.608 0 1.102.495 1.102 1.103v5.205a1.1 1.1 0 01-1.106 1.102zM14.687.626a.552.552 0 000 1.103h4.65v4.65c0 .196.107.38.278.48a.563.563 0 00.55 0c.171-.1.278-.28.278-.48V1.178a.552.552 0 00-.551-.552h-5.205z"/><path d="M11.107 11.13a.827.827 0 01-1.17-1.17l9.37-9.37a.827.827 0 011.17 1.17l-9.37 9.37z"/><path d="M10.542 11.627c-.295 0-.569-.113-.779-.323a1.1 1.1 0 01-.028-1.53l.007-.006L19.114.395l.004-.003c.203-.192.47-.295.75-.295.295 0 .569.113.779.323a1.1 1.1 0 01.028 1.53l-.007.006-9.372 9.373-.004.003a1.1 1.1 0 01-.75.295zm-.405-1.475a.55.55 0 00.017.764.551.551 0 00.765.018l9.362-9.362a.55.55 0 00-.018-.764.551.551 0 00-.765-.018l-9.361 9.362z"/></g></svg>