<svg width="26" height="20" xmlns="http://www.w3.org/2000/svg"><path d="M25.6 9.623a.919.919 0 00-.296-.672L15.2.226a.913.913 0 00-1.509.694v3.862C5.968 6.03.531 11.706 0 18.992a.598.598 0 00.923.456c.002-.002 0 .006.002.006 1.334-.948 2.488-1.654 3.388-2.129 2.183-1.202 5.575-2.172 9.378-2.562v3.578a.905.905 0 001.484.709l10.105-8.727s-.003-.002-.001-.002a.914.914 0 00.321-.698zM15.523 16.33v-3.553l-.984.073c-3.98.297-9.278 1.455-12.273 3.597 1.459-5.364 6.1-9.202 12.448-9.958l.81-.097V2.925l7.758 6.703-7.759 6.701z"/></svg>