<svg width="22" height="21" xmlns="http://www.w3.org/2000/svg"><g><path d="M19.136.03H2.525C1.06.03 0 1.155 0 2.705v12.189c0 .732.242 1.365.7 1.82.46.459 1.089.7 1.825.7h4.768l2.837 2.756c.199.2.462.306.743.306.277 0 .544-.11.747-.31l2.787-2.751h4.73c.732 0 1.364-.242 1.82-.7.458-.46.7-1.089.7-1.821V2.708c0-1.55-1.06-2.677-2.52-2.677zm.409 14.866c0 .328-.082.41-.409.41h-5.17c-.284 0-.547.11-.746.309l-2.354 2.321-2.4-2.328a1.042 1.042 0 00-.768-.303H2.525c-.335 0-.417-.081-.417-.409V2.708c0-.139 0-.562.417-.562h16.611c.164 0 .267.057.33.182a.874.874 0 01.079.38v12.188z"/><path d="M11.058 7.032c-.89 0-1.61.721-1.61 1.61v.352h.038a1.612 1.612 0 101.572-1.963zm-5.106 0a1.612 1.612 0 10.002 3.223 1.612 1.612 0 00-.002-3.223zM14.517 8.624a1.61 1.61 0 103.222 0 1.61 1.61 0 00-3.222 0z"/></g></svg>