<svg class="icon" viewBox="0 0 1024 1024" xmlns="http://www.w3.org/2000/svg" width="200" height="200"><path d="M345.43 561.334c-.615.796-1.252 1.638-1.525 2.64L295.822 740.26c-2.799 10.263.068 21.345 7.669 29.127 5.689 5.53 13.175 8.602 21.14 8.602 2.64 0 5.279-.319 7.873-1.024l175.059-47.741c.273 0 .41.273.614.273 2.025 0 3.982-.751 5.484-2.276l468.082-468.013c13.904-13.927 21.527-32.882 21.527-53.522 0-23.37-9.922-46.74-27.261-64.056l-44.215-44.283c-17.34-17.362-40.755-27.306-64.08-27.306-20.638 0-39.594 7.623-53.566 21.504L346.135 559.74c-.5.433-.342 1.092-.706 1.593m590.53-347.955l-46.513 46.467-75.389-76.573 45.853-45.83c7.236-7.281 21.299-6.212 29.605 2.117l44.214 44.282c4.62 4.62 7.259 10.764 7.259 16.794 0 5.006-1.798 9.512-5.03 12.743M428.67 568.707l337.76-337.784 75.39 76.618-337.1 337.124-76.05-75.958zM367.14 705.65l24.393-89.612 65.104 65.104-89.498 24.508zm598.47-306.79c-17.726 0-32.267 14.404-32.335 32.358v436.338c0 22.892-18.569 41.46-41.484 41.46H153.646c-22.87 0-41.552-18.568-41.552-41.46V155.375c0-22.892 18.66-41.506 41.552-41.506h475.409c17.794 0 32.267-14.473 32.267-32.29 0-17.795-14.473-32.268-32.267-32.268H148.73c-55.796 0-101.194 45.352-101.194 101.171v722.012c0 55.819 45.398 101.148 101.194 101.148h747.953c55.819 0 101.194-45.33 101.194-101.148V431.036c-.091-17.772-14.587-32.177-32.268-32.177"/></svg>