<svg t="1566282083396" class="icon" viewBox="0 0 1024 1024" version="1.1" xmlns="http://www.w3.org/2000/svg" p-id="1991" width="200" height="200"><path d="M345.429333 561.334044c-0.6144 0.796444-1.251556 1.6384-1.524622 2.639644L295.822222 740.260978c-2.798933 10.262756 0.068267 21.344711 7.668622 29.127111 5.688889 5.5296 13.175467 8.6016 21.139911 8.6016 2.639644 0 5.279289-0.318578 7.873422-1.024l175.058489-47.741156c0.273067 0 0.4096 0.273067 0.6144 0.273067 2.025244 0 3.982222-0.750933 5.484089-2.275556l468.081778-468.013511c13.903644-13.9264 21.526756-32.881778 21.526756-53.521067 0-23.369956-9.921422-46.739911-27.261156-64.056889l-44.214044-44.282311c-17.339733-17.362489-40.7552-27.306667-64.079644-27.306667-20.639289 0-39.594667 7.623111-53.566578 21.504L346.134756 559.741156C345.634133 560.173511 345.793422 560.833422 345.429333 561.334044M935.958756 213.378844l-46.512356 46.466844-75.389156-76.572444 45.852444-45.829689c7.236267-7.281778 21.2992-6.212267 29.604978 2.116267l44.214044 44.282311c4.619378 4.619378 7.259022 10.763378 7.259022 16.7936C940.987733 205.641956 939.190044 210.147556 935.958756 213.378844M428.669156 568.706844l337.760711-337.783467 75.389156 76.617956L504.718222 644.664889 428.669156 568.706844 428.669156 568.706844 428.669156 568.706844zM367.138133 705.649778l24.393956-89.611378 65.103644 65.103644L367.138133 705.649778 367.138133 705.649778 367.138133 705.649778zM965.609244 398.859378c-17.726578 0-32.267378 14.404267-32.335644 32.3584l0 436.337778c0 22.892089-18.568533 41.460622-41.483378 41.460622L153.645511 909.016178c-22.869333 0-41.551644-18.568533-41.551644-41.460622L112.093867 155.374933c0-22.892089 18.659556-41.506133 41.551644-41.506133l475.409067 0c17.794844 0 32.267378-14.472533 32.267378-32.290133 0-17.794844-14.472533-32.267378-32.267378-32.267378L148.730311 49.311289c-55.796622 0-101.193956 45.351822-101.193956 101.1712l0 722.011022c0 55.819378 45.397333 101.148444 101.193956 101.148444l747.952356 0c55.819378 0 101.193956-45.329067 101.193956-101.148444l0-441.457778C997.7856 413.263644 983.290311 398.859378 965.609244 398.859378" p-id="1992"></path></svg>