<svg width="25" height="24" xmlns="http://www.w3.org/2000/svg"><g><path d="M12.025 24c-6.617 0-12-5.383-12-12s5.384-12 12-12c6.617 0 12 5.383 12 12s-5.383 12-12 12zm0-22.286C6.354 1.714 1.74 6.328 1.74 12s4.614 10.286 10.285 10.286c5.672 0 10.286-4.614 10.286-10.286S17.697 1.714 12.025 1.714z"/><path d="M12.054 19a7.671 7.671 0 01-6.078-2.963.856.856 0 111.35-1.056 5.967 5.967 0 004.728 2.305 5.961 5.961 0 004.758-2.345.857.857 0 111.36 1.044A7.664 7.664 0 0112.054 19zM8.196 12.086c-.71 0-1.285-.575-1.285-1.286V9.086a1.285 1.285 0 112.571 0V10.8c0 .71-.576 1.286-1.286 1.286zM15.91 12.086c-.709 0-1.285-.575-1.285-1.286V9.086a1.286 1.286 0 112.571 0V10.8c0 .71-.576 1.286-1.285 1.286z"/></g></svg>