<?xml version="1.0" standalone="no"?><!DOCTYPE svg PUBLIC "-//W3C//DTD SVG 1.1//EN" "http://www.w3.org/Graphics/SVG/1.1/DTD/svg11.dtd"><svg class="icon" width="18px" height="18.00px" viewBox="0 0 1024 1024" version="1.1" xmlns="http://www.w3.org/2000/svg"><path d="M570.896516 800.892789l94.05385-295.433176-153.486223-266.419842-151.221677 262.496344 93.239054 299.356674zM587.750308 800.892789h247.396932l-159.347613-276.597448zM521.480258 18.769663l-1.963584 202.080344 152.025462 263.89104 55.369405-173.914839zM565.787527 816.942796h-107.307126l53.068158 170.380387zM820.37081 816.942796h-237.736832l-57.021017 179.104573zM441.670652 816.942796H202.564817l294.923011 179.21101zM187.788387 800.892789h248.879713l-87.33729-280.410839zM682.395068 503.576774l147.052273 255.25861-94.978753-418.819671zM353.742452 480.659728l149.720544-259.883126 1.956244-201.529806-205.394581 288.955182zM194.075527 757.807713l148.751598-258.205821-50.543025-162.265462z" fill="#ffffff" /></svg>