<svg class="icon" width="18" height="18" viewBox="0 0 1024 1024" xmlns="http://www.w3.org/2000/svg"><path d="M570.897 800.893L664.95 505.46 511.464 239.04 360.242 501.536l93.24 299.357zm16.853 0h247.397L675.8 524.295zM521.48 18.77l-1.963 202.08 152.025 263.891 55.37-173.915zm44.308 798.173H458.48l53.069 170.38zm254.583 0H582.634l-57.021 179.104zm-378.7 0H202.565l294.923 179.21zm-253.883-16.05h248.88l-87.337-280.411zm494.607-297.316l147.052 255.258-94.978-418.82zM353.742 480.66l149.721-259.883 1.956-201.53-205.394 288.955zM194.076 757.808l148.751-258.206-50.543-162.266z"/></svg>