<svg width="10" height="16" xmlns="http://www.w3.org/2000/svg"><g><path d="M5 10a.565.565 0 01-.228-.049L.28 7.898a.471.471 0 01-.26-.284.435.435 0 01.049-.368L4.561.23A.518.518 0 015 0c.182 0 .347.088.438.23L9.93 7.246c.073.11.089.245.049.368a.485.485 0 01-.26.284L5.227 9.951A.565.565 0 015 10zM1.22 7.288L5 9.015l3.778-1.727L5 1.384 1.22 7.288z"/><path d="M5 16a.525.525 0 01-.428-.204L.08 9.675a.393.393 0 01.05-.53.568.568 0 01.605-.1L5 10.89l4.265-1.834a.568.568 0 01.605.1.393.393 0 01.05.53l-4.492 6.111A.529.529 0 015 16zm-3.083-5.46L5 14.742l3.086-4.198-2.859 1.23a.569.569 0 01-.452 0L1.917 10.54z"/></g></svg>