<svg width="18" height="17" xmlns="http://www.w3.org/2000/svg"><path d="M17.789 7.4a.5.5 0 01-.697.117l-7.7-5.5-5.205 3.669V15.74h10.414V8.238a.5.5 0 01.999 0v8.002a.5.5 0 01-.5.5H3.688a.5.5 0 01-.5-.5V6.45L1.695 7.518a.499.499 0 11-.58-.814L9.103.998a.5.5 0 01.58 0l7.989 5.705a.499.499 0 01.117.697zm-9.303-.18L6.247 8.714a.5.5 0 01-.554-.83l2.604-1.736a.5.5 0 01.651.086l1.203 1.365 2.351-2.008a.499.499 0 11.648.759l-2.725 2.33a.5.5 0 01-.7-.05L8.487 7.22zm-2.127 3.315a.5.5 0 011 0v3.875a.5.5 0 01-1 0v-3.875zm2.534 0a.5.5 0 011 0v3.875a.5.5 0 01-1 0v-3.875zm2.759-.571a.5.5 0 01.999 0v4.446a.5.5 0 01-1 0V9.964z" stroke="#000" stroke-width=".2"/></svg>