<svg width="35" height="32" xmlns="http://www.w3.org/2000/svg"><path d="M34.386 13.308a1.054 1.054 0 01-.848.424c-.212 0-.42-.064-.603-.187L17.667 3.011 7.375 10.113v19.103h20.587V14.88c0-.563.47-1.017 1.044-1.017.574 0 1.044.454 1.044 1.017v15.353c0 .563-.47 1.017-1.044 1.017H6.33c-.574 0-1.044-.454-1.044-1.017v-18.68l-2.889 1.992a1.06 1.06 0 01-1.45-.236.998.998 0 01.244-1.425L17.064.936c.36-.248.845-.248 1.205 0l15.872 10.948a.999.999 0 01.245 1.424zm-18.53-.31l-4.414 2.841a1.053 1.053 0 01-1.441-.278.998.998 0 01.289-1.415l5.173-3.33a1.067 1.067 0 011.356.174l2.359 2.586 4.636-3.824a1.062 1.062 0 011.464.112.997.997 0 01-.116 1.437l-5.415 4.47a1.066 1.066 0 01-1.455-.101l-2.436-2.672zm-4.269 6.287c0-.563.47-1.017 1.044-1.017.574 0 1.044.454 1.044 1.017v7.436c0 .563-.47 1.016-1.044 1.016-.574 0-1.044-.453-1.044-1.016v-7.436zm5.036 0c0-.563.47-1.017 1.044-1.017.574 0 1.044.454 1.044 1.017v7.436c0 .563-.47 1.016-1.044 1.016-.574 0-1.044-.453-1.044-1.016v-7.436zm5.48-1.095c0-.563.47-1.017 1.044-1.017.574 0 1.044.454 1.044 1.017v8.53c0 .564-.47 1.017-1.044 1.017-.574 0-1.044-.453-1.044-1.016v-8.53z" stroke="#542DE0" stroke-width=".5"/></svg>