<svg t="1576745299692" class="icon" viewBox="0 0 1024 1024" version="1.1" xmlns="http://www.w3.org/2000/svg" p-id="2656" width="200" height="200"><path d="M515.2 224C208 224 22.4 537.6 22.4 537.6s214.4 304 492.8 304 492.8-304 492.8-304S822.4 224 515.2 224zM832 652.8c-102.4 86.4-211.2 140.8-320 140.8s-217.6-51.2-320-140.8c-35.2-32-70.4-64-99.2-99.2-6.4-6.4-9.6-12.8-16-19.2 3.2-6.4 9.6-12.8 12.8-19.2 25.6-35.2 57.6-70.4 92.8-102.4 99.2-89.6 208-144 329.6-144s230.4 54.4 329.6 144c35.2 32 64 67.2 92.8 102.4 3.2 6.4 9.6 12.8 12.8 19.2-3.2 6.4-9.6 12.8-16 19.2-28.8 32-60.8 67.2-99.2 99.2z" fill="" p-id="2657"></path><path d="M512 345.6c-96 0-169.6 76.8-169.6 169.6 0 96 76.8 169.6 169.6 169.6 96 0 169.6-76.8 169.6-169.6S604.8 345.6 512 345.6z m0 294.4c-67.2 0-121.6-54.4-121.6-121.6 0-67.2 54.4-121.6 121.6-121.6 67.2 0 121.6 54.4 121.6 121.6 0 64-54.4 121.6-121.6 121.6z" fill="" p-id="2658"></path></svg>