<svg t="1577961069826" class="icon" viewBox="0 0 1024 1024" version="1.1" xmlns="http://www.w3.org/2000/svg" p-id="1993" width="200" height="200"><path d="M519.872 168.336C290.768 168.336 95.12 310.848 15.84 512c79.272 201.152 274.928 343.664 504.032 343.664 229.12 0 424.768-142.512 504.04-343.664-79.272-201.152-274.696-343.664-504.04-343.664z m0 572.776c-126.464 0-229.104-102.64-229.104-229.112s102.64-229.104 229.104-229.104c126.472 0 229.12 102.64 229.12 229.104s-102.648 229.112-229.12 229.112z m0-366.568c-75.832 0-137.464 61.624-137.464 137.456s61.632 137.464 137.464 137.464S657.344 587.84 657.344 512s-61.632-137.456-137.472-137.456z m0 0" p-id="1994"></path></svg>