<?xml version="1.0" encoding="UTF-8"?>
<svg width="70px" height="70px" viewBox="0 0 70 70" version="1.1" xmlns="http://www.w3.org/2000/svg" xmlns:xlink="http://www.w3.org/1999/xlink">
    <!-- Generator: Sketch 55.1 (78136) - https://sketchapp.com -->
    <title>facebook</title>
    <desc>Created with Sketch.</desc>
    <g id="页面1" stroke="none" stroke-width="1" fill="none" fill-rule="evenodd">
        <g id="分享_v2.6.0" transform="translate(-980.000000, -475.000000)">
            <g id="facebook" transform="translate(980.000000, 475.000000)">
                <circle id="椭圆形备份-5" fill="#FFFFFF" cx="35" cy="35" r="35"></circle>
                <g id="facebook-2" transform="translate(25.000000, 16.000000)" fill="#3C5999" fill-rule="nonzero">
                    <path d="M19.6278529,0.271058812 L19.6278529,6.26145881 L16.0611706,6.26145881 C14.7600882,6.26145881 13.8836647,6.53251762 13.4296412,7.07915295 C12.9778765,7.62127061 12.7497353,8.44122352 12.7474765,9.52997647 L12.7474765,13.8172235 L19.3951941,13.8172235 L18.5119941,20.5349647 L12.7497353,20.5349647 L12.7497353,37.7562353 L5.80837057,37.7562353 L5.80837057,20.5327059 L0.0212647125,20.5327059 L0.0212647125,13.8172235 L5.80837057,13.8172235 L5.80837057,8.8704 C5.80837057,6.05816471 6.59444115,3.87614119 8.16658234,2.32432943 C9.74098234,0.774776475 11.8349118,0 14.4551471,0 C16.6778294,0 18.4013118,0.09035295 19.6278529,0.271058812 Z" id="路径"></path>
                </g>
            </g>
        </g>
    </g>
</svg>