<svg width="32px" height="32px" viewBox="0 0 32 32" version="1.1" xmlns="http://www.w3.org/2000/svg" xmlns:xlink="http://www.w3.org/1999/xlink">
    <g stroke="none" stroke-width="1" fill="none" fill-rule="evenodd">
        <g transform="translate(-1171.000000, -423.000000)">
            <g transform="translate(1171.000000, 423.000000)">
                <circle fill="#EBE6FF" cx="16" cy="16" r="16"></circle>
                <path d="M24.7072721,13.4116378 C24.7069148,13.238141 24.6309145,13.0733976 24.4991594,12.9605384 L17.9400666,7.34318277 C17.7149039,7.15039321 17.3822809,7.15251701 17.1596192,7.34818461 L10.7685647,12.9655402 C10.6399457,13.0785979 10.5662081,13.241555 10.5662081,13.412789 L10.5662081,21.5252143 C10.5662081,21.854066 10.8327948,22.1206726 11.1616665,22.1206726 C11.4905183,22.1206726 11.7571248,21.854066 11.7571248,21.5252143 L11.7571248,13.682214 L17.5577823,8.58378055 L23.5168913,13.6872953 L23.5361643,23.4653763 L8.4909167,23.4653763 L8.4909167,12.1733424 C8.4909167,11.8444708 8.22431014,11.5778841 7.89545835,11.5778841 C7.56660655,11.5778841 7.3,11.8444708 7.3,12.1733424 L7.3,23.4981861 C7.3,23.8075267 7.42046122,24.0983486 7.63919293,24.3170803 C7.85792463,24.5358318 8.14874649,24.656293 8.4580871,24.656293 L23.5690535,24.656293 C24.2076428,24.656293 24.7271604,24.1367755 24.7271604,23.497015 L24.7072721,13.4116378 Z" fill="#542DE0" fill-rule="nonzero"></path>
                <path d="M7.6097816,10.0511588 C8.31565777,10.0511588 8.88993766,10.6254387 8.88993766,11.331295 C8.88993766,11.6601468 9.15654421,11.9267534 9.48539601,11.9267534 C9.8142478,11.9267534 10.0808544,11.6601468 10.0808544,11.331295 C10.0808544,9.96874737 8.97232925,8.86024212 7.60978162,8.86024212 C7.28092982,8.86024212 7.01432327,9.12684867 7.01432327,9.45570047 C7.01432327,9.78455227 7.2809298,10.0511588 7.6097816,10.0511588 Z" fill="#542DE0" fill-rule="nonzero"></path>
                <path d="M8.3325291,8.19201875 C9.5555013,8.19201875 10.5504725,9.18698995 10.5504725,10.4099622 C10.5504725,10.738814 10.8170791,11.0054205 11.1459309,11.0054205 C11.4747827,11.0054205 11.7413892,10.738814 11.7413892,10.4099622 C11.7413892,8.53029865 10.2121926,7.00110207 8.33252912,7.00110207 C8.00367732,7.00110207 7.73707077,7.26770863 7.73707077,7.59656042 C7.73707077,7.92541222 8.00365744,8.19201875 8.3325291,8.19201875 Z" fill="#542DE0" fill-rule="nonzero"></path>
                <path d="M15.6767933,17.6499616 L15.6767933,15.6651004 C15.6767933,15.3362486 15.4101867,15.0696421 15.0813349,15.0696421 C14.7524831,15.0696421 14.4858766,15.3362486 14.4858766,15.6651004 L14.4858766,17.6499616 C14.4858766,17.9788134 14.7524831,18.2454199 15.0813349,18.2454199 C15.4102066,18.2454199 15.6767933,17.9788134 15.6767933,17.6499616 Z" fill="#542DE0" fill-rule="nonzero"></path>
                <path d="M20.0703231,17.6499616 L20.0703231,15.6651004 C20.0703231,15.3362486 19.8037166,15.0696421 19.4748648,15.0696421 C19.146013,15.0696421 18.8794064,15.3362486 18.8794064,15.6651004 L18.8794064,17.6499616 C18.8794064,17.9788134 19.146013,18.2454199 19.4748648,18.2454199 C19.8037166,18.2454199 20.0703231,17.9788134 20.0703231,17.6499616 Z" fill="#542DE0" fill-rule="nonzero"></path>
            </g>
        </g>
    </g>
</svg>