<svg width="40" height="29" xmlns="http://www.w3.org/2000/svg"><g><path d="M37.035 28.572H11.598a2.12 2.12 0 00-4.239 0H3.12A2.12 2.12 0 011 26.452V3.136a2.12 2.12 0 012.12-2.12h4.24a2.119 2.119 0 004.239 0h25.436c1.17 0 2.12.95 2.12 2.12v23.316a2.12 2.12 0 01-2.12 2.12zm0-25.437H13.13s0 0 0 0c-.734 1.263-2.086 2.12-3.651 2.12-1.566 0-2.917-.857-3.651-2.12H3.12v23.317h2.708c.734-1.261 2.085-2.12 3.65-2.12 1.566 0 2.918.859 3.652 2.12h23.905V3.135zM9.5 7a1 1 0 011 1v4a1 1 0 01-2 0V8a1 1 0 011-1zm0 9a1 1 0 011 1v4a1 1 0 01-2 0v-4a1 1 0 011-1z" stroke="#542DE0" stroke-width=".5"/><path d="M20.64 12.75h-3.32l-.24 1.21h3.11l-.35 1.76h-3.11L16.27 18h-2.32l1.4-7.01h5.64l-.35 1.76zm1.83 5.33c-.393 0-.743-.1-1.05-.3a1.99 1.99 0 01-.715-.84c-.17-.36-.255-.77-.255-1.23 0-.6.125-1.148.375-1.645.25-.497.59-.89 1.02-1.18.43-.29.905-.435 1.425-.435.347 0 .652.068.915.205.263.137.472.335.625.595l.14-.72h2.25L26.11 18h-2.25l.11-.54c-.453.413-.953.62-1.5.62zm.92-1.68a.83.83 0 00.505-.175 1.19 1.19 0 00.37-.47c.09-.197.135-.408.135-.635 0-.253-.063-.455-.19-.605a.633.633 0 00-.51-.225c-.273 0-.505.125-.695.375-.19.25-.285.548-.285.895 0 .267.058.473.175.62.117.147.282.22.495.22zm8.65-3.95c.353 0 .663.077.93.23.267.153.475.367.625.64a1.9 1.9 0 01.225.93c0 .147-.017.313-.05.5L33.12 18h-2.25l.58-2.91a1.63 1.63 0 00.02-.21c0-.173-.045-.308-.135-.405a.487.487 0 00-.375-.145c-.213 0-.412.095-.595.285-.183.19-.302.428-.355.715L29.48 18h-2.25l1.08-5.47h2.25l-.13.68c.447-.507.983-.76 1.61-.76z"/></g></svg>