<svg width="176" height="143" xmlns="http://www.w3.org/2000/svg"><g><path d="M174.844 28.945a4.452 4.452 0 00-.684-1.64l-11.074-16.621c-.82-1.23-2.149-1.934-3.535-2.032a4.617 4.617 0 00-1.465-.254H73.203c-.8 0-1.543.215-2.207.586L54.688.098h-27.54C12.266.098.156 12.207.156 27.09v88.144c0 14.883 12.11 26.993 26.992 26.993h121.368c14.882 0 26.992-12.11 26.992-26.993V28.945h-.664zM156.64 17.637l5.547 8.3H102.07l-15.234-8.3h69.805zm-8.145 115.351H27.148c-9.785 0-17.753-7.968-17.753-17.754V27.09c0-9.785 7.968-17.754 17.753-17.754h25.196l41.308 22.52c.567 1.914 2.305 3.32 4.414 3.32h68.223v78.086a4.617 4.617 0 00-1.465-.254H41.816c-2.539 0-4.609 2.07-4.609 4.61 0 2.538 2.07 4.609 4.61 4.609h122.988a17.716 17.716 0 01-16.309 10.761z"/><path d="M22.754 113.008h-3.692c-2.539 0-4.609 2.07-4.609 4.61 0 2.538 2.07 4.609 4.61 4.609h3.69c2.54 0 4.61-2.07 4.61-4.61 0-2.558-2.07-4.61-4.61-4.61z"/><g><path d="M108.429 68.25h-2.786v-8.438C105.643 49.992 97.727 42 88 42s-17.643 7.992-17.643 17.813v8.437h-2.786c-3.075 0-5.571 2.52-5.571 5.625v22.5C62 99.48 64.496 102 67.571 102h40.858c3.075 0 5.571-2.52 5.571-5.625v-22.5c0-3.105-2.496-5.625-5.571-5.625zm-12.072 0H79.643v-8.438c0-4.652 3.749-8.437 8.357-8.437 4.608 0 8.357 3.785 8.357 8.438v8.437z"/></g></g></svg>