<svg width="30" height="30" xmlns="http://www.w3.org/2000/svg"><path d="M26.01 6.765v-5.01C26.01.78 25.23 0 24.255 0H5.565C4.59 0 3.81.78 3.81 1.755V6.9L0 8.88v19.53C0 29.295.78 30 1.755 30h26.49C29.22 30 30 29.295 30 28.41V8.82l-3.99-2.055zM3.81 10.89L1.905 9.9h-.21l.105-.06-.105-.06h.21l1.905-.99v2.1zm20.445 1.05L15 16.695l-9.435-4.89v-8.28c0-.81.66-1.485 1.485-1.485h15.735c.81 0 1.485.66 1.485 1.485v8.415h-.015zm1.755-.915v-2.34l2.28 1.17-2.28 1.17zm-5.925-6.87H9.735c-.705 0-1.275.525-1.275 1.17 0 .645.57 1.17 1.275 1.17h10.35c.705 0 1.275-.525 1.275-1.17 0-.645-.57-1.17-1.275-1.17zm-4.68 4.11h-5.67c-.705 0-1.275.525-1.275 1.17 0 .645.57 1.17 1.275 1.17h5.67c.705 0 1.275-.525 1.275-1.17-.015-.645-.585-1.17-1.275-1.17z"/></svg>