<svg width="20" height="20" xmlns="http://www.w3.org/2000/svg"><path d="M18.878 16.364h-2.955v2.954a.682.682 0 11-1.363 0v-2.954h-2.955a.682.682 0 010-1.364h2.955v-2.955a.682.682 0 111.363 0V15h2.955a.682.682 0 110 1.364zM9.56 11.818c-.126.14-.251 0-.455 0-3.415 0-7.723 3.275-7.723 7.154a.682.682 0 01-.685.678.682.682 0 01-.686-.678c0-3.205 2.677-6.839 6.453-7.988C4.659 9.976 3.65 8.104 3.65 5.91A5.91 5.91 0 019.56 0a5.91 5.91 0 015.909 5.91c0 3.225-2.652 5.88-5.91 5.908zm0-10.454a4.551 4.551 0 00-4.546 4.545 4.551 4.551 0 004.546 4.546 4.551 4.551 0 004.545-4.546A4.551 4.551 0 009.56 1.364z"/></svg>