<?xml version="1.0" encoding="UTF-8"?>
<svg width="158px" height="176px" viewBox="0 0 158 176" version="1.1" xmlns="http://www.w3.org/2000/svg" xmlns:xlink="http://www.w3.org/1999/xlink">
    <!-- Generator: Sketch 56.3 (81716) - https://sketch.com -->
    <title>github</title>
    <desc>Created with Sketch.</desc>
    <g id="Page-1" stroke="none" stroke-width="1" fill="none" fill-rule="evenodd">
        <g id="github" transform="translate(0.484375, 0.500000)" fill="#FFFFFF" fill-rule="nonzero">
            <path d="M145.616602,29.8544922 C152.573828,16.9339844 144.622656,0.037890625 144.622656,0.037890625 C126.732617,0.037890625 113.812109,11.9644531 113.812109,11.9644531 C106.854883,7.98886719 83.9955078,7.98886719 83.9955078,7.98886719 C83.9955078,7.98886719 61.1361328,7.98886719 54.1789062,11.9644531 C54.1789062,11.9644531 41.2583984,0.037890625 23.3683594,0.037890625 C23.3683594,0.037890625 15.4171875,16.9339844 22.3744141,29.8544922 C22.3744141,29.8544922 6.47226563,44.7628906 12.4355469,76.5671875 C18.0392578,106.453516 44.2398438,114.334961 61.1359375,114.334961 C61.1359375,114.334961 54.1787109,120.298242 55.1726563,130.237109 C55.1726563,130.237109 45.2337891,136.200391 35.2949219,132.224805 C25.3560547,128.249219 20.3865234,118.310352 20.3865234,118.310352 C20.3865234,118.310352 10.4476563,105.389844 0.508789063,110.35918 C0.508789063,110.35918 -2.47285156,113.34082 8.45996094,118.310352 C8.45996094,118.310352 16.4111328,130.236914 19.3927734,137.194141 C22.3744141,144.151367 38.2765625,150.114648 54.1789062,146.139062 L54.1789062,168.998437 C54.1789062,168.998437 54.1789062,170.986133 50.2033203,171.980078 C46.2277344,172.974023 46.2277344,174.961719 48.215625,174.961719 L119.775391,174.961719 C121.763086,174.961719 121.763086,172.974023 117.787695,171.980078 C113.812109,170.986133 113.812109,168.998437 113.812109,168.998437 L113.812109,146.139062 C113.812109,146.139062 113.899414,134.219141 113.812109,130.236914 C113.593555,120.250977 106.854883,114.334766 106.854883,114.334766 C123.750977,114.334766 149.951563,106.45332 155.555273,76.5669922 C161.51875,44.7628906 145.616602,29.8544922 145.616602,29.8544922 Z" id="Path"></path>
        </g>
    </g>
</svg>