<?xml version="1.0" encoding="UTF-8"?>
<svg width="29px" height="29px" viewBox="0 0 29 29" version="1.1" xmlns="http://www.w3.org/2000/svg" xmlns:xlink="http://www.w3.org/1999/xlink">
    <!-- Generator: Sketch 55.1 (78136) - https://sketchapp.com -->
    <title>great2备份</title>
    <desc>Created with Sketch.</desc>
    <g id="页面1" stroke="none" stroke-width="1" fill="none" fill-rule="evenodd">
        <g id="鼠标离开浅灰色区域后" transform="translate(-77.000000, -62.000000)" fill="#FFFFFF" fill-rule="nonzero">
            <g id="great2备份" transform="translate(77.500000, 62.000000)">
                <path d="M14.107934,7 C14.7918617,7 15.403797,7.46630699 15.5657799,8.1255686 L15.6557704,8.51147784 C15.763759,9.07426216 15.8177533,9.653126 15.8177533,10.2159103 C15.8177533,11.6148313 15.6737685,12.6921613 15.3678008,13.5282979 L14.5578864,15.6668783 L17.0956182,15.6829578 C19.5433595,15.6990374 23.2689658,15.7151169 23.6289278,15.7151169 C24.2768593,15.747276 24.5288327,15.9402307 24.7448099,16.2618217 C24.9607871,16.5994923 25.0147814,16.9371628 24.9967832,17.1622766 C24.8348004,18.078811 22.7830172,26.35978 22.4410533,27.5979055 C22.3150667,27.7908601 22.1350857,27.9677352 21.9371066,28.0802921 C21.5951427,28.2893262 21.5771446,28.2893262 21.4151618,28.2893262 L6.56673089,28.2893262 L6.58472899,16.2457421 C10.1663505,15.2488099 12.7940728,12.2740929 12.8840633,8.83306887 L12.8840633,8.49539829 C12.8660652,7.77181847 13.2620233,7 14.107934,7 L14.107934,7 Z M3.56162419,16.2924205 L0.953297201,16.2924205 C0.42368765,16.2924205 0,16.7295838 0,17.2727261 L0,27.632172 C0,28.1753143 0.423687625,28.6124776 0.953297201,28.6124776 L3.56162419,28.6124776 C4.09123374,28.6124776 4.51492136,28.1753143 4.51492136,27.632172 L4.51492136,17.2727261 C4.51492136,16.7295838 4.09123374,16.2924205 3.56162419,16.2924205 Z M5.26263862,30 L5.03689255,30 L5.26263862,30 C5.14976559,30 5.14976559,30 5.26263862,30 Z" id="形状"></path>
                <path d="M23.5,0 L24.8418182,2.30592735 C24.9890909,2.56405355 25.2181818,2.73613767 25.4963636,2.80497131 L28,3.44168261 L26.3309091,5.50669216 C26.1509091,5.73040154 26.0527273,6.02294454 26.0854545,6.31548757 L26.2818182,9 L23.9090909,7.96749524 C23.7781818,7.91587001 23.6472727,7.88145318 23.5,7.88145315 C23.3527272,7.88145312 23.2218182,7.91586997 23.0909091,7.96749524 L20.7181818,9 L20.9145455,6.31548757 C20.9309091,6.02294454 20.8490909,5.73040154 20.6690909,5.50669216 L19,3.44168261 L21.5036364,2.80497131 C21.7818182,2.73613767 22.0109091,2.56405352 22.1581818,2.30592735 L23.5,0 L23.5,0 Z" id="形状"></path>
            </g>
        </g>
    </g>
</svg>