<svg width="40" height="40" xmlns="http://www.w3.org/2000/svg"><path d="M19.595 9.77a1.88 1.88 0 011.818 1.43l.113.49c.134.715.202 1.451.202 2.166 0 1.778-.18 3.147-.562 4.21l-1.01 2.718 3.165.02c3.053.02 7.7.041 8.149.041.808.041 1.122.286 1.391.695.27.43.337.858.314 1.144-.202 1.165-2.76 11.69-3.187 13.263-.157.245-.382.47-.628.613-.427.266-.45.266-.651.266h-18.52l.023-15.306c4.467-1.267 7.745-5.048 7.857-9.421v-.43c-.023-.919.471-1.9 1.526-1.9zM6.442 21.578H3.189c-.66 0-1.189.556-1.189 1.246V35.99c0 .69.528 1.246 1.189 1.246h3.253c.66 0 1.189-.556 1.189-1.246V22.825c0-.69-.528-1.246-1.189-1.246zM8.563 39h-.281.281c-.14 0-.14 0 0 0zM31.23 1l1.744 2.996c.191.335.489.559.85.648l3.253.827-2.168 2.683c-.234.29-.362.67-.32 1.05l.256 3.488-3.083-1.341a1.417 1.417 0 00-.531-.112c-.192 0-.362.045-.532.112l-3.082 1.341.255-3.487a1.54 1.54 0 00-.319-1.051l-2.168-2.683 3.252-.827c.362-.09.66-.313.85-.648L31.232 1z"/></svg>