<svg width="29" height="29" xmlns="http://www.w3.org/2000/svg"><path d="M14.608 7c.684 0 1.296.466 1.458 1.126l.09.385c.108.563.162 1.142.162 1.705 0 1.399-.144 2.476-.45 3.312l-.81 2.139 2.538.016c2.447.016 6.173.032 6.533.032.648.032.9.225 1.116.547.216.337.27.675.252.9-.162.917-2.214 9.198-2.556 10.436-.126.193-.306.37-.504.482-.342.21-.36.21-.522.21H7.067l.018-12.044c3.581-.997 6.21-3.972 6.3-7.413v-.338C13.365 7.772 13.761 7 14.607 7zM4.062 16.292H1.453a.964.964 0 00-.953.98v10.36c0 .543.424.98.953.98h2.609c.53 0 .953-.437.953-.98v-10.36a.964.964 0 00-.953-.98zM5.762 30h-.225.226c-.113 0-.113 0 0 0zM24 0l1.342 2.306c.147.258.376.43.654.499l2.504.637-1.67 2.065c-.18.223-.277.516-.245.808L26.782 9l-2.373-1.033A1.091 1.091 0 0024 7.881c-.147 0-.278.035-.41.086L21.219 9l.197-2.685a1.184 1.184 0 00-.246-.808L19.5 3.442l2.504-.637a1.02 1.02 0 00.654-.5L24 0z"/></svg>