<?xml version="1.0" encoding="UTF-8"?>
<svg width="16px" height="16px" viewBox="0 0 16 16" version="1.1" xmlns="http://www.w3.org/2000/svg" xmlns:xlink="http://www.w3.org/1999/xlink">
    <!-- Generator: Sketch 55.1 (78136) - https://sketchapp.com -->
    <title>great备份 2</title>
    <desc>Created with Sketch.</desc>
    <g id="页面1" stroke="none" stroke-width="1" fill="none" fill-rule="evenodd">
        <g id="点击小按钮后" transform="translate(-107.000000, -212.000000)" fill="#FFFFFF" fill-rule="nonzero">
            <g id="great备份-2" transform="translate(107.000000, 212.000000)">
                <path d="M7.78471399,5.13818495 C8.10521143,5.13818495 8.39197229,5.35839975 8.46787957,5.66973791 L8.5100503,5.85198464 C8.56065515,6.11776112 8.58595758,6.39113121 8.58595758,6.65690769 C8.58595758,7.31755209 8.51848444,7.8263242 8.375104,8.22119211 L7.99556757,9.23114273 L9.18478173,9.23873635 C10.3318252,9.24632996 12.0776928,9.25392357 12.2463756,9.25392357 C12.5500048,9.2691108 12.6680828,9.36023417 12.7692925,9.51210643 C12.8705022,9.67157232 12.8958047,9.83103821 12.8873705,9.93734881 C12.8114632,10.3701848 11.8499709,14.2808958 11.6897222,14.8656041 C11.6306832,14.9567275 11.5463418,15.0402572 11.4535662,15.0934125 C11.2933175,15.1921295 11.2848833,15.1921295 11.2089761,15.1921295 L4.25080809,15.1921295 L4.25924223,9.50451282 C5.93763669,9.03370877 7.16902156,7.62889024 7.21119227,6.00385691 L7.21119227,5.84439102 C7.20275813,5.50267841 7.38830927,5.13818495 7.78471399,5.13818495 L7.78471399,5.13818495 Z M2.01576018,9.67916593 L2.01576018,15.1921295 L0.860282594,15.1921295 L0.860282594,9.67916593 L2.01576018,9.67916593 L2.01576018,9.67916593 Z M7.78471399,4.36363636 C6.92443142,4.36363636 6.35090969,5.03946798 6.35090968,5.84439102 L6.35090968,5.98107607 C6.30873896,7.4922052 4.97614437,8.714777 3.39895963,8.88183651 L3.39052549,15.9590845 L11.2174102,15.9590845 C11.5041711,15.9590845 11.6728539,15.8907419 11.9343124,15.731276 C12.1873366,15.5794038 12.3728878,15.3743762 12.4993999,15.1389742 C12.5331365,15.0934125 13.7223506,10.286655 13.7476531,10.0056913 C13.7729555,9.70194677 13.6970482,9.39060861 13.5114971,9.10964491 C13.2247362,8.66921531 12.7945949,8.4945622 12.2885463,8.47178136 C12.2632439,8.47178136 9.20165001,8.45659413 9.20165001,8.45659413 C9.40406944,7.90985395 9.46310844,7.26439678 9.46310846,6.64931408 C9.46310846,6.26203979 9.42093774,5.87476549 9.32816216,5.49508479 L9.31972802,5.49508479 C9.14261102,4.84962763 8.52691858,4.36363636 7.78471399,4.36363636 Z M2.26878447,8.90461734 L0.60725831,8.90461734 C0.269892586,8.90461734 0,9.15520659 0,9.46654475 L0,15.4047507 C0,15.7160888 0.269892569,15.9666781 0.60725831,15.9666781 L2.26878447,15.9666781 C2.60615019,15.9666781 2.87604276,15.7160888 2.87604276,15.4047507 L2.87604276,9.46654475 C2.87604276,9.15520659 2.60615019,8.90461734 2.26878447,8.90461734 Z M3.64819164,16.0087969 L3.53390593,16.0087969 L3.64819164,16.0087969 C3.59104878,16.0087969 3.59104878,16.0087969 3.64819164,16.0087969 Z" id="形状"></path>
                <path d="M2.30946709,16 L0.661043124,16 C0.292867211,16 0,15.72851 0,15.3891475 L0,9.49178106 C0,9.15241855 0.292867211,8.88092854 0.661043124,8.88092854 L2.30946709,8.88092854 C2.677643,8.88092854 2.97051021,9.15241856 2.97051021,9.49178106 L2.97051021,15.3891475 C2.97051021,15.72851 2.677643,16 2.30946709,16 Z M0.661043124,8.99404937 C0.368175914,8.99404937 0.125514521,9.22029104 0.125514521,9.49178106 L0.125514521,15.3891475 C0.125514521,15.6681789 0.368175914,15.8868792 0.661043124,15.8868792 L2.30946709,15.8868792 C2.6023343,15.8868792 2.84499569,15.6606375 2.84499569,15.3891475 L2.84499569,9.49178106 C2.84499569,9.21274966 2.6023343,8.99404937 2.30946709,8.99404937 L0.661043124,8.99404937 Z M3.58134752,16 L3.35542139,16 L3.35542139,15.9472103 L3.22153924,15.9170447 L3.35542139,15.9095033 L3.36378903,8.86584575 L3.42236246,8.85830436 C5.02058062,8.6923938 6.25899052,7.47823013 6.30082868,6.0302834 L6.30082868,5.93978672 L6.30082868,5.89453839 C6.30082868,5.01973723 6.93676889,4.36363636 7.79026761,4.36363636 C8.52661943,4.36363636 9.16255964,4.82366111 9.3466476,5.48730337 L9.36338287,5.54009309 C9.45542684,5.91716255 9.49726502,6.30931479 9.49726502,6.69392565 C9.49726502,7.40281624 9.42195632,7.97596182 9.26297126,8.42844518 C10.6352633,8.43598657 12.2251138,8.44352796 12.2502167,8.44352796 C12.8192159,8.46615212 13.2292299,8.67731102 13.5053619,9.09962883 C13.6894498,9.37866024 13.7731262,9.69539857 13.7480233,10.0272197 C13.7229204,10.2836269 12.5849221,14.9291227 12.5012458,15.147823 C12.3673636,15.3966889 12.1665404,15.6078478 11.923879,15.7586755 C11.6561147,15.9170447 11.4803944,15.9924586 11.1791595,15.9924586 L3.63992095,15.9924586 L3.58134752,16 Z M3.47256826,15.8868792 L11.1707919,15.8868792 C11.4469238,15.8868792 11.5975412,15.826548 11.8485703,15.6757203 C12.0744964,15.5399753 12.266952,15.3438991 12.3840989,15.1176575 C12.4677752,14.8989572 13.5974059,10.2610028 13.6225088,10.0347611 C13.6476117,9.73310551 13.572303,9.43144994 13.3965826,9.17504271 C13.137186,8.79043186 12.7606424,8.59435575 12.2334815,8.57173158 C12.1665404,8.57173158 10.2001463,8.56419019 9.17092728,8.5566488 L9.08725094,8.5566488 L9.11235384,8.4812349 C9.27970653,8.02121015 9.36338287,7.44052318 9.36338287,6.70900843 C9.36338287,6.34702175 9.3215447,5.97749367 9.23786836,5.62304838 L9.22113308,5.57780003 C9.06214802,4.93678194 8.46804598,4.49183998 7.77353234,4.49183998 C6.99534234,4.49183998 6.40960794,5.10269252 6.40960794,5.90962116 L6.40960794,6.03782478 C6.36776977,7.52347847 5.11262461,8.77534909 3.4809359,8.97142521 L3.47256826,15.8868792 Z M2.1170115,15.2307783 L0.845131065,15.2307783 L0.845131065,9.64260885 L2.1170115,9.64260885 L2.1170115,15.2307783 Z M0.970645586,15.1176575 L1.99149699,15.1176575 L1.99149699,9.7557297 L0.970645586,9.7557297 L0.970645586,15.1176575 L0.970645586,15.1176575 Z M4.20055246,15.2307783 L4.20892009,9.48423968 L4.25075826,9.4691569 C5.93265277,8.99404937 7.08738631,7.62151653 7.13759213,6.04536617 L7.13759213,5.886997 C7.13759213,5.52501031 7.33841536,5.12531669 7.77353234,5.12531669 C8.12497299,5.12531669 8.42620781,5.35909975 8.50988417,5.69846227 L8.55172234,5.87945561 C8.60192814,6.15094563 8.62703104,6.42243563 8.62703104,6.69392565 C8.62703104,7.35756791 8.56008997,7.87038238 8.40947255,8.26253462 L8.06639953,9.19766688 L9.15419201,9.20520827 C10.1248376,9.20520827 12.015923,9.22029104 12.1916433,9.22029106 C12.517981,9.23537384 12.6518632,9.34095329 12.7606424,9.50686384 C12.8777893,9.68031579 12.8945246,9.84622636 12.8861569,9.9593472 C12.8108482,10.3967478 11.8485703,14.3107288 11.6895852,14.8687916 L11.6812176,14.8838744 C11.6142765,14.9819125 11.5306002,15.0648677 11.4301886,15.1251988 C11.2712035,15.2232369 11.2461006,15.2307783 11.1540566,15.2307783 L4.20055246,15.2307783 Z M4.34280225,9.56719497 L4.33443461,15.1176575 L11.1791595,15.1176575 C11.237733,15.1176575 11.2461006,15.1176575 11.3883504,15.0347022 C11.4720267,14.9819124 11.5389678,14.9140399 11.5975412,14.8310847 C11.7565263,14.2428563 12.7104366,10.3741236 12.7857453,9.95180581 C12.7857453,9.86130914 12.7773777,9.71048136 12.6769661,9.56719497 C12.5849221,9.42390857 12.4845105,9.34849468 12.2083786,9.34095328 C12.0326582,9.34095328 10.1499405,9.33341189 9.17929491,9.3258705 L7.90741449,9.31078772 L8.30906094,8.23236906 C8.45131073,7.8552996 8.5182518,7.35002652 8.5182518,6.70146704 C8.5182518,6.43751841 8.4931489,6.17356979 8.44294308,5.90962116 L8.40110491,5.73616921 C8.33416384,5.44959641 8.07476717,5.25352029 7.79026761,5.25352029 C7.43882696,5.25352029 7.2798419,5.59288281 7.2798419,5.90207977 L7.2798419,6.05290756 C7.22126847,7.65922347 6.04979966,9.06946327 4.34280225,9.56719497 L4.34280225,9.56719497 Z" id="形状"></path>
                <path d="M12.3107703,0.802793219 L12.9539543,1.91180654 C13.0245477,2.03594983 13.1343596,2.11871201 13.2677026,2.15181688 L14.4677899,2.45803698 L13.6677317,3.45118323 C13.5814509,3.55877409 13.5343887,3.69946979 13.5500761,3.84016552 L13.6442006,5.13125565 L12.506863,4.63468253 C12.4441133,4.60985388 12.3813637,4.59330144 12.3107703,4.59330143 C12.2401769,4.59330141 12.1774272,4.60985386 12.1146776,4.63468253 L10.97734,5.13125565 L11.0714645,3.84016552 C11.0793082,3.69946979 11.0400896,3.55877409 10.9538089,3.45118323 L10.1537507,2.45803698 L11.3538379,2.15181688 C11.487181,2.11871201 11.5969929,2.03594981 11.6675863,1.91180654 L12.3107703,0.802793219 L12.3107703,0.802793219 Z M12.3029266,0 C12.263708,0 12.2166458,0.00827621809 12.1774273,0.0331048724 C12.1460524,0.0496573085 12.1225213,0.0827621809 12.0989902,0.115867069 L11.2204949,1.62213889 L9.58900371,2.03594983 C9.46350438,2.0690547 9.38506731,2.20147421 9.41644214,2.3338937 C9.42428585,2.37527479 9.43997326,2.40837966 9.4635044,2.43320833 L10.5459361,3.78223199 L10.4282804,5.55334281 C10.4204367,5.69403853 10.5145612,5.80990558 10.6479043,5.81818182 L10.6635917,5.81818182 C10.6949665,5.81818182 10.7263413,5.8099056 10.7498725,5.80162938 L12.3107703,5.13125565 L13.8638244,5.80162938 C13.8951992,5.81818182 13.9265741,5.81818182 13.9501052,5.81818182 C13.9971674,5.81818182 14.0442297,5.80162938 14.0912919,5.76852451 C14.1540416,5.7188672 14.1932601,5.636105 14.1854164,5.54506659 L14.0599171,3.78223199 L15.1423487,2.43320833 C15.1972547,2.36699858 15.2129421,2.27596017 15.189411,2.19319799 C15.1658799,2.11043581 15.1031302,2.05250226 15.0246931,2.02767361 L13.3932019,1.61386267 L12.506863,0.115867069 C12.4598007,0.0413810904 12.3892074,0 12.3029266,0 Z" id="形状"></path>
            </g>
        </g>
    </g>
</svg>