<svg width="16" height="16" xmlns="http://www.w3.org/2000/svg"><path d="M7.785 5.138c.32 0 .607.22.683.532l.042.182c.05.266.076.54.076.805 0 .66-.068 1.17-.21 1.564l-.38 1.01 1.189.008c1.147.007 2.893.015 3.061.015.304.015.422.106.523.258.102.16.127.319.118.425-.076.433-1.037 4.344-1.197 4.929a.717.717 0 01-.236.227c-.16.1-.17.1-.245.1H4.251l.008-5.688c1.679-.471 2.91-1.876 2.952-3.501v-.16c-.008-.341.177-.706.574-.706zM2.015 9.68v5.513H.86V9.68h1.156zm5.77-5.315c-.86 0-1.434.675-1.434 1.48v.137c-.042 1.511-1.375 2.734-2.952 2.9l-.008 7.078h7.826c.287 0 .456-.068.717-.228.253-.152.439-.357.565-.592.034-.046 1.223-4.852 1.249-5.133a1.403 1.403 0 00-.237-.896c-.286-.44-.716-.615-1.222-.638l-3.087-.015c.202-.547.261-1.193.261-1.808 0-.387-.042-.774-.135-1.154H9.32c-.177-.645-.793-1.131-1.535-1.131zm-5.516 4.54H.607c-.337 0-.607.251-.607.563v5.938c0 .311.27.562.607.562H2.27c.337 0 .607-.25.607-.562V9.467c0-.312-.27-.562-.607-.562zm1.38 7.105h-.115.114c-.057 0-.057 0 0 0z"/><path d="M2.31 16H.66c-.367 0-.66-.271-.66-.61V9.491c0-.34.293-.611.661-.611h1.648c.369 0 .662.271.662.61v5.898c0 .34-.293.611-.662.611zM.66 8.994c-.293 0-.535.226-.535.498v5.897c0 .28.242.498.535.498h1.648c.293 0 .536-.226.536-.498V9.492c0-.28-.243-.498-.536-.498H.661zM3.581 16h-.226v-.053l-.133-.03.133-.007.009-7.044.058-.008c1.599-.166 2.837-1.38 2.879-2.828v-.135c0-.875.636-1.531 1.49-1.531.736 0 1.372.46 1.556 1.123l.016.053c.092.377.134.77.134 1.154 0 .709-.075 1.282-.234 1.734l2.987.016c.57.022.98.233 1.255.656.184.279.268.595.243.927-.025.257-1.163 4.902-1.247 5.12-.134.25-.334.46-.577.612-.268.158-.444.233-.745.233H3.64L3.582 16zm-.108-.113h7.698c.276 0 .427-.06.678-.211a1.44 1.44 0 00.535-.558c.084-.219 1.213-4.857 1.239-5.083a1.319 1.319 0 00-.226-.86c-.26-.385-.636-.58-1.164-.603-.066 0-2.033-.008-3.062-.015h-.084l.025-.076c.168-.46.251-1.04.251-1.772 0-.362-.041-.732-.125-1.086l-.017-.045c-.159-.641-.753-1.086-1.447-1.086-.779 0-1.364.61-1.364 1.418v.128C6.368 7.523 5.113 8.775 3.48 8.97l-.007 6.916zm-1.356-.656H.845V9.643h1.272v5.588zm-1.146-.113h1.02V9.756H.971v5.362zm3.23.113l.008-5.747.042-.015c1.682-.475 2.836-1.847 2.887-3.424v-.158c0-.362.2-.762.636-.762.351 0 .652.234.736.573l.042.181c.05.272.075.543.075.815 0 .664-.067 1.176-.218 1.569l-.343.935 1.088.007c.97 0 2.862.015 3.038.015.326.015.46.121.569.287.117.173.134.34.125.452-.075.438-1.037 4.352-1.196 4.91l-.009.015a.812.812 0 01-.25.241c-.16.098-.185.106-.277.106H4.201zm.142-5.664l-.009 5.55h6.845c.059 0 .067 0 .21-.082a.733.733 0 00.209-.204c.159-.588 1.112-4.457 1.188-4.88a.65.65 0 00-.109-.384c-.092-.143-.192-.219-.469-.226-.175 0-2.058-.008-3.029-.015L7.907 9.31l.402-1.079c.142-.377.21-.882.21-1.53 0-.264-.026-.528-.076-.792L8.4 5.736a.629.629 0 00-.61-.482c-.352 0-.511.339-.511.648v.15C7.22 7.66 6.05 9.07 4.343 9.568zM12.31.803l.644 1.109a.49.49 0 00.314.24l1.2.306-.8.993a.534.534 0 00-.118.39l.094 1.29-1.137-.496a.521.521 0 00-.196-.042.521.521 0 00-.196.042l-1.138.496.094-1.29a.57.57 0 00-.117-.39l-.8-.993 1.2-.306a.492.492 0 00.314-.24l.643-1.11zM12.304 0a.238.238 0 00-.126.033.256.256 0 00-.078.083l-.879 1.506-1.631.414a.248.248 0 00-.173.298.193.193 0 00.048.1l1.082 1.348-.118 1.771c-.008.141.087.257.22.265h.016a.269.269 0 00.086-.016l1.56-.67 1.554.67c.031.016.063.016.086.016a.244.244 0 00.141-.05.257.257 0 00.094-.223l-.125-1.763 1.082-1.349a.264.264 0 00.047-.24.243.243 0 00-.164-.165l-1.632-.414-.886-1.498A.234.234 0 0012.303 0z"/></svg>