<svg t="1568714262543" class="icon" viewBox="0 0 1024 1024" version="1.1" xmlns="http://www.w3.org/2000/svg" p-id="2587" width="200" height="200"><path d="M511.049 0C228.804 0 0 228.802 0 511.049c0 282.244 228.804 511.049 511.049 511.049s511.044-228.804 511.044-511.049C1022.092 228.802 793.293 0 511.049 0zM542.529 756.423c-10.29 9.12-22.15 13.685-35.592 13.685-13.917 0-26.067-4.505-36.45-13.52-10.377-9.005-15.557-21.615-15.557-37.815 0-14.37 5.017-26.465 15.045-36.275 10.037-9.805 22.357-14.705 36.965-14.705 14.365 0 26.46 4.9 36.27 14.705 9.81 9.81 14.71 21.905 14.71 36.275 0 15.98-5.125 28.525-15.4 37.65L542.529 756.423zM670.343 439.524c-7.87 14.597-17.24 27.232-28.06 37.817-10.83 10.61-30.28 28.457-58.35 53.552-7.76 7.075-13.975 13.295-18.655 18.66-4.67 5.345-8.15 10.255-10.43 14.71-2.28 4.445-4.05 8.895-5.305 13.35-1.255 4.41-3.135 12.225-5.65 23.45-4.335 23.72-17.895 35.585-40.722 35.585-11.88 0-21.847-3.885-29.945-11.64-8.115-7.75-12.147-19.275-12.147-34.565 0-19.165 2.965-35.765 8.88-49.79 5.94-14.03 13.805-26.345 23.617-36.965 9.807-10.61 23.042-23.212 39.692-37.817 14.61-12.77 25.17-22.412 31.67-28.917 6.49-6.502 11.965-13.742 16.43-21.732 4.45-7.982 6.66-16.617 6.66-26.002 0-18.255-6.795-33.655-20.36-46.202-13.58-12.52-31.09-18.8-52.53-18.8-25.1 0-43.58 6.335-55.432 18.997-11.872 12.662-21.897 31.282-30.125 55.95-7.775 25.755-22.49 38.647-44.162 38.647-12.775 0-23.542-4.51-32.322-13.517-8.783-9.017-13.162-18.767-13.147-29.26 0-21.677 6.945-43.637 20.877-65.88 13.902-22.245 34.207-40.667 60.9-55.27 26.692-14.602 57.82-21.9 93.422-21.9 33.085 0 62.275 6.102 87.605 18.305 25.33 12.21 44.895 28.802 58.69 49.795 13.81 20.987 20.71 43.802 20.71 68.447 0.01 19.395-3.93 36.387-11.8 50.992L670.343 439.524z" p-id="2588" ></path></svg>