<svg class="icon" viewBox="0 0 1024 1024" xmlns="http://www.w3.org/2000/svg" width="200" height="200"><defs><style/></defs><path d="M618.776 854.724c0-35.764.112-83.74-.032-117.393-.128-27.33-5.867-33.225-32.721-33.341-39.934-.164-79.866-.148-119.8-.008-27.369.096-32.573 4.95-33.008 33.017-.528 33.606-.128 81.557-.128 116.697-7.555.872-12.84 1.988-18.132 2.011-36.192.153-72.388.452-108.575-.023-42.947-.564-53.088-11.305-52.784-53.384.268-38.039-.328-199.91.715-237.927.212-7.575 4.185-17.065 9.682-22.177 72.167-67.11 144.806-133.714 217.58-200.168 29.032-26.507 63.294-26.822 92.37-.04 72.954 67.186 145.493 134.824 217.712 202.794 5.081 4.78 8.619 13.72 8.766 20.805.188 9.19.987 172.99.288 243.612-.264 26.413-13.287 44.094-37.71 45.009-47.224 1.767-94.556.516-144.223.516z"/><path d="M519.04 134.912c35.567-.072 54.091 11.728 70.728 27.84 64.1 62.063 128.317 124.021 192.453 186.047 29.605 28.632 59.136 57.345 88.68 86.042 3.13 3.045 6.24 6.135 9.13 9.409 16.442 18.623 18.652 38.61 6.088 54.26-13.247 16.492-39.793 20.353-59.556 8.233-5.252-3.225-9.992-7.438-14.502-11.695-73.01-69.018-146.012-138.039-218.875-207.216-53.94-51.209-74.594-51.625-129.08-1.003-72.683 67.53-144.786 135.688-218.04 202.59-10.334 9.442-25.132 15.93-38.943 19.136-18.128 4.204-33.097-5.005-41.544-21.714-8.482-16.776-5.108-32.985 6.852-46.944 6.864-8.015 14.958-15.002 22.696-22.237 89.803-83.959 179.735-167.762 269.385-251.885 18.804-17.64 39.29-30.627 54.528-30.863z"/></svg>