<svg width="22" height="22" xmlns="http://www.w3.org/2000/svg"><g><path d="M19.245.02H2.755A2.747 2.747 0 00.007 2.765v16.47a2.745 2.745 0 002.748 2.745h16.488a2.747 2.747 0 002.747-2.745V2.765A2.745 2.745 0 0019.245.02zM3.075 1.765H18.92c.73 0 1.321.59 1.321 1.319v11.059l-3.369-4.547a.928.928 0 00-.727-.374.934.934 0 00-.746.334l-4.908 5.923-3.165-2.873a.953.953 0 00-1.184-.069L1.756 15.65V3.084c0-.727.589-1.319 1.318-1.319zm15.848 18.467H3.074a1.32 1.32 0 01-1.32-1.318V17.83a.842.842 0 00.156-.091l4.71-3.34 3.332 3.026c.189.172.442.257.7.24a.938.938 0 00.657-.331l4.774-5.758 3.798 5.132c.096.13.223.226.363.29v1.915a1.32 1.32 0 01-1.32 1.318z"/><path d="M6.801 8.84a2.558 2.558 0 002.554-2.554A2.558 2.558 0 006.8 3.732a2.558 2.558 0 00-2.553 2.554A2.558 2.558 0 006.8 8.839zm0-3.34a.785.785 0 11.002 1.57.785.785 0 01-.002-1.57z"/></g></svg>