<svg width="26" height="26" xmlns="http://www.w3.org/2000/svg"><g stroke="#000" stroke-width=".5"><path d="M13.281 25.56c-3.28 0-6.361-1.277-8.681-3.597a12.195 12.195 0 01-3.597-8.682c0-3.28 1.277-6.361 3.597-8.681a12.195 12.195 0 018.681-3.597c3.28 0 6.362 1.277 8.682 3.597a12.195 12.195 0 013.597 8.681c0 3.28-1.277 6.362-3.597 8.682a12.195 12.195 0 01-8.682 3.597zm0-23.024c-2.87 0-5.568 1.116-7.597 3.148a10.662 10.662 0 00-3.148 7.597c0 2.87 1.116 5.568 3.148 7.597a10.68 10.68 0 007.597 3.149c2.867 0 5.568-1.117 7.597-3.149a10.68 10.68 0 003.149-7.597c0-2.867-1.117-5.568-3.149-7.597a10.662 10.662 0 00-7.597-3.148z"/><path d="M16.824 19.297a1.15 1.15 0 01-.535-.134l-3.04-1.597-3.04 1.597a1.147 1.147 0 01-1.667-1.21l.58-3.385-2.458-2.397a1.136 1.136 0 01-.292-1.178c.138-.419.493-.72.928-.78l3.396-.493 1.52-3.079c.195-.397.588-.64 1.03-.64.442 0 .835.247 1.03.64l1.52 3.079 3.396.492c.435.064.793.362.928.784.137.42.025.87-.292 1.178l-2.457 2.397.582 3.382c.074.435-.099.864-.457 1.123a1.125 1.125 0 01-.672.221h0zm-8.535-7.68l2.045 1.994c.272.265.394.643.33 1.017l-.484 2.816 2.532-1.328a1.148 1.148 0 011.068 0l2.532 1.328-.484-2.816a1.153 1.153 0 01.33-1.017l2.045-1.994-2.829-.41a1.154 1.154 0 01-.867-.627l-1.258-2.563-1.264 2.563c-.166.34-.49.576-.867.63l-2.829.407z"/></g></svg>