<?xml version="1.0" encoding="UTF-8"?>
<svg width="26px" height="26px" viewBox="0 0 26 26" version="1.1" xmlns="http://www.w3.org/2000/svg" xmlns:xlink="http://www.w3.org/1999/xlink">
    <!-- Generator: Sketch 57.1 (83088) - https://sketch.com -->
    <title>bonus-line</title>
    <desc>Created with Sketch.</desc>
    <g id="页面1" stroke="none" stroke-width="1" fill="none" fill-rule="evenodd">
        <g id="指向积分图标时" transform="translate(-1380.000000, -16.000000)" fill="#000000" fill-rule="nonzero" stroke="#000000" stroke-width="0.5">
            <g id="导航栏">
                <g id="bonus-line" transform="translate(1381.000000, 17.000000)">
                    <path d="M12.28125,24.55965 C9.00125,24.55965 5.91965,23.28285 3.59965,20.96285 C1.27965,18.64285 0.00285,15.56125 0.00285,12.28125 C0.00285,9.00125 1.27965,5.91965 3.59965,3.59965 C5.91965,1.27965 9.00125,0.00285 12.28125,0.00285 C15.56125,0.00285 18.64285,1.27965 20.96285,3.59965 C23.28285,5.91965 24.55965,9.00125 24.55965,12.28125 C24.55965,15.56125 23.28285,18.64285 20.96285,20.96285 C18.64285,23.28285 15.56125,24.55965 12.28125,24.55965 Z M12.28125,1.53565 C9.41085,1.53565 6.71325,2.65245 4.68445,4.68445 C2.65245,6.71325 1.53565,9.41085 1.53565,12.28125 C1.53565,15.15165 2.65245,17.84925 4.68445,19.87805 C6.71325,21.90685 9.41405,23.02685 12.28125,23.02685 C15.14845,23.02685 17.84925,21.91005 19.87805,19.87805 C21.90685,17.84925 23.02685,15.14845 23.02685,12.28125 C23.02685,9.41405 21.91005,6.71325 19.87805,4.68445 C17.84925,2.65245 15.15165,1.53565 12.28125,1.53565 Z" id="形状"></path>
                    <path d="M15.82365,18.29725 C15.64125,18.29725 15.45885,18.25245 15.28925,18.16285 L12.24925,16.56605 L9.20925,18.16285 C8.81885,18.36765 8.35485,18.33565 7.99965,18.07645 C7.64445,17.81725 7.46845,17.38525 7.54205,16.95325 L8.12125,13.56765 L5.66365,11.17085 C5.34685,10.86365 5.23485,10.41245 5.37245,9.99325 C5.51005,9.57405 5.86525,9.27325 6.30045,9.21245 L9.69565,8.71965 L11.21565,5.64125 C11.41085,5.24445 11.80445,5.00125 12.24605,5.00125 C12.68765,5.00125 13.08125,5.24765 13.27645,5.64125 L14.79645,8.71965 L18.19165,9.21245 C18.62685,9.27645 18.98525,9.57405 19.11965,9.99645 C19.25725,10.41565 19.14525,10.86685 18.82845,11.17405 L16.37085,13.57085 L16.95325,16.95325 C17.02685,17.38845 16.85405,17.81725 16.49565,18.07645 C16.29725,18.22365 16.06045,18.29725 15.82365,18.29725 L15.82365,18.29725 Z M7.28925,10.61725 L9.33405,12.61085 C9.60605,12.87645 9.72765,13.25405 9.66365,13.62845 L9.18045,16.44445 L11.71165,15.11645 C12.04765,14.94045 12.44765,14.94045 12.78045,15.11645 L15.31165,16.44445 L14.82845,13.62845 C14.76445,13.25405 14.88925,12.87645 15.15805,12.61085 L17.20285,10.61725 L14.37405,10.20765 C13.99965,10.15325 13.67645,9.91965 13.50685,9.58045 L12.24925,7.01725 L10.98525,9.58045 C10.81885,9.91965 10.49565,10.15645 10.11805,10.21085 L7.28925,10.61725 Z" id="形状"></path>
                </g>
            </g>
        </g>
    </g>
</svg>