<svg width="13" height="13" xmlns="http://www.w3.org/2000/svg"><path d="M12.54 9.601a5.125 5.125 0 01-1.11.96l-.012.009c-1.327.861-3.135 1.335-5.094 1.335-1.673 0-3.295-.362-4.568-1.02-.72-.371-1.303-.829-1.732-1.342.095.934.804 1.848 2.107 2.521 1.204.622 2.703.929 4.193.929 1.72 0 3.428-.408 4.658-1.21l.002-.001c.964-.63 1.474-1.4 1.556-2.181zm-1.11-.942l-.012.008c-1.327.862-3.135 1.336-5.094 1.336-1.673 0-3.295-.362-4.568-1.02-.72-.372-1.303-.83-1.732-1.342.095.933.804 1.847 2.107 2.52 1.204.623 2.703.929 4.193.929 1.72 0 3.428-.408 4.658-1.21l.002-.001c.964-.629 1.474-1.4 1.556-2.18a5.126 5.126 0 01-1.11.96zm0-1.903l-.012.008C10.09 7.627 8.282 8.1 6.323 8.1c-1.673 0-3.295-.362-4.568-1.02-.72-.372-1.303-.83-1.732-1.342.095.933.804 1.848 2.107 2.52 1.204.623 2.703.93 4.193.93 1.72 0 3.428-.409 4.658-1.21l.002-.002c.964-.629 1.474-1.4 1.556-2.18a5.123 5.123 0 01-1.11.96zM.016 3.5C-.045 4.548.67 5.606 2.131 6.36c2.594 1.34 6.556 1.215 8.85-.28l.003-.002c1.006-.657 1.524-1.467 1.57-2.283.003-.051-.003-.102-.004-.153 0-.064.003-.128-.004-.192-.097-.93-.807-1.843-2.106-2.514C9.235.314 7.737.007 6.247.007c-.113 0-.224.007-.336.01h-.019c-.194.007-.386.019-.578.035L5.29.054c-.191.018-.38.04-.569.067l-.023.003a9.78 9.78 0 00-.56.099l-.013.003c-.946.197-1.824.526-2.539.992l-.001.001C.58 1.875.062 2.685.016 3.5zm10.296 2.227c-1.967 1.282-5.365 1.39-7.587.242C.5 4.819.293 2.849 2.259 1.566 4.226.283 7.621.175 9.846 1.324c2.222 1.149 2.433 3.12.466 4.403zM2.519 1.7C.684 2.903.88 4.74 2.955 5.819c2.085 1.071 5.253.971 7.096-.227 1.836-1.201 1.641-3.04-.435-4.118C7.533.402 4.362.503 2.519 1.701zm6.101.814c.05.367-.132.628-.545.78.325.057.567.161.728.312.16.152.223.367.187.648a.909.909 0 01-.135.378.909.909 0 01-.268.269c-.108.07-.243.13-.404.177-.16.047-.329.082-.505.104a6.832 6.832 0 01-.605.046V6h-.64v-.76c-.222 0-.391 0-.508-.002V6h-.64v-.771c-.05 0-.125.005-.225.015-.1.01-.176.015-.228.015H4l.129-.554h.461c.14 0 .22-.051.242-.154V3.335h.066a.58.58 0 00-.066-.003v-.868c-.036-.137-.16-.206-.37-.206H4v-.496l.882.003c.177 0 .311 0 .403-.003V1h.64v.747c.228-.004.397-.006.508-.006V1h.64v.762c.22.014.413.037.582.068.17.032.326.077.47.136.144.06.259.139.343.236a.638.638 0 01.152.347v-.034zm-.894 1.649a.318.318 0 00-.062-.194.518.518 0 00-.154-.139.916.916 0 00-.24-.092 2.631 2.631 0 00-.58-.083 6.143 6.143 0 00-.555-.006l-.197.003v1.022c.022 0 .073.005.154.015.08.01.147.015.2.015a7.302 7.302 0 00.463-.016c.068-.005.147-.014.237-.026a1.721 1.721 0 00.428-.106.593.593 0 00.165-.09.432.432 0 00.101-.122.307.307 0 00.04-.154v-.027zm-.295-1.44a.31.31 0 00-.052-.177.46.46 0 00-.127-.127.702.702 0 00-.2-.085 1.85 1.85 0 00-.228-.05 3.113 3.113 0 00-.256-.024 3.31 3.31 0 00-.241-.007l-.225.003a.565.565 0 00-.164.015V3.2c.014 0 .062.005.143.015a.61.61 0 00.194 0 .81.81 0 01.208-.006.69.69 0 00.228-.017c.061-.017.133-.028.214-.033a.433.433 0 00.202-.056c.053-.033.104-.06.154-.082a.22.22 0 00.112-.116.379.379 0 00.038-.155v-.027z"/></svg>