<?xml version="1.0" encoding="UTF-8"?>
<svg width="18px" height="20px" viewBox="0 0 18 20" version="1.1" xmlns="http://www.w3.org/2000/svg" xmlns:xlink="http://www.w3.org/1999/xlink">
    <g stroke="none" stroke-width="1" fill="none" fill-rule="evenodd">
        <g transform="translate(-1222.000000, -185.000000)" fill="#542DE0" fill-rule="nonzero">
            <g transform="translate(1222.000000, 185.000000)">
                <polygon points="3.41394531 13.0878125 8.1065625 15.7970703 8.1065625 10.3784375 3.41394531 7.66917969"></polygon>
                <polygon points="3.92048828 6.79166016 8.61310547 9.50091797 13.3059375 6.79166016 8.61310547 4.08228516"></polygon>
                <polygon points="13.8125 7.66912109 9.11972656 10.3783594 9.11972656 15.7971289 13.8125 13.0877344"></polygon>
                <path d="M15.8573633,4.18705078 L10.0098828,0.811132812 L8.61326172,0.004765625 L7.26216797,0.784765625 L1.36900391,4.18705078 L0.009296875,4.97228516 L0.009296875,14.9071875 L1.35636719,15.6848633 L7.26216797,19.094707 L8.61326172,19.874668 L10.0098828,19.0683008 L15.8699805,15.6848828 L17.2172656,14.907207 L17.2172656,4.97228516 L15.8573633,4.18705078 Z M15.365625,14.6089063 C15.365625,14.7145313 15.378418,14.8170508 15.4005859,14.9160742 L9.55109375,18.293125 C9.30576172,18.0820898 8.98734375,17.9535742 8.63824219,17.9535742 C8.27976563,17.9535742 7.95392578,18.089375 7.70595703,18.3108984 L1.82578125,14.9160547 C1.84798828,14.8170508 1.86068359,14.7145313 1.86068359,14.6088867 C1.86068359,13.992832 1.4625,13.4708203 0.909902344,13.283125 L0.909902344,6.57742187 C1.46248047,6.38974609 1.86068359,5.8678125 1.86068359,5.25167969 C1.86068359,5.15201172 1.84982422,5.05474609 1.83011719,4.96107422 L7.7059375,1.56855469 C7.95392578,1.79005859 8.27974609,1.92583984 8.63822266,1.92583984 C8.98732422,1.92583984 9.30576172,1.79738281 9.55107422,1.58626953 L15.39625,4.96105469 C15.3760231,5.05660439 15.3657534,5.15399312 15.3656055,5.25166016 C15.3656055,5.86779297 15.7638086,6.38974609 16.3164453,6.57740234 L16.3164453,13.283125 C15.7638086,13.4708398 15.365625,13.9928516 15.365625,14.6089063 L15.365625,14.6089063 Z" id="形状"></path>
            </g>
        </g>
    </g>
</svg>