<svg t="1578488629969" class="icon" viewBox="0 0 1024 1024" version="1.1" xmlns="http://www.w3.org/2000/svg" p-id="15108" width="200" height="200"><path d="M960.791273 391.517091c-19.665455-32.930909-53.690182-53.504-88.622546-54.574546l-216.622545-1.093818a426.356364 426.356364 0 0 0 21.736727-134.586182c0-22.807273-1.885091-46.08-6.050909-71.26109l-4.049455-18.176C655.662545 59.741091 611.793455 23.272727 560.407273 23.272727c-60.462545 0-109.637818 51.246545-109.637818 114.338909 0 3.653818 0.116364 7.214545 0.465454 10.24-2.978909 111.802182-132.165818 227.188364-176.081454 227.188364h-0.069819l-160.930909 0.093091c-21.015273 0-38.120727 17.896727-38.120727 39.796364L75.636364 884.130909c0 22.248727 18.478545 38.469818 41.634909 39.121455l139.52-0.256 5.352727 1.024 4.677818-0.698182 530.967273 0.209454a108.497455 108.497455 0 0 0 52.317091-17.780363c16.919273-11.310545 30.580364-27.252364 36.770909-41.285818l6.493091-11.240728c36.584727-90.763636 81.221818-368.64 83.013818-380.392727l0.721455-11.264a118.621091 118.621091 0 0 0-16.29091-70.050909z m-819.665455 51.735273l86.760727-0.116364v412.485818l-87.109818 0.232727 0.325818-412.602181z m694.272 379.578181l-4.119273 6.795637a47.057455 47.057455 0 0 1-16.244363 18.990545c-6.330182 4.189091-13.800727 6.702545-19.456 7.121455l-502.597818-0.232727V439.552c85.829818-17.408 219.601455-154.112 223.232-295.005091l-0.395637-6.912c0-25.646545 20.014545-46.545455 44.590546-46.545454 20.898909 0 38.725818 14.801455 43.403636 36.026181l3.630546 16.128c3.188364 19.456 4.747636 38.912 4.747636 57.925819 0 38.493091-6.144 76.520727-18.385455 112.942545l-29.952 89.437091 296.354909 0.069818 7.005091 0.744727a46.708364 46.708364 0 0 1 38.330182 23.063273c5.12 8.610909 7.493818 18.641455 6.702546 34.327273-0.465455 2.699636-45.218909 281.716364-76.846546 361.099636z" fill="" p-id="15109"></path></svg>