<svg width="16" height="16" xmlns="http://www.w3.org/2000/svg"><path d="M12.008.016a3.956 3.956 0 00-2.815 1.166L6.203 4.17a3.983 3.983 0 00.671 6.17.747.747 0 00.8-1.257 2.484 2.484 0 01-.418-3.857l2.987-2.987a2.49 2.49 0 113.523 3.518L12.35 7.174a.747.747 0 001.056 1.056l1.416-1.417A3.983 3.983 0 0012.008.016zm-2.834 5.61a.747.747 0 10-.807 1.256 2.484 2.484 0 01.421 3.856l-2.986 2.986a2.49 2.49 0 01-3.52-3.52l1.417-1.418A.747.747 0 002.642 7.73l-1.42 1.416a3.983 3.983 0 105.632 5.631l2.987-2.986a3.983 3.983 0 00-.671-6.17l.004.004z"/></svg>