<svg width="27" height="20" xmlns="http://www.w3.org/2000/svg"><g><path d="M6.2 19.188c-1.587 0-3.173-.6-4.387-1.814a6.204 6.204 0 010-8.76L9.76.667a1.2 1.2 0 011.693 0 1.2 1.2 0 010 1.694L3.52 10.32a3.807 3.807 0 000 5.373 3.807 3.807 0 005.373 0l7.947-7.947a1.2 1.2 0 011.693 0 1.2 1.2 0 010 1.694l-7.946 7.946a6.22 6.22 0 01-4.387 1.8z"/><path d="M16.053 18.867c-.306 0-.613-.12-.853-.346a1.2 1.2 0 010-1.694l7.947-7.946a3.807 3.807 0 000-5.373 3.807 3.807 0 00-5.374 0L9.84 11.454a1.2 1.2 0 01-1.693 0 1.2 1.2 0 010-1.693l7.946-7.947a6.204 6.204 0 018.76 0 6.204 6.204 0 010 8.76l-7.946 7.947c-.24.226-.547.346-.854.346z"/></g></svg>