<svg class="icon" viewBox="0 0 1024 1024" xmlns="http://www.w3.org/2000/svg" width="200" height="200"><defs><style/></defs><path d="M930 358.22c0-194.4-127.42-251.4-127.42-251.4-125.04-57.4-457.12-56.8-580.96 0 0 0-127.44 57-127.44 251.4 0 231.4-13.2 518.8 211.26 578.2 81.02 21.4 150.64 26 206.66 22.8 101.62-5.6 158.64-36.2 158.64-36.2l-3.4-73.8s-72.62 22.8-154.24 20.2c-80.82-2.8-166-8.8-179.26-108a205.08 205.08 0 01-1.8-27.8c171.26 41.8 317.3 18.2 357.5 13.4 112.24-13.4 210-82.6 222.46-145.8 19.6-99.6 18-243 18-243zm-150.24 250.4H686.5v-228.4c0-99.4-128-103.2-128 13.8v125h-92.66V394c0-117-128-113.2-128-13.8v228.4h-93.46c0-244.2-10.4-295.8 36.82-350 51.8-57.8 159.64-61.6 207.66 12.2l23.2 39 23.2-39c48.22-74.2 156.24-69.6 207.66-12.2 47.42 54.6 36.8 106 36.8 350z"/></svg>