<svg width="207" height="251" xmlns="http://www.w3.org/2000/svg"><g><path stroke="#B2B2B2" stroke-width="20" stroke-linecap="round" stroke-linejoin="round" d="M12 31.75l30-.5M92 113.5h30M142 114.5h49M131 165.5h66M75 73.5h118M81 25c20.549-.888 38.316-2.4 53.3-4.536C149.285 18.328 164.185 14.84 179 10M38 83.5h8M93 51l4 8M96 147l8 6M130 46l5 10M182 39l-15 27M95 100c-4.544 10.74-8.347 18.7-11.41 23.882C80.53 129.065 75.666 135.771 69 144M123 114c-3.07 13.34-8.016 26.132-14.837 38.376-5.665 10.167-15.55 28.427-35.814 42.826-6.14 4.362-11.256 6.962-15.349 7.798M12 113.75l30-.5M42 176.5H11M11.5 33v52M42.5 32v26M74.5 74v16M10.5 144v32M148.5 142v10M42.5 114v62M175.5 102v101"/><path d="M0 249.108v-.084c.298-7.36 1.278-19.175 1.619-25.272.17-3.112 2.13-4.71 4.133-4.71 1.747 0 3.536 1.177 4.303 3.616 1.62 5.046 5.369 18.082 6.391 20.142.128.253.256.379.426.379.128 0 .298-.126.384-.379 1.619-3.868 5.027-15.558 6.689-20.352.81-2.355 2.641-3.448 4.388-3.448 2.13 0 4.176 1.64 4.261 4.583.128 5.425 1.065 19.091 1.406 25.062v.168c0 1.43-1.236 2.187-2.471 2.187-1.236 0-2.471-.715-2.557-2.187-.426-6.013-.852-22.707-.852-22.707 0-.714-.17-1.009-.383-1.009s-.511.379-.64.883c-.937 3.49-5.325 17.157-7.072 21.656-.554 1.43-1.917 2.397-3.323 2.397-1.193 0-2.386-.673-3.068-2.355-1.363-3.196-5.113-16.526-6.69-21.487-.17-.505-.383-.8-.553-.8-.213 0-.383.337-.469 1.22-.298 3.7-.894 16.484-1.107 22.287C4.772 250.285 3.494 251 2.258 251 1.108 251 0 250.37 0 249.108zm64-.427c0 1.434-1.274 2.277-2.59 2.277-.976 0-1.995-.464-2.42-1.56-.509-1.223-1.613-4.596-2.929-8.517-.085-.253-.212-.379-.467-.379-.679-.042-2.42-.042-4.33-.042-2.547 0-5.391 0-6.283.042a.533.533 0 00-.51.38c-1.06 3.33-2.037 6.366-2.674 8.39-.382 1.18-1.358 1.728-2.377 1.728-1.189 0-2.42-.801-2.42-2.108 0-.759.127-1.096 9.425-27.067.679-1.94 2.207-2.825 3.735-2.825 1.614 0 3.27 1.012 3.948 2.91 2.717 7.588 8.236 22.26 9.637 25.548.17.422.255.844.255 1.223zm-9-13.883c0-.04 0-.122-.041-.202a4309.627 4309.627 0 01-3.192-9.464c-.249-.728-.456-1.132-.705-1.132-.207 0-.456.364-.746 1.173-.622 1.617-3.316 9.18-3.316 9.544 0 .162.083.243.332.243.829 0 2.362.04 3.813.04 1.492 0 2.943-.04 3.523-.04.25 0 .332-.04.332-.162zm17.726 14.043v-.042c.086-3.301.129-9.439.129-15.026 0-3.725 0-7.238-.086-9.481 0-.847-.129-.847-2.66-.847-1.63 0-3.647.085-5.663.085-1.63 0-2.446-1.143-2.446-2.286s.772-2.243 2.36-2.243h.086c2.574.042 7.122.085 11.584.085 3.647 0 7.293-.043 9.739-.085 1.673-.042 2.231 1.354 2.231 2.286 0 1.142-.686 2.243-2.06 2.243h-.171c-1.459-.085-2.703-.085-3.733-.085-4.247 0-4.247 0-4.247.847-.086 2.878-.129 6.984-.129 11.132 0 5.079.086 10.243.215 13.375C77.96 250.28 76.63 251 75.3 251c-1.287 0-2.574-.72-2.574-2.159zm41.274-.16c0 1.434-1.274 2.277-2.59 2.277-.976 0-1.995-.464-2.42-1.56-.509-1.223-1.613-4.596-2.929-8.517-.085-.253-.212-.379-.467-.379-.679-.042-2.42-.042-4.33-.042-2.547 0-5.391 0-6.283.042a.533.533 0 00-.51.38c-1.06 3.33-2.037 6.366-2.674 8.39-.382 1.18-1.358 1.728-2.377 1.728-1.189 0-2.42-.801-2.42-2.108 0-.759.127-1.096 9.425-27.067.679-1.94 2.207-2.825 3.735-2.825 1.614 0 3.27 1.012 3.948 2.91 2.717 7.588 8.236 22.26 9.637 25.548.17.422.255.844.255 1.223zm-10-13.883c0-.04 0-.122-.041-.202a4310.026 4310.026 0 01-3.192-9.464c-.249-.728-.456-1.132-.705-1.132-.207 0-.456.364-.746 1.173-.622 1.617-3.316 9.18-3.316 9.544 0 .162.083.243.332.243.829 0 2.362.04 3.813.04 1.492 0 2.943-.04 3.523-.04.25 0 .332-.04.332-.162zm16.726 14.043v-.042c.086-3.301.129-9.439.129-15.026 0-3.725 0-7.238-.086-9.481 0-.847-.129-.847-2.66-.847-1.63 0-3.647.085-5.663.085-1.63 0-2.446-1.143-2.446-2.286s.772-2.243 2.36-2.243h.086c2.574.042 7.122.085 11.584.085 3.647 0 7.293-.043 9.739-.085 1.673-.042 2.231 1.354 2.231 2.286 0 1.142-.686 2.243-2.06 2.243h-.171c-1.459-.085-2.703-.085-3.733-.085-4.247 0-4.247 0-4.247.847-.086 2.878-.129 6.984-.129 11.132 0 5.079.086 10.243.215 13.375.085 1.481-1.245 2.201-2.575 2.201-1.287 0-2.574-.72-2.574-2.159zm41.274-.16c0 1.434-1.274 2.277-2.59 2.277-.976 0-1.995-.464-2.42-1.56-.509-1.223-1.613-4.596-2.929-8.517-.085-.253-.212-.379-.467-.379-.679-.042-2.42-.042-4.33-.042-2.547 0-5.391 0-6.283.042a.533.533 0 00-.51.38c-1.06 3.33-2.037 6.366-2.674 8.39-.382 1.18-1.358 1.728-2.377 1.728-1.189 0-2.42-.801-2.42-2.108 0-.759.127-1.096 9.425-27.067.679-1.94 2.207-2.825 3.735-2.825 1.614 0 3.27 1.012 3.948 2.91 2.717 7.588 8.236 22.26 9.637 25.548.17.422.255.844.255 1.223zm-10-13.883c0-.04 0-.122-.041-.202a4310.026 4310.026 0 01-3.192-9.464c-.249-.728-.456-1.132-.705-1.132-.207 0-.456.364-.746 1.173-.622 1.617-3.316 9.18-3.316 9.544 0 .162.083.243.332.243.829 0 2.362.04 3.813.04 1.492 0 2.943-.04 3.523-.04.25 0 .332-.04.332-.162zm14.001 14.142v-.042c.086-4.458.129-10.008.129-15.265 0-4.71-.043-9.167-.129-12.362-.042-1.346.94-2.271 2.436-2.271 1.24 0 2.479.757 2.479 2.187v.084c-.043 1.682-.086 3.322-.086 4.793 0 2.271.043 4.121.086 5.173 0 .378.085.84 1.11.84.898 0 1.539-.378 2.308-1.219 3.077-3.28 8.034-8.662 9.786-10.933a2.12 2.12 0 011.752-.883c1.368 0 2.778 1.22 2.778 2.565 0 .42-.129.883-.47 1.304-1.88 2.27-7.094 7.4-10.085 10.512-.257.252-.385.463-.385.673 0 .168.128.378.385.63 3.632 3.659 11.452 10.976 12.179 11.775.512.546.726 1.177.726 1.724 0 1.471-1.41 2.775-2.863 2.775-.684 0-1.325-.252-1.923-.841-1.453-1.472-8.675-9.083-11.794-12.657-.641-.715-1.154-.841-1.795-.841-.3 0-.556.042-.897.042-.342 0-.812.042-.812.673a177.937 177.937 0 00-.086 6.055c0 1.682 0 3.532.086 5.467v.084c0 1.345-1.197 1.976-2.436 1.976-1.24 0-2.479-.673-2.479-2.018zm33.999-.223v.043c0 1.48-1.25 2.24-2.499 2.24s-2.498-.76-2.498-2.24v-.043c.083-5.072.208-10.737.208-16.19 0-4.016-.083-7.863-.208-11.287-.084-1.775 1.79-2.24 2.54-2.24 1.208 0 2.457.676 2.457 2.071v.085a498.062 498.062 0 00-.125 11.582c0 5.284.042 10.78.125 15.98z"/><path stroke="#B2B2B2" stroke-width="20" stroke-linecap="round" stroke-linejoin="round" d="M193.5 74v16"/></g></svg>