<svg t="1617351661745" class="icon" viewBox="0 0 1024 1024" version="1.1" xmlns="http://www.w3.org/2000/svg" p-id="2029" width="200" height="200"><path d="M0 0v1024h1024V0H0z m850.688 242.602667L795.776 295.253333a16.042667 16.042667 0 0 0-6.101333 15.445334v386.858666a16.042667 16.042667 0 0 0 6.101333 15.402667l53.632 52.650667v11.562666h-269.738667v-11.52l55.552-53.973333c5.461333-5.461333 5.461333-7.04 5.461334-15.36V383.573333l-154.453334 392.32h-20.906666L285.44 383.573333v262.954667a36.266667 36.266667 0 0 0 9.941333 30.165333l72.277334 87.637334v11.562666H162.773333v-11.52L235.093333 676.693333a34.986667 34.986667 0 0 0 9.301334-30.165333V342.485333a26.624 26.624 0 0 0-8.661334-22.485333L171.477333 242.602667v-11.52h199.424l154.154667 338.048 135.509333-338.090667h190.122667v11.562667z" p-id="2030"></path></svg>