<svg width="18" height="20" xmlns="http://www.w3.org/2000/svg"><path d="M14.782.011H3.705A2.875 2.875 0 00.833 2.883v2.051a.82.82 0 001.641 0V2.883c0-.677.554-1.23 1.231-1.23h11.077c.451 0 .82.368.82.82v14.359c0 .451-.369.82-.82.82H3.705c-.677 0-1.23-.554-1.23-1.23V13.55a.82.82 0 00-1.642 0v2.871a2.875 2.875 0 002.872 2.872h11.077a2.463 2.463 0 002.462-2.461V2.472a2.463 2.463 0 00-2.462-2.46z"/><path d="M6.833 13.131a.82.82 0 001.16 0l2.474-2.475a2 2 0 000-2.828L7.993 5.354a.821.821 0 00-1.16-.001.818.818 0 000 1.158l2.115 2.116H.833a.82.82 0 000 1.64h7.705l-1.706 1.706a.818.818 0 00.001 1.158z"/></svg>