<svg width="20" height="20" xmlns="http://www.w3.org/2000/svg"><g stroke="#000" stroke-width=".1" stroke-linejoin="round"><path d="M11.704.95l4.774 4.529v4.571h-1.386V7.479h-3.807A1.331 1.331 0 019.95 6.143h0V2.336H2.336v15.328h12.756v-1.286h1.386v1.505a1.203 1.203 0 01-1.233 1.167h0H2.184A1.203 1.203 0 01.95 17.88h0V2.131A1.207 1.207 0 012.183.95h9.52zm-.369 1.568v3.574l3.685-.086-3.685-3.488z"/><path d="M9.94 13.188a.693.693 0 00.204.512l2.572 2.57a.693.693 0 00.983 0 .693.693 0 000-.983l-1.38-1.38h6.038a.69.69 0 00.692-.693.69.69 0 00-.692-.693h-6.039l1.381-1.393a.693.693 0 000-.983.693.693 0 00-.983 0L9.94 13.188z"/></g></svg>