<svg width="21" height="17" xmlns="http://www.w3.org/2000/svg"><g stroke="#000" stroke-width=".3"><path d="M12.496 7.507H4.7a.65.65 0 110-1.3h7.795a.65.65 0 110 1.3zm-4.33 4.33H4.7a.65.65 0 110-1.3h3.464a.65.65 0 110 1.3z"/><path d="M18.125 16.167H2.535c-.835 0-1.515-.68-1.515-1.515V2.527c0-.836.68-1.516 1.516-1.516h15.589c.836 0 1.516.68 1.516 1.516v12.125c0 .835-.68 1.515-1.516 1.515zM2.535 2.31a.217.217 0 00-.216.217v12.125c0 .12.098.216.217.216h15.589c.12 0 .217-.097.217-.216V2.527a.217.217 0 00-.217-.217H2.535z"/></g></svg>