<svg width="18" height="18" xmlns="http://www.w3.org/2000/svg"><path d="M14.516 4.742l-.56.561.223-.223a.509.509 0 00-.021-.698l.358.36zm-3.043-3.049l.56.56-.222-.222a.509.509 0 00-.699.021l.361-.359zm6.01 15.31a.795.795 0 00-.796-.795H.797a.795.795 0 100 1.59H16.69a.796.796 0 00.793-.795zm-15.43-2.037a.795.795 0 00.794-.795v-4.168a.795.795 0 10-1.59 0v4.168c0 .44.357.795.795.795z"/><path d="M1.257 14.173c0 .438.355.795.795.795H6.21a.795.795 0 100-1.59H2.052a.796.796 0 00-.795.795z"/><path d="M15.826 3.811c-.002-.002-.006-.003-.008-.007l-3.48-3.48a1.32 1.32 0 00-1.798.064c-.002.002-.004.006-.008.008l-9.05 9.048a.794.794 0 101.123 1.123l8.864-8.864 3.04 3.038-8.863 8.862a.794.794 0 101.123 1.123l9.144-9.144a1.324 1.324 0 00-.087-1.77z"/></svg>