<svg width="18" height="20" xmlns="http://www.w3.org/2000/svg"><g><path d="M8.46 11.646a5.787 5.787 0 01-5.776-5.775C2.684 2.69 5.28.01 8.46.01a5.787 5.787 0 015.775 5.776c0 3.18-2.594 5.86-5.775 5.86zm0-9.96a4.108 4.108 0 00-4.102 4.1A4.108 4.108 0 008.46 9.889a4.108 4.108 0 004.101-4.101A4.108 4.108 0 008.46 1.685z"/><path d="M.843 19.682a.839.839 0 01-.837-.837v-.335c0-4.687 3.85-8.538 8.538-8.538.502 0 .837.335.837.837s-.335.837-.837.837c-3.767 0-6.864 3.097-6.864 6.864v.251c0 .502-.419.92-.837.92z"/><path d="M16.077 19.598c-.502 0-.837-.335-.837-.837v-.251c0-3.767-3.097-6.864-6.864-6.864-.502 0-.837-.335-.837-.837s.335-.837.837-.837c4.688 0 8.538 3.85 8.538 8.538v.251c0 .502-.335.837-.837.837z"/></g></svg>