<svg width="23" height="16" xmlns="http://www.w3.org/2000/svg"><path d="M20.897.02H1.916A1.91 1.91 0 00.007 1.928v11.635c0 1.056.856 1.908 1.909 1.908h18.98a1.906 1.906 0 001.91-1.908V1.928A1.908 1.908 0 0020.895.02zm-.456 1.366l-7.569 6.71c-.661.59-1.15.881-1.466.881-.315 0-.804-.292-1.464-.881L2.37 1.386h18.07zM1.428 13.14V2.626l5.91 5.184-5.91 5.329zm.992.965l5.935-5.267.972.853c.564.493 1.261.747 2.08.747.822 0 1.514-.254 2.082-.747l.97-.853 5.934 5.267H2.42zm18.966-.965l-5.91-5.329 5.91-5.184v10.513z"/></svg>