<svg width="188px" height="188px" viewBox="0 0 188 188" version="1.1" xmlns="http://www.w3.org/2000/svg" xmlns:xlink="http://www.w3.org/1999/xlink">
    <g stroke="none" stroke-width="1" fill="none" fill-rule="evenodd">
        <g fill-rule="nonzero">
            <path d="M40,20 C40,23.3137085 42.6862915,26 46,26 C49.3137085,26 52,23.3137085 52,20 L136,20 L136,20 C136,23.3137085 138.686292,26 142,26 C145.313708,26 148,23.3137085 148,20 L152,20 C160.836556,20 168,27.163444 168,36 L168,152 C168,160.836556 160.836556,168 152,168 L148,168 L148,168 C148,164.686292 145.313708,162 142,162 C138.686292,162 136,164.686292 136,168 L52,168 L52,168 C52,164.686292 49.3137085,162 46,162 C42.6862915,162 40,164.686292 40,168 L36,168 C27.163444,168 20,160.836556 20,152 L20,36 C20,27.163444 27.163444,20 36,20 L40,20 L40,20 Z" fill="#E6E7FF"></path>
            <rect fill="#FCA999" x="67" y="168" width="4" height="20"></rect>
            <rect fill="#FCA999" x="77" y="168" width="4" height="20"></rect>
            <rect fill="#FCA999" x="87" y="168" width="4" height="20"></rect>
            <rect fill="#FCA999" x="97" y="168" width="4" height="20"></rect>
            <rect fill="#FCA999" x="107" y="168" width="4" height="20"></rect>
            <rect fill="#FCA999" x="117" y="168" width="4" height="20"></rect>
            <rect fill="#FCA999" transform="translate(178.000000, 99.000000) rotate(-90.000000) translate(-178.000000, -99.000000) " x="176" y="89" width="4" height="20"></rect>
            <rect fill="#FCA999" transform="translate(178.000000, 89.000000) rotate(-90.000000) translate(-178.000000, -89.000000) " x="176" y="79" width="4" height="20"></rect>
            <rect fill="#FCA999" transform="translate(178.000000, 79.000000) rotate(-90.000000) translate(-178.000000, -79.000000) " x="176" y="69" width="4" height="20"></rect>
            <rect fill="#FCA999" transform="translate(178.000000, 69.000000) rotate(-90.000000) translate(-178.000000, -69.000000) " x="176" y="59" width="4" height="20"></rect>
            <rect fill="#FCA999" transform="translate(178.000000, 139.000000) rotate(-90.000000) translate(-178.000000, -139.000000) " x="176" y="129" width="4" height="20"></rect>
            <rect fill="#FCA999" transform="translate(178.000000, 129.000000) rotate(-90.000000) translate(-178.000000, -129.000000) " x="176" y="119" width="4" height="20"></rect>
            <rect fill="#FCA999" transform="translate(178.000000, 119.000000) rotate(-90.000000) translate(-178.000000, -119.000000) " x="176" y="109" width="4" height="20"></rect>
            <rect fill="#FCA999" transform="translate(178.000000, 109.000000) rotate(-90.000000) translate(-178.000000, -109.000000) " x="176" y="99" width="4" height="20"></rect>
            <rect fill="#FCA999" transform="translate(178.000000, 59.000000) rotate(-90.000000) translate(-178.000000, -59.000000) " x="176" y="49" width="4" height="20"></rect>
            <rect fill="#FCA999" transform="translate(178.000000, 49.000000) rotate(-90.000000) translate(-178.000000, -49.000000) " x="176" y="39" width="4" height="20"></rect>
            <rect fill="#FCA999" transform="translate(10.000000, 99.000000) rotate(-90.000000) translate(-10.000000, -99.000000) " x="8" y="89" width="4" height="20"></rect>
            <rect fill="#FCA999" transform="translate(10.000000, 89.000000) rotate(-90.000000) translate(-10.000000, -89.000000) " x="8" y="79" width="4" height="20"></rect>
            <rect fill="#FCA999" transform="translate(10.000000, 79.000000) rotate(-90.000000) translate(-10.000000, -79.000000) " x="8" y="69" width="4" height="20"></rect>
            <rect fill="#FCA999" transform="translate(10.000000, 69.000000) rotate(-90.000000) translate(-10.000000, -69.000000) " x="8" y="59" width="4" height="20"></rect>
            <rect fill="#FCA999" transform="translate(10.000000, 139.000000) rotate(-90.000000) translate(-10.000000, -139.000000) " x="8" y="129" width="4" height="20"></rect>
            <rect fill="#FCA999" transform="translate(10.000000, 129.000000) rotate(-90.000000) translate(-10.000000, -129.000000) " x="8" y="119" width="4" height="20"></rect>
            <rect fill="#FCA999" transform="translate(10.000000, 119.000000) rotate(-90.000000) translate(-10.000000, -119.000000) " x="8" y="109" width="4" height="20"></rect>
            <rect fill="#FCA999" transform="translate(10.000000, 109.000000) rotate(-90.000000) translate(-10.000000, -109.000000) " x="8" y="99" width="4" height="20"></rect>
            <rect fill="#FCA999" transform="translate(10.000000, 59.000000) rotate(-90.000000) translate(-10.000000, -59.000000) " x="8" y="49" width="4" height="20"></rect>
            <rect fill="#FCA999" transform="translate(10.000000, 49.000000) rotate(-90.000000) translate(-10.000000, -49.000000) " x="8" y="39" width="4" height="20"></rect>
            <rect fill="#FCA999" x="67" y="0" width="4" height="20"></rect>
            <rect fill="#FCA999" x="77" y="0" width="4" height="20"></rect>
            <rect fill="#FCA999" x="87" y="0" width="4" height="20"></rect>
            <rect fill="#FCA999" x="97" y="0" width="4" height="20"></rect>
            <rect fill="#FCA999" x="107" y="0" width="4" height="20"></rect>
            <rect fill="#FCA999" x="117" y="0" width="4" height="20"></rect>
            <rect fill="#A2A7F6" x="34" y="34" width="120" height="120" rx="12"></rect>
            <rect fill="#EFF0FC" x="45" y="45" width="98" height="98" rx="8"></rect>
            <polygon fill="#C77DF2" points="74.635007 121.972656 76.500823 82.64839 76.821511 82.64839 93.016213 102.370652 94.539478 102.370652 110.734181 82.64839 111.054868 82.64839 112.920684 121.972656 124.676785 121.972656 121.87806 65.9726562 112.217359 65.9726562 93.817931 88.059986 75.418504 65.9726562 65.6776308 65.9726562 62.8789062 121.972656"></polygon>
            <rect fill="#A2A7F6" x="59" y="26" width="70" height="8"></rect>
            <rect fill="#A2A7F6" x="59" y="154" width="70" height="8"></rect>
            <circle fill="#343D98" cx="27" cy="115" r="2"></circle>
            <circle fill="#343D98" cx="27" cy="123" r="2"></circle>
            <circle fill="#343D98" cx="27" cy="131" r="2"></circle>
            <circle fill="#343D98" cx="27" cy="139" r="2"></circle>
            <circle fill="#343D98" cx="27" cy="146" r="2"></circle>
            <circle fill="#343D98" cx="161" cy="41" r="2"></circle>
            <circle fill="#343D98" cx="161" cy="49" r="2"></circle>
            <circle fill="#343D98" cx="161" cy="57" r="2"></circle>
            <circle fill="#343D98" cx="161" cy="65" r="2"></circle>
            <circle fill="#343D98" cx="161" cy="72" r="2"></circle>
        </g>
    </g>
</svg>