<svg class="icon" viewBox="0 0 1024 1024" xmlns="http://www.w3.org/2000/svg" width="200" height="200"><defs><style/></defs><path d="M568.46 370.62l-113.28.176-44.2-106.752z"/><path d="M410.98 264.044l203.202-.424-45.722 107z"/><path d="M455.18 370.796L170.064 156.352 410.98 264.044z"/><path d="M853.998 154.54l-285.54 216.08 45.724-107z"/><path d="M285.726 462.106L156.534 428.45l-6.934-30.13zm-124.774 2.54l-4.42-36.196 129.194 33.656zm18.074 52.28l106.7-54.82 55.48 9.854z"/><path d="M160.952 464.646l124.774-2.54-106.7 54.82zm578.674-3.018l136.3-64.316-6.992 30.26zm124.826 2.284l-124.826-2.284 129.308-34.054zm-18.182 52.5l-162.86-44.794 56.216-9.99z"/><path d="M864.452 463.912l-18.182 52.5-106.644-54.784zM291.226 298.26l-5.5 163.846L149.6 398.32zm49.982 173.7l-55.482-9.854 5.5-163.846z"/><path d="M344.44 804.94l42.34-22.406 7.406-1.744zm286.848-24.008l6.538 1.754 41.3 22.496z"/><path d="M875.926 397.312l-136.3 64.316-6.6-164.212z"/><path d="M733.026 297.416l6.6 164.212-56.218 9.99z"/><path d="M344.44 804.94l-181.186 66.93-44.394-181.25z"/><path d="M132.772 409.216l16.83-10.896 6.932 30.13z"/><path d="M907.374 690.724l-44.44 181.9-183.808-67.44z"/><path d="M291.226 298.26l163.954 72.536L341.208 471.96zM160.952 464.646L137.44 441.68l19.092-13.232zm522.456 6.972L568.46 370.62l164.566-73.206zm209.364-63.412l-23.838 19.368 6.992-30.26zM149.6 398.32l-20.96-125.808 162.586 25.748zm29.426 118.606l-33.696-42.21 15.62-10.07z"/><path d="M864.452 463.912l4.482-36.34 19.106 13.238zM733.026 297.416l163.442-26.472-20.542 126.368z"/><path d="M290.518 528.532L118.86 690.618l60.164-173.692z"/><path d="M846.27 516.412l18.18-52.5 15.636 10.076z"/><path d="M263.492 669.598l-144.63 21.02 171.656-162.086z"/><path d="M118.862 690.62l144.63-21.022 80.95 135.34z"/><path d="M732.598 528.218l113.672-11.806 61.104 174.312zm0 0l174.776 162.506-147.728-21.114z"/><path d="M679.126 805.182l80.52-135.572 147.728 21.114z"/><path d="M179.026 516.926l162.18-44.966-50.688 56.572zm667.244-.514l-113.672 11.806-49.19-56.6z"/><path d="M341.208 471.96L455.18 370.796l8.568 158.632zm122.54 57.468l-173.23-.896 50.69-56.572zm219.66-57.81l49.19 56.6-174.382 1.144zM558.216 529.36l10.244-158.74 114.948 100.998z"/><path d="M170.064 156.352L455.18 370.796 291.226 298.26zM291.226 298.26l-162.584-25.748 41.42-116.16zm562.772-143.72l42.47 116.404-163.442 26.472zM733.026 297.416L568.46 370.622 853.998 154.54z"/><path d="M455.18 370.796l113.28-.174-10.244 158.74z"/><path d="M558.216 529.36l-94.468.068-8.568-158.632z"/><path d="M344.44 804.94l-80.948-135.342 97.266-4.644zm334.686.242L661.37 664.954l98.276 4.656zM359.352 595.27l-68.834-66.74 173.23.9z"/><path d="M290.518 528.532l70.24 136.422-97.266 4.644z"/><path d="M290.518 528.532l68.834 66.74 1.406 69.682z"/><path d="M558.216 529.36l174.38-1.142-69.58 66.942z"/><path d="M759.646 669.61l-98.276-4.656L732.6 528.22z"/><path d="M732.598 528.218L661.37 664.954l1.646-69.794z"/><path d="M378.57 824.702l-34.128-19.764 97.99 7.024zm198.09-12.638l102.466-6.88-35.198 19.74z"/><path d="M463.748 529.428l-42.032 36.764-62.364 29.08z"/><path d="M441.402 773.172l1.03 38.79-97.99-7.024z"/><path d="M663.016 595.16l-62.6-29.06-42.2-36.74z"/><path d="M450.16 700.576L344.44 804.938l16.32-139.984z"/><path d="M344.44 804.94l105.72-104.364-8.758 72.596zm232.408-31.692l102.278 31.934-102.464 6.882z"/><path d="M567.982 700.598l93.388-35.644 17.756 140.228z"/><path d="M679.126 805.182l-102.278-31.934-8.866-72.65z"/><path d="M360.76 664.954l-1.408-69.684 87.666 21.214z"/><path d="M447.018 616.484l-87.666-21.214 62.364-29.078z"/><path d="M661.37 664.954l-86.72-48.5 88.366-21.294z"/><path d="M574.65 616.452l25.768-50.352 62.598 29.06z"/><path d="M421.716 566.192l42.032-36.764-16.73 87.056zm178.702-.092l-25.768 50.352-16.434-87.09z"/><path d="M467.144 579.45l-3.396-50.02 94.468-.068z"/><path d="M447.018 616.484l16.73-87.056 3.396 50.022z"/><path d="M558.216 529.36l-4.062 50.052-87.01.04z"/><path d="M574.65 616.452l-20.496-37.04 4.062-50.05z"/><path d="M442.432 811.96l5.714 29.408-69.576-16.666zm201.496 12.964l-73.192 16.558 5.926-29.418z"/><path d="M450.16 700.576l-89.4-35.62 86.258-48.472zm124.49-84.124l86.72 48.502-93.388 35.644z"/><path d="M467.144 579.45l-1.776 110.544-18.35-73.51z"/><path d="M447.018 616.484l18.35 73.51-15.21 10.58z"/><path d="M554.154 579.412l20.496 37.04-21.888 73.554z"/><path d="M567.982 700.598l-15.22-10.592 21.888-73.554z"/><path d="M467.144 579.45l87.01-.038-1.392 110.594zm85.616 110.556l-87.392-.012 1.776-110.544z"/><path d="M448.146 841.368l-5.714-29.406-1.03-38.79zm128.702-68.12l-.186 38.816-5.926 29.418z"/><path d="M441.402 773.172l7.676-11.288-.932 79.484zm6.744 68.196l.932-79.484 119.686.06z"/><path d="M568.764 761.944l1.972 79.538-122.59-.114zm1.972 79.536l-1.972-79.536 8.084 11.304z"/><path d="M449.08 761.884l-7.678 11.288 8.756-72.596zm118.902-61.286l8.866 72.65-8.084-11.304zm-103.862-4.004l1.248-6.6 87.394.012z"/><path d="M450.16 700.576l15.208-10.582-1.246 6.6z"/><path d="M552.76 690.006l.436 6.604-89.074-.016zm.436 6.604l-.434-6.604 15.22 10.592zm-103.036 3.966l4.22 6.996-5.3 54.312z"/><path d="M464.12 696.594l-9.74 10.978-4.22-6.996zm104.644 65.35l-5.822-54.348 5.04-7z"/><path d="M567.982 700.598l-5.04 6.998-9.746-10.986zm.782 61.346l-119.686-.06 5.3-54.312zM454.38 707.572l108.56.024 5.824 54.348zm0 0l9.74-10.978 89.076.016z"/><path d="M553.196 696.61l9.746 10.986-108.562-.024z"/></svg>