<svg width="30" height="30" xmlns="http://www.w3.org/2000/svg"><g><path d="M29.497 11.23c0-.979-.352-1.821-1.048-2.504-.69-.679-1.54-1.023-2.527-1.023H3.578c-.986 0-1.837.344-2.528 1.023A3.393 3.393 0 00.003 11.23v15.085c0 .496.102.966.303 1.399.195.422.465.797.803 1.116.336.316.729.566 1.162.74.439.18.91.27 1.4.27h22.345a3.437 3.437 0 002.49-1.032l.002-.002c.314-.323.56-.702.733-1.127l.002-.005c.168-.424.254-.88.254-1.357V20.04h-7.76c-.538 0-.947-.093-1.185-.27-.276-.205-.471-.425-.58-.652l-.008-.017a2.552 2.552 0 01-.254-1.053c.003-.553.187-.986.578-1.364.398-.383.872-.57 1.449-.57h7.76V11.23zM23.392 1.525l-.064-.07A4.65 4.65 0 0021.925.401l-.047-.02c-.469-.195-1.036-.31-1.685-.345-.704-.038-1.486.169-2.324.615-.454.234-1.098.571-1.97 1.03-.852.449-1.71.895-2.55 1.328l-.008.004a196.77 196.77 0 01-3.127 1.627L7.338 6.104h18.488l-2.434-4.579z"/><path d="M20.752 17.094c-.267.262-.4.585-.4.968s.133.71.4.982c.267.273.595.408.985.408.389 0 .718-.135.985-.408.267-.271.399-.6.399-.982 0-.383-.133-.706-.4-.968a1.353 1.353 0 00-.984-.393c-.39 0-.718.131-.985.393z"/></g></svg>