<svg width="30" height="30" xmlns="http://www.w3.org/2000/svg"><g><path d="M25.714 15.214C25.071 15 24.214 15 23.571 15 18.857 15 15 18.857 15 23.571c0 2.572 1.071 4.929 3 6.429H2.143C.857 30 0 29.143 0 27.857V2.143C0 .857.857 0 2.143 0H23.57c1.286 0 2.143.857 2.143 2.143v13.071zM5.357 6.43c-.643 0-1.071.428-1.071 1.071s.428 1.071 1.071 1.071h15c.643 0 1.072-.428 1.072-1.071S21 6.429 20.357 6.429h-15zm0 7.5c-.643 0-1.071.428-1.071 1.071s.428 1.071 1.071 1.071h10.714c.643 0 1.072-.428 1.072-1.071s-.429-1.071-1.072-1.071H5.357zM23.571 30c-3.642 0-6.428-2.786-6.428-6.429 0-3.642 2.786-6.428 6.428-6.428 3.643 0 6.429 2.786 6.429 6.428C30 27.214 27.214 30 23.571 30zm.858-7.286v-4.071c0-.429-.429-.857-.858-.857-.428 0-.857.428-.857.857v4.714c0 .429.429.857.857.857h3.643c.429 0 .857-.428.857-.857 0-.428-.428-.857-.857-.857H24.43v.214z"/><path d="M25.714 15.214C25.071 15 24.214 15 23.571 15 18.857 15 15 18.857 15 23.571c0 2.572 1.071 4.929 3 6.429H2.143C.857 30 0 29.143 0 27.857V2.143C0 .857.857 0 2.143 0H23.57c1.286 0 2.143.857 2.143 2.143v13.071zM5.357 6.43c-.643 0-1.071.428-1.071 1.071s.428 1.071 1.071 1.071h15c.643 0 1.072-.428 1.072-1.071S21 6.429 20.357 6.429h-15zm0 7.5c-.643 0-1.071.428-1.071 1.071s.428 1.071 1.071 1.071h10.714c.643 0 1.072-.428 1.072-1.071s-.429-1.071-1.072-1.071H5.357zM23.571 30c-3.642 0-6.428-2.786-6.428-6.429 0-3.642 2.786-6.428 6.428-6.428 3.643 0 6.429 2.786 6.429 6.428C30 27.214 27.214 30 23.571 30zm.858-7.286v-4.071c0-.429-.429-.857-.858-.857-.428 0-.857.428-.857.857v4.714c0 .429.429.857.857.857h3.643c.429 0 .857-.428.857-.857 0-.428-.428-.857-.857-.857H24.43v.214z"/></g></svg>