<svg width="207" height="107" xmlns="http://www.w3.org/2000/svg"><path d="M100.5 13.6a46.222 46.222 0 11-46.181 46.221A46.2 46.2 0 01100.5 13.6z"/><text font-family="Montserrat-BlackItalic, Montserrat" font-size="20" font-style="italic" font-weight="700" transform="translate(-1 -1)"><tspan x="73.11" y="68">NEW!</tspan></text><path d="M178.859 56.343a13.816 13.816 0 00-9.195-9.195c-4.6-1.533-4.6-3.067 0-4.6a13.82 13.82 0 009.195-9.195c1.533-4.6 3.067-4.6 4.6 0a13.817 13.817 0 009.194 9.195c4.6 1.533 4.6 3.067 0 4.6a13.813 13.813 0 00-9.194 9.195c-1.535 4.597-3.068 4.597-4.6 0zM8.492 76.527a9.3 9.3 0 00-6.185-6.191c-3.093-1.032-3.093-2.065 0-3.1a9.3 9.3 0 006.185-6.191c1.03-3.095 2.062-3.095 3.093 0a9.3 9.3 0 006.185 6.191c3.093 1.031 3.093 2.065 0 3.1a9.3 9.3 0 00-6.185 6.191c-1.03 3.095-2.062 3.095-3.093 0zM180.123 101.2a6.279 6.279 0 00-4.18-4.179c-2.09-.697-2.09-1.393 0-2.09a6.282 6.282 0 004.18-4.18c.696-2.089 1.392-2.089 2.089 0a6.282 6.282 0 004.18 4.18c2.089.697 2.089 1.394 0 2.09a6.279 6.279 0 00-4.18 4.179c-.696 2.087-1.392 2.087-2.089 0zM195.39 17.8a9.3 9.3 0 00-6.185-6.19c-3.093-1.032-3.093-2.065 0-3.1a9.3 9.3 0 006.185-6.191c1.031-3.095 2.062-3.095 3.093 0a9.3 9.3 0 006.185 6.191c3.093 1.032 3.093 2.065 0 3.1a9.293 9.293 0 00-6.185 6.19c-1.03 3.095-2.062 3.095-3.093 0z"/></svg>