<?xml version="1.0" encoding="UTF-8"?>
<svg width="30px" height="30px" viewBox="0 0 30 30" version="1.1" xmlns="http://www.w3.org/2000/svg" xmlns:xlink="http://www.w3.org/1999/xlink">
    <g id="页面1" stroke="none" stroke-width="1" fill="none" fill-rule="evenodd">
        <g id="通知_v4.3.0" transform="translate(-400.000000, -2153.000000)">
            <g id="tranfer" transform="translate(400.000000, 2153.000000)">
                <circle id="椭圆形" fill="#EBE6FF" cx="15" cy="15" r="15"></circle>
                <circle id="椭圆形" fill="#FFFFFF" fill-rule="nonzero" cx="15" cy="15" r="9"></circle>
                <path d="M22.0713281,7.92871094 C23.9598828,9.81730469 25,12.3286328 25,15.0000391 C25,17.6714844 23.9598828,20.1827734 22.0713281,22.0713281 C20.1828125,23.9598828 17.6714844,25 15.0000781,25 C12.3286328,25 9.81726563,23.9598828 7.92871094,22.0713281 C6.04011719,20.1827734 5,17.6714844 5,15.0000391 C5,12.3286328 6.04011719,9.81730469 7.92871094,7.92871094 C9.81726563,6.04011719 12.3286328,5 15.0000781,5 C17.6714844,5 20.1828125,6.04011719 22.0713281,7.92871094 Z M18.3299609,22.8857031 C19.348125,22.4553125 20.2635937,21.8379297 21.0507031,21.0507031 C21.8379688,20.2635547 22.4553125,19.348125 22.8857813,18.3297656 C23.3312891,17.2746094 23.5571875,16.1542969 23.5571875,15.0000391 C23.5571875,13.8458203 23.3312891,12.7254688 22.8857031,11.6701563 C22.4553516,10.6520313 21.8379688,9.73652344 21.0507031,8.94929688 C20.2635156,8.16203125 19.3480859,7.54464844 18.3298047,7.11429688 C17.2747266,6.66875 16.1544141,6.4428125 15.0001172,6.4428125 C13.8457031,6.4428125 12.7253516,6.66875 11.6701953,7.114375 C10.6520703,7.54464844 9.73660156,8.16199219 8.94929688,8.94929688 C8.16199219,9.7365625 7.54464844,10.6520703 7.11433594,11.6703125 C6.66875,12.7253906 6.44277344,13.8457422 6.44277344,15.0000391 C6.44277344,16.154375 6.66875,17.2746875 7.114375,18.3299219 C7.54464844,19.348125 8.16203125,20.2635156 8.94925781,21.050625 C9.7365625,21.8379687 10.6520313,22.4553516 11.6703516,22.8857812 C12.7254687,23.3312891 13.8458203,23.5571875 15.0000781,23.5571875 C16.154375,23.5571875 17.2746094,23.3312891 18.3299609,22.8857031 Z M18.4476172,11.0746484 L20.3417578,12.9687891 C20.6231641,13.2503125 20.6231641,13.7081641 20.3417578,13.9895703 L20.3345312,13.9966797 C20.2525238,14.0754159 20.153339,14.1340148 20.0448047,14.1678516 C19.9539672,14.2077202 19.8558423,14.2282813 19.7566406,14.2282813 L10.2220313,14.2282813 C9.82429688,14.2282813 9.50070313,13.9046875 9.50070313,13.5069531 C9.50070313,13.1091406 9.82429688,12.7854688 10.2220313,12.7854688 L18.1167969,12.7854688 L17.4267578,12.0954688 C17.2908958,11.9604098 17.2147143,11.7766094 17.2151953,11.5850391 C17.2151953,11.3922656 17.2903906,11.2109766 17.4268359,11.0745313 C17.5618967,10.9387385 17.7456651,10.8626149 17.9371875,10.8631225 C18.1299609,10.8631225 18.31125,10.9382422 18.4476172,11.0746484 Z M19.7566016,15.7930859 C20.1544531,15.7930859 20.478125,16.1166797 20.478125,16.5144141 C20.478125,16.9122266 20.1544531,17.2358984 19.7566406,17.2358984 L11.9045312,17.2358984 L12.5732031,17.9045313 C12.7090748,18.0395998 12.785257,18.2234162 12.7847656,18.415 C12.7847656,18.6061328 12.7108594,18.7860156 12.5765625,18.9220313 C12.4426172,19.0596875 12.2557031,19.1385156 12.0628516,19.1385156 C11.8754297,19.1385156 11.6966406,19.0659766 11.5593359,18.9342969 L11.5522656,18.9272656 L9.658125,17.0311328 C9.52236809,16.8960992 9.44625996,16.7123763 9.44675539,16.5208984 C9.44626641,16.3293146 9.52244866,16.1454982 9.65832031,16.0104297 C9.78137312,15.886908 9.9452683,15.8125302 10.1192578,15.80125 C10.1532647,15.7960823 10.1875962,15.793341 10.2219922,15.7930469 L19.7565625,15.7930469 L19.7566016,15.7930859 Z" id="形状" fill="#542DE0" fill-rule="nonzero"></path>
            </g>
        </g>
    </g>
</svg>