<svg width="23" height="20" xmlns="http://www.w3.org/2000/svg"><g><path d="M11.068 2.151v15.055l-4.63-3.858-.421-.352H1.536l.018-6.632 3.88.016.55.002.425-.353 4.659-3.878zm.549-2.137a.971.971 0 00-.62.224L5.439 4.864l-4.43-.018h-.003a.963.963 0 00-.967.965l-.02 7.73a.965.965 0 00.966.97h4.483l5.53 4.608a.965.965 0 001.584-.743V.98a.966.966 0 00-.965-.966zm4.156 4.924a.962.962 0 00-1.275.454.973.973 0 00.442 1.29c.061.031 1.509.784 1.509 2.926 0 2.289-1.354 3.048-1.399 3.072a.967.967 0 00.865 1.73c.1-.05 2.466-1.275 2.466-4.802 0-3.403-2.502-4.62-2.608-4.67z"/><path d="M18.782 2.1a.964.964 0 00-1.328.288.97.97 0 00.28 1.336c.105.07 2.58 1.756 2.58 5.955 0 4.208-2.375 5.896-2.47 5.96a.966.966 0 101.073 1.609c.136-.09 3.33-2.28 3.33-7.57 0-5.3-3.324-7.488-3.465-7.578z"/></g></svg>