<?xml version="1.0" encoding="UTF-8"?>
<svg width="30px" height="30px" viewBox="0 0 30 30" version="1.1" xmlns="http://www.w3.org/2000/svg" xmlns:xlink="http://www.w3.org/1999/xlink">
    <g id="页面1" stroke="none" stroke-width="1" fill="none" fill-rule="evenodd">
        <g id="通知" transform="translate(-400.000000, -934.000000)">
            <g id="follow" transform="translate(400.000000, 934.000000)">
                <circle id="椭圆形" fill="#EBE6FF" cx="15" cy="15" r="15"></circle>
                <path d="M6.5,22.5 L20.3487552,22.5 L21.2025384,21.1228871 C21.6072329,16.8419428 19.5360595,14.7014706 14.9890184,14.7014706 C10.4419772,14.7014706 7.61230445,17.3009804 6.5,22.5 Z" id="路径-3" fill="#FFFFFF"></path>
                <path d="M10,20.1856798 C10.7867237,17.3817978 12.9309783,15.1488794 15.6976446,14.1607843 C14.3172525,13.2823529 13.4388211,11.7764706 13.4388211,10.0196079 C13.4388211,7.25882354 15.6976446,5 18.458429,5 C21.2192133,5 23.4780368,7.25882352 23.4780368,10.0196079 C23.4780368,12.7803922 21.2192133,15.0392157 18.458429,15.0392157 C14.7043303,15.0392157 11.5689955,17.823653 11.0156715,21.4292807" id="路径" fill="#542DE0" fill-rule="nonzero" transform="translate(16.739018, 13.214640) scale(-1, 1) translate(-16.739018, -13.214640) "></path>
                <ellipse id="椭圆形" fill="#FFFFFF" cx="14.5" cy="10" rx="4.5" ry="4"></ellipse>
                <path d="M19.5,16.5 C21.1730744,15.9054946 22.1969394,15.9054946 22.571595,16.5 C23.1335784,17.3917581 24.2140016,19.2449549 23.67379,19.7838235 C23.313649,20.1430693 21.9223856,21.4855089 19.5,23.8111425 L15,18.9279844 C15.1883805,17.0477934 15.8276734,16.1076978 16.9178785,16.1076978 C18.0080837,16.1076978 18.8687908,16.2384652 19.5,16.5 Z" id="路径-2" fill="#F7B500"></path>
                <path d="M12.0276961,14.1681372 C10.6473039,13.2897059 9.76887254,11.7838235 9.76887254,10.0269608 C9.76887254,7.26617648 12.0276961,5.00735294 14.7884804,5.00735294 C17.5492647,5.00735294 19.8080882,7.26617646 19.8080882,10.0269608 C19.8080882,12.7877451 17.5492647,15.0465686 14.7884804,15.0465686 C10.6473039,15.0465686 7.25906863,18.4348039 7.25906863,22.5759804 C7.25906863,22.952451 7.00808823,23.2034314 6.63161765,23.2034314 C6.25514706,23.2034314 6.00416667,22.952451 6.00416667,22.5759804 C6.00416667,18.6857843 8.51397058,15.4230392 12.0276961,14.1681372 Z M6.5,22.2 L18.5,22.2 C18.7761424,22.2 19,22.4238576 19,22.7 C19,22.9761424 18.7761424,23.2 18.5,23.2 L6.5,23.2 C6.22385763,23.2 6,22.9761424 6,22.7 C6,22.4238576 6.22385763,22.2 6.5,22.2 Z M14.7884804,13.7916667 C16.9218137,13.7916667 18.5531863,12.1602941 18.5531863,10.0269608 C18.5531863,7.89362746 16.9218137,6.2622549 14.7884804,6.2622549 C12.6551471,6.2622549 11.0237745,7.89362744 11.0237745,10.0269608 C11.0237745,12.1602941 12.655147,13.7916667 14.7884804,13.7916667 L14.7884804,13.7916667 Z M22.5688725,19.8151961 C23.3218137,19.0622549 23.3218137,17.9328431 22.5688725,17.179902 C21.8159314,16.4269608 20.6865196,16.4269608 19.9335784,17.179902 C19.682598,17.4308824 19.3061275,17.4308824 19.0551471,17.179902 C18.3022059,16.4269608 17.1727941,16.4269608 16.4198529,17.179902 C15.6669118,17.9328431 15.6669118,19.0622549 16.4198529,19.8151961 L19.5571078,22.952451 L22.5688725,19.8151961 Z M23.4473039,16.3014706 C24.7022059,17.5563725 24.7022059,19.5642157 23.4473039,20.6936275 L19.9335784,24.2073529 C19.682598,24.4583333 19.3061275,24.4583333 19.0551471,24.2073529 L15.5414216,20.6936275 C14.2865196,19.4387255 14.2865196,17.4308824 15.5414216,16.3014706 C16.6708333,15.1720588 18.3022059,15.0465686 19.5571078,15.925 C20.6865196,15.0465686 22.4433823,15.1720588 23.4473039,16.3014706 Z" id="形状" fill="#542DE0" fill-rule="nonzero"></path>
            </g>
        </g>
    </g>
</svg>