<?xml version="1.0" encoding="UTF-8"?>
<svg width="30px" height="30px" viewBox="0 0 30 30" version="1.1" xmlns="http://www.w3.org/2000/svg" xmlns:xlink="http://www.w3.org/1999/xlink">
    <title>recommend</title>
    <g id="页面1" stroke="none" stroke-width="1" fill="none" fill-rule="evenodd">
        <g id="通知" transform="translate(-400.000000, -721.000000)">
            <g id="recommend" transform="translate(400.000000, 721.000000)">
                <circle id="椭圆形" fill="#EBE6FF" cx="15" cy="15" r="15"></circle>
                <path d="M5.8948147,12.5415448 C10.0352631,12.5880171 12.3600476,11.9235736 12.8691681,10.5482143 C13.164171,9.75128119 13.8733426,8.90945702 14.1436288,7.94452525 C14.5730387,6.41151606 14.6598677,4.85561751 16.0141654,4.85561751 C17.4853267,4.85561751 18.1756596,6.13698513 18.085164,8.69972036 L17.0105629,11.6909087 L24.0618665,11.6909087 L24.7910178,13.8559259 L22.2961221,22.4800003 L5.8948147,22.8560473 L5.8948147,12.5415448 Z" id="路径-52" fill="#FFFFFF"></path>
                <rect id="矩形" fill="#F7B500" x="6" y="13" width="3" height="10"></rect>
                <path d="M25.1637037,12.067037 C24.7162963,11.347037 23.9414815,10.8981481 23.1459259,10.8744444 L18.2140741,10.8507407 C18.542963,9.90111111 18.7088889,8.91148148 18.7088889,7.91 C18.7088889,7.41222222 18.6659259,6.90259259 18.5711111,6.35296296 L18.4792593,5.95592593 C18.217037,4.81814815 17.2185185,4.02111111 16.0481481,4.02111111 C14.6718519,4.02111111 13.5518519,5.14111111 13.5518519,6.51888889 C13.5518519,6.59888889 13.5548148,6.67740741 13.5622222,6.74259259 C13.4940741,9.18555556 10.5533333,11.707037 9.55333333,11.707037 C9.55333333,11.707037 9.55333333,11.707037 9.55185185,11.707037 L5.88814815,11.7085185 C5.40962963,11.7085185 5.02,12.0996296 5.02,12.5781481 L5.01111111,22.83 C5.01111111,23.3159259 5.43185185,23.67 5.95925926,23.6848148 L9.13555556,23.6788889 L9.25703704,23.7011111 L9.3637037,23.6862963 L21.4525926,23.6907407 C21.8777778,23.6611111 22.2881481,23.5292593 22.6437037,23.3025926 C23.0288889,23.0551852 23.34,22.707037 23.4807407,22.4003704 L23.6288889,22.1544444 C24.4614815,20.1722222 25.4777778,14.0996296 25.5192593,13.8433333 L25.5355556,13.5974074 C25.577037,13.0522222 25.4481481,12.5233333 25.1637037,12.067037 Z M6.50148148,13.1974074 L8.47777778,13.1944444 L8.47777778,22.2062963 L6.49407407,22.2122222 L6.50148148,13.1974074 Z M22.3088889,21.4907407 L22.2155556,21.6388889 C22.1311111,21.8092593 22.0022222,21.952963 21.8451852,22.0537037 C21.7014815,22.1455556 21.5311111,22.2003704 21.4022222,22.2092593 L9.95925926,22.2048148 L9.95925926,13.1159259 C11.9133333,12.7351852 14.9592593,9.74851852 15.0422222,6.67 L15.0333333,6.51888889 C15.0333333,5.95888889 15.4881481,5.50259259 16.0481481,5.50259259 C16.5237037,5.50259259 16.9296296,5.82555556 17.0362963,6.28925926 L17.1192593,6.64185185 C17.1918519,7.06703704 17.2274074,7.49222222 17.2274074,7.90703704 C17.2274074,8.74851852 17.0866667,9.57962963 16.8081481,10.3751852 L16.1266667,12.3292593 L22.8733333,12.3307407 L23.0333333,12.347037 C23.3918519,12.3603704 23.7177778,12.5485185 23.9059259,12.8507407 C24.022963,13.0388889 24.0762963,13.2581481 24.0585185,13.6003704 C24.0481481,13.6596296 23.0288889,19.7559259 22.3088889,21.4907407 Z" id="形状" fill="#542DE0" fill-rule="nonzero"></path>
            </g>
        </g>
    </g>
</svg>