<?xml version="1.0" encoding="UTF-8"?>
<svg width="30px" height="30px" viewBox="0 0 30 30" version="1.1" xmlns="http://www.w3.org/2000/svg" xmlns:xlink="http://www.w3.org/1999/xlink">
    <g id="页面1" stroke="none" stroke-width="1" fill="none" fill-rule="evenodd">
        <g id="通知_v4.3.0" transform="translate(-400.000000, -1212.000000)">
            <g id="reward" transform="translate(400.000000, 1212.000000)">
                <circle id="椭圆形" fill="#EBE6FF" cx="15" cy="15" r="15"></circle>
                <path d="M9.42552842,7.49953898 L13.1402886,6.69080907 C14.2024472,5.95266347 14.9463461,5.58359066 15.3719853,5.58359066 C15.7976245,5.58359066 16.5473069,5.95266347 17.6210325,6.69080907 C19.2083598,6.46675751 20.3274311,6.73633415 20.9782466,7.49953898 C21.6290621,8.26274381 21.3799325,9.27881524 20.2308579,10.5477533 C22.828939,12.6084224 24.1279796,14.7395151 24.1279796,16.9410314 C24.1279796,20.243306 20.4973444,25.1992997 14.9973444,24.5478867 C9.49734437,23.8964737 6.63366773,21.5488114 6.63366773,16.9410314 C6.63366773,13.8691782 7.89856309,11.7380854 10.4283538,10.5477533 L9.42552842,7.49953898 Z" id="路径-4" fill="#FFFFFF"></path>
                <path d="M22.3190463,11.5815447 C21.9416817,11.1927251 21.5389589,10.8293469 21.1135262,10.4937998 C21.6499779,10.0021123 21.9544698,9.34956113 21.9544698,8.64434622 C21.9544698,7.13624917 20.5248896,5.91157863 18.7675975,5.91157863 C18.400356,5.90877173 18.0356935,5.97310484 17.6915822,6.10140734 C17.6676441,6.10954628 17.6422698,6.11768521 17.6183318,6.12534538 C17.4966291,5.98861318 17.3654428,5.86062664 17.2257478,5.74233661 C16.7053346,5.30355218 16.1269913,5.05339958 15.5069959,5.00011154 C15.4617046,4.99917939 15.4164694,5.00408926 15.3724641,5.01485933 C15.3283753,5.00410133 15.2830626,4.99919179 15.2376929,5.00011154 C14.6176974,5.05292083 14.0393542,5.30307343 13.5163078,5.74401228 C13.3774602,5.86233233 13.2471518,5.99032101 13.126357,6.12702105 C13.1100791,6.12151531 13.0938012,6.11553079 13.0784809,6.11074318 C12.7267453,5.97748561 12.3534572,5.9102126 11.9773307,5.91229675 C10.2200385,5.91229675 8.79045828,7.13768544 8.7904583,8.64506435 C8.7904583,9.35027925 9.09495027,10.0028304 9.63140193,10.4949967 C9.20604054,10.8295932 8.80339256,11.1920963 8.42612119,11.5801085 C6.81604807,13.2318338 6,15.0243149 6,16.9060848 C6,21.8224812 9.61009707,24.999539 15.1977163,24.999539 L15.3083101,24.9978633 C15.3147734,24.9978633 15.3652827,24.999539 15.3724641,24.999539 L15.4825791,24.9978633 C15.4895211,24.9978633 15.5400304,24.999539 15.5469724,24.999539 C21.1345917,24.999539 24.7446887,21.8224812 24.7446887,16.9060848 C24.7446887,15.0243149 23.9286407,13.2318338 22.3190463,11.5815447 Z M15.525907,23.8857016 L15.395684,23.8857016 L15.395684,23.8964737 C15.3880238,23.8964737 15.3808424,23.8916861 15.3729428,23.8912073 L15.3729428,23.8861803 C15.3691128,23.8861803 15.3657614,23.8885742 15.3614526,23.8885742 C15.3571437,23.8885742 15.3537924,23.8857016 15.3494835,23.8857016 C15.3451747,23.8857016 15.2927504,23.8842653 15.2850902,23.8842653 L15.1977163,23.8864197 C11.2893512,23.8864197 7.11287986,22.0527652 7.11287986,16.9058455 C7.11287986,15.3242586 7.82288238,13.7938992 9.2232582,12.3576163 C9.6731307,11.893376 10.1631318,11.4697818 10.6875486,11.0917723 C10.7552933,11.0403055 10.8165747,10.9960201 10.8773773,10.9577192 C11.0507342,10.8531612 11.1535709,10.6626512 11.1458552,10.4603508 C11.1381395,10.2580505 11.0210906,10.0759268 10.8402734,9.98487693 C10.2533124,9.68972079 9.90333816,9.18797929 9.90333816,8.64434622 C9.90333816,7.75073888 10.8338101,7.02374034 11.9773307,7.02374034 C12.225936,7.02232355 12.4725787,7.06780261 12.7043292,7.15779341 C12.7722765,7.17900668 12.8375114,7.20808925 12.8987062,7.24444915 C12.9203184,7.2582491 12.943156,7.27002853 12.9669296,7.27963808 C13.2343176,7.39932831 13.6099056,7.30142171 13.8035644,7.06754697 C13.8159354,7.05229741 13.827367,7.03630916 13.8377958,7.01967087 C13.8875869,6.94474478 14.0053621,6.78962622 14.2366037,6.59213734 C14.578439,6.30488075 14.9466062,6.14138388 15.3324875,6.10834937 C15.3460989,6.10508792 15.3595238,6.1010924 15.3727034,6.09638034 C15.3858015,6.10109352 15.3991469,6.10508912 15.41268,6.10834937 C15.7985613,6.14138388 16.1669679,6.30464136 16.5059306,6.5899829 C16.7393266,6.78962622 16.8575806,6.94474478 16.9073717,7.02086779 C16.9178005,7.03750608 16.9292321,7.05349432 16.9416031,7.06874388 C17.1357407,7.30261861 17.5106105,7.39932833 17.7794348,7.28083499 C17.8031851,7.2711748 17.8260183,7.25939769 17.8476583,7.24564605 C17.9166652,7.20542215 17.9900817,7.17329241 18.066452,7.14989386 C18.2908621,7.06497684 18.5291045,7.02252344 18.7690337,7.02469786 C19.9125543,7.02469786 20.8430262,7.7516964 20.8430262,8.64530374 C20.8430262,9.18893683 20.493052,9.69067831 19.906091,9.98583445 C19.7255588,10.0767174 19.6085543,10.2583998 19.6004959,10.4603568 C19.5924376,10.6623139 19.6945943,10.8527411 19.8673114,10.9577192 C19.9381069,11.0027975 20.0065031,11.0515378 20.0722211,11.1037413 C20.5914978,11.4782873 21.0766185,11.8980417 21.5219093,12.358095 C22.9218064,13.7943779 23.6320483,15.3247374 23.6320483,16.9063242 C23.6320483,22.0520471 19.4579708,23.8861803 15.525907,23.8861803 L15.525907,23.8857016 Z" id="形状" fill="#542DE0" fill-rule="nonzero"></path>
                <path d="M18.4815378,15.3776404 L16.7156279,15.3776404 L18.2299489,13.8628408 C18.3725713,13.7227118 18.4290267,13.516825 18.3778259,13.3235487 C18.3266252,13.1302723 18.1756443,12.9793373 17.9823523,12.9281954 C17.7890604,12.8770534 17.5831908,12.9335714 17.4431053,13.0762365 L15.3724641,15.1468777 L13.3003866,13.0762365 C13.0819763,12.8662305 12.7356715,12.869627 12.5214222,13.0838763 C12.3071728,13.2981257 12.3037764,13.6444304 12.5137823,13.8628408 L14.0290608,15.3776404 L12.2624328,15.3776404 C11.9551856,15.3776404 11.7061126,15.6267135 11.7061126,15.9339607 C11.7061126,16.2412079 11.9551856,16.4902809 12.2624328,16.4902809 L14.8156651,16.4902809 L14.8156651,17.5354161 L12.9559181,17.5354161 C12.6486709,17.5354161 12.3995978,17.7844892 12.3995978,18.0917364 C12.3995978,18.3989836 12.6486709,18.6480566 12.9559181,18.6480566 L14.8156651,18.6480566 L14.8156651,20.4271324 C14.8219475,20.7300798 15.0693318,20.9723871 15.3723444,20.9723871 C15.675357,20.9723871 15.9227413,20.7300798 15.9290237,20.4271324 L15.9290237,18.6480566 L17.7892494,18.6480566 C18.0964966,18.6480566 18.3455697,18.3989836 18.3455697,18.0917364 C18.3455697,17.7844892 18.0964966,17.5354161 17.7892494,17.5354161 L15.9290237,17.5354161 L15.9290237,16.4902809 L18.4815378,16.4902809 C18.788785,16.4902809 19.037858,16.2412079 19.037858,15.9339607 C19.037858,15.6267135 18.788785,15.3776404 18.4815378,15.3776404 L18.4815378,15.3776404 Z" id="路径" fill="#542DE0" fill-rule="nonzero"></path>
            </g>
        </g>
    </g>
</svg>