<?xml version="1.0" encoding="UTF-8"?>
<svg width="30px" height="30px" viewBox="0 0 30 30" version="1.1" xmlns="http://www.w3.org/2000/svg" xmlns:xlink="http://www.w3.org/1999/xlink">
    <g id="页面1" stroke="none" stroke-width="1" fill="none" fill-rule="evenodd">
        <g id="通知_v4.6.0" transform="translate(-400.000000, -2945.000000)">
            <g id="tranfer备份" transform="translate(400.000000, 2945.000000)">
                <circle id="椭圆形" fill="#EBE6FF" cx="15" cy="15" r="15"></circle>
                <g id="编组-3" transform="translate(4.020381, 6.011319)">
                    <polygon id="路径-10" fill="#FFFFFF" points="7.82184065 0.901918677 11.4339871 4.13475717 14.8462876 1.85701819 20.8261142 8.23947858 10.757662 19.0391429 0.966138429 8.23947858"></polygon>
                    <path d="M20.9124157,6.87396293 L16.0766894,1.68327865 C15.7060966,1.2729355 15.1790452,1.03875149 14.6261252,1.03875149 C14.0732052,1.03875149 13.5461538,1.2729355 13.175561,1.68327865 L11.7234601,3.24294251 L9.30636531,0.644527157 C8.9357725,0.23418401 8.40872109,-4.51194637e-12 7.85580108,-4.51194637e-12 C7.30288108,-4.51194637e-12 6.77582967,0.23418401 6.40523686,0.644527157 L0.599906714,6.87549953 C-0.200557006,7.75909184 -0.199892253,9.10587912 0.601443331,9.98868081 L9.30636531,19.3312979 C10.1069415,20.1918021 11.4069175,20.1918021 12.2074938,19.3312979 L19.4603149,11.5452714 L20.9139523,9.98868081 C21.7157812,9.10525399 21.7157812,7.75738976 20.9139523,6.87396293 L20.9124157,6.87396293 Z M17.0416834,12.1399413 L16.5591864,12.6577805 L15.5911192,11.6205656 C15.4675706,11.4834417 15.2916587,11.4051554 15.1070856,11.4051554 C14.9225125,11.4051554 14.7466006,11.4834417 14.623052,11.6205656 C14.3566333,11.9149797 14.3566333,12.3633663 14.623052,12.6577805 L15.5911192,13.6965319 L14.623052,14.7337468 L12.6899907,12.6593171 C12.5664421,12.5221932 12.3905302,12.4439069 12.2059571,12.4439069 C12.0213841,12.4439069 11.8454721,12.5221932 11.7219235,12.6593171 C11.4555049,12.9537312 11.4555049,13.4021178 11.7219235,13.6965319 L13.658058,15.7724983 L12.6899907,16.8112498 L9.7888623,13.6949953 C9.66531368,13.5578715 9.48940175,13.4795851 9.30482869,13.4795851 C9.12025563,13.4795851 8.9443437,13.5578715 8.82079508,13.6949953 C8.55437643,13.9894095 8.55437643,14.4377961 8.82079508,14.7322102 L11.7219235,17.8469281 L11.2394265,18.3663039 C11.1158779,18.5034277 10.939966,18.5817141 10.7553929,18.5817141 C10.5708199,18.5817141 10.3949079,18.5034277 10.2713593,18.3663039 L1.56797394,9.02368682 C1.30062705,8.72904228 1.30062705,8.27957985 1.56797394,7.98493531 L7.37023085,1.75703615 C7.49377948,1.61991229 7.66969141,1.54162594 7.85426447,1.54162594 C8.03883753,1.54162594 8.21474945,1.61991229 8.33829808,1.75703615 L10.7569295,4.35237829 L9.7888623,5.38959319 C8.98703342,6.27302001 8.98703342,7.62088424 9.7888623,8.50431106 L10.7569295,9.54306256 C11.5575058,10.4035668 12.8574818,10.4035668 13.658058,9.54306256 L14.6261252,8.50431106 L17.0432201,11.0996532 C17.3105669,11.3942977 17.3105669,11.8437602 17.0432201,12.1384047 L17.0416834,12.1399413 Z M19.9428119,9.02522344 L18.4922477,10.5818141 L17.0416834,9.02522344 L15.1086222,6.94618382 C14.9851003,6.80957391 14.8095305,6.73162483 14.6253569,6.73162483 C14.4411833,6.73162483 14.2656135,6.80957391 14.1420916,6.94618382 L13.658058,7.46402296 L12.6899907,8.50277445 C12.5664689,8.63938436 12.3908991,8.71733343 12.2067254,8.71733343 C12.0225518,8.71733343 11.846982,8.63938436 11.7234601,8.50277445 L10.7569295,7.46555957 C10.4905109,7.17114542 10.4905109,6.72275883 10.7569295,6.42834468 L11.7249968,5.38959319 L14.1420916,2.79425104 C14.2656402,2.65712719 14.4415521,2.57884084 14.6261252,2.57884084 C14.8106983,2.57884084 14.9866102,2.65712719 15.1101588,2.79425104 L16.0766894,3.83300254 L19.9443485,7.98493531 C20.2116954,8.27957985 20.2116954,8.72904228 19.9443485,9.02368682 L19.9428119,9.02522344 Z" id="形状" fill="#542DE0" fill-rule="nonzero"></path>
                </g>
            </g>
        </g>
    </g>
</svg>