<?xml version="1.0" encoding="UTF-8"?>
<svg width="30px" height="30px" viewBox="0 0 30 30" version="1.1" xmlns="http://www.w3.org/2000/svg" xmlns:xlink="http://www.w3.org/1999/xlink">
    <g id="页面1" stroke="none" stroke-width="1" fill="none" fill-rule="evenodd">
        <g id="通知_v4.3.0" transform="translate(-400.000000, -2598.000000)">
            <g id="jingxuan" transform="translate(400.000000, 2598.000000)">
                <circle id="椭圆形" fill="#EBE6FF" cx="15" cy="15" r="15"></circle>
                <polygon id="路径-7" fill="#FFFFFF" points="9.5 7.5 20.79507 7.86770153 24.3831443 15 15.0002787 25.1746822 5.84476025 14.607324"></polygon>
                <path d="M13.8732814,24.2136972 C14.1502738,24.551863 14.5638182,24.7478668 15.0003153,24.7478668 C15.4368124,24.7478668 15.8503568,24.551863 16.1273492,24.2136972 L23.4186957,15.3061362 C23.7939091,14.8488098 23.8568376,14.2097561 23.5780637,13.6877187 L21.0865064,9.0256322 C20.8326895,8.55059305 20.3387311,8.25401252 19.8011462,8.25401252 L10.1984428,8.25401252 C9.660634,8.25426899 9.16662095,8.55123322 8.91308254,9.02667635 L6.4225669,13.6877187 C6.1439729,14.2092855 6.20647375,14.847759 6.58089329,15.3050921 L13.8722398,24.2116089 L13.8732814,24.2136972 Z M12.9066572,25.0072439 L5.61531066,16.100727 C4.91958799,15.2514909 4.80321596,14.0655822 5.32053195,13.0967353 L7.81313084,8.43360464 C8.2842199,7.55139407 9.20125155,7.00048626 10.1994844,7 L19.8011462,7 C20.799379,7.00048626 21.7164107,7.55139407 22.1874998,8.43360464 L24.679057,13.0967353 C25.1966628,14.065376 25.0807034,15.2512696 24.3853199,16.100727 L17.0929318,25.0072439 C16.5785261,25.6356992 15.8102396,26 14.9992737,26 C14.1883078,26 13.4200212,25.6356992 12.9056156,25.0072439 L12.9066572,25.0072439 Z" id="形状" fill="#542DE0" fill-rule="nonzero"></path>
                <path d="M17.4525045,13.2938096 C17.6465154,12.98959 18.0119019,12.9293512 18.268618,13.1592625 C18.5253342,13.3891738 18.5761668,13.8221725 18.3821558,14.1263922 L15.4515222,18.7262957 C15.340953,18.8994974 15.1680223,19.0008989 14.9847556,19 C14.801489,18.9990891 14.6292774,18.8959834 14.51993,18.7216958 L11.6281126,14.1217923 C11.4947767,13.9248565 11.4628601,13.6573424 11.5448985,13.4243211 C11.626937,13.1912998 11.8098274,13.0299891 12.0217362,13.0037468 C12.2336451,12.9775045 12.4407266,13.090522 12.5616456,13.2984095 L14.9896077,17.1600286 L17.4525045,13.2938096 Z" id="路径" fill="#542DE0" fill-rule="nonzero"></path>
            </g>
        </g>
    </g>
</svg>