<?xml version="1.0" encoding="UTF-8"?>
<svg width="30px" height="30px" viewBox="0 0 30 30" version="1.1" xmlns="http://www.w3.org/2000/svg" xmlns:xlink="http://www.w3.org/1999/xlink">
    <g id="页面1" stroke="none" stroke-width="1" fill="none" fill-rule="evenodd">
        <g id="通知" transform="translate(-400.000000, -511.000000)">
            <g id="huifu" transform="translate(400.000000, 511.000000)">
                <circle id="椭圆形" fill="#EBE6FF" cx="15" cy="15" r="15"></circle>
                <g id="编组-2" transform="translate(5.000000, 5.000000)" fill-rule="nonzero">
                    <path d="M8.35839491,0 C11.1674877,0 13.7915151,1.86517306 16.2304774,5.59551918 C19.0006852,6.98209195 20.2440317,8.5326662 19.9605167,10.2472419 C19.6770017,11.9618177 18.7616566,14.2219309 17.2144813,17.0275818 L16.7680779,20 L13.0675894,17.9326587 C9.21339852,17.9326587 6.75338025,17.2210466 5.6875346,15.7978224 C4.62168894,14.3745981 3.9188278,14.7845179 3.57895118,17.0275818 L3.57895118,13.9130996 C1.19298373,11.7404474 0,9.64084034 0,7.61427859 C0,4.57443598 4.14475579,0 8.35839491,0 Z" id="路径-5" fill="#FFFFFF"></path>
                    <path d="M17.5460748,17.0819211 L17.5460748,21 L13.6738464,18.6159755 C13.1368762,18.7036682 12.5857327,18.7549297 12.0197337,18.7549297 C9.35979363,18.7549297 6.97710539,17.7369765 5.33274481,16.1294027 C5.60360474,16.1449151 5.87277196,16.164495 6.14800266,16.164495 C6.53386627,16.164495 6.80790417,15.64368 7.18431887,15.6133374 C8.48258204,16.5071666 9.76838256,17.5460787 12.0197084,17.5460787 C12.6362868,17.5460787 13.2326537,17.4759194 13.8073941,17.3558377 L15.1525481,18.2530776 L16.1644895,18.9276371 L16.1644895,17.8638038 L16.1644895,16.480199 C18.2422361,15.309093 19.61844,13.2866526 19.61844,10.9835752 C19.61844,9.52710779 19.0122179,7.71432267 17.7686967,6.96131679 C17.8300893,6.53631906 17.5460748,6.23626134 17.5460748,5.79673658 C17.5460748,5.59570776 17.3273747,5.19119914 17.3138583,4.99320206 C19.7925867,6.26521617 21,8.6558397 21,10.8971962 C21,13.4114334 19.6454224,15.6436947 17.5460748,17.0819211 Z M8.98026632,15.715467 C8.41429259,15.715467 7.86279539,15.6642056 7.32615366,15.5764876 L3.45395053,17.9605121 L3.45395053,14.0431407 C1.35460287,12.6042321 0,10.3719708 0,7.85773352 C0,3.51804236 4.02063167,0 8.98026632,0 C13.9399515,0 17.9605326,3.51804236 17.9605326,7.85773352 C17.9605326,12.1974247 13.9399515,15.715467 8.98026632,15.715467 Z M8.98026632,1.3815837 C4.78359214,1.3815837 1.38156,4.32016179 1.38156,7.94408725 C1.38156,10.2468362 2.75776394,12.2689482 4.83551053,13.4407111 L4.83551053,14.8243159 L4.83551053,15.8881492 L5.85144372,15.2155856 C5.84975101,15.2149288 5.84841199,15.2142214 5.84707298,15.2135645 L7.19290909,14.3163499 C7.76732113,14.4364316 8.36366269,14.5065655 8.98026635,14.5065655 C13.1769405,14.5065655 16.5789727,11.5686949 16.5789727,7.94406199 C16.5789727,4.32013654 13.1769405,1.3815837 8.98026632,1.3815837 Z M13.4704121,8.98028132 C12.8983497,8.98028132 12.4342169,8.51650273 12.4342169,7.94408725 C12.4342169,7.37202546 12.8983497,6.90789318 13.4704121,6.90789318 C14.0424999,6.90789318 14.5066074,7.37202546 14.5066074,7.94408725 C14.5065821,8.51647747 14.0424746,8.98028132 13.4704121,8.98028132 Z M9.32565634,8.98028132 C8.75326546,8.98028132 8.28946108,8.51650273 8.28946108,7.94408725 C8.28946108,7.37202546 8.7532402,6.90789318 9.32565634,6.90789318 C9.89807248,6.90789318 10.3618516,7.37202546 10.3618516,7.94408725 C10.3618516,8.51647747 9.89807248,8.98028132 9.32565634,8.98028132 Z M5.1809258,8.98028132 C4.60853492,8.98028132 4.14475579,8.51650273 4.14475579,7.94408725 C4.14475579,7.37202546 4.60853492,6.90789318 5.1809258,6.90789318 C5.75331669,6.90789318 6.21712106,7.37202546 6.21712106,7.94408725 C6.21709581,8.51647747 5.75331669,8.98028132 5.1809258,8.98028132 Z" id="形状" fill="#542DE0"></path>
                </g>
            </g>
        </g>
    </g>
</svg>