<?xml version="1.0" encoding="UTF-8"?>
<svg width="30px" height="30px" viewBox="0 0 30 30" version="1.1" xmlns="http://www.w3.org/2000/svg" xmlns:xlink="http://www.w3.org/1999/xlink">
    <title>comment</title>
    <g id="页面1" stroke="none" stroke-width="1" fill="none" fill-rule="evenodd">
        <g id="通知" transform="translate(-400.000000, -169.000000)">
            <g id="comment" transform="translate(400.000000, 169.000000)">
                <circle id="椭圆形" fill="#EBE6FF" cx="15" cy="15" r="15"></circle>
                <polygon id="路径-49" fill="#FFFFFF" points="5.99739304 22.6994811 5.99739304 8.04529638 23.6042193 8.04529638 23.6042193 22.6994811 18.0150294 23.0604517 14.5594913 26 11.1670766 23.0604517"></polygon>
                <path d="M14.7980087,26.6169913 C14.1509157,26.6169913 13.5428924,26.3649346 13.0854578,25.9074782 L10.7889535,23.610952 L6.76095203,23.610952 C5.79007267,23.610952 5,22.8208576 5,21.8499782 L5,8.76860465 C5,7.79772529 5.79007267,7.00765262 6.76095203,7.00765262 L22.8611192,7.00765262 C23.8319985,7.00765262 24.622093,7.79772529 24.622093,8.76860465 L24.622093,21.8499782 C24.622093,22.8208576 23.8320203,23.610952 22.8611192,23.610952 L18.8070858,23.610952 L16.5105814,25.9074782 C16.0531468,26.3649346 15.4451235,26.6169913 14.7980087,26.6169913 Z M6.76095203,8.51704942 C6.62215843,8.51704942 6.5093968,8.62981105 6.5093968,8.76860465 L6.5093968,21.8499782 C6.5093968,21.9887936 6.62215843,22.1015552 6.76095203,22.1015552 L11.4986846,22.1015552 L11.7981613,22.4857776 L14.1526599,24.840298 C14.4975727,25.1847093 15.0984884,25.1847093 15.4434012,24.840298 L17.8708721,22.3914608 L18.0973765,22.1015552 L22.8611192,22.1015552 C22.9999346,22.1015552 23.1126962,21.9887936 23.1126962,21.8499782 L23.1126962,8.76860465 C23.1126962,8.62981105 22.9999346,8.51704942 22.8611192,8.51704942 L6.76095203,8.51704942 Z" id="形状" fill="#542DE0" fill-rule="nonzero"></path>
                <path d="M18.8360828,13.8775436 L10.2828779,13.8775436 C9.86597384,13.8775436 9.52819041,13.5397384 9.52819041,13.1228561 C9.52819041,12.705952 9.86599564,12.3681468 10.2828779,12.3681468 L18.8361047,12.3681468 C19.2530087,12.3681468 19.5907922,12.705952 19.5907922,13.1228561 C19.5907922,13.5397602 19.2529869,13.8775436 18.8360828,13.8775436 Z M15.817311,18.0765189 L10.2828779,18.0765189 C9.86597384,18.0765189 9.52819041,17.7387137 9.52819041,17.3218314 C9.52819041,16.9049491 9.86599564,16.5671439 10.2828779,16.5671439 L15.8173328,16.5671439 C16.2342151,16.5671439 16.5720203,16.9049491 16.5720203,17.3218314 C16.5720203,17.7387137 16.2341933,18.0765189 15.817311,18.0765189 Z" id="形状" fill="#542DE0" fill-rule="nonzero"></path>
            </g>
        </g>
    </g>
</svg>