<svg width="20" height="20" xmlns="http://www.w3.org/2000/svg"><g><path d="M9.727 7.222c2.386 0 4.6-.428 6.181-1.15 1.284-.587 1.874-1.226 1.874-1.628 0-.401-.591-1.04-1.874-1.626-1.58-.724-3.795-1.151-6.181-1.151-2.387 0-4.602.427-6.182 1.15-1.283.587-1.874 1.226-1.874 1.627 0 .402.591 1.041 1.874 1.627 1.58.723 3.795 1.151 6.182 1.151zm0 1.667c-5.37 0-9.723-1.99-9.723-4.445C.004 1.99 4.357 0 9.727 0c5.369 0 9.722 1.99 9.722 4.444 0 2.455-4.353 4.445-9.722 4.445zM17.782 10h1.667c0 2.454-4.353 4.444-9.722 4.444-5.37 0-9.723-1.99-9.723-4.444h1.667c0 .402.591 1.04 1.874 1.627 1.58.723 3.795 1.15 6.182 1.15 2.386 0 4.6-.427 6.181-1.15 1.284-.586 1.874-1.225 1.874-1.627zm0 0h1.667c0 2.454-4.353 4.444-9.722 4.444-5.37 0-9.723-1.99-9.723-4.444h1.667c0 .402.591 1.04 1.874 1.627 1.58.723 3.795 1.15 6.182 1.15 2.386 0 4.6-.427 6.181-1.15 1.284-.586 1.874-1.225 1.874-1.627zm0 5.556h1.667c0 2.454-4.353 4.444-9.722 4.444-5.37 0-9.723-1.99-9.723-4.444h1.667c0 .401.591 1.04 1.874 1.626 1.58.724 3.795 1.151 6.182 1.151 2.386 0 4.6-.427 6.181-1.15 1.284-.587 1.874-1.226 1.874-1.627zm0 0h1.667c0 2.454-4.353 4.444-9.722 4.444-5.37 0-9.723-1.99-9.723-4.444h1.667c0 .401.591 1.04 1.874 1.626 1.58.724 3.795 1.151 6.182 1.151 2.386 0 4.6-.427 6.181-1.15 1.284-.587 1.874-1.226 1.874-1.627z"/><path d="M.004 4.444h1.667v11.112H.004V4.444zm17.778 0h1.667v11.112h-1.667V4.444z"/></g></svg>