<?xml version="1.0" encoding="UTF-8"?>
<svg width="70px" height="70px" viewBox="0 0 70 70" version="1.1" xmlns="http://www.w3.org/2000/svg" xmlns:xlink="http://www.w3.org/1999/xlink">
    <!-- Generator: Sketch 55.1 (78136) - https://sketchapp.com -->
    <title>qq</title>
    <desc>Created with Sketch.</desc>
    <g id="页面1" stroke="none" stroke-width="1" fill="none" fill-rule="evenodd">
        <g id="分享_v2.6.0" transform="translate(-760.000000, -475.000000)">
            <g id="qq" transform="translate(760.000000, 475.000000)">
                <circle id="椭圆形" fill="#FFFFFF" cx="35" cy="35" r="35"></circle>
                <g transform="translate(20.000000, 20.000000)" fill="#4CAFE9" fill-rule="nonzero" id="路径">
                    <path d="M1.04374266,18.4567392 C-0.114807406,21.2931462 -0.31455525,23.969805 0.604278625,24.4491749 C1.2434905,24.8087335 2.28216684,24.0097421 3.24096906,22.5715388 C3.60049644,24.1695216 4.55929866,25.5677566 5.87762825,26.7263067 C4.47939328,27.2456761 3.56055937,28.1245416 3.56055937,29.0833438 C3.56055937,30.6813267 6.03740778,31.9996563 9.07362516,31.9996563 C11.8301268,31.9996563 14.1072586,30.9609799 14.5466914,29.5627137 L15.1859032,29.5627137 C15.6253048,30.9609799 17.9024678,31.9996563 20.6589695,31.9996563 C23.7351239,31.9996563 26.1720353,30.7212637 26.1720352,29.0833438 C26.1720352,28.1245417 25.2532013,27.2456448 23.8549664,26.7263067 C25.173296,25.5677566 26.1320982,24.1695216 26.4916568,22.5715388 C27.4504277,24.0097421 28.449167,24.8087022 29.128316,24.4491749 C30.0871182,23.969805 29.8873703,21.2532092 28.6888832,18.4567392 C27.7700181,16.2595128 26.5315939,14.6215617 25.5727917,14.2620343 C25.5727917,14.1421606 25.61276,13.9823498 25.61276,13.8225702 C25.61276,12.9836417 25.3730751,12.1846503 24.9735481,11.5454385 L24.9735481,11.3856589 C24.9735481,10.9861632 24.8936739,10.6266046 24.7338632,10.3070143 C24.4941783,4.55426356 20.8187802,0 14.8663129,0 C8.91381437,0 5.23844759,4.55426356 4.99873144,10.3070143 C4.83895191,10.6266046 4.7590465,10.9861633 4.7590465,11.3856589 L4.7590465,11.5454385 C4.35955078,12.1846503 4.11983463,12.9836418 4.11983463,13.8226015 L4.11983463,14.2620343 C3.24096906,14.6215617 1.96257656,16.2195445 1.04374266,18.4567392 Z"></path>
                </g>
            </g>
        </g>
    </g>
</svg>