<svg width="70" height="70" xmlns="http://www.w3.org/2000/svg"><circle cx="35" cy="35" r="35"/><path d="M21.044 38.457c-1.159 2.836-1.359 5.513-.44 5.992.64.36 1.678-.44 2.637-1.877.36 1.598 1.318 2.996 2.637 4.154-1.399.52-2.317 1.399-2.317 2.357 0 1.598 2.476 2.917 5.513 2.917 2.756 0 5.033-1.039 5.473-2.437h.639C35.626 50.96 37.902 52 40.659 52c3.076 0 5.513-1.279 5.513-2.917 0-.958-.919-1.837-2.317-2.357 1.318-1.158 2.277-2.556 2.637-4.154.958 1.438 1.957 2.237 2.636 1.877.96-.48.76-3.196-.44-5.992-.918-2.197-2.156-3.835-3.115-4.195 0-.12.04-.28.04-.44a4.33 4.33 0 00-.64-2.277v-.16c0-.399-.08-.758-.24-1.078C44.495 24.554 40.82 20 34.867 20c-5.952 0-9.628 4.554-9.867 10.307-.16.32-.24.68-.24 1.079v.16a4.33 4.33 0 00-.64 2.277v.439c-.878.36-2.156 1.958-3.075 4.195z"/></svg>