<svg class="icon" viewBox="0 0 1024 1024" xmlns="http://www.w3.org/2000/svg" width="200" height="200"><path d="M909.938 664.804c-18.432-110.877-95.83-183.524-95.83-183.524 11.065-100.665-29.496-118.528-29.496-118.528C776.107 51.314 517.432 56.775 512 56.917c-5.433-.142-264.135-5.603-272.612 305.863 0 0-40.561 17.864-29.496 118.528 0 0-77.398 72.648-95.83 183.524 0 0-9.842 187.335 88.462 22.955 0 0 22.13 62.435 62.664 118.528 0 0-72.505 25.486-66.333 91.761 0 0-2.475 73.9 154.823 68.836 0 0 110.564-8.903 143.758-57.344h29.241c33.167 48.44 143.759 57.344 143.759 57.344 157.24 5.092 154.794-68.836 154.794-68.836 6.116-66.247-66.332-91.761-66.332-91.761 40.533-56.093 62.663-118.528 62.663-118.528 98.19 164.38 88.377-22.983 88.377-22.983zm0 0"/></svg>