<svg width="13" height="15" xmlns="http://www.w3.org/2000/svg"><path d="M.593 4.41c-.014.728.148.785.462 1.233L2 6.846c-.52.602-.986 1.19-1.124 1.442-.283.54-.376.966-.376 1.7 0 1.32 3.34 4.217 4.444 4.217.728 0 .804.05 1.46-.44.74-.545 4.864-4.845 5.52-5.544l.028-.028c.028-.042.302-.378.452-.87.068-.21.096-.418.096-.63 0-.475-.164-.91-.493-1.302C11.035 4.24 6.874.676 6.804.617c-.07-.06-.295-.385-1.081-.582C3.953-.406.613 3.412.593 4.41zm7.143.449a.404.404 0 000 .56l2.93 3.01c-.177.183-.356.378-.532.56L7.203 5.994a.382.382 0 00-.548 0c-.15.154-.15.419 0 .56l2.93 3.012c-.233.239-.451.476-.67.7L5.997 7.282a.405.405 0 00-.274-.112c.11-.155.191-.322.26-.463.205-.49.04-1.106-.438-1.512-.493-.419-1.124-.49-1.617-.167-.452.293-.985.825-1.382 1.247-.675-.72-1.05-1.33-1.122-1.83C1.315 3.695 4.406.934 5.256.814c.442-.062.976.367 1.055.433 2.657 2.202 4.19 3.599 5.108 4.676.287.337.37.728.246 1.149-.095.321-.287.56-.301.588l-.164.168-2.916-2.97a.382.382 0 00-.548 0zm-3.504 4.02a.31.31 0 00.083.126l2.888 2.954a55.96 55.96 0 01-1.22 1.127c-1.001.74-1.797.458-3.286-1.127-1.006-1.07-1.411-1.554-1.411-2.063 0-.508.068-.891.274-1.213.207-.321.561-.784 1.137-1.414.656-.742 1.26-1.316 1.656-1.568.234-.154.508-.056.684.098.234.21.287.447.219.588-.314.743-1.533 1.89-1.548 1.89a.407.407 0 00-.028.56.39.39 0 00.552.042zm.629-.434a.719.719 0 00-.11-.085c.178-.196.396-.434.602-.686.013.07.056.126.096.167l2.903 2.984c-.206.21-.397.406-.588.589L4.86 8.444z"/></svg>