<svg class="icon" viewBox="0 0 1024 1024" xmlns="http://www.w3.org/2000/svg" width="200" height="200"><defs><style/></defs><path d="M1024 394.667c-2.133-6.4-6.4-10.667-12.8-10.667l-349.867-29.867-136.533-320c-2.133-6.4-8.533-10.666-14.933-10.666s-12.8 4.266-14.934 10.666l-136.533 320L14.933 384c-6.4 0-12.8 4.267-12.8 10.667-2.133 6.4 0 12.8 4.267 17.066L268.8 640l-78.933 339.2c-2.134 6.4 0 12.8 6.4 17.067 4.266 4.266 12.8 4.266 17.066 0L512 817.067l298.667 179.2c2.133 2.133 6.4 2.133 8.533 2.133 4.267 0 6.4 0 8.533-2.133 4.267-4.267 8.534-10.667 6.4-17.067l-61.866-268.8c27.733-12.8 55.466-36.267 55.466-36.267S710.4 731.733 292.267 704l305.066-219.733s-12.8-19.2-392.533-32c-25.6 0 311.467-64 558.933-10.667l-307.2 219.733s121.6 19.2 307.2 17.067L755.2 640l262.4-228.267c6.4-4.266 8.533-10.666 6.4-17.066zm0 0"/></svg>