<svg width="20" height="20" xmlns="http://www.w3.org/2000/svg"><g><path d="M14.954.014H2.494A2.49 2.49 0 00.004 2.506v14.951a2.49 2.49 0 002.492 2.492h6.224V18.08H3.117a1.247 1.247 0 01-1.246-1.246V3.128c0-.687.559-1.246 1.246-1.246h11.214c.688 0 1.246.559 1.246 1.246v6.884h1.87V2.506A2.49 2.49 0 0014.953.014z"/><path d="M12.774 4.374H4.675a.934.934 0 100 1.87h8.099a.934.934 0 100-1.87zM11.216 9.67a.934.934 0 00-.934-.935H4.675a.934.934 0 100 1.87h5.607a.934.934 0 00.934-.935zm3.12 9.73a.934.934 0 000-1.321l-3.257-3.257a.934.934 0 10-1.321 1.322l3.257 3.257a.934.934 0 001.321 0z"/><path d="M18.25 12.844l-5.235 5.235a.934.934 0 101.321 1.321l5.235-5.235a.934.934 0 000-1.321c-.365-.365-.937-.385-1.302-.02l-.02.02z"/></g></svg>