<?xml version="1.0" standalone="no"?><!DOCTYPE svg PUBLIC "-//W3C//DTD SVG 1.1//EN" "http://www.w3.org/Graphics/SVG/1.1/DTD/svg11.dtd"><svg t="1564747902068" class="icon" viewBox="0 0 1024 1024" version="1.1" xmlns="http://www.w3.org/2000/svg" p-id="4474" xmlns:xlink="http://www.w3.org/1999/xlink" width="200" height="200"><defs><style type="text/css"></style></defs><path d="M1023.997 511.831c0 99.79-211.129 312.67-511.999 312.67C218.787 824.501 0 615.125 0 511.831c0-103.279 219.73-312.334 511.999-312.334 303.234 0.001 512.071 209.057 511.999 312.335L1023.998 511.831zM512.45 256.529C376.184 256.529 265.72 370.913 265.72 512c0 141.089 110.463 255.471 246.729 255.471 136.307 0 246.774-114.383 246.774-255.471C759.223 370.913 648.756 256.529 512.45 256.529L512.45 256.529zM511.999 348.901c-86.778 0-157.126 72.827-157.126 162.673 0 89.836 70.348 162.677 157.126 162.677s157.097-72.841 157.097-162.677C669.096 421.727 598.776 348.901 511.999 348.901L511.999 348.901z" p-id="4475"></path></svg>