<svg class="icon" viewBox="0 0 1024 1024" xmlns="http://www.w3.org/2000/svg" width="200" height="200"><defs><style/></defs><path d="M1023.997 511.831c0 99.79-211.129 312.67-511.999 312.67C218.787 824.501 0 615.125 0 511.831c0-103.279 219.73-312.334 511.999-312.334 303.234.001 512.071 209.057 511.999 312.335v-.001zM512.45 256.529c-136.266 0-246.73 114.384-246.73 255.471 0 141.089 110.463 255.471 246.729 255.471 136.307 0 246.774-114.383 246.774-255.471 0-141.087-110.467-255.471-246.773-255.471zm-.451 92.372c-86.778 0-157.126 72.827-157.126 162.673 0 89.836 70.348 162.677 157.126 162.677s157.097-72.841 157.097-162.677c0-89.847-70.32-162.673-157.097-162.673z"/></svg>