<svg width="21" height="20" xmlns="http://www.w3.org/2000/svg"><path d="M20.015 8.008c-.444-.715-1.213-1.16-2.003-1.184L13.117 6.8a8.9 8.9 0 00.354-4.464l-.09-.394A2.465 2.465 0 0010.966.02a2.481 2.481 0 00-2.468 2.701C8.432 5.147 5.512 7.65 4.52 7.65l-3.637.002a.864.864 0 00-.862.863L.01 18.692c0 .482.418.833.941.848l3.153-.006.12.022.107-.014 12 .004c.422-.03.829-.16 1.182-.385.382-.246.691-.592.83-.896l.148-.244c.826-1.968 1.835-7.996 1.876-8.25l.017-.244a2.493 2.493 0 00-.37-1.52zM1.49 9.13l1.962-.003v8.945l-1.969.006.007-8.948zm15.692 8.232l-.093.147c-.084.17-.212.312-.368.412a1.003 1.003 0 01-.44.154l-11.358-.004V9.049c1.94-.378 4.963-3.343 5.045-6.399L9.96 2.5a1.01 1.01 0 011.007-1.008c.472 0 .875.32.98.78l.083.35a7.4 7.4 0 01-.309 3.706l-.676 1.94 6.697.001.159.017c.356.013.68.2.866.5.116.186.169.404.151.744-.01.059-1.022 6.11-1.736 7.832z"/></svg>