<svg width="19" height="24" xmlns="http://www.w3.org/2000/svg"><path d="M11.789 8.333a.737.737 0 000 1.022l5.35 5.496c-.326.333-.652.69-.974 1.022l-5.35-5.47a.698.698 0 00-1 0c-.275.28-.275.765 0 1.022l5.35 5.499c-.426.436-.826.868-1.225 1.277l-5.326-5.444a.74.74 0 00-.5-.206c.201-.281.349-.587.473-.844.376-.896.074-2.019-.799-2.76-.9-.765-2.05-.896-2.95-.305-.825.535-1.799 1.506-2.523 2.275C1.082 9.604.399 8.491.267 7.577.069 6.209 5.71 1.17 7.261.95c.807-.114 1.783.67 1.927.79 4.85 4.02 7.648 6.569 9.323 8.535.524.615.675 1.329.45 2.097-.175.587-.524 1.023-.55 1.075l-.3.305-5.322-5.42a.698.698 0 00-1 0zM5.392 15.67a.567.567 0 00.151.23l5.273 5.392c-.376.357-2.054 1.927-2.229 2.057-1.826 1.353-3.278.836-5.997-2.057C.754 19.34.014 18.456.014 17.528c0-.928.125-1.627.502-2.214s1.023-1.431 2.074-2.581c1.198-1.356 2.299-2.403 3.024-2.863.426-.281.926-.103 1.248.179.426.384.524.817.4 1.074-.574 1.356-2.8 3.45-2.826 3.45a.742.742 0 00-.05 1.022c.281.306.704.33 1.006.076zm.946-.947c.326-.357.725-.793 1.101-1.253.024.127.101.23.175.305l5.3 5.447c-.377.385-.726.742-1.075 1.075l-5.3-5.42a1.312 1.312 0 00-.2-.154z"/></svg>