<svg width="16" height="16" xmlns="http://www.w3.org/2000/svg"><path d="M15.821 2.726l-.002-1.002c0-.094-.005-.18-.017-.266-.111-.786-.82-1.425-1.58-1.425C12.737.031 11.25.031 9.764.031c-.092 0-.185.009-.283.028-.765.157-1.32.86-1.32 1.67V4.94c0 .094.005.173.015.247.104.799.82 1.449 1.596 1.449h.002c.31-.003.621-.004.931-.004l3.492.003c.28 0 .523-.062.743-.189.575-.329.87-.821.878-1.464.008-.724.007-1.42.004-2.256zm-1.32 2a.543.543 0 01-.536.55l-3.122.002c-.277 0-.554 0-.832-.004-.225-.001-.384-.113-.487-.343a.551.551 0 01-.048-.232s-.002-2.127 0-2.732c.001-.318.246-.577.545-.577l1.969-.002 1.969.002c.297.002.54.249.542.55.007.923.007 1.86 0 2.786zm-6.83 6.244c0-.111-.002-.23-.021-.351-.125-.792-.823-1.413-1.59-1.413a109.5 109.5 0 01-.979.005l-3.5-.002c-.095 0-.19.01-.277.032-.76.173-1.294.86-1.297 1.668v3.194c0 .459.158.86.469 1.193.317.338.684.51 1.09.511a455.723 455.723 0 004.55 0c.426 0 .804-.186 1.126-.55.292-.332.433-.729.431-1.214-.003-.584-.002-1.169-.002-1.756V10.97zm-1.314.222c.002.878.002 1.76 0 2.639 0 .287-.103.464-.33.573a.556.556 0 01-.23.05H1.884c-.314 0-.56-.258-.56-.588l-.002-.994c0-.572 0-1.144.003-1.717.002-.343.225-.584.543-.586l.87-.003c.007 0 2.39.001 3.037.003.225 0 .377.081.493.264a.65.65 0 01.088.359zM4.794 5.095H3.245a.145.145 0 01-.05-.006.151.151 0 01-.01-.067c0-.117.006-.227.015-.332.043-.416.143-.808.298-1.166.195-.457.483-.868.845-1.208a3.451 3.451 0 011.061-.693c.358-.143.673-.217.994-.233l.3-.017V.008l-.34.024a4.183 4.183 0 00-.55.071 4.771 4.771 0 00-2.36 1.23A5.05 5.05 0 002.05 3.688a4.905 4.905 0 00-.175 1.294c0 .082-.013.106-.012.106-.003.002-.025.012-.093.012H.385l2.196 2.289 2.213-2.293zm6.3 5.652h1.547c.072.001.083.001.084.104.002.291-.042.604-.135.957a3.626 3.626 0 01-1.187 1.869c-.382.323-.812.55-1.28.675-.232.062-.405.1-.605.106l-.305.012.001 1.402.37-.063c.035-.006.072-.008.11-.01l.1-.007a4.406 4.406 0 001.555-.482 4.787 4.787 0 001.676-1.427 5.057 5.057 0 001.01-2.93.927.927 0 01.019-.198c.04-.008.133-.008.166-.008h1.306L13.33 8.456l-2.236 2.291z"/></svg>