<svg width="20" height="20" xmlns="http://www.w3.org/2000/svg"><path d="M19.22 18.288l-3.63-3.619a8.814 8.814 0 002.15-5.793c0-2.372-.926-4.59-2.592-6.268A8.772 8.772 0 008.89.004c-2.372 0-4.59.927-6.267 2.593A8.823 8.823 0 00.019 8.876c0 2.372.927 4.59 2.594 6.268a8.806 8.806 0 006.267 2.593 8.846 8.846 0 005.352-1.788l3.663 3.664c.177.176.42.275.662.275a.94.94 0 00.662-1.6zM1.883 8.876c0-3.862 3.145-6.996 6.996-6.996 3.862 0 6.996 3.145 6.996 6.996a6.998 6.998 0 01-6.996 6.996c-3.862 0-6.996-3.145-6.996-6.996z"/></svg>