<svg width="38" height="29" xmlns="http://www.w3.org/2000/svg"><g><path d="M35.278 10.915l-12.55 12.638-3.914 3.855-17.221-17.19L10.617 1h16.672l8.67 9.23-.681.685z" stroke="#FFF" stroke-width="2"/><path d="M12 3.633h13.967l6.223 6.604-13.406 13.365L5.31 10.237z"/><path d="M20.649 7a.393.393 0 00-.345.214l-1.486 2.719a.405.405 0 01-.35.21.405.405 0 01-.351-.21l-1.48-2.72a.405.405 0 00-.35-.213h-1.5a.153.153 0 00-.141.084.175.175 0 00.004.172l2.409 4.41a.45.45 0 01-.17.548.392.392 0 01-.531-.113l-2.67-4.88a.405.405 0 00-.375-.22h-.91a.397.397 0 00-.349.212.453.453 0 000 .43l4.862 8.896c.026.056.08.092.14.092.058 0 .112-.036.139-.092l4.012-7.35a.39.39 0 01.544-.147.447.447 0 01.157.574l-4.259 7.82a.451.451 0 000 .428l.506.925c.075.131.208.211.351.211.144 0 .277-.08.35-.21l6.09-11.148a.453.453 0 000-.429.397.397 0 00-.35-.213H20.65z"/></g></svg>