<?xml version="1.0" encoding="UTF-8"?>
<svg width="38px" height="29px" viewBox="0 0 38 29" version="1.1" xmlns="http://www.w3.org/2000/svg" xmlns:xlink="http://www.w3.org/1999/xlink">
    <!-- Generator: Sketch 57.1 (83088) - https://sketch.com -->
    <title>chuangxianghuangjinvip</title>
    <desc>Created with Sketch.</desc>
    <g id="页面1" stroke="none" stroke-width="1" fill="none" fill-rule="evenodd">
        <g id="超级用户主页_他人看到的" transform="translate(-1079.000000, -442.000000)" fill-rule="nonzero">
            <g id="chuangxianghuangjinvip" transform="translate(1082.000000, 444.000000)">
                <path d="M32.2779775,8.91453936 L19.7288509,21.5530249 L15.8142008,25.4081839 L-1.40735948,8.21808195 L7.61653555,-1 L24.2885789,-1 L32.9584738,8.22919256 L32.2779775,8.91453936 Z" id="形状" stroke="#FFFFFF" stroke-width="2" fill="#F7B500"></path>
                <polygon id="路径-2" fill="#FFDE30" points="9 1.63250795 22.9669258 1.63250795 29.1898377 8.23688017 15.784182 21.6021275 2.30928881 8.23688017"></polygon>
                <path d="M17.6486189,5.00044931 C17.5063347,5.00061131 17.3750143,5.08197651 17.3044099,5.21371886 L15.8178371,7.93290578 C15.7436292,8.06377701 15.6106607,8.14374293 15.4672539,8.14374293 C15.3238471,8.14374293 15.1908786,8.06377701 15.1166707,7.93290578 L13.6363472,5.21371886 C13.5628173,5.08211708 13.4300323,5.00119601 13.2863889,5.00044931 L11.7865677,5.00044931 C11.7286746,4.99809257 11.6743686,5.03031414 11.6457209,5.08401842 C11.6170732,5.13772271 11.6188519,5.20397144 11.6503339,5.2558396 L14.0587968,9.66625414 C14.1394835,9.86851648 14.0663294,10.1032029 13.888155,10.2136914 C13.7099807,10.3241798 13.4825447,10.2758937 13.3576304,10.1010575 L10.6881986,5.2211833 C10.6120526,5.07829158 10.4671967,4.99301579 10.3132433,5.00044931 L9.40360178,5.00044931 C9.25984512,4.99962836 9.12664996,5.08084859 9.05439388,5.21339058 C8.98213781,5.34593256 8.9818516,5.50956213 9.0536435,5.64239069 L13.9155639,14.5391971 C13.9420793,14.595493 13.9961001,14.6310256 14.0551722,14.6310256 C14.1142444,14.6310256 14.1682652,14.595493 14.1947806,14.5391971 L18.2068023,7.18859501 C18.3217379,6.99187433 18.5619613,6.92729684 18.7506002,7.04240981 C18.9392392,7.15752277 19.0087569,7.41111325 18.9079687,7.61646706 L14.6492264,15.4362622 C14.5772997,15.5685721 14.5772997,15.7318242 14.6492264,15.8641342 L15.1554161,16.7891909 C15.229689,16.920053 15.3626912,17 15.5061243,17 C15.6495573,17 15.7825595,16.920053 15.8568325,16.7891909 L21.9463565,5.64239069 C22.0181484,5.50956213 22.0178622,5.34593256 21.9456061,5.21339058 C21.87335,5.08084859 21.7401549,4.99962836 21.5963982,5.00044931 L17.6486189,5.00044931 Z" id="路径" fill="#542DE0"></path>
            </g>
        </g>
    </g>
</svg>