<svg class="icon" viewBox="0 0 1024 1024" xmlns="http://www.w3.org/2000/svg" width="200" height="200"><path d="M940.8 422.4c19.2-12.8 25.6-32 19.2-64 0 0-19.2-51.2-38.4-83.2s-51.2-76.8-57.6-76.8c-19.2-19.2-38.4-25.6-57.6-19.2H800c-57.6 32-134.4 12.8-166.4-44.8-6.4-12.8-12.8-44.8-12.8-44.8 0-25.6-19.2-44.8-44.8-44.8H441.6c-6.4 0-12.8 6.4-19.2 6.4-25.6 12.8-32 25.6-38.4 38.4-6.4 19.2-25.6 76.8-57.6 96-32 19.2-89.6 6.4-108.8 0-19.2 0-38.4 0-51.2 6.4l-19.2 19.2-70.4 121.6C64 352 70.4 384 89.6 396.8c0 0 19.2 19.2 32 38.4 32 57.6 12.8 134.4-44.8 166.4h-6.4c-12.8 12.8-19.2 38.4-6.4 64 0 0 19.2 51.2 38.4 83.2s51.2 76.8 57.6 76.8c19.2 19.2 38.4 25.6 57.6 19.2h6.4c57.6-32 134.4-12.8 166.4 44.8 12.8 19.2 12.8 44.8 12.8 44.8 0 25.6 25.6 44.8 51.2 51.2h134.4c6.4 0 12.8-6.4 19.2-6.4 12.8-6.4 25.6-25.6 32-38.4 6.4-19.2 25.6-83.2 57.6-96 32-19.2 96-6.4 115.2 0 12.8 6.4 32 0 51.2-6.4 6.4-6.4 12.8-6.4 19.2-12.8l70.4-115.2c12.8-25.6 6.4-51.2-19.2-70.4 0 0-19.2-19.2-32-38.4-38.4-70.4-19.2-147.2 38.4-179.2zM608 678.4c-89.6 51.2-211.2 19.2-262.4-70.4-51.2-89.6-19.2-211.2 70.4-262.4s211.2-19.2 262.4 70.4c51.2 89.6 19.2 211.2-70.4 262.4z"/></svg>