<svg t="1577073320862" class="icon" viewBox="0 0 1024 1024" version="1.1" xmlns="http://www.w3.org/2000/svg" p-id="2597" width="200" height="200"><path d="M224 512c-17.6 0-32-14.4-32-32V64c0-17.6 14.4-32 32-32 17.632 0 32 14.4 32 32v416c0 17.6-14.368 32-32 32z m0 256c35.232 0 64-28.8 64-64s-28.768-64-64-64c-35.2 0-64 28.8-64 64s28.8 64 64 64z m0-192a127.968 127.968 0 0 1 32 251.84V960c0 17.6-14.368 32-32 32-17.6 0-32-14.4-32-32v-132.16A127.968 127.968 0 0 1 224 576z m288-192c35.232 0 64-28.8 64-64s-28.768-64-64-64c-35.2 0-64 28.8-64 64s28.8 64 64 64z m32-187.84A127.968 127.968 0 0 1 512 448a127.968 127.968 0 0 1-32-251.84V64c0-17.6 14.4-32 32-32 17.632 0 32 14.4 32 32v132.16zM512 512c17.632 0 32 14.4 32 32v416c0 17.6-14.368 32-32 32-17.6 0-32-14.4-32-32V544c0-17.6 14.4-32 32-32z m288 0c-17.6 0-32-14.4-32-32V64c0-17.6 14.4-32 32-32 17.632 0 32 14.4 32 32v416c0 17.6-14.368 32-32 32z m0 256c35.232 0 64-28.8 64-64s-28.768-64-64-64c-35.2 0-64 28.8-64 64s28.8 64 64 64z m0-192a127.968 127.968 0 0 1 32 251.84V960c0 17.6-14.368 32-32 32-17.6 0-32-14.4-32-32v-132.16A127.968 127.968 0 0 1 800 576z" p-id="2598"></path></svg>