<?xml version="1.0" encoding="UTF-8"?>
<svg width="36px" height="40px" viewBox="0 0 36 40" version="1.1" xmlns="http://www.w3.org/2000/svg" xmlns:xlink="http://www.w3.org/1999/xlink">
    <g stroke="none" stroke-width="1" fill="none" fill-rule="evenodd">
        <g transform="translate(-945.000000, -693.000000)" fill="#FFFFFF" fill-rule="nonzero">
            <path d="M975.08589,733 L977.834356,729.564417 C975.838446,728.321063 973.253579,727.04499 970.079755,725.736196 L970.079755,725.736196 L973.907975,724.558282 L973.907975,715.184049 L974.595092,713.662577 L971.797546,711.503067 L969.883436,712.386503 C966.186094,713.0409 961.572597,713.368098 956.042945,713.368098 L956.042945,713.368098 L954.128834,712.779141 L958.006135,711.699387 L958.006135,711.257669 C960.820041,710.766871 964.173824,710.456033 968.067485,710.325153 L968.067485,710.325153 L968.067485,711.650307 L972.042945,710.423313 L972.042945,706.006135 L972.730061,704.435583 L969.932515,702.325153 L968.214724,703.110429 C964.94274,703.764826 961.425358,704.124744 957.662577,704.190184 L957.662577,704.190184 L955.01227,703.355828 C962.079755,702.701431 968.93456,702.210634 975.576687,701.883436 C975.151329,703.126789 974.578732,704.255624 973.858896,705.269939 L973.858896,705.269939 L975.380368,706.104294 C976.394683,705.646217 977.703476,704.648262 979.306748,703.110429 L979.306748,703.110429 L980.730061,701.785276 L977.883436,698.693252 L977.785276,698.595092 L976.214724,698.889571 C974.349693,699.151329 972.501022,699.380368 970.668712,699.576687 C972.108384,698.398773 972.99182,697.466258 973.319018,696.779141 C973.646217,696.092025 973.826176,695.732106 973.858896,695.699387 L973.858896,695.699387 L969.981595,693.638037 L969.441718,694.030675 L969.490798,694.128834 L969.539877,694.619632 C969.539877,696.059305 968.721881,697.809816 967.08589,699.871166 L967.08589,699.871166 L965.368098,700.018405 L965.368098,694.374233 L961.09816,693 L961.04908,693 L960.509202,693.638037 L960.509202,693.687117 C961.09816,694.635992 961.392638,695.715746 961.392638,696.92638 L961.392638,696.92638 L961.392638,700.263804 C959.134969,700.394683 957.613497,700.476483 956.828221,700.509202 L956.828221,700.509202 L958.693252,699.03681 C957.973415,698.087935 957.139059,697.286299 956.190184,696.631902 C955.241309,695.977505 954.325153,695.503067 953.441718,695.208589 L953.441718,695.208589 L952.361963,696.337423 C953.245399,697.319018 954.145194,698.742331 955.06135,700.607362 C953.359918,700.672802 952.247444,700.705521 951.723926,700.705521 L951.723926,700.705521 L951.773006,700.067485 L950.055215,699.134969 C949.433538,700.574642 948.680982,702.022495 947.797546,703.478528 C946.91411,704.93456 945.981595,706.137014 945,707.08589 L945,707.08589 L948.288344,708.90184 C949.531697,707.527607 950.464213,705.793456 951.08589,703.699387 L951.08589,703.699387 L953.147239,703.503067 L953.09816,703.552147 L953.147239,703.601227 C953.638037,704.550102 953.916155,705.629857 953.981595,706.840491 C954.014315,707.233129 954.030675,707.969325 954.030675,709.04908 L954.030675,709.04908 L953.981595,712.730061 L952.018405,712.141104 L951.969325,712.092025 L951.429448,712.730061 L951.429448,712.779141 C951.494888,712.779141 951.650307,713.114519 951.895706,713.785276 C952.141104,714.456033 952.280164,715.200409 952.312883,716.018405 C952.345603,716.443763 952.361963,717.638037 952.361963,719.601227 L952.361963,719.601227 L952.312883,726.766871 L956.288344,725.638037 L956.288344,716.263804 C961.359918,715.805726 965.907975,715.494888 969.932515,715.331288 L969.932515,715.331288 L969.932515,725.687117 C968.591002,725.130879 967.364008,724.664622 966.251534,724.288344 C965.139059,723.912065 964.419223,723.674847 964.092025,723.576687 L964.092025,723.576687 L964.042945,723.576687 L963.208589,724.95092 L963.306748,725 C963.633947,725.163599 964.370143,725.588957 965.515337,726.276074 C966.660532,726.96319 968.108384,727.903885 969.858896,729.09816 C971.609407,730.292434 973.351738,731.593047 975.08589,733 L975.08589,733 Z M958.006135,708.411043 L958.006135,706.98773 C961.867076,706.562372 965.220859,706.284254 968.067485,706.153374 L968.067485,706.153374 L968.067485,707.429448 C964.828221,708.018405 961.474438,708.345603 958.006135,708.411043 L958.006135,708.411043 Z M945.883436,733 C947.388548,733 949.515337,732.721881 952.263804,732.165644 C955.01227,731.609407 957.777096,730.161554 960.558282,727.822086 C963.339468,725.482618 964.730061,721.940695 964.730061,717.196319 L964.730061,717.196319 L964.680982,717.196319 C963.633947,717.03272 962.226994,716.885481 960.460123,716.754601 L960.460123,716.754601 L959.969325,717.04908 C960.361963,717.310838 960.574642,717.556237 960.607362,717.785276 L960.607362,717.785276 L960.656442,718.472393 C960.656442,719.781186 960.321063,721.294479 959.650307,723.01227 C958.97955,724.730061 957.539877,726.496933 955.331288,728.312883 C953.122699,730.128834 949.907975,731.527607 945.687117,732.509202 L945.687117,732.509202 L945.883436,733 Z" id="èµ"></path>
        </g>
    </g>
</svg>