<svg t="1581493908270" class="icon" viewBox="0 0 1024 1024" version="1.1" xmlns="http://www.w3.org/2000/svg" p-id="5454" width="200" height="200"><path d="M182.272 778.752c-1.536 0-3.072 0-4.608-0.512-17.408-2.56-29.696-18.432-27.648-35.84 15.872-148.992 68.608-259.072 156.16-327.68 62.976-49.664 142.848-77.312 237.056-82.432l19.456-1.024V225.28c0-41.984 38.4-51.2 58.88-30.72l239.104 243.2c30.208 30.72 28.672 62.464-1.536 93.184L626.176 768c-24.576 24.576-63.488 9.728-63.488-25.088V629.248h-24.064c-87.552 0-246.784 17.408-330.24 134.656-5.12 9.728-15.36 14.848-26.112 14.848z" p-id="5455"></path></svg>