<?xml version="1.0" encoding="UTF-8"?>
<svg width="51px" height="50px" viewBox="0 0 51 50" version="1.1" xmlns="http://www.w3.org/2000/svg" xmlns:xlink="http://www.w3.org/1999/xlink">
    <g stroke="none" stroke-width="1" fill="none" fill-rule="evenodd">
        <g transform="translate(-863.000000, -325.000000)">
            <g transform="translate(840.000000, 303.000000)">
                <g transform="translate(23.125000, 22.500000)">
                    <path d="M21.2533707,26.1749908 C23.9851855,26.1749908 26.2220712,23.9381051 26.2220712,21.2062903 C26.2220712,18.4744755 23.9851855,16.2375898 21.2533707,16.2375898 C18.5215558,16.2375898 16.2846702,18.4744755 16.2846702,21.2062903 C16.2846702,23.9381051 18.5215558,26.1749908 21.2533707,26.1749908 L21.2533707,26.1749908 Z M21.2533707,18.72194 C22.7430104,18.72194 23.7377209,19.7166506 23.7377209,21.2062903 C23.7377209,22.69593 22.7430103,23.6906405 21.2533707,23.6906405 C19.763731,23.6906405 18.7690204,22.69593 18.7690204,21.2062903 C18.7690204,19.7166506 19.763731,18.72194 21.2533707,18.72194 Z" fill="#333333" fill-rule="nonzero"></path>
                    <polygon fill="#542DE0" transform="translate(34.044273, 44.375000) scale(-1, 1) translate(-34.044273, -44.375000) " points="23.75 41.25 38.75 41.505102 44.3385455 47.5 23.75 47.5"></polygon>
                    <polygon fill="#7743F8" points="13.75 41.25 28.75 41.505102 34.3385455 47.5 13.75 47.5"></polygon>
                    <path d="M43.6707498,8.7845391 C42.0763881,8.7845391 40.8657961,8.7845391 40.0389738,8.7845391 C37.9100117,8.7845391 35.3879672,8.7845391 32.4728404,8.7845391 C29.0998427,8.7845391 22.8562603,8.7845391 13.742093,8.7845391 C12.2524533,8.7845391 11.2577428,9.77924965 11.2577428,11.2688893 L11.2577428,46.0497927 C11.2577428,47.5394324 12.2524533,48.534143 13.742093,48.534143 L43.6707498,48.534143 C45.1603895,48.534143 46.1551001,47.5394324 46.1551001,46.0497927 L46.1551001,11.2688893 C46.1551001,9.77924961 45.1603895,8.7845391 43.6707498,8.7845391 Z M14.7410845,11.2678819 L32.4728404,11.25 L32.4728404,11.25 L40.0389738,11.2688893 L42.6707498,11.2688893 C43.2230345,11.2688893 43.6707498,11.7166046 43.6707498,12.2688893 L43.6707498,32.8807955 L43.6707498,32.8807955 L36.649549,26.2235132 L32.7616599,30.2720006 L28.3527002,34.8630825 L25.9600498,37.3545669 L20.9864971,32.8807955 L13.742093,39.8389171 L13.742093,12.2678814 C13.742093,11.7159904 14.1891938,11.2684384 14.7410845,11.2678819 Z M13.742093,42.9152414 L21.083542,36.1123917 L32.2243001,46.0497927 L14.742093,46.0497927 C14.1898082,46.0497927 13.742093,45.6020774 13.742093,45.0497927 L13.742093,42.9152414 L13.742093,42.9152414 Z M36.649549,29.4502572 L43.6707498,36.0056423 L43.6707498,45.0449405 C43.6707498,45.5972252 43.2230345,46.0449405 42.6707498,46.0449405 L35.6596907,46.0449405 L27.6534839,38.7956841 L36.649549,29.4502572 Z" fill="#333333" fill-rule="nonzero"></path>
                    <path d="M28.75,8.75 C30.9704828,7.47086813 32.6371494,6.83130219 33.75,6.83130219 C34.8628506,6.83130219 36.5295172,7.47086813 38.75,8.75 C37.9192984,8.77302606 37.5026317,9.18969273 37.5,10 C37.4973683,10.8103073 37.9140349,11.2269739 38.75,11.25 C36.3749994,12.3062155 34.6308718,12.8343232 33.5176171,12.8343232 C32.4043625,12.8343232 30.8151568,12.3062155 28.75,11.25 C29.5833333,11.2269739 30,10.8103073 30,10 C30,9.18969273 29.5833333,8.77302606 28.75,8.75 Z" fill="#FFFFFF"></path>
                    <path d="M33.1887755,9.3622449 L34.2091837,9.3622449" stroke="#333333" stroke-width="2" stroke-linecap="round" stroke-linejoin="round"></path>
                    <path d="M3.38010204,4.09438776 L12.1811224,4.09438776 C12.8573895,4.09438776 13.4056122,4.64261051 13.4056122,5.31887755 L13.4056122,5.93112245 C13.4056122,6.60738949 12.8573895,7.15561224 12.1811224,7.15561224 L3.38010204,7.15561224 C2.703835,7.15561224 2.15561224,6.60738949 2.15561224,5.93112245 L2.15561224,5.31887755 C2.15561224,4.64261051 2.703835,4.09438776 3.38010204,4.09438776 Z" fill="#7743F8" transform="translate(7.780612, 5.625000) rotate(-270.000000) translate(-7.780612, -5.625000) "></path>
                    <path d="M7.93672308,1.43287792 L10.0387639,1.43287792 C10.867191,1.43287792 11.5387639,2.1044508 11.5387639,2.93287792 L11.5387639,2.99410241 C11.5387639,3.82252954 10.867191,4.49410241 10.0387639,4.49410241 L7.93672308,4.49410241 C7.10829596,4.49410241 6.43672308,3.82252954 6.43672308,2.99410241 L6.43672308,2.93287792 C6.43672308,2.1044508 7.10829596,1.43287792 7.93672308,1.43287792 Z" fill="#7743F8" transform="translate(8.987743, 2.963490) scale(-1, -1) rotate(-126.000000) translate(-8.987743, -2.963490) "></path>
                    <path d="M5.43672308,1.43287792 L7.5387639,1.43287792 C8.36719103,1.43287792 9.0387639,2.1044508 9.0387639,2.93287792 L9.0387639,2.99410241 C9.0387639,3.82252954 8.36719103,4.49410241 7.5387639,4.49410241 L5.43672308,4.49410241 C4.60829596,4.49410241 3.93672308,3.82252954 3.93672308,2.99410241 L3.93672308,2.93287792 C3.93672308,2.1044508 4.60829596,1.43287792 5.43672308,1.43287792 Z" fill="#7743F8" transform="translate(6.487743, 2.963490) scale(-1, 1) rotate(-126.000000) translate(-6.487743, -2.963490) "></path>
                    <circle fill="#7743F8" cx="49.0306122" cy="47.7806122" r="1.53061224"></circle>
                    <circle fill="#7743F8" cx="5.33163265" cy="16.505102" r="1.53061224"></circle>
                    <circle fill="#542DE0" cx="2.27040816" cy="11.9287109" r="1.53061224"></circle>
                </g>
            </g>
        </g>
    </g>
</svg>