<svg width="18" height="18" xmlns="http://www.w3.org/2000/svg"><path d="M2.998 6C1.894 6 1 6.9 1 8.005v6.99C1 16.102 1.895 17 3.002 17h11.996A2 2 0 0 0 17 14.996V8c0-1.104-.898-2-1.998-2H11v1h4c.552 0 1 .446 1 .998v7.004a1 1 0 0 1-.996.998H2.996A.996.996 0 0 1 2 15.002V7.998C2 7.447 2.444 7 3 7h4V6H2.998h0zM9.5 10.318a.499.499 0 1 1-1 0V2.525L6.442 4.583a.5.5 0 1 1-.71-.707l2.561-2.58a.993.993 0 0 1 1.414 0l2.56 2.58a.5.5 0 1 1-.71.707L9.501 2.525v7.793h0z" stroke="#000" stroke-width=".4"/></svg>