<svg viewBox="0 0 20 18" xmlns="http://www.w3.org/2000/svg"><path d="M18.996 5.999c-.55 0-1-.45-1-1V3.413l-6.775 6.776a1.002 1.002 0 01-1.414 0 1.002 1.002 0 010-1.414L16.583 2h-1.586c-.55 0-1-.45-1-1s.45-1 1-1h4a.99.99 0 01.385.079c.025.01.043.031.067.044.09.046.18.094.255.169a.967.967 0 01.17.255c.012.024.033.04.043.067a.99.99 0 01.08.385v4c0 .55-.45 1-1 1zm-9.598-4H4.6C3.165 2 2 3.147 2 4.556v8.886c0 1.41 1.166 2.556 2.6 2.556h10.798c1.433 0 2.6-1.146 2.6-2.556v-2.887a1 1 0 112 0v2.887c0 2.513-2.065 4.555-4.6 4.555H4.599C2.063 17.996 0 15.954 0 13.441V4.555C0 2.043 2.063 0 4.6 0h4.798a1 1 0 010 2z"/></svg>