<svg width="17" height="14" xmlns="http://www.w3.org/2000/svg"><path d="M6.281.328a1.077 1.077 0 00-.763-.326c-.109 0-.218.055-.327.055h-.054c-.164.108-.272.217-.382.326L.342 4.788c-.436.435-.436 1.087 0 1.468.218.217.49.326.763.326.272 0 .545-.109.763-.326l2.67-2.665v9.027c0 .599.49 1.034 1.035 1.034.545 0 1.035-.49 1.035-1.034V1.144c0-.272-.109-.598-.327-.816zm9.753 7.07a1.076 1.076 0 00-.763-.326c-.272 0-.545.108-.762.326l-2.725 2.719V1.09c0-.598-.49-1.033-1.035-1.033-.545 0-1.035.49-1.035 1.033v11.583c0 .598.49 1.033 1.035 1.033.273 0 .545-.109.763-.326l4.468-4.46c.49-.434.49-1.087.054-1.522z"/></svg>