<svg width="13" height="10" xmlns="http://www.w3.org/2000/svg"><g><path d="M.773 2.33h11.112c.516 0 .773.258.773.774s-.257.774-.773.774H.773C.258 3.878 0 3.62 0 3.104s.258-.774.773-.774z"/><path d="M10.2.226l1.394 1.394c.301.301 2.202 2.202-.002 1.092-.74.406-.79.301-1.093 0L9.107 1.32A.773.773 0 0110.2.226zM.924 6.06h11.112c.516 0 .774.259.774.774 0 .516-.258.774-.774.774H.924c-.515 0-.773-.258-.773-.773v-.001c0-.515.258-.773.773-.773z"/><path d="M2.61 9.712L1.215 8.32c-.301-.302-2.203-2.203.002-1.092.74-.407.79-.302 1.093 0l1.391 1.391A.773.773 0 012.61 9.712z"/></g></svg>