<svg width="13" height="15" xmlns="http://www.w3.org/2000/svg"><path d="M6.6 14.456c-.156 0-.315-.006-.47-.021-1.74-.159-3.33-1.1-4.252-2.521C.394 9.629.84 6.627 2.962 4.61l.114-.108C4.125 3.51 5.03 2.65 5.566 1.2a.287.287 0 01.455-.118c2.056 1.774 2.756 4.13 2.474 5.851.81-.595 1.32-1.344 1.733-2.492a.288.288 0 01.503-.07c1.015 1.416 1.567 3.02 1.553 4.514a5.433 5.433 0 01-.545 2.36c-.939 1.923-3.004 3.211-5.139 3.211h0zm-.656-12.67c-.594 1.348-1.51 2.216-2.475 3.131l-.115.108c-1.918 1.822-2.327 4.526-.998 6.576.828 1.275 2.257 2.12 3.825 2.263.138.012.278.019.417.019 1.922 0 3.781-1.161 4.624-2.89.317-.649.482-1.36.487-2.113.01-1.222-.396-2.529-1.148-3.73-.533 1.243-1.237 2.015-2.393 2.668a.29.29 0 01-.328-.032.288.288 0 01-.08-.318C8.324 6 7.863 3.625 5.943 1.786z" stroke="#542DE0" stroke-width=".3"/></svg>