<svg width="14" height="14" xmlns="http://www.w3.org/2000/svg"><g><path d="M11.274 11.134a6.075 6.075 0 01-1.926 1.284 6.208 6.208 0 01-2.367.487h-.064a6.11 6.11 0 01-2.387-.478 5.912 5.912 0 01-1.923-1.303A5.793 5.793 0 01.94 6.937a6.1 6.1 0 011.794-4.242A5.996 5.996 0 016.99.942a6.08 6.08 0 014.282 1.756 5.924 5.924 0 011.77 4.225c0 1.59-.628 3.086-1.769 4.21M6.991.005C3.132.004.062 3.102.004 6.924c-.059 3.863 3.053 6.917 6.913 6.917h.074c3.858-.04 6.987-3.096 6.987-6.92C13.98 3.103 10.85.005 6.991.005"/><path d="M10.51 7.016H6.988V3.462a.468.468 0 10-.938 0v4.02c0 .26.21.47.469.47h3.99a.468.468 0 00.001-.936"/></g></svg>