<svg width="15" height="12" xmlns="http://www.w3.org/2000/svg"><path d="M11.974 7.052c0-.275-.092-.51-.29-.72L6.04.735c-.197-.196-.473-.366-.802-.51a2.375 2.375 0 00-.921-.21h-3.29a.978.978 0 00-.71.301.967.967 0 00-.303.707v3.257c0 .275.066.589.21.916.145.34.303.601.514.798l5.645 5.611a.966.966 0 00.71.288c.276 0 .513-.091.724-.288l3.868-3.845c.184-.197.29-.432.29-.707zM3.25 3.246a.966.966 0 01-.71.287.966.966 0 01-.711-.287.954.954 0 01-.29-.707c0-.275.093-.51.29-.706a.966.966 0 01.71-.288c.277 0 .514.092.711.288.197.196.29.431.29.706a.907.907 0 01-.29.707zm11.46 3.087L9.067.733c-.198-.195-.474-.365-.803-.51a2.375 2.375 0 00-.92-.209H5.565c.276 0 .592.066.92.21.343.144.606.3.803.51l5.645 5.599c.198.209.29.444.29.72 0 .274-.092.51-.29.706l-3.697 3.688c.158.157.302.275.42.354.12.078.277.104.461.104.277 0 .514-.091.724-.287l3.869-3.86A.954.954 0 0015 7.053c0-.275-.092-.51-.29-.72z"/></svg>