<svg class="icon" viewBox="0 0 1024 1024" xmlns="http://www.w3.org/2000/svg" width="200" height="200"><path d="M149.333 128a64 64 0 00-64 64v469.333a64 64 0 0064 64H224V896l246.507-170.667h404.16a64 64 0 0064-64V192a64 64 0 00-64-64H149.333zm0 64h725.334v469.333h-116.48L725.333 448H522.667l-32.854 213.333h-39.242L288.853 773.547V661.333h-139.52V192zM577.6 512h92.8l22.933 149.333H554.667L577.6 512zm137.067-170.667a42.667 42.667 0 1085.333 0 42.667 42.667 0 00-85.333 0zm-298.667 0a42.667 42.667 0 1085.333 0 42.667 42.667 0 00-85.333 0z"/></svg>