<?xml version="1.0" encoding="UTF-8"?>
<svg width="16px" height="16px" viewBox="0 0 16 16" version="1.1" xmlns="http://www.w3.org/2000/svg" xmlns:xlink="http://www.w3.org/1999/xlink">
    <g stroke="none" stroke-width="1" fill="none" fill-rule="evenodd">
        <g transform="translate(-1102.000000, -224.000000)" fill-rule="nonzero">
            <g transform="translate(1102.000000, 224.000000)">
                <path d="M0.000625,8.00229167 C0.000625,12.4213751 3.58299992,16.00375 8.00208333,16.00375 C12.4211667,16.00375 16.0035417,12.4213751 16.0035417,8.00229167 C16.0035417,3.58320825 12.4211667,0.000833333333 8.00208333,0.000833333333 C3.58299992,0.000833333333 0.000625,3.58320825 0.000625,8.00229167 Z" fill="#171A1D"></path>
                <path d="M6.69172917,8.02852083 L8.03035417,6.68989583 L9.36897917,8.02852083 L8.03035417,9.36714583 L6.69172917,8.02852083 Z M10.9512917,8.02854167 L12.2899167,6.68991667 L13.6285417,8.02854167 L12.2899167,9.36716667 L10.9512917,8.02854167 Z M2.4321875,8.0285 L3.7708125,6.689875 L5.1094375,8.0285 L3.7708125,9.367125 L2.4321875,8.0285 Z M4.54570833,5.91522917 L8.02316667,2.43777083 L9.36179167,3.77639583 L5.88433333,7.25385417 L4.54570833,5.91522917 Z" fill="#F5B638"></path>
                <path d="M10.1768333,7.25375 L6.699375,3.7763125 L8.03802083,2.4376875 L11.5154792,5.91514583 L10.1768333,7.25375 Z M5.88458333,8.82091667 L9.36204167,12.298375 L8.02341667,13.637 L4.54595833,10.1595417 L5.88458333,8.82091667 Z" fill="#F5B638"></path>
                <polygon fill="#F5B638" points="11.5155833 10.1597083 8.038125 13.6371667 6.6995 12.2985417 10.1769583 8.82108333"></polygon>
            </g>
        </g>
    </g>
</svg>