<svg width="26" height="26" xmlns="http://www.w3.org/2000/svg"><g><path d="M13 24.818C6.473 24.818 1.182 19.527 1.182 13 1.182 6.473 6.473 1.182 13 1.182c6.527 0 11.818 5.291 11.818 11.818 0 6.527-5.291 11.818-11.818 11.818z"/><path d="M18.417 16.937c.02.149.027.292.022.431a.779.779 0 01-.097.364.644.644 0 01-.282.253c-.129.064-.307.096-.535.096-.317.01-.532-.062-.646-.215-.114-.154-.196-.404-.245-.75l-.713-5.364c-.04-.228-.1-.342-.179-.342-.079 0-.153.114-.223.342l-1.664 5.705a.977.977 0 01-.245.453c-.114.114-.329.171-.646.171-.168 0-.307-.012-.416-.037a.666.666 0 01-.267-.119.528.528 0 01-.156-.193 1.742 1.742 0 01-.097-.275c-.287-.96-.572-1.909-.854-2.845-.283-.936-.562-1.884-.84-2.845-.069-.238-.14-.357-.215-.357-.074 0-.131.12-.171.357l-.698 5.26c-.05.356-.146.62-.29.794-.144.173-.404.26-.78.26-.307 0-.52-.087-.639-.26-.119-.173-.143-.468-.074-.884l1.278-8.424c.05-.347.18-.614.393-.802.213-.188.478-.282.795-.282.317 0 .585.079.802.237.218.159.397.476.535.951l1.694 6.21 1.65-6.24c.128-.465.304-.775.527-.928a1.34 1.34 0 01.78-.23c.287 0 .547.096.78.29.232.192.378.472.438.839l1.278 8.38z"/><path d="M13 23.34c5.711 0 10.34-4.629 10.34-10.34S18.712 2.66 13 2.66 2.66 7.288 2.66 13 7.288 23.34 13 23.34zM13 26C5.82 26 0 20.18 0 13S5.82 0 13 0s13 5.82 13 13-5.82 13-13 13z"/></g></svg>