<svg width="41px" height="32px" viewBox="0 0 41 32" version="1.1" xmlns="http://www.w3.org/2000/svg" xmlns:xlink="http://www.w3.org/1999/xlink">
    <g stroke="none" stroke-width="1" fill="none" fill-rule="evenodd">
        <g fill-rule="nonzero">
            <polygon fill="#2BBDF7" points="15.701 13.193 20.165 23.093 26.809 19.263 26.814 19.261 26.814 11.595"></polygon>
            <polygon fill="#2891F9" points="35.394 5.847 31.247 4.285 26.815 3.927 26.815 27.75 33.464 31.582 38.712 20.842 35.402 10.457"></polygon>
            <polygon fill="#2BBDF7" points="35.005 3.929 33.465 7.76 33.463 7.76 33.463 31.58 40.113 27.749 40.113 3.929"></polygon>
            <polygon fill="#2B6DEF" points="33.464 0.095 26.814 3.929 33.464 7.762 40.114 3.929"></polygon>
            <polygon fill="#2891F9" points="20.168 15.424 20.168 15.422 13.519 7.982 0.22 3.926 0.22 27.746 6.868 31.579 8.768 18.397 13.519 19.26 13.519 19.256 20.169 23.088 20.169 15.424"></polygon>
            <polygon fill="#2B6DEF" points="6.87 0.094 0.218 3.927 20.164 15.429 23.178 13.692 26.813 11.595"></polygon>
            <polygon fill="#2BBDF7" points="6.87 15.425 6.869 15.425 6.869 31.579 13.519 27.747 13.519 19.258"></polygon>
        </g>
    </g>
</svg>