<svg width="70" height="70" xmlns="http://www.w3.org/2000/svg"><g><circle cx="35" cy="35" r="35"/><path d="M52.405 25.231a14.289 14.289 0 01-3.433 3.538c.015.197.022.493.022.89a19.41 19.41 0 01-.805 5.494 19.913 19.913 0 01-2.445 5.262 20.658 20.658 0 01-3.907 4.46c-1.51 1.292-3.332 2.323-5.465 3.093s-4.413 1.155-6.84 1.155c-3.826 0-7.328-1.024-10.505-3.072.494.056 1.044.084 1.651.084 3.177 0 6.009-.974 8.494-2.922a6.683 6.683 0 01-3.983-1.366c-1.173-.882-1.978-2.008-2.415-3.378.466.07.897.106 1.293.106a7.07 7.07 0 001.8-.234c-1.581-.325-2.89-1.112-3.928-2.36-1.038-1.25-1.556-2.7-1.556-4.352v-.084c.96.537 1.99.826 3.093.868a6.824 6.824 0 01-2.223-2.435 6.692 6.692 0 01-.827-3.261c0-1.244.31-2.394.933-3.451a19.372 19.372 0 006.238 5.05 19.07 19.07 0 007.867 2.107 7.66 7.66 0 01-.168-1.567c0-1.892.667-3.506 2-4.84 1.334-1.333 2.947-2 4.84-2 1.977 0 3.643.72 4.998 2.16a13.421 13.421 0 004.343-1.65c-.522 1.623-1.524 2.88-3.006 3.77a13.58 13.58 0 003.939-1.06l-.005-.005z"/></g></svg>