<svg t="1571889963703" class="icon" viewBox="0 0 1024 1024" version="1.1" xmlns="http://www.w3.org/2000/svg" p-id="4684" width="200" height="200"><path d="M957.728 233.152q-38.272 56-92.576 95.424 0.576 8 0.576 24 0 74.272-21.728 148.288t-66.016 141.984-105.44 120.288-147.424 83.424-184.576 31.136q-154.848 0-283.424-82.848 20 2.272 44.576 2.272 128.576 0 229.152-78.848-60-1.152-107.424-36.864t-65.152-91.136q18.848 2.848 34.848 2.848 24.576 0 48.576-6.272-64-13.152-106.016-63.712t-42.016-117.44l0-2.272q38.848 21.728 83.424 23.424-37.728-25.152-60-65.728t-22.272-88q0-50.272 25.152-93.152 69.152 85.152 168.288 136.288t212.288 56.864q-4.576-21.728-4.576-42.272 0-76.576 54.016-130.56t130.56-54.016q80 0 134.848 58.272 62.272-12 117.152-44.576-21.152 65.728-81.152 101.728 53.152-5.728 106.272-28.576z" p-id="4685" fill="#ffffff"></path></svg><svg t="1571889963703" class="icon" viewBox="0 0 1024 1024" version="1.1" xmlns="http://www.w3.org/2000/svg" p-id="4684" width="200" height="200"><path d="M957.728 233.152q-38.272 56-92.576 95.424 0.576 8 0.576 24 0 74.272-21.728 148.288t-66.016 141.984-105.44 120.288-147.424 83.424-184.576 31.136q-154.848 0-283.424-82.848 20 2.272 44.576 2.272 128.576 0 229.152-78.848-60-1.152-107.424-36.864t-65.152-91.136q18.848 2.848 34.848 2.848 24.576 0 48.576-6.272-64-13.152-106.016-63.712t-42.016-117.44l0-2.272q38.848 21.728 83.424 23.424-37.728-25.152-60-65.728t-22.272-88q0-50.272 25.152-93.152 69.152 85.152 168.288 136.288t212.288 56.864q-4.576-21.728-4.576-42.272 0-76.576 54.016-130.56t130.56-54.016q80 0 134.848 58.272 62.272-12 117.152-44.576-21.152 65.728-81.152 101.728 53.152-5.728 106.272-28.576z" p-id="4685"></path></svg>