<?xml version="1.0" encoding="UTF-8"?>
<svg width="70px" height="70px" viewBox="0 0 70 70" version="1.1" xmlns="http://www.w3.org/2000/svg" xmlns:xlink="http://www.w3.org/1999/xlink">
    <!-- Generator: Sketch 55.1 (78136) - https://sketchapp.com -->
    <title>twitter</title>
    <desc>Created with Sketch.</desc>
    <g id="页面1" stroke="none" stroke-width="1" fill="none" fill-rule="evenodd">
        <g id="分享_v2.6.0" transform="translate(-1090.000000, -475.000000)">
            <g id="twitter" transform="translate(1090.000000, 475.000000)">
                <circle id="椭圆形备份-6" fill="#FFFFFF" cx="35" cy="35" r="35"></circle>
                <g id="twitter-2" transform="translate(19.000000, 22.000000)" fill="#00ACED" fill-rule="nonzero">
                    <path d="M33.4045341,3.2312143 C32.4593115,4.61561298 31.3152849,5.79488209 29.9724543,6.76902163 C29.9869128,6.96601829 29.9941421,7.26241696 29.9941421,7.65821763 C29.9941421,9.49444355 29.7257567,11.3261512 29.1889859,13.1533405 C28.6522151,14.9805299 27.8371188,16.7345233 26.7436969,18.4153206 C25.6502749,20.096118 24.3481088,21.5826296 22.8371985,22.8748555 C21.3262882,24.1670814 19.5045208,25.1981512 17.3718962,25.9680648 C15.2392716,26.7379784 12.9593514,27.1229352 10.5321354,27.1229352 C6.70606229,27.1229352 3.20440116,26.0990947 0.0271520145,24.0514136 C0.520547363,24.1074402 1.07087294,24.1354535 1.67812876,24.1354535 C4.85537793,24.1354535 7.68652743,23.161314 10.1715772,21.2130349 C8.68958389,21.184118 7.36211545,20.7286761 6.18917194,19.8467093 C5.01622842,18.9647426 4.21107227,17.8387891 3.77370349,16.4688489 C4.2399892,16.5393339 4.67103239,16.5745764 5.06683306,16.5745764 C5.67408888,16.5745764 6.27411545,16.4968621 6.86691279,16.3414336 C5.28551744,16.016118 3.97612209,15.2290349 2.93872674,13.9801844 C1.9013314,12.7313339 1.38263372,11.2809684 1.38263372,9.62908802 L1.38263372,9.54504814 C2.34231478,10.0818189 3.37338455,10.3709883 4.47584302,10.4125564 C3.5432716,9.79084215 2.80227492,8.97936042 2.25285298,7.97811124 C1.70343105,6.97686207 1.42781643,5.88976573 1.42600915,4.71682221 C1.42600915,3.47339363 1.73686629,2.32304148 2.35858058,1.26576574 C4.06648756,3.36947339 6.14579652,5.05298169 8.59650748,6.31629066 C11.0472184,7.57959963 13.6696237,8.28173916 16.4637234,8.42270927 C16.3516703,7.88593849 16.2956437,7.3636262 16.2956437,6.8557724 C16.2956437,4.96351992 16.9625407,3.35049667 18.2963347,2.01670264 C19.6301288,0.682908606 21.243152,0.0160115908 23.1354045,0.0160115908 C25.1126005,0.0160115908 26.7789394,0.736224214 28.1344211,2.17664946 C29.6742484,1.88025078 31.1219028,1.3299252 32.4773846,0.525672715 C31.9550723,2.14863618 30.9529194,3.40561956 29.4709261,4.29662287 C30.7848397,4.15565277 32.0978497,3.80232387 33.409956,3.23663616 L33.4045341,3.2312143 Z" id="路径"></path>
                </g>
            </g>
        </g>
    </g>
</svg>