<svg width="14" height="10" xmlns="http://www.w3.org/2000/svg"><path d="M11.333.251l2.4 2.252a.822.822 0 010 1.213l-.01.009a.944.944 0 01-.367.203.96.96 0 01-.365.072H.914C.41 4 0 3.615 0 3.143c0-.473.41-.858.914-.858h10l-.874-.82a.827.827 0 01-.268-.607c0-.229.095-.445.268-.607A.94.94 0 0110.687 0a.94.94 0 01.646.251zM13.084 6c.505 0 .916.387.916.863 0 .475-.41.862-.916.862H3.12l.849.8c.172.161.269.38.268.61a.833.833 0 01-.264.606.942.942 0 01-.652.259.95.95 0 01-.639-.244l-.009-.009L.268 7.48A.833.833 0 010 6.87c0-.229.096-.449.269-.61a.934.934 0 01.584-.25.976.976 0 01.13-.01h12.101z"/></svg>