<svg width="11" height="8" xmlns="http://www.w3.org/2000/svg"><g><path d="M.577 4.022c0-.238.2-.438.438-.438H8.88c.238 0 .438.2.438.438s-.2.438-.438.438H1.005a.435.435 0 01-.428-.438z"/><path d="M.339 4.022c0-.362.314-.676.676-.676H8.88c.362 0 .677.314.677.676a.692.692 0 01-.677.677H1.005a.67.67 0 01-.666-.677zm8.742 0c0-.104-.095-.2-.2-.2H1.015c-.105 0-.2.096-.2.2 0 .105.085.2.19.2h7.876c.105 0 .2-.095.2-.2z"/><path d="M5.824 6.651c0-.114.038-.219.124-.305l2.324-2.324-2.314-2.314a.437.437 0 11.619-.619l2.628 2.629a.437.437 0 010 .619L6.577 6.956a.437.437 0 01-.62 0 .427.427 0 01-.133-.305z"/><path d="M5.586 6.651c0-.181.067-.343.19-.476L7.94 4.022 5.786 1.88a.667.667 0 010-.952.68.68 0 01.477-.2.64.64 0 01.476.2l2.638 2.619a.667.667 0 010 .953L6.748 7.118a.667.667 0 01-.952 0 .596.596 0 01-.21-.467zm3.02-2.629L6.11 6.518a.173.173 0 00-.057.133c0 .048.019.095.066.133.077.076.2.076.286 0l2.629-2.619c.076-.076.076-.2 0-.286L6.405 1.26a.194.194 0 00-.143-.057.194.194 0 00-.143.057.207.207 0 000 .286l2.486 2.476z"/></g></svg>