<?xml version="1.0" encoding="UTF-8"?>
<svg width="200px" height="154px" viewBox="0 0 200 154" version="1.1" xmlns="http://www.w3.org/2000/svg" xmlns:xlink="http://www.w3.org/1999/xlink">
    <!-- Generator: Sketch 57.1 (83088) - https://sketch.com -->
    <title>Shape</title>
    <desc>Created with Sketch.</desc>
    <g id="Page-1" stroke="none" stroke-width="1" fill="none" fill-rule="evenodd">
        <g id="vnt" transform="translate(0.000000, 0.414062)" fill="#FFFFFF" fill-rule="nonzero">
            <path d="M130.533584,1.3359375 C124.158584,1.3359375 118.658584,5.1796875 116.283584,10.6796875 L86.4085844,10.6796875 C84.0335844,5.1796875 78.5335844,1.3359375 72.1585844,1.3359375 C63.5960844,1.3359375 56.6273344,8.2734375 56.6273344,16.8671875 C56.6273344,25.4296875 63.5648344,32.3984375 72.1585844,32.3984375 C78.5335844,32.3984375 84.0335844,28.5546875 86.4085844,23.0546875 L116.283584,23.0546875 C118.658584,28.5546875 124.158584,32.3984375 130.533584,32.3984375 C139.096084,32.3984375 146.064834,25.4609375 146.064834,16.8671875 C146.064834,8.3046875 139.096084,1.3359375 130.533584,1.3359375 Z M117.908584,86.0859375 C114.314834,91.3671875 114.408584,98.0546875 117.627334,103.117188 L103.314834,121.929688 C97.4085844,120.804688 91.1585844,123.179687 87.5648344,128.460938 C82.7523344,135.554688 84.5648344,145.210938 91.6585844,150.023438 C98.7523344,154.835938 108.408584,153.023438 113.221084,145.929688 C116.814834,140.648438 116.721084,133.960938 113.502334,128.898438 L127.814834,110.085937 C133.721084,111.210937 139.971084,108.835937 143.564834,103.554687 C148.377334,96.4609375 146.564834,86.8046875 139.471084,81.9921875 C132.377334,77.1796875 122.721084,79.0234375 117.908584,86.0859375 L117.908584,86.0859375 Z M87.9710844,46.0546875 C84.3773344,51.3359375 84.4710844,58.0234375 87.6898344,63.0859375 L73.3773344,81.8984375 C67.4710844,80.7734375 61.2210844,83.1484375 57.6273344,88.4296875 C52.8148344,95.5234375 54.6273344,105.179688 61.7210844,109.992187 C68.8148344,114.804688 78.4710844,112.992188 83.2835844,105.898437 C86.8773344,100.617187 86.7835844,93.9296875 83.5648344,88.8671875 L97.8773344,70.0546875 C103.783584,71.1796875 110.033584,68.8046875 113.627334,63.5234375 C118.439834,56.4296875 116.627334,46.7734375 109.533584,41.9609375 C102.471084,37.1484375 92.7835844,38.9609375 87.9710844,46.0546875 L87.9710844,46.0546875 Z M59.3148344,47.6484375 C55.3148344,42.6796875 48.8773344,40.8359375 43.0960844,42.4296875 L29.2835844,23.2421875 C32.0648344,17.9296875 31.6273344,11.2421875 27.6273344,6.2734375 C22.2523344,-0.4140625 12.4710844,-1.4453125 5.78358438,3.9296875 C-0.903915625,9.3046875 -1.93516563,19.0859375 3.43983438,25.7734375 C7.43983438,30.7421875 13.8773344,32.5859375 19.6585844,30.9921875 L33.4710844,50.1796875 C30.6898344,55.4921875 31.1273344,62.1796875 35.1273344,67.1484375 C40.5023344,73.8359375 50.2835844,74.8671875 56.9710844,69.4921875 C63.6585844,64.0859375 64.6898344,54.3046875 59.3148344,47.6484375 Z M171.314834,7.4609375 C167.939834,12.8671875 168.314834,19.5546875 171.721084,24.4921875 L158.158584,43.8671875 C152.221084,42.9921875 146.064834,45.5859375 142.689834,51.0234375 C138.158584,58.3046875 140.377334,67.8671875 147.658584,72.3984375 C154.939834,76.9296875 164.502334,74.7109375 169.033584,67.4296875 C172.408584,62.0234375 172.033584,55.3359375 168.627334,50.3984375 L182.189834,31.0234375 C188.127334,31.8984375 194.283584,29.3046875 197.658584,23.8671875 C202.189834,16.5859375 199.971084,7.0234375 192.689834,2.4921875 C185.439834,-2.0390625 175.877334,0.1796875 171.314834,7.4609375 Z" id="Shape"></path>
        </g>
    </g>
</svg>