<svg width="200" height="154" xmlns="http://www.w3.org/2000/svg"><path d="M130.534 1.75a15.52 15.52 0 00-14.25 9.344H86.409a15.52 15.52 0 00-14.25-9.344c-8.563 0-15.532 6.937-15.532 15.531 0 8.563 6.938 15.531 15.532 15.531a15.52 15.52 0 0014.25-9.343h29.875a15.52 15.52 0 0014.25 9.343c8.562 0 15.53-6.937 15.53-15.53 0-8.563-6.968-15.532-15.53-15.532zM117.909 86.5a15.48 15.48 0 00-.282 17.031l-14.312 18.813a15.517 15.517 0 00-15.75 6.531c-4.813 7.094-3 16.75 4.094 21.563 7.093 4.812 16.75 3 21.562-4.094a15.48 15.48 0 00.281-17.031l14.313-18.813a15.517 15.517 0 0015.75-6.531c4.812-7.094 3-16.75-4.094-21.563-7.094-4.812-16.75-2.969-21.562 4.094zM87.97 46.469a15.48 15.48 0 00-.28 17.031L73.377 82.312a15.517 15.517 0 00-15.75 6.532c-4.812 7.093-3 16.75 4.094 21.562 7.094 4.813 16.75 3 21.563-4.094a15.48 15.48 0 00.28-17.03l14.313-18.813a15.517 15.517 0 0015.75-6.532c4.813-7.093 3-16.75-4.093-21.562-7.063-4.813-16.75-3-21.563 4.094zm-28.656 1.593c-4-4.968-10.438-6.812-16.219-5.218L29.284 23.656c2.78-5.312 2.343-12-1.657-16.969C22.252 0 12.471-1.03 5.784 4.344-.904 9.719-1.936 19.5 3.44 26.187c4 4.97 10.437 6.813 16.219 5.22L33.47 50.593c-2.781 5.312-2.344 12 1.656 16.968 5.375 6.688 15.157 7.72 21.844 2.344 6.69-5.405 7.72-15.185 2.345-21.843zm112-40.187c-3.375 5.406-3 12.094.406 17.031l-13.56 19.375c-5.938-.875-12.094 1.719-15.47 7.156-4.53 7.282-2.312 16.844 4.97 21.375 7.28 4.532 16.843 2.313 21.375-4.968 3.375-5.407 3-12.094-.407-17.032l13.563-19.375c5.937.875 12.094-1.718 15.469-7.156 4.53-7.281 2.312-16.844-4.97-21.375-7.25-4.531-16.812-2.312-21.374 4.969z"/></svg>