<svg t="1571890129207" class="icon" viewBox="0 0 1024 1024" version="1.1" xmlns="http://www.w3.org/2000/svg" p-id="10281" width="200" height="200"><path d="M669.181367 366.290407c10.193153 0 20.38119 0.703011 30.569226 1.75804-27.406187-127.892809-164.087149-222.76148-320.087109-222.76148-174.277232 0-317.278133 118.759801-317.278133 269.846868 0 87.134523 47.431266 158.815075 126.83778 214.33046l-31.618115 95.566566 111.030769-55.864332c39.702234 7.730055 71.673389 15.807011 111.027699 15.807011 9.837042 0 19.676132-0.344854 29.514197-1.399883-6.327102-21.084201-9.838066-43.569308-9.838066-66.406432C399.339616 478.728222 518.451434 366.290407 669.181367 366.290407L669.181367 366.290407zM498.422262 280.20989c23.89113 0 39.702234 15.812127 39.702234 39.70428 0 23.89113-15.811104 39.703257-39.702234 39.703257-23.893176 0-47.784306-15.812127-47.784306-39.703257C450.989973 296.022017 474.880079 280.20989 498.422262 280.20989L498.422262 280.20989zM276.364817 359.617427c-23.893176 0-47.783283-15.812127-47.783283-39.703257 0-23.892153 23.890107-39.70428 47.783283-39.70428 23.890107 0 39.702234 15.812127 39.702234 39.70428C316.067051 343.453283 300.254923 359.617427 276.364817 359.617427L276.364817 359.617427zM276.364817 359.617427" p-id="10282"></path><path d="M958.70539 613.651145c0-126.84392-126.84392-230.143611-269.493827-230.143611-151.087067 0-269.844821 103.299691-269.844821 230.143611 0 127.190821 118.758778 230.140541 269.844821 230.140541 31.624255 0 63.594387-8.082072 95.219665-15.811104l87.134523 47.781236-23.892153-79.405491C911.269008 748.574067 958.70539 684.972517 958.70539 613.651145L958.70539 613.651145zM601.719906 573.947887c-15.807011 0-31.618115-15.812127-31.618115-31.624255s15.811104-31.619138 31.618115-31.619138c23.89727 0 39.709397 15.807011 39.709397 31.619138S625.616152 573.947887 601.719906 573.947887L601.719906 573.947887zM776.346085 573.947887c-15.807011 0-31.619138-15.812127-31.619138-31.624255s15.812127-31.619138 31.619138-31.619138c23.89727 0 39.70428 15.807011 39.70428 31.619138S799.891338 573.947887 776.346085 573.947887L776.346085 573.947887zM776.346085 573.947887" p-id="10283"></path></svg>