<svg class="icon" viewBox="0 0 1024 1024" xmlns="http://www.w3.org/2000/svg" width="200" height="200"><path d="M669.181 366.29c10.194 0 20.382.703 30.57 1.758-27.407-127.892-164.088-222.761-320.088-222.761-174.277 0-317.278 118.76-317.278 269.847 0 87.134 47.432 158.815 126.838 214.33l-31.618 95.567 111.03-55.864c39.703 7.73 71.674 15.807 111.028 15.807 9.838 0 19.677-.345 29.515-1.4-6.327-21.085-9.838-43.57-9.838-66.407 0-138.439 119.111-250.877 269.841-250.877zm-170.759-86.08c23.891 0 39.702 15.812 39.702 39.704 0 23.891-15.81 39.703-39.702 39.703-23.893 0-47.784-15.812-47.784-39.703.352-23.892 24.242-39.704 47.784-39.704zm-222.057 79.407c-23.893 0-47.783-15.812-47.783-39.703 0-23.892 23.89-39.704 47.783-39.704 23.89 0 39.702 15.812 39.702 39.704 0 23.54-15.812 39.703-39.702 39.703zm0 0"/><path d="M958.705 613.651c0-126.844-126.844-230.143-269.493-230.143-151.088 0-269.845 103.3-269.845 230.143 0 127.191 118.759 230.14 269.845 230.14 31.624 0 63.594-8.081 95.22-15.81l87.134 47.78-23.892-79.405c63.595-47.782 111.031-111.383 111.031-182.705zM601.72 573.948c-15.807 0-31.618-15.812-31.618-31.624s15.81-31.62 31.618-31.62c23.897 0 39.71 15.808 39.71 31.62s-15.814 31.624-39.71 31.624zm174.626 0c-15.807 0-31.62-15.812-31.62-31.624s15.813-31.62 31.62-31.62c23.897 0 39.704 15.808 39.704 31.62s-16.159 31.624-39.704 31.624zm0 0"/></svg>