<svg class="icon" viewBox="0 0 1024 1024" xmlns="http://www.w3.org/2000/svg" width="200" height="200"><path d="M918.485 209.078c-62.138-69.905-155.345-95.796-238.195-77.672-20.713 5.178-31.069 23.301-28.48 44.014 5.178 20.713 23.302 31.069 44.014 28.48 59.55-12.945 126.865 5.178 170.88 54.37 44.014 49.193 56.96 116.509 36.247 176.058-2.59 10.356-2.59 18.123 2.589 28.48 5.178 7.767 12.945 15.534 20.712 18.123 18.124 5.178 38.836-5.178 46.604-23.302 23.301-85.44 7.767-178.646-54.371-248.551z"/><path d="M807.155 436.917c15.534 5.178 33.658-2.59 38.836-20.713 12.945-41.425 5.178-85.44-25.89-119.097-31.07-33.658-75.084-46.604-116.51-38.837-18.123 2.59-28.48 20.713-23.301 36.248 2.59 18.123 20.713 28.48 36.247 23.301 20.713-5.178 41.425 2.59 56.96 18.124 15.534 15.534 18.123 38.836 12.945 59.549-5.178 18.123 5.178 36.247 20.713 41.425zm-62.138 59.549c-12.945-5.179-23.302-7.768-15.535-23.302 15.535-38.836 15.535-72.494 0-95.796-31.068-44.014-116.508-41.425-212.304 0 0 0-31.069 12.945-23.302-10.356 15.535-49.193 12.946-88.029-10.356-111.33-51.781-51.782-191.592 2.588-310.689 121.686-88.029 90.618-139.81 183.824-139.81 266.675 0 157.934 201.948 253.73 398.718 253.73 258.907 0 429.786-150.167 429.786-269.265 0-72.494-62.138-113.919-116.508-132.042zM431.739 840.813c-157.934 15.534-292.566-56.96-302.922-157.934-10.357-103.563 108.74-199.359 266.675-214.893 157.933-15.535 292.565 56.96 302.922 157.933 10.356 103.563-108.742 199.36-266.675 214.894z"/><path d="M447.273 545.658c-75.083-20.713-160.523 18.124-191.592 82.85-33.658 67.316 0 142.4 75.084 165.701 77.672 25.891 170.879-12.945 201.948-85.44 31.069-69.904-7.768-142.398-85.44-163.111zm-56.96 173.468c-15.534 23.302-46.603 36.247-72.494 23.302-23.301-10.356-31.069-38.836-15.534-62.138 15.534-23.302 46.603-33.658 69.905-23.302 25.89 7.768 33.658 36.247 18.123 62.138z"/></svg>