<svg width="70" height="70" xmlns="http://www.w3.org/2000/svg"><g><circle cx="35" cy="35" r="35"/><g><path d="M50.206 24.153c-2.33-2.622-5.826-3.592-8.933-2.913-.776.194-1.165.874-1.068 1.65.195.777.874 1.166 1.65 1.069 2.234-.486 4.758.194 6.409 2.039 1.65 1.844 2.136 4.369 1.36 6.602-.098.388-.098.68.096 1.068.194.291.486.582.777.68.68.194 1.456-.195 1.748-.874.873-3.204.29-6.7-2.04-9.321z"/><path d="M46.03 32.697a1.13 1.13 0 001.457-.777c.486-1.553.194-3.204-.97-4.466a4.726 4.726 0 00-4.37-1.456c-.68.097-1.068.776-.874 1.359.097.68.777 1.068 1.36.874.776-.194 1.553.097 2.136.68.582.582.68 1.456.485 2.232-.194.68.194 1.36.777 1.554zM43.7 34.93c-.485-.194-.873-.291-.582-.874.583-1.456.583-2.718 0-3.592-1.165-1.65-4.369-1.554-7.961 0 0 0-1.165.485-.874-.389.582-1.844.485-3.3-.388-4.174-1.942-1.942-7.185.097-11.651 4.563-3.301 3.398-5.243 6.893-5.243 10 0 5.923 7.573 9.515 14.952 9.515 9.709 0 16.117-5.631 16.117-10.097 0-2.719-2.33-4.272-4.37-4.952zM31.954 47.843c-5.923.583-10.972-2.136-11.36-5.923-.388-3.883 4.078-7.475 10-8.058 5.923-.583 10.972 2.136 11.36 5.922.388 3.884-4.078 7.476-10 8.059z"/><path d="M32.535 36.775c-2.815-.777-6.02.68-7.184 3.107-1.263 2.524 0 5.34 2.815 6.213 2.913.971 6.408-.485 7.573-3.204 1.165-2.621-.291-5.34-3.204-6.116zM30.4 43.28c-.582.874-1.747 1.359-2.718.874-.874-.389-1.165-1.457-.583-2.33.583-.874 1.748-1.263 2.622-.874.97.29 1.262 1.359.68 2.33z"/></g></g></svg>