<?xml version="1.0" encoding="UTF-8"?>
<svg width="70px" height="70px" viewBox="0 0 70 70" version="1.1" xmlns="http://www.w3.org/2000/svg" xmlns:xlink="http://www.w3.org/1999/xlink">
    <!-- Generator: Sketch 55.1 (78136) - https://sketchapp.com -->
    <title>weibo</title>
    <desc>Created with Sketch.</desc>
    <g id="页面1" stroke="none" stroke-width="1" fill="none" fill-rule="evenodd">
        <g id="分享_v2.6.0" transform="translate(-870.000000, -475.000000)">
            <g id="weibo" transform="translate(870.000000, 475.000000)">
                <circle id="椭圆形备份-4" fill="#FFFFFF" cx="35" cy="35" r="35"></circle>
                <g id="weibo-3" transform="translate(17.000000, 21.000000)" fill="#FF5722" fill-rule="nonzero">
                    <path d="M33.2056881,3.15292667 C30.8755193,0.531486667 27.3802659,-0.439417056 24.2733741,0.240215541 C23.4966511,0.434396277 23.1082896,1.11402887 23.20538,1.89075186 C23.3995607,2.66747481 24.0791933,3.05583632 24.8559163,2.95874593 C27.0889948,2.47329407 29.6133444,3.15292667 31.2638807,4.99764372 C32.914417,6.84236078 33.3998689,9.36671039 32.6231459,11.5997889 C32.5260555,11.9881503 32.5260555,12.2794215 32.7202363,12.6677829 C32.914417,12.9590541 33.2056881,13.2503252 33.4969593,13.3474155 C34.1765919,13.5415963 34.9533148,13.1532348 35.2445859,12.4736022 C36.1183993,9.26962 35.5358571,5.77436667 33.2056881,3.15292667 L33.2056881,3.15292667 Z" id="路径"></path>
                    <path d="M29.0308022,11.6968793 C29.6133444,11.89106 30.292977,11.5997889 30.4871578,10.9201563 C30.9726097,9.36671035 30.6813385,7.71617407 29.5162541,6.45399926 C28.3511696,5.19182446 26.7006333,4.7063726 25.1471874,4.99764372 C24.4675548,5.09473411 24.0791933,5.77436667 24.2733741,6.35690887 C24.3704645,7.03654147 25.050097,7.42490294 25.6326393,7.23072221 C26.4093622,7.03654147 27.1860852,7.3278126 27.7686274,7.91035481 C28.3511696,8.49289701 28.44826,9.36671035 28.2540793,10.1434333 C28.0598985,10.8230659 28.44826,11.5026985 29.0308022,11.6968793 Z M26.7006333,13.9299578 C26.2151815,13.7357771 25.82682,13.6386867 26.1180911,13.0561445 C26.7006333,11.5997889 26.7006333,10.3376141 26.1180911,9.46380074 C24.9530067,7.81326446 21.7490245,7.91035481 18.1566807,9.46380074 C18.1566807,9.46380074 16.9915963,9.9492526 17.2828674,9.07543926 C17.8654096,7.23072221 17.7683193,5.77436667 16.8945059,4.90055333 C14.9526985,2.95874593 9.70981853,4.99764372 5.24366147,9.46380074 C1.94258887,12.8619637 0.000781472,16.3572171 0.000781472,19.4641089 C0.000781472,25.3866215 7.57383035,28.9789652 14.9526985,28.9789652 C24.6617356,28.9789652 31.0697,23.3477237 31.0697,18.8815667 C31.0697,16.1630363 28.7395311,14.6095904 26.7006333,13.9299578 L26.7006333,13.9299578 Z M14.9526985,26.8429771 C9.03018593,27.4255193 3.98148667,24.7069889 3.59312519,20.9204645 C3.20476372,17.0368497 7.67092074,13.4445059 13.5934333,12.8619637 C19.5159459,12.2794215 24.5646452,14.9979519 24.9530067,18.7844763 C25.3413681,22.6680911 20.8752111,26.2604348 14.9526985,26.8429771 Z" id="形状"></path>
                    <path d="M15.5352407,15.7746748 C12.71962,14.9979519 9.51563779,16.4543074 8.35055333,18.8815667 C7.08837853,21.4059163 8.35055333,24.2215371 11.1661741,25.0953504 C14.0788852,26.0662541 17.5741385,24.6098985 18.7392229,21.8913681 C19.9043074,19.2699281 18.4479518,16.5513977 15.5352407,15.7746748 Z M13.3992526,22.2797296 C12.8167104,23.1535429 11.6516259,23.6389948 10.6807222,23.1535429 C9.80690887,22.7651815 9.51563775,21.6971874 10.09818,20.8233741 C10.6807222,19.9495607 11.8458067,19.5611993 12.71962,19.9495607 C13.6905237,20.2408319 13.9817948,21.3088259 13.3992526,22.2797296 L13.3992526,22.2797296 Z" id="形状"></path>
                </g>
            </g>
        </g>
    </g>
</svg>