<svg t="1571889861630" class="icon" viewBox="0 0 1024 1024" version="1.1" xmlns="http://www.w3.org/2000/svg" p-id="2287" width="200" height="200"><path d="M918.485017031111 209.07804444444446c-62.13783665777777-69.90506666666667-155.34459221333333-95.79583260444444-238.19504184888888-77.67229667555556-20.71261184 5.17815296-31.068918897777777 23.301688888888886-28.47984184888889 44.01430186666666 5.17815296 20.71261184 23.301688888888886 31.068918897777777 44.014300728888884 28.47984184888889 59.548760746666666-12.945382968888888 126.86475036444445 5.17815296 170.8790522311111 54.37060778666666 44.014300728888884 49.19245482666667 56.95968369777778 116.50844444444445 36.247071857777776 176.05720405333332-2.5890770488888886 10.35630592-2.5890770488888886 18.123535928888888 2.5890759111111112 28.47984184888889 5.17815296 7.767230008888888 12.945382968888888 15.534458879999999 20.712612977777777 18.123535928888888 18.123535928888888 5.17815296 38.836147768888885-5.17815296 46.60337777777777-23.301688888888886 23.301688888888886-85.43952554666666 7.767230008888888-178.6462811022222-54.37060778666666-248.55134776888886z" fill="#ffffff" p-id="2288"></path><path d="M807.1547255466666 436.9167803733333c15.534458879999999 5.17815296 33.657994808888894-2.5890770488888886 38.83614890666666-20.712612977777777 12.945382968888888-41.42522481777778 5.17815296-85.43952554666666-25.890765937777775-119.09752035555556-31.068918897777777-33.657994808888894-75.08321962666668-46.60337777777777-116.50844444444445-38.836147768888885-18.123535928888888 2.5890770488888886-28.47984184888889 20.71261184-23.301688888888886 36.247070719999996 2.5890770488888886 18.123535928888888 20.71261184 28.47984184888889 36.247071857777776 23.301688888888886 20.71261184-5.17815296 41.42522481777778 2.5890770488888886 56.95968369777778 18.123535928888888 15.534458879999999 15.534458879999999 18.123535928888888 38.836147768888885 12.945382968888888 59.548760746666666-5.17815296 18.123535928888888 5.17815296 36.247071857777776 20.71261184 41.42522481777778zM745.0168888888888 496.46554112c-12.945382968888888-5.17815296-23.301688888888886-7.767230008888888-15.534458879999999-23.301688888888886 15.534458879999999-38.836147768888885 15.534458879999999-72.49414371555555 0-95.79583260444444-31.068918897777777-44.014300728888884-116.50844444444445-41.42522481777778-212.30427704888885 0 0 0-31.068918897777777 12.945382968888888-23.301688888888886-10.35630592 15.534458879999999-49.19245482666667 12.945382968888888-88.02860259555555-10.35630592-111.33029148444444-51.78153073777778-51.78153073777778-191.5916640711111 2.5890770488888886-310.6891855644444 121.68659740444444C84.80236999111105 467.9856992711111 33.02083925333335 561.1924548266667 33.02083925333335 644.0429033244443c0 157.93366926222222 201.94796999111114 253.7295007288889 398.71778816 253.72950186666665 258.90765482666666 0 429.78670592000003-150.16643925333335 429.78670592000003-269.26396074666667 0-72.49414371555555-62.13783665777777-113.91936739555555-116.50844444444445-132.04290332444444zM431.73862741333335 840.8127214933334c-157.93366926222222 15.534458879999999-292.5656496355556-56.95968369777778-302.92195555555554-157.93366926222222-10.35630592-103.56306147555556 108.74121443555556-199.35889408 266.6748836977778-214.89335296000002 157.93366926222222-15.534458879999999 292.5656496355556 56.95968369777778 302.92195555555554 157.93366812444444 10.35630592 103.56306147555556-108.74121443555556 199.35889408-266.6748836977778 214.89335409777777z" fill="#ffffff" p-id="2289"></path><path d="M447.27308629333334 545.6579948088889c-75.08321962666668-20.71261184-160.5227451733333 18.123535928888888-191.5916640711111 82.85044963555556-33.657994808888894 67.31598961777779 0 142.3992103822222 75.08321962666668 165.70089927111113 77.67229667555556 25.890765937777775 170.8790522311111-12.945382968888888 201.94796999111114-85.43952668444444 31.068918897777777-69.90506666666667-7.767230008888888-142.3992103822222-85.43952554666666-163.11182222222223z m-56.95968369777778 173.4681281422222c-15.534458879999999 23.301688888888886-46.60337777777777 36.247071857777776-72.49414371555555 23.301688888888886-23.301688888888886-10.35630592-31.068918897777777-38.836147768888885-15.534458879999999-62.13783665777777 15.534458879999999-23.301688888888886 46.60337777777777-33.657994808888894 69.90506666666667-23.301688888888886 25.890765937777775 7.767230008888888 33.657994808888894 36.247071857777776 18.123535928888888 62.13783665777777z" p-id="2290"></path></svg>