<svg class="icon" viewBox="0 0 1024 1024" xmlns="http://www.w3.org/2000/svg" width="200" height="200"><path d="M385.714 733.714q12-19.428 6.286-39.428t-25.714-28.572q-19.429-8-41.715-.571t-34.285 26.286q-12.572 19.428-7.429 39.142t24.572 28.858T350 760.857t35.714-27.143zm53.715-69.143q4.571-7.428 2-15.142t-10-10.572q-8-2.857-16.286.286t-12.286 10.571q-9.714 17.715 7.429 25.715 8 2.857 16.571-.286t12.572-10.572zm99.428 61.143Q513.143 784 448.571 811.43t-128 6.857Q259.43 798.857 236.286 746T240 638.857q26.857-53.143 86.571-79.428t120.286-10.858q63.429 16.572 90.572 68.286t1.428 108.857zm178.286-91.428q-5.143-54.857-50.857-97.143t-119.143-62.286-156.857-12Q262.857 476 179.143 543.714t-75.714 151.143q5.142 54.857 50.857 97.143t119.143 62.286 156.857 12q127.428-13.143 211.143-80.857t75.714-151.143zm176 2.285q0 38.858-21.143 79.715t-62.286 78.285-96.285 67.143-129.143 47.429-154.572 17.714-157.143-19.143-137.428-53.143-98-86.285T0 654.286q0-65.715 39.714-140t112.857-147.429Q249.143 270.286 347.714 232t140.857 4Q525.714 272.571 500 355.429q-2.286 8-.571 11.428t5.714 4 8.286-.286 7.714-2l3.428-1.142Q604 333.714 665.143 333.714t87.428 34.857q25.715 36 0 101.715-1.142 7.428-2.571 11.428t2.571 7.143 6.858 4.286 9.714 3.428Q801.714 506.857 828 523.43T873.714 570t19.429 66.571zM850.857 280q24 26.857 31.143 62t-3.714 67.143q-4.572 13.143-16.857 19.428T836 430.857q-13.143-4.571-19.429-16.857t-2.285-25.429q11.428-36-13.715-63.428t-61.142-20q-13.715 2.857-25.715-4.572T699.43 279.43Q696.57 265.714 704 254t21.143-14.571q34.286-7.429 68 3.142T850.857 280zm103.429-93.143Q1004 241.714 1018.57 314t-7.714 138q-5.143 15.429-19.428 22.857t-29.715 2.286-22.857-19.429T936 428q16-46.857 5.714-98.286T896 239.43Q860.571 200 811.429 184.857T712.57 180q-16 3.429-29.714-5.429t-17.143-24.857 5.429-29.428T696 103.429Q766.286 88.57 835.429 110t118.857 76.857z"/></svg>