<svg t="1565927038888" class="icon" viewBox="0 0 1024 1024" version="1.1" xmlns="http://www.w3.org/2000/svg" p-id="2004" width="200" height="200"><path d="M385.714286 733.714286q12-19.428571 6.285714-39.428572t-25.714286-28.571428q-19.428571-8-41.714285-0.571429t-34.285715 26.285714q-12.571429 19.428571-7.428571 39.142858t24.571428 28.857142 42.571429 1.428572T385.714286 733.714286z m53.714285-69.142857q4.571429-7.428571 2-15.142858T431.428571 638.857143q-8-2.857143-16.285714 0.285714T402.857143 649.714286q-9.714286 17.714286 7.428571 25.714285 8 2.857143 16.571429-0.285714t12.571428-10.571428z m99.428572 61.142857q-25.714286 58.285714-90.285714 85.714285t-128 6.857143q-61.142857-19.428571-84.285715-72.285714T240 638.857143q26.857143-53.142857 86.571429-79.428572T446.857143 548.571429q63.428571 16.571429 90.571428 68.285714T538.857143 725.714286z m178.285714-91.428572q-5.142857-54.857143-50.857143-97.142857T547.142857 474.857143 390.285714 462.857143q-127.428571 13.142857-211.142857 80.857143T103.428571 694.857143q5.142857 54.857143 50.857143 97.142857t119.142857 62.285714 156.857143 12q127.428571-13.142857 211.142857-80.857143T717.142857 634.285714z m176 2.285715q0 38.857143-21.142857 79.714285t-62.285714 78.285715-96.285715 67.142857-129.142857 47.428571-154.571428 17.714286-157.142857-19.142857-137.428572-53.142857-98-86.285715T0 654.285714q0-65.714286 39.714286-140T152.571429 366.857143q96.571429-96.571429 195.142857-134.857143t140.857143 4q37.142857 36.571429 11.428571 119.428571-2.285714 8-0.571429 11.428572t5.714286 4 8.285714-0.285714T521.142857 368.571429l3.428572-1.142858q79.428571-33.714286 140.571428-33.714285t87.428572 34.857143q25.714286 36 0 101.714285-1.142857 7.428571-2.571429 11.428572t2.571429 7.142857 6.857142 4.285714 9.714286 3.428572q32.571429 10.285714 58.857143 26.857142t45.714286 46.571429 19.428571 66.571429z m-42.285714-356.571429q24 26.857143 31.142857 62T878.285714 409.142857q-4.571429 13.142857-16.857143 19.428572t-25.428571 2.285714q-13.142857-4.571429-19.428571-16.857143t-2.285715-25.428571q11.428571-36-13.714285-63.428572t-61.142858-20q-13.714286 2.857143-25.714285-4.571428t-14.285715-21.142858q-2.857143-13.714286 4.571429-25.428571t21.142857-14.571429q34.285714-7.428571 68 3.142858t57.714286 37.428571z m103.428571-93.142857q49.714286 54.857143 64.285715 127.142857T1010.857143 452q-5.142857 15.428571-19.428572 22.857143t-29.714285 2.285714-22.857143-19.428571-2.857143-29.714286q16-46.857143 5.714286-98.285714t-45.714286-90.285715q-35.428571-39.428571-84.571429-54.571428t-98.857142-4.857143q-16 3.428571-29.714286-5.428571t-17.142857-24.857143 5.428571-29.428572T696 103.428571q70.285714-14.857143 139.428571 6.571429T954.285714 186.857143z" p-id="2005"></path></svg>