<?xml version="1.0" encoding="UTF-8"?>
<svg width="24px" height="20px" viewBox="0 0 24 20" version="1.1" xmlns="http://www.w3.org/2000/svg" xmlns:xlink="http://www.w3.org/1999/xlink">
    <!-- Generator: Sketch 55.1 (78136) - https://sketchapp.com -->
    <title>weixin备份</title>
    <desc>Created with Sketch.</desc>
    <g id="页面1" stroke="none" stroke-width="1" fill="none" fill-rule="evenodd">
        <g id="分享_v2.6.0" transform="translate(-1024.000000, -767.000000)" fill="#24DB5A" fill-rule="nonzero">
            <g id="weixin备份" transform="translate(1024.000000, 767.000000)">
                <path d="M16.2581522,5.9076087 C16.5244565,5.9076087 16.7907609,5.9076087 17.0570652,5.95108696 C16.3043478,2.5326087 12.6603261,0 8.48369565,0 C3.82065217,0 0,3.19836957 0,7.19565217 C0,9.50543478 1.24456522,11.4592391 3.375,12.9266304 L2.5298913,15.4592391 L5.50543478,13.9945652 C6.57065217,14.2173913 7.41576087,14.4375 8.48097826,14.4375 C8.74728261,14.4375 9.01358696,14.4375 9.32608696,14.3940217 C9.14945652,13.8152174 9.05978261,13.2391304 9.05978261,12.6168478 C9.0625,8.92934783 12.2173913,5.9076087 16.2581522,5.9076087 Z M11.6820652,3.59782609 C12.3478261,3.59782609 12.7472826,4.04076087 12.7472826,4.66304348 C12.7472826,5.28532609 12.3043478,5.72826087 11.6820652,5.72826087 C11.0163043,5.72826087 10.3940217,5.2826087 10.3940217,4.66304348 C10.3940217,3.99728261 11.0625,3.59782609 11.6820652,3.59782609 L11.6820652,3.59782609 Z M5.80434783,5.58423913 C5.13315217,5.58423913 4.50543478,5.14402174 4.50543478,4.5298913 C4.50543478,3.86956522 5.17663043,3.47554348 5.80434783,3.47554348 C6.43206522,3.47554348 6.87772968,3.91576087 6.87772968,4.5298913 C6.88043478,5.14673913 6.43206522,5.58423913 5.80434783,5.58423913 Z" id="形状"></path>
                <path d="M23.9891304,12.5271739 C23.9891304,9.10597826 20.6141304,6.35326087 16.7934783,6.35326087 C12.75,6.35326087 9.55163043,9.15217391 9.55163043,12.5271739 C9.55163043,15.9483696 12.75,18.701087 16.7934783,18.701087 C17.638587,18.701087 18.4809783,18.4782609 19.326087,18.2581522 L21.6358696,19.5461957 L21.013587,17.4130435 C22.701087,16.125 23.9891304,14.4375 23.9891304,12.5271739 L23.9891304,12.5271739 Z M14.4375,11.4619565 C14.0380435,11.4619565 13.5923913,11.0625 13.5923913,10.6168478 C13.5923913,10.2173913 14.0353261,9.77173913 14.4375,9.77173913 C15.0597826,9.77173913 15.5027174,10.2146739 15.5027174,10.6168478 C15.5027174,11.0625 15.1032609,11.4619565 14.4375,11.4619565 Z M19.2744565,11.2554348 C18.8722826,11.2554348 18.423913,10.8586957 18.423913,10.4211957 C18.423913,10.0244565 18.8722826,9.58695652 19.2744565,9.58695652 C19.9021739,9.58695652 20.3478261,10.0271739 20.3478261,10.4211957 C20.3478261,10.861413 19.9021739,11.2554348 19.2744565,11.2554348 Z" id="形状"></path>
            </g>
        </g>
    </g>
</svg>