<svg width="24" height="20" xmlns="http://www.w3.org/2000/svg"><path d="M16.258 5.908c.266 0 .533 0 .8.043C16.303 2.533 12.66 0 8.483 0 3.82 0 0 3.198 0 7.196c0 2.31 1.245 4.263 3.375 5.73L2.53 15.46l2.975-1.464c1.066.222 1.91.443 2.976.443.266 0 .533 0 .845-.044a5.977 5.977 0 01-.266-1.777c.002-3.688 3.157-6.71 7.198-6.71zm-4.576-2.31c.666 0 1.065.443 1.065 1.065 0 .622-.443 1.065-1.065 1.065-.666 0-1.288-.445-1.288-1.065 0-.666.668-1.065 1.288-1.065zM5.804 5.584c-.67 0-1.299-.44-1.299-1.054 0-.66.672-1.054 1.3-1.054.627 0 1.073.44 1.073 1.054.002.617-.446 1.054-1.074 1.054z"/><path d="M23.99 12.527c0-3.421-3.376-6.174-7.197-6.174-4.043 0-7.241 2.8-7.241 6.174 0 3.421 3.198 6.174 7.241 6.174.846 0 1.688-.223 2.533-.443l2.31 1.288-.622-2.133c1.687-1.288 2.975-2.976 2.975-4.886zm-9.552-1.065c-.4 0-.846-.4-.846-.845 0-.4.443-.845.845-.845.623 0 1.066.443 1.066.845 0 .445-.4.845-1.066.845zm4.836-.207c-.402 0-.85-.396-.85-.834 0-.397.448-.834.85-.834.628 0 1.074.44 1.074.834 0 .44-.446.834-1.074.834z"/></svg>