<svg width="24" height="24" xmlns="http://www.w3.org/2000/svg"><path d="M19.355 6.323l-.747.748.297-.298a.678.678 0 00-.028-.93l.478.48zm-4.058-4.065l.748.747-.298-.297a.678.678 0 00-.93.028l.48-.478zM23.31 22.67a1.06 1.06 0 00-1.06-1.06H1.063a1.06 1.06 0 100 2.12h21.189a1.061 1.061 0 001.057-1.06zM2.736 19.955a1.06 1.06 0 001.06-1.06v-5.558a1.06 1.06 0 10-2.12 0v5.558c0 .587.476 1.06 1.06 1.06z"/><path d="M1.676 18.897c0 .585.473 1.06 1.06 1.06h5.542a1.06 1.06 0 100-2.12H2.736c-.584 0-1.06.476-1.06 1.06z"/><path d="M21.1 5.082c-.002-.003-.007-.005-.01-.01L16.45.432c-.69-.6-1.74-.574-2.397.085-.002.003-.005.008-.01.01L1.976 12.593a1.058 1.058 0 101.497 1.498l11.82-11.82 4.052 4.05L7.528 18.138a1.058 1.058 0 101.498 1.497l12.191-12.19a1.765 1.765 0 00-.116-2.362z"/></svg>