<svg width="24" height="24" xmlns="http://www.w3.org/2000/svg"><path d="M22.91 4.903l-3.82-3.84c-1.404-1.403-3.693-1.403-5.115 0L.683 14.373A2.396 2.396 0 000 16.035v6.11c0 1.22.628 1.847 1.846 1.847l6.166-.037c.628 0 1.219-.258 1.643-.683L22.911 9.98c1.421-1.385 1.421-3.674 0-5.077zM7.773 22.127l-5.926.037v-5.889c0-.11.037-.222.056-.332.036.129.11.24.203.35L7.68 21.87c.11.11.222.166.35.203-.092.018-.165.055-.258.055zm1.403-.904a.827.827 0 00-.258-.591l-5.575-5.575a.89.89 0 00-.554-.24l9.009-9.01 6.388 6.388-9.01 9.028zM21.637 8.724L19.55 10.83 13.163 4.44l2.105-2.104a1.805 1.805 0 012.547 0l3.822 3.84a1.805 1.805 0 010 2.547z"/></svg>