<?xml version="1.0" encoding="UTF-8"?>
<svg width="51px" height="41px" viewBox="0 0 51 41" version="1.1" xmlns="http://www.w3.org/2000/svg" xmlns:xlink="http://www.w3.org/1999/xlink">
    <!-- Generator: Sketch 55.1 (78136) - https://sketchapp.com -->
    <title>icon-test</title>
    <desc>Created with Sketch.</desc>
    <g id="页面1" stroke="none" stroke-width="1" fill="none" fill-rule="evenodd">
        <g id="文章页" transform="translate(-1210.000000, -1190.000000)" stroke="#333333" stroke-width="0.5">
            <g id="icon-test" transform="translate(1236.000000, 1211.000000) scale(-1, 1) translate(-1236.000000, -1211.000000) translate(1211.000000, 1191.000000)">
                <path d="M43.9924483,9.80254284 C43.9924483,9.80254284 40.9025544,9.82399645 39.0993004,9.82082883 L39.10242,9.79327992 C36.6574299,8.61966736 32.4000187,7.25359636 30.3674944,6.14712825 C28.692674,2.42164148 26.0949169,0.0163909219 23.1791954,0.0163909219 C18.1394239,0.0163909219 14.0378992,7.17416527 14.0378992,15.9761874 C14.0378992,24.7782096 18.1394239,31.935984 23.1791954,31.9359839 C26.0978925,31.9359839 28.6987692,29.52459 30.370566,25.7928639 C32.3509682,24.756804 35.3125245,23.7788175 37.6353683,22.8252123 L37.6353683,22.810046 C36.0918612,24.8485217 36.959844,26.2696905 36.959844,26.2696905 C37.1249455,26.6333458 37.3602631,26.9542859 37.6629172,27.1988665 L37.5956288,27.4738277 C36.5534735,31.7894084 35.5235089,35.7044258 36.8559357,37.8713832 C37.308333,38.6109323 38.0112143,39.0418761 38.8822207,39.1244748 C39.432383,39.176405 40.5082306,39.0725446 41.3701181,38.1738453 C43.8670864,35.5578023 45.3952833,26.3858375 45.8994668,21.4684043 C48.1366882,20.6431367 49.7504594,18.4395595 49.7504594,15.8172292 C49.7504594,12.4950893 47.1708923,9.80254284 43.9924483,9.80254284 L43.9924483,9.80254284 Z" id="路径" fill="#27323A" fill-rule="nonzero"></path>
                <path d="M28.209752,26.0130153 C26.8375857,28.6017014 25.0527616,30.0257978 23.1791954,30.0257978 C19.1937698,30.0257978 15.951205,23.7238636 15.951205,15.9761394 C15.951205,8.22841523 19.1938178,1.92648098 23.1791954,1.92648098 C27.164621,1.92648098 30.4072339,8.22841519 30.4072339,15.9761394 C30.4072339,19.7720823 29.6279452,23.3356352 28.209752,26.0130153 Z" id="路径" fill="#FDD65D" fill-rule="nonzero"></path>
                <path d="M45.1843468,19.533645 L43.9802097,19.979947 L43.8487524,21.2574679 C43.2160873,27.4127785 41.611531,34.9342081 39.8786851,36.7465811 C39.5362914,37.1041411 39.120706,37.0767361 39.0748231,37.0706408 C38.8487204,37.0491872 38.7263342,36.9789231 38.6133548,36.7894403 C37.7851115,35.444631 38.6804993,31.7496688 39.4721226,28.4947214 C39.4721226,28.4947214 39.6004603,27.9598693 39.6035799,27.9476786 L39.9672352,26.4072911 L38.9556045,25.5912385 C38.8487204,25.5056641 38.7355971,25.3070624 38.763146,25.0136712 C38.790695,24.7202801 38.9923684,24.6071567 39.1236816,24.4727238 C40.5082306,23.051555 39.566816,20.1266186 37.7148954,20.5575623 C37.7086561,20.560682 32.2410125,22.7061856 31.3669344,23.0698409 L31.3669344,23.033221 C31.9720506,20.9028836 32.3205396,18.5129433 32.3205396,15.9762354 C32.3205396,13.4426472 31.9720506,11.0525628 31.3669344,8.9192498 L31.3669344,8.89482052 C32.2868954,9.28290506 38.7173112,11.8929967 38.7173112,11.8929968 L43.9924483,11.8624722 C44.9612198,11.8624722 45.8782051,12.2627474 46.5718715,12.9902498 C47.290111,13.739014 47.6874105,14.7445493 47.6874105,15.8172292 C47.6874105,17.489026 46.6818752,18.9835786 45.1843468,19.533645 L45.1843468,19.533645 Z" id="路径" fill="#43D8D6" fill-rule="nonzero"></path>
                <path d="M20.1259694,15.9854024 C20.1259694,18.9131705 22.5434586,20.7042339 27.3112446,21.3123258 C27.7055685,21.3613283 28.0692237,21.1015334 28.1487508,20.7133049 C28.4696909,19.1821323 28.6316727,17.5929344 28.6316727,15.9914977 C28.6316727,14.3899171 28.4696909,12.8007191 28.1487508,11.2663789 C28.0692717,10.88127 27.7056165,10.6215232 27.3112446,10.6704777 C22.5434106,11.2756419 20.1259694,13.0635856 20.1259694,15.9854024 L20.1259694,15.9854024 Z" id="路径" fill="#27323A" fill-rule="nonzero"></path>
                <path d="M26.7427483,12.3270601 C26.9475894,13.5280296 27.1156665,14.7475251 27.1156665,15.9915457 C27.1156665,17.2354224 26.9475894,18.4548698 26.7427483,19.6560313 C23.3656065,19.0875349 21.6419276,17.9047074 21.6419276,15.9854504 C21.6419276,14.0721447 23.3656066,12.8924368 26.7427483,12.3270601 L26.7427483,12.3270601 Z" id="路径" fill="#FFFFFF" fill-rule="nonzero"></path>
                <rect id="矩形" fill="#333333" transform="translate(8.757359, 4.242641) scale(-1, 1) rotate(-45.000000) translate(-8.757359, -4.242641) " x="3.50735931" y="2.99264069" width="10.5" height="2.5" rx="1.25"></rect>
                <rect id="矩形备份-4" fill="#333333" transform="translate(5.757359, 16.242641) scale(-1, 1) translate(-5.757359, -16.242641) " x="0.507359313" y="14.9926407" width="10.5" height="2.5" rx="1.25"></rect>
                <rect id="矩形备份-8" fill="#333333" transform="translate(8.757359, 27.242641) scale(-1, 1) rotate(-315.000000) translate(-8.757359, -27.242641) " x="3.50735931" y="25.9926407" width="10.5" height="2.5" rx="1.25"></rect>
            </g>
        </g>
    </g>
</svg>