<?xml version="1.0" encoding="UTF-8"?>
<svg width="48px" height="46px" viewBox="0 0 48 46" version="1.1" xmlns="http://www.w3.org/2000/svg" xmlns:xlink="http://www.w3.org/1999/xlink">
    <!-- Generator: Sketch 55.1 (78136) - https://sketchapp.com -->
    <title>naodianbo</title>
    <desc>Created with Sketch.</desc>
    <g id="页面1" stroke="none" stroke-width="1" fill="none" fill-rule="evenodd">
        <g id="文章页" transform="translate(-1386.000000, -1108.000000)" fill-rule="nonzero">
            <g id="naodianbo" transform="translate(1386.000000, 1108.000000)">
                <polygon id="路径" fill="#34CA9D" points="0 18.9385011 19.5059996 18.9385011 19.5059996 45.2920024 0 45.2920024"></polygon>
                <polygon id="路径" fill="#FFFFFF" points="2.34034476 18.3147219 19.5059996 18.3147219 19.5059996 42.6749435 2.34034476 42.6749435"></polygon>
                <path d="M8.9064422,16.4199337 L12.4474448,16.4199337 L12.4474448,18.2959616 L8.9064422,18.2959616 L8.9064422,16.4199337 Z M19.6982924,45.3013825 L17.8222646,45.3013825 C17.8235107,44.8440651 17.6427149,44.4050511 17.3197817,44.081238 C16.9968485,43.7574249 16.5583281,43.5754352 16.101009,43.5754369 L1.56179316,43.5754369 L1.56179316,16.4152437 L5.15907659,16.4152437 L5.15907659,18.2912715 L3.41437068,18.2912715 L3.41437068,41.6947189 L16.0775587,41.6947189 C16.6793778,41.6936143 17.2716271,41.8453076 17.7988142,42.1355855 L17.7988142,28.2905 L19.6748421,28.2905 L19.6982924,45.3013825 Z" id="形状" fill="#282D33"></path>
                <polygon id="路径" fill="#282D33" points="5.17783684 20.3549022 12.4474448 20.3549022 12.4474448 22.23093 5.17783684 22.23093"></polygon>
                <polygon id="路径" fill="#282D33" points="5.17783684 23.8021033 12.4474448 23.8021033 12.4474448 25.6781312 5.17783684 25.6781312"></polygon>
                <polygon id="路径" fill="#282D33" points="5.17783684 27.1977137 15.8430552 27.1977137 15.8430552 29.0737416 5.17783684 29.0737416"></polygon>
                <polygon id="路径" fill="#282D33" points="5.17783684 30.5886341 15.8430552 30.5886341 15.8430552 32.4646619 5.17783684 32.4646619"></polygon>
                <polygon id="路径" fill="#282D33" points="5.17783684 33.9795544 15.8430552 33.9795544 15.8430552 35.8555823 5.17783684 35.8555823"></polygon>
                <polygon id="路径" fill="#282D33" points="5.17783684 37.3751648 15.8430552 37.3751648 15.8430552 39.2511927 5.17783684 39.2511927"></polygon>
                <path d="M18.7837288,8.9392727 C23.315233,5.70122375 29.2764601,5.26742756 34.2290054,7.81532591 C39.1815508,10.3632243 42.2947039,15.4654478 42.2950479,21.0349623 L42.2950479,21.7056422 L44.3539884,25.3263759 L47.083609,30.0164456 L43.6176475,30.0164456 L43.6176475,35.8977929 C43.6176475,38.11246 41.8223051,39.9078024 39.607638,39.9078024 L33.2713539,39.9078024 L33.2713539,45.2451017 L18.7837288,8.9392727 Z" id="路径" fill="#FFFFFF"></path>
                <path d="M34.2093678,45.2451017 L32.33334,45.2451017 L32.33334,39.9078024 C32.33334,39.6590257 32.4321662,39.4204381 32.6080779,39.2445264 C32.7839896,39.0686147 33.0225772,38.9697885 33.2713539,38.9697885 L39.6217082,38.9697885 C41.3117562,38.959485 42.6770886,37.5878704 42.6796335,35.8977929 L42.6796335,30.0164456 C42.6796335,29.7676688 42.7784597,29.5290813 42.9543715,29.3531696 C43.1302832,29.1772578 43.3688707,29.0784317 43.6176475,29.0784317 L45.4420846,29.0784317 L41.4649056,22.1746492 C41.3756081,22.0211936 41.3316962,21.8455459 41.3382736,21.6681216 L41.3382736,21.0349623 C41.3399065,15.8123829 38.4209906,11.0273659 33.7765568,8.63894115 C29.1321231,6.25051639 23.5420429,6.65973689 19.2949464,9.69906399 L18.2021602,8.17479134 C23.0205643,4.73401225 29.3576119,4.27382496 34.6225706,6.98236474 C39.8875294,9.69090451 43.1978635,15.1141538 43.2002313,21.0349623 L43.2002313,21.4711387 L47.8903009,29.5615089 C48.0577753,29.8515826 48.0578671,30.2089469 47.8905416,30.4991066 C47.7232162,30.7892663 47.4138671,30.9681864 47.0789189,30.9685297 L44.5556614,30.9685297 L44.5556614,35.8977929 C44.5530994,38.6239611 42.347858,40.8354911 39.6217082,40.8458163 L34.2093678,40.8458163 L34.2093678,45.2451017 Z" id="路径" fill="#282D33"></path>
                <path d="M20.542505,20.0828781 C20.542505,23.4352262 22.5621621,26.4573921 25.6595095,27.7398416 C28.7568569,29.0222911 32.3217629,28.3124003 34.69156,25.9412614 C37.061357,23.5701225 37.7692296,20.0048152 36.4850269,16.9081942 C35.2008242,13.8115733 32.1775154,11.7936279 28.8251679,11.7955238 C24.2500209,11.7981143 20.542505,15.5077304 20.542505,20.0828781 L20.542505,20.0828781 Z" id="路径" fill="#F8C44F"></path>
                <path d="M24.2898706,20.0828781 C24.2897105,21.7032905 25.1540983,23.2006817 26.5573899,24.0109341 C27.9606815,24.8211865 29.6896543,24.8211865 31.0929459,24.0109341 C32.4962375,23.2006817 33.3606253,21.7032905 33.3604652,20.0828781 C33.3606253,18.4624658 32.4962375,16.9650745 31.0929459,16.1548221 C29.6896543,15.3445697 27.9606815,15.3445697 26.5573899,16.1548221 C25.1540983,16.9650745 24.2897105,18.4624658 24.2898706,20.0828781 L24.2898706,20.0828781 Z" id="路径" fill="#FFFFFF"></path>
                <path d="M28.8251679,25.5561894 C25.8023415,25.5561894 23.3518566,23.1057045 23.3518566,20.0828781 C23.3518566,17.0600518 25.8023415,14.6095668 28.8251679,14.6095668 C31.8479942,14.6095668 34.2984791,17.0600518 34.2984791,20.0828781 C34.2958931,23.1046326 31.8469224,25.5536034 28.8251679,25.5561894 L28.8251679,25.5561894 Z M28.8251679,16.4855947 C27.3702026,16.4855947 26.0585025,17.3620447 25.5017114,18.7062574 C24.9449202,20.0504701 25.2526885,21.5977258 26.2815044,22.6265417 C27.3103203,23.6553575 28.857576,23.9631258 30.2017887,23.4063347 C31.5460014,22.8495435 32.4224513,21.5378434 32.4224513,20.0828781 C32.4198675,18.0972246 30.8108214,16.4881785 28.8251679,16.4855947 L28.8251679,16.4855947 Z M15.9462367,16.0869388 L14.0702089,16.0869388 L14.0702089,14.8722108 C14.0676214,13.1903776 12.7034988,11.8283536 11.0216636,11.8283556 L11.0216636,9.95232774 C13.7385305,9.95490785 15.9410679,12.1553476 15.9462367,14.8722108 L15.9462367,16.0869388 Z M19.5059996,22.8875397 L17.6299717,22.8875397 L17.6299717,6.05956995 C17.6351369,2.71510371 20.3450754,0.00516520245 23.6895417,0 L23.6895417,1.87602784 C21.3801066,1.87861255 19.5085843,3.75013491 19.5059996,6.05956995 L19.5059996,22.8875397 Z" id="形状" fill="#282D33"></path>
                <path d="M16.7810691,26.9304161 C15.2819435,26.9175244 14.0727252,25.6999379 14.0702089,24.2007593 L14.0702089,15.8665056 L15.9462367,15.8665056 L15.9462367,24.2007593 C15.9225268,24.5199636 16.0793898,24.8256057 16.3525508,24.9924487 C16.6257119,25.1592917 16.9692568,25.1592917 17.2424178,24.9924487 C17.5155789,24.8256057 17.6724418,24.5199636 17.648732,24.2007593 L17.648732,19.4637889 L19.5247599,19.4637889 L19.5247599,24.2007593 C19.5247599,24.9271441 19.2352547,25.6235746 18.7203044,26.1358841 C18.2053541,26.6481936 17.5074443,26.934124 16.7810691,26.9304161 L16.7810691,26.9304161 Z M29.6459301,14.8065498 L27.7699022,14.8065498 L27.7699022,6.05956995 C27.767314,3.74830499 25.8929365,1.87602639 23.58167,1.87602784 L23.58167,0 C26.9279677,0.00258198877 29.6407591,2.71327525 29.6459301,6.05956995 L29.6459301,14.8065498 Z M8.04815947,18.2068503 L6.17213163,18.2068503 L6.17213163,14.8722108 C6.17730046,12.1553476 8.37983786,9.95490785 11.0967047,9.95232774 L11.0967047,11.8283556 C9.41486955,11.8283536 8.05074691,13.1903776 8.04815947,14.8722108 L8.04815947,18.2068503 Z" id="形状" fill="#282D33"></path>
            </g>
        </g>
    </g>
</svg>