<?xml version="1.0" encoding="UTF-8"?>
<svg width="45px" height="44px" viewBox="0 0 45 44" version="1.1" xmlns="http://www.w3.org/2000/svg" xmlns:xlink="http://www.w3.org/1999/xlink">
    <!-- Generator: Sketch 55.1 (78136) - https://sketchapp.com -->
    <title>huatong</title>
    <desc>Created with Sketch.</desc>
    <g id="页面1" stroke="none" stroke-width="1" fill="none" fill-rule="evenodd">
        <g id="文章页" transform="translate(-1214.000000, -1109.000000)" fill-rule="nonzero">
            <g id="huatong" transform="translate(1236.153846, 1131.000000) scale(-1, 1) translate(-1236.153846, -1131.000000) translate(1214.153846, 1110.000000)">
                <path d="M18.5466346,16.3052885 L16.3355769,18.5163462 C13.2057692,21.6461538 8.08701923,21.6461538 4.95721154,18.5163462 L2.74615385,16.3052885 C-0.383653846,13.1754808 -0.383653846,8.05673077 2.74615385,4.92692308 L4.95721154,2.71586538 C8.08701923,-0.413942308 13.2057692,-0.413942308 16.3355769,2.71586538 L18.5466346,4.92692308 C21.6764423,8.05673077 21.6764423,13.1805288 18.5466346,16.3052885 Z" id="路径" fill="#FDD65D"></path>
                <path d="M10.6463942,21.2271635 C8.15769231,21.2271635 5.82548077,20.2629808 4.07884615,18.5163462 L2.75120192,17.1887019 C-0.868269231,13.5692308 -0.868269231,7.67307692 2.75120192,4.05360577 L4.07884615,2.72596154 C5.82548077,0.979326923 8.15769231,0.0151442308 10.6463942,0.0151442308 C13.1350962,0.0151442308 15.4673077,0.979326923 17.2139423,2.72596154 L18.5415865,4.05360577 C20.2932692,5.80024038 21.2524038,8.13245192 21.2524038,10.6211538 C21.2524038,13.1098558 20.2882212,15.4420673 18.5415865,17.1887019 L17.2139423,18.5163462 C15.4673077,20.2629808 13.1350962,21.2271635 10.6463942,21.2271635 Z M10.6463942,1.246875 C8.58677885,1.246875 6.52716346,2.02932692 4.95721154,3.59927885 L3.62956731,4.92692308 C0.489663462,8.06682692 0.489663462,13.1704327 3.62956731,16.3103365 L4.95721154,17.6379808 C6.47163462,19.1524038 8.49086538,19.9853365 10.6463942,19.9853365 C12.8019231,19.9853365 14.8262019,19.1524038 16.3355769,17.6379808 L17.6632212,16.3103365 C19.1776442,14.7959135 20.0105769,12.7766827 20.0105769,10.6211538 C20.0105769,8.465625 19.1776442,6.44134615 17.6632212,4.93197115 L16.3355769,3.60432692 C14.7706731,2.02932692 12.7060096,1.246875 10.6463942,1.246875 Z" id="形状" stroke="#333333" fill="#333333"></path>
                <polygon id="路径" stroke="#333333" fill="#333333" points="4.23346875 17.6160216 17.5798269 4.26966346 18.4578894 5.14777644 5.11158173 18.4940841"></polygon>
                <path d="M34.978125,33.9685096 L33.9887019,34.9579327 C32.4591346,36.4875 29.9603365,36.4875 28.4307692,34.9579327 L11.0754808,19.5764423 L19.6016827,11.0552885 L34.978125,28.4105769 C36.5076923,29.9350962 36.5076923,32.4389423 34.978125,33.9685096 L34.978125,33.9685096 Z" id="路径" fill="#43D8D6"></path>
                <path d="M31.2122596,36.7197115 C30.0007212,36.7197115 28.8649038,36.2552885 28.0067308,35.4072115 L10.171875,19.6016827 L19.6269231,10.1466346 L35.4324519,27.9814904 C36.2805288,28.8346154 36.7449519,29.9754808 36.7449519,31.1870192 C36.7449519,32.4036058 36.2754808,33.5495192 35.4173077,34.4026442 L34.4278846,35.3920673 C33.5747596,36.2502404 32.4288462,36.7197115 31.2122596,36.7197115 Z M11.9841346,19.5512019 L28.875,34.51875 C29.4959135,35.1396635 30.3288462,35.4829327 31.2173077,35.4829327 C32.1057692,35.4829327 32.9336538,35.1396635 33.5596154,34.51875 L34.5490385,33.5293269 C35.1699519,32.9084135 35.5132212,32.0754808 35.5132212,31.1870192 C35.5132212,30.2985577 35.1699519,29.4706731 34.5490385,28.8447115 L34.5237981,28.8194712 L19.5814904,11.9588942 L11.9841346,19.5512019 Z" id="形状" stroke="#333333" fill="#333333"></path>
                <path d="M42.2271635,41.9141827 C42.0706731,41.9141827 41.9091346,41.8536058 41.7879808,41.7324519 C41.5456731,41.4901442 41.5456731,41.0963942 41.7879808,40.8540865 C42,40.6420673 42.1110577,39.9050481 41.7576923,39.1276442 C41.4850962,38.5319712 40.7682692,37.5475962 39.0014423,37.66875 C35.8110577,37.8858173 34.5439904,35.4375 34.321875,34.1149038 C34.2663462,33.7766827 34.4935096,33.4586538 34.8317308,33.3980769 C35.1699519,33.3425481 35.4879808,33.5697115 35.5485577,33.9028846 C35.5990385,34.1805288 36.1139423,36.6137019 38.9206731,36.4269231 C40.7278846,36.3057692 42.2170673,37.1235577 42.8935096,38.6127404 C43.4185096,39.76875 43.3225962,41.0762019 42.6713942,41.7324519 C42.5451923,41.8536058 42.3887019,41.9141827 42.2271635,41.9141827 L42.2271635,41.9141827 Z" id="路径" stroke="#333333" fill="#333333"></path>
                <path d="M24.2560096,21.91875 L21.8834135,24.2913462 C21.8127404,24.3620192 21.6966346,24.3620192 21.6209135,24.2913462 L16.7545673,19.425 C16.6838942,19.3543269 16.6838942,19.2382212 16.7545673,19.1625 L19.1271635,16.7899038 C19.1978365,16.7192308 19.3139423,16.7192308 19.3896635,16.7899038 L24.2560096,21.65625 C24.3266827,21.7319712 24.3266827,21.8480769 24.2560096,21.91875 L24.2560096,21.91875 Z" id="路径" fill="#FDD65D"></path>
                <path d="M21.7521635,24.6699519 C21.3634615,24.6699519 20.9697115,24.5235577 20.671875,24.2257212 L16.8302885,20.3841346 C16.2346154,19.7884615 16.2346154,18.8192308 16.8302885,18.2235577 L18.1831731,16.8706731 C18.4709135,16.5829327 18.8545673,16.4264423 19.2634615,16.4264423 C19.6723558,16.4264423 20.0560096,16.5829327 20.34375,16.8706731 L24.1853365,20.7122596 C24.7810096,21.3079327 24.7810096,22.2771635 24.1853365,22.8728365 L22.8324519,24.2257212 C22.5346154,24.5185096 22.1408654,24.6699519 21.7521635,24.6699519 L21.7521635,24.6699519 Z M19.2584135,17.6581731 C19.2129808,17.6581731 19.1271635,17.6682692 19.0564904,17.7389423 L17.7036058,19.0918269 C17.5925481,19.2028846 17.5925481,19.3846154 17.7036058,19.4956731 L21.5451923,23.3372596 C21.65625,23.4483173 21.8430288,23.4483173 21.9490385,23.3372596 L23.3019231,21.984375 C23.4129808,21.8733173 23.4129808,21.6915865 23.3019231,21.5805288 L19.4603365,17.7389423 C19.3896635,17.6733173 19.3038462,17.6581731 19.2584135,17.6581731 L19.2584135,17.6581731 Z" id="形状" stroke="#333333" fill="#333333"></path>
            </g>
        </g>
    </g>
</svg>