<?xml version="1.0" encoding="UTF-8"?>
<svg width="40px" height="45px" viewBox="0 0 40 45" version="1.1" xmlns="http://www.w3.org/2000/svg" xmlns:xlink="http://www.w3.org/1999/xlink">
    <!-- Generator: Sketch 55.1 (78136) - https://sketchapp.com -->
    <title>zichanxiangqing</title>
    <desc>Created with Sketch.</desc>
    <g id="页面1" stroke="none" stroke-width="1" fill="none" fill-rule="evenodd">
        <g id="商品页" transform="translate(-1321.000000, -1267.000000)">
            <g id="zichanxiangqing" transform="translate(1321.000000, 1267.000000)">
                <path d="M8.94736842,5.78947368 C10.1052667,4.20736473 11.1203736,3.34032339 11.9926892,3.18834964 C12.8650048,3.03637589 14.2389804,3.48719419 16.1146162,4.54080455 L20.1760609,2.10526316 L25.5459691,4.54080455 L31.5789474,4.54080455 L32.9574764,8.42105263 L29.8617197,11.1647403 L29.8617197,13.1571058 C35.3778695,16.9491006 38.1359443,21.2670214 38.1359443,26.1108681 C38.1359443,33.3766381 34.0423766,43.1579916 19.9634511,43.1579916 C14.7466936,43.1579916 8.98782202,41.4055051 5.75062606,37.8947368 C4.02586447,36.0242173 2.58153508,32.096261 1.41763789,26.1108681 L10.8028459,11.1647403 C8.94782863,10.7712108 7.90035189,10.2269018 7.66041566,9.53181318 C7.42047942,8.83672459 7.84946368,7.58927809 8.94736842,5.78947368 Z" id="路径-5" fill="#FFFFFF"></path>
                <path d="M20.4404546,3.19313215 C21.0346874,3.20776283 21.6002265,3.45168726 22.0186876,3.8738448 C22.2510418,4.07253415 22.4563174,4.30085628 22.6292566,4.5529633 C22.8584714,4.89901102 23.1537195,5.1964261 23.4980819,5.42816525 C24.1167825,5.85324895 24.8501425,6.08009569 25.6007985,6.07858858 C26.0651023,6.08053358 26.5249824,5.98834065 26.9526587,5.80757887 C27.0724224,5.75673164 27.189009,5.69870452 27.301783,5.63381381 C27.3740974,5.59145188 27.4498171,5.55519171 27.5281558,5.52540994 C27.8246258,5.41330766 28.1390094,5.35604879 28.4559656,5.3564274 C29.9863734,5.3564274 31.2808434,6.24597693 31.2808433,7.2997265 C31.158069,8.15485859 30.5177142,8.84412941 29.6739151,9.02940619 C28.555231,9.41722505 27.7435774,10.3930166 27.5659799,11.5636218 C27.3883823,12.7342271 27.8740913,13.906847 28.8274083,14.609018 L28.9724782,14.7158277 C29.0601578,14.7795948 29.1462433,14.8417676 29.2450821,14.9182879 C30.3556052,15.7695652 31.3971809,16.7071966 32.3600997,17.7224414 C34.9313958,20.0880985 36.4875591,23.3569553 36.7026319,26.8443098 C36.7026319,32.4940653 34.7210726,36.4268946 30.6447676,38.8627937 C27.3157464,40.6798469 23.561607,41.5742138 19.7709011,41.4533278 C15.8890855,41.4533278 3.22496071,40.4011724 3.22496071,26.8443098 C3.3742805,23.2355543 4.9226262,19.826678 7.54198613,17.3398395 C8.48519118,16.3418075 9.51184471,15.4260859 10.6107726,14.6026413 C10.7861319,14.471919 10.9487377,14.3523559 11.1017785,14.243952 C12.0050892,13.60303 12.5110587,12.5392341 12.438246,11.434042 C12.3654334,10.32885 11.7242722,9.34062971 10.7446833,8.82375763 C10.4768619,8.68187608 9.60165999,8.15261001 9.60165999,7.29494398 C9.60165999,6.24119442 10.8945358,5.35164488 12.4249436,5.35164488 C12.7431608,5.35037056 13.0588469,5.40821031 13.3559417,5.52222157 C13.4324212,5.55029247 13.50608,5.58552059 13.5759378,5.62743711 C13.6523445,5.6734838 13.7310971,5.71552066 13.8118757,5.75337693 C14.2686425,5.96534799 14.7654162,6.07731232 15.2689514,6.08177695 C16.1920559,6.08050568 17.0813472,5.73422792 17.7622409,5.11092445 C17.9517144,4.94045393 18.1193187,4.74714674 18.2612176,4.53542734 C18.4316713,4.28807516 18.6337163,4.06405701 18.8622215,3.86906228 C19.2803967,3.44648561 19.8461131,3.20248468 20.4404546,3.18834964 L20.4404546,3.19313215 Z M20.4404546,-2.27373675e-13 C19.079407,0.0194831564 17.7735682,0.541250946 16.7738525,1.46504664 C16.3364909,1.84216011 15.9501079,2.27463042 15.6244524,2.75154576 C15.5303457,2.84170313 15.4056361,2.89295366 15.2753281,2.89502145 C15.2490725,2.89597891 15.2229332,2.89107778 15.1988078,2.88067391 C14.9741088,2.7479277 14.7383563,2.63485184 14.4941825,2.54270882 C13.8356044,2.2911352 13.1363104,2.16305739 12.4313203,2.16488939 C9.35563852,1.93001177 6.66732497,4.22237769 6.41331035,7.29653812 C6.47105264,9.16340967 7.56754419,10.841374 9.25412987,11.6438529 C9.08355318,11.7650101 8.90341142,11.8957325 8.70732789,12.0423966 C7.45869139,12.9767362 6.2927688,14.016786 5.22246174,15.1510375 C2.03926471,18.2262925 0.179151394,22.4205535 0.0366110756,26.8443098 C0.0366110756,38.9058365 8.98790267,44.6416775 19.7709011,44.6416775 C24.1375899,44.7635815 28.4571873,43.7132703 32.280391,41.5999919 C37.1314649,38.7001879 39.8909816,33.8267955 39.8909816,26.8443098 C39.6863708,22.5379653 37.81665,18.479568 34.6764357,15.5256685 C33.5979114,14.3922829 32.4310219,13.3464003 31.186787,12.3978976 C31.0098336,12.2607985 30.867952,12.1651481 30.7085346,12.0487733 C32.8547041,11.4398811 34.3698784,9.52519915 34.469193,7.29653812 C34.213498,4.22566483 31.5287068,1.93590524 28.4559656,2.16807776 C27.7510534,2.16711342 27.0519161,2.29516253 26.3931034,2.54589719 C26.1574275,2.63478957 25.9288091,2.74137159 25.7092023,2.86473214 C25.6737249,2.88121078 25.6351322,2.88990772 25.5960159,2.89023894 C25.4799333,2.89516061 25.3662064,2.85649347 25.277181,2.78183507 C24.9470624,2.29358486 24.5535834,1.85132304 24.1070567,1.46664083 C23.1074228,0.542715568 21.8015321,0.0209270949 20.4404546,0.00159418605 L20.4404546,-2.27373675e-13 Z" id="形状" fill="#333333" fill-rule="nonzero"></path>
                <path d="M19.9637963,19.9319678 C16.7398787,19.9319678 13.8334087,21.8740089 12.5996688,24.8525204 C11.365929,27.831032 12.0478831,31.259447 14.3275372,33.539101 C16.6071912,35.8187551 20.0356063,36.5007092 23.0141178,35.2669693 C25.9926293,34.0332294 27.9346704,31.1267595 27.9346704,27.9028418 C27.9346704,23.5006496 24.3659885,19.9319678 19.9637963,19.9319678 L19.9637963,19.9319678 Z M23.5379363,28.5676128 L20.6285672,31.4769818 C20.4524745,31.6530864 20.2136345,31.752022 19.9645934,31.752022 C19.7155523,31.752022 19.4767122,31.6530864 19.3006196,31.4769818 L16.3896563,28.5660186 C16.2135517,28.3899259 16.1146162,28.1510858 16.1146162,27.9020448 C16.1146162,27.6530037 16.2135517,27.4141636 16.3896563,27.238071 L19.3006196,24.3271077 C19.4767122,24.1510031 19.7155523,24.0520676 19.9645934,24.0520676 C20.2136345,24.0520676 20.4524745,24.1510031 20.6285672,24.3271077 L23.5395304,27.238071 C23.7159121,27.4144397 23.8148709,27.6537406 23.8145725,27.9031726 C23.8142728,28.1526046 23.7147404,28.3916675 23.5379363,28.5676128 Z" id="形状" fill="#43D8D6" fill-rule="nonzero"></path>
                <path d="M20.7369711,15.1494712 C18.8932525,15.1530573 17.0656933,14.8057236 15.3518485,14.1259831 C14.5638561,13.8147481 14.1773679,12.9236482 14.4886029,12.1356558 C14.7998379,11.3476634 15.6909377,10.9611751 16.4789301,11.2724101 C18.7564261,12.1653382 21.2568594,12.3203607 23.62721,11.7155908 C24.4486591,11.5042855 25.2858718,11.9989048 25.4971771,12.8203539 C25.7084823,13.6418029 25.213863,14.4790157 24.392414,14.6903209 C23.1980462,14.9962512 21.969897,15.1505063 20.7369711,15.1494712 L20.7369711,15.1494712 Z" id="路径" fill="#333333" fill-rule="nonzero"></path>
            </g>
        </g>
    </g>
</svg>