<?xml version="1.0" encoding="UTF-8"?>
<svg width="51px" height="43px" viewBox="0 0 51 43" version="1.1" xmlns="http://www.w3.org/2000/svg" xmlns:xlink="http://www.w3.org/1999/xlink">
    <!-- Generator: Sketch 55.1 (78136) - https://sketchapp.com -->
    <title>mojing</title>
    <desc>Created with Sketch.</desc>
    <g id="页面1" stroke="none" stroke-width="1" fill="none" fill-rule="evenodd">
        <g id="文章页" transform="translate(-1384.000000, -1350.000000)">
            <g id="mojing" transform="translate(1384.000000, 1350.000000)">
                <polygon id="路径" fill="#FDD65D" fill-rule="nonzero" points="42.3893284 40.2137687 43.8613284 41.0190224 44.6665821 42.4919776 45.4723134 41.0190224 46.9443134 40.2137687 45.4723134 39.4085149 44.6665821 37.9365149 43.8613284 39.4085149"></polygon>
                <path d="M0,15.4951642 L2.26005969,16.7312239 L3.49564175,18.9912836 L4.7317015,16.7312239 L6.99128356,15.4951642 L4.7317015,14.2591045 L3.49564175,12 L2.26005969,14.2591045 L0,15.4951642 Z M45.2917761,11.4860074 L43.2667015,7.7826045 L39.5623433,5.75657463 L43.2667015,3.7315 L45.2917761,0.0271418125 L47.317806,3.7315 L51.0212089,5.75657463 L47.317806,7.7826045 L45.2917761,11.4860074 Z M43.0140447,5.75657462 L44.4865224,6.56182837 L45.2917761,8.03382837 L46.0975074,6.56182837 L47.5695074,5.75657462 L46.0975074,4.95132087 L45.2917761,3.47932087 L44.4865224,4.95132087 L43.0140447,5.75657462 Z" id="形状" fill="#FDD65D" fill-rule="nonzero"></path>
                <path d="M6.02443281,24.6228093 C7.99026212,20.9643784 10.3508534,21 14.2197546,21.5 C16.7990221,21.8333333 17.1701747,26.6666667 15.3332124,36 C10.9094698,37.7882841 8.1288268,37.43904 6.99128356,34.9522676 C5.28496871,31.222109 4.05860351,28.2812402 6.02443281,24.6228093 Z" id="路径-6" fill="#FFFFFF"></path>
                <path d="M29.0244328,24.6228093 C30.9902621,20.9643784 33.3508534,21 37.2197546,21.5 C39.7990221,21.8333333 40.9664071,26.8773856 40.7219096,36.6321567 C34.2982174,36.6321567 30.6512272,35.4739024 29.780939,33.1573938 C28.4755067,29.6826309 27.0586035,28.2812402 29.0244328,24.6228093 Z" id="路径-6" fill="#FFFFFF"></path>
                <path d="M19.1186418,22.1777089 C18.0268209,21.900694 16.9536269,21.7540671 15.9324926,21.6776492 C14.5228146,21.8725572 13.2201467,22.5374378 12.2352985,23.564694 C11.1017977,24.7433523 10.4698278,26.315829 10.4724248,27.9510821 C10.4724248,29.7951417 10.9748806,32.1134701 12.0423433,33.9527537 C12.6842538,35.0579477 13.5296269,35.9912015 14.5932687,36.5423657 C14.6534478,36.5738881 14.7145821,36.6030224 14.7757164,36.6321567 C21.8118956,34.3090522 27.477806,24.2911417 19.1186418,22.1777089 L19.1186418,22.1777089 Z M36.2696866,22.1777089 C29.6967911,23.8393209 31.7963731,30.389291 36.4139254,34.2412313 C38.7914776,36.2252313 40.0280149,36.6039776 42.9013284,36.1220672 C44.2219254,34.8282164 45.6189403,32.4067239 45.6189403,29.004694 C45.6189403,27.3024851 46.1156568,26.357291 45.0238358,25.2191418 C43.8708806,24.0174702 44.0705224,21.9551418 43.2896269,21.6781269 L40.6508209,21.6165149 C40.4573881,21.6222462 40.2615671,21.6294104 40.0633582,21.6399179 C38.8631194,21.7000971 37.5802537,21.8452911 36.2696866,22.1777089 Z" id="形状" fill="#B2B2B2" fill-rule="nonzero"></path>
                <path d="M10.7250896,29.1436791 L10.7112388,29.1565746 C10.5040887,29.3650044 10.4238702,29.6681148 10.5008006,29.9517269 C10.5777311,30.235339 10.8001231,30.4563655 11.0842036,30.5315478 C11.3682842,30.6067301 11.6708947,30.5246463 11.8780448,30.3162164 L11.8914179,30.3033209 C12.2035962,29.9799259 12.1983209,29.4658082 11.8795724,29.1488871 C11.5608239,28.831966 11.0466843,28.8296467 10.7250896,29.1436791 L10.7250896,29.1436791 Z M31.3388209,25.5123955 L31.3254478,25.5262463 C31.1716664,25.6808426 31.085659,25.8902366 31.0863713,26.1082921 C31.0870925,26.3263476 31.1744744,26.5351717 31.3292687,26.6887538 C31.4837579,26.8428076 31.6931831,26.9290793 31.9113556,26.9285443 C32.1295281,26.9280042 32.3385256,26.8407014 32.4922538,26.6858881 L32.5056269,26.6720373 C32.8258531,26.3498327 32.8242494,25.8290397 32.5020448,25.5088134 C32.1798402,25.1885872 31.6590471,25.1901909 31.3388209,25.5123955 Z" id="形状" fill="#FDD65D" fill-rule="nonzero"></path>
                <path d="M44.5939851,23.0952015 L42.5292687,18.0974701 C42.5112666,17.929718 42.4456387,17.7706201 42.3401343,17.6389627 C42.3186418,17.6117388 42.2995373,17.5840373 42.2742239,17.5587239 C42.0432022,17.3308695 41.7069541,17.2458937 41.3954179,17.3366343 C41.3256866,17.3672015 41.2554776,17.397291 41.1857463,17.426903 C41.1222239,17.4641568 41.0615671,17.508097 41.007597,17.5620672 L40.9927911,17.5768731 C40.7964499,17.7752994 40.70436,18.0542206 40.7439553,18.3305448 C40.7640149,18.4790821 40.8213284,18.6214104 40.9154179,18.7465448 L41.9547015,21.2616493 C41.1035419,20.9183549 40.1940335,20.7428756 39.2762538,20.7448731 C38.9958956,20.7448731 38.701209,20.7410523 38.3907612,20.7377089 L38.1791791,20.7353209 C37.8610896,20.7319776 37.5334478,20.7286343 37.1929104,20.7286343 C36.7506418,20.7286343 36.3747612,20.7334104 36.0108209,20.7443955 L14.7561343,20.7443955 C14.3618891,20.7331275 13.967495,20.7278732 13.5730896,20.7286343 C13.2320746,20.7286343 12.9049104,20.7319776 12.5872985,20.7353209 L12.373806,20.7377089 C12.0638359,20.7410523 11.7696269,20.7448731 11.4892687,20.7448731 C10.5627015,20.7448731 9.66192538,20.9182463 8.81082088,21.2616493 L14.2102239,8.19275375 C15.0121343,6.25221644 16.1058657,5.09305225 17.1360746,5.09305225 C17.1857463,5.09305225 17.2349403,5.09544031 17.2836567,5.10117163 C18.1973283,5.19860444 18.9901641,6.25508206 19.2576269,7.72899256 C19.313083,8.03493989 19.5275476,8.28806136 19.8202338,8.39300858 C20.1129201,8.4979558 20.439362,8.43878478 20.676592,8.23778468 C20.9138221,8.03678457 21.0257995,7.72449207 20.9703433,7.41854475 C20.5567314,5.14176863 19.1816866,3.55323131 17.4675373,3.37078356 C17.3643936,3.36020818 17.260774,3.35502159 17.1570896,3.35502159 C16.0996568,3.35502159 14.1022836,3.89711194 12.6021045,7.52887313 L6.1701045,23.0961567 C4.95648735,24.4214503 4.28384398,26.1535879 4.28496871,27.9506045 C4.28496871,29.9436791 4.81894025,32.1731717 5.71350744,33.9145448 C6.87123875,36.1679179 8.53858206,37.5353209 10.5354776,37.868694 C10.9853881,37.9451119 11.4534478,37.9837985 11.9262836,37.9837985 C14.5870597,37.9837985 17.5105224,36.7324552 19.9463433,34.5502463 C22.2589403,32.4802761 23.8130896,29.8515 24.1039553,27.5183657 C24.1139851,27.4362164 24.1221045,27.3550216 24.1297463,27.2738284 C24.5105928,27.053579 24.9425758,26.9371428 25.3825224,26.9361567 C25.8190597,26.9361567 26.2517761,27.052694 26.6357761,27.2738284 C26.6434179,27.3545448 26.6505821,27.4352612 26.6610896,27.5174104 C26.9519553,29.8505448 28.5061045,32.4793209 30.8182239,34.5492911 C30.9609046,34.6769443 31.1058023,34.8020977 31.2528508,34.924694 C33.5912388,36.8695298 36.3566119,37.9842761 38.8392388,37.9842761 L38.840194,37.9842761 C39.311597,37.9842761 39.7796567,37.9455896 40.2305224,37.8691716 C42.2264627,37.5357985 43.8938059,36.1679179 45.0520149,33.9150224 C45.9465821,32.1750821 46.4805526,29.9451119 46.4805526,27.9510821 C46.481088,26.1534833 45.8079753,24.4209425 44.5939851,23.0952015 Z M22.3759553,27.3043955 C22.1361941,29.2320373 20.7936269,31.4562761 18.7852687,33.2549627 C16.6641941,35.1553806 14.1638956,36.2448134 11.925806,36.2448134 C11.5728508,36.2448134 11.2222836,36.2175896 10.8841343,36.164097 L17.688194,29.3595597 C17.8529701,29.1952612 17.9432388,28.9769925 17.9432388,28.7448731 C17.9432389,28.5127538 17.8529701,28.2944851 17.6886716,28.1301866 C17.5238955,27.9649328 17.3056269,27.8746642 17.0735074,27.8746642 C16.841388,27.8746642 16.6231194,27.9649329 16.4588209,28.1301866 L9.14658206,35.4414701 C8.66897013,35.0971119 8.22765669,34.6371716 7.83362688,34.0750224 L9.72544775,32.1822463 C9.89022388,32.0179478 9.9804925,31.7996791 9.98049256,31.5675597 C9.98049263,31.3354403 9.89022388,31.1171716 9.72544775,30.9528731 C9.56271758,30.7894128 9.34141267,30.6977612 9.11076119,30.698306 C8.87994427,30.6976337 8.65844379,30.7892949 8.495597,30.9528731 L6.96294031,32.484097 C6.366403,31.0842164 6.02443281,29.4369328 6.02443281,27.9510821 C6.02443281,24.9378283 8.47601488,22.4867239 11.4892687,22.4867239 L14.7293881,22.4867239 C16.3246119,22.5344851 17.6514179,22.7040373 18.9056269,23.0211716 C21.4823433,23.6721567 22.6501045,25.1131119 22.3759553,27.3043955 L22.3759553,27.3043955 Z M26.7556567,25.4273806 C25.8655029,25.1212332 24.8985866,25.1212332 24.0084328,25.4273806 C23.7218656,24.225709 23.0336268,23.2375299 21.9599553,22.4862463 L28.8046119,22.4862463 C27.7314179,23.2370523 27.0427015,24.2261866 26.7556567,25.4273806 Z M43.503597,33.1202761 C42.878403,34.3367538 41.7536269,35.850306 39.9420448,36.1540672 C39.5843134,36.2142463 39.2136866,36.2448134 38.8387612,36.2448134 C36.9980448,36.2438582 34.9624627,35.5030821 33.1021642,34.1590821 L40.2529701,27.0087538 C40.5793663,26.6668081 40.5730857,26.1268325 40.2388244,25.7925711 C39.9045631,25.4583098 39.3645874,25.4520292 39.0226418,25.7784254 L31.7529104,33.0476791 C29.8739851,31.2905448 28.6173881,29.1455896 28.3876567,27.3034403 C28.1154179,25.1131119 29.2831791,23.6716791 31.8589403,23.020694 C32.2797164,22.9132313 33.6466418,22.6333507 34.2307612,22.5287538 L33.3266418,23.4152015 C33.1618657,23.5795 33.0715971,23.7977687 33.071597,24.0298881 C33.0715969,24.2620074 33.1618657,24.4802761 33.3266418,24.6445746 C33.4909403,24.8088731 33.709209,24.8991418 33.9413284,24.8991418 C34.1734478,24.8991418 34.3917164,24.8088731 34.5564926,24.6445746 L36.7033582,22.4977089 L36.9225821,22.4895896 L39.2752985,22.4857687 C42.2885523,22.4857687 44.7396582,24.9373508 44.7396582,27.9501269 C44.7406119,29.6809926 44.2782836,31.6138881 43.503597,33.1202761 L43.503597,33.1202761 Z M40.7157761,13.7072612 C40.6973347,13.5410912 40.6320762,13.3835767 40.527597,13.2530523 L38.1629403,7.52887313 C36.6627612,3.89711194 34.6663433,3.35454475 33.6093881,3.35454475 C33.5038358,3.35454475 33.3987612,3.36027606 33.2975074,3.37078356 C31.5828806,3.55323131 30.2083134,5.14224625 29.7951791,7.41854475 C29.7536269,7.64732088 29.8037761,7.87800744 29.935597,8.06857463 C30.0974136,8.30472539 30.3657459,8.4453315 30.6520149,8.44397763 C31.0723134,8.44397763 31.4319553,8.14308213 31.5074179,7.72899256 C31.7753583,6.25508213 32.5686717,5.1986045 33.4818657,5.10117163 C33.5305821,5.09544031 33.5797761,5.09305225 33.6294478,5.09305225 C34.6596567,5.09305225 35.7533881,6.25221644 36.5548209,8.19275375 L38.9304627,13.9412911 C38.9500448,14.0907836 39.0078358,14.2340672 39.1028806,14.3601567 C39.1281941,14.3931119 39.1525523,14.4275 39.1831194,14.4571119 C39.3924555,14.6657259 39.6914337,14.7572791 39.9816866,14.7016493 C40.0953582,14.6538881 40.2095074,14.6066045 40.3222239,14.5578881 C40.3671194,14.5273209 40.4110597,14.4934104 40.4502239,14.4532911 L40.4650299,14.4384851 C40.6552271,14.2454127 40.7474676,13.976422 40.7157761,13.7072612 L40.7157761,13.7072612 Z" id="形状" stroke="#333333" stroke-width="0.5" fill="#333333" fill-rule="nonzero"></path>
            </g>
        </g>
    </g>
</svg>