<?xml version="1.0" encoding="UTF-8"?>
<svg width="39px" height="42px" viewBox="0 0 39 42" version="1.1" xmlns="http://www.w3.org/2000/svg" xmlns:xlink="http://www.w3.org/1999/xlink">
    <!-- Generator: Sketch 55.1 (78136) - https://sketchapp.com -->
    <title>jj-zjbq</title>
    <desc>Created with Sketch.</desc>
    <g id="页面1" stroke="none" stroke-width="1" fill="none" fill-rule="evenodd">
        <g id="文章页" transform="translate(-1218.000000, -1270.000000)">
            <g id="jj-zjbq" transform="translate(1218.000000, 1270.000000)">
                <rect id="矩形" fill="#FFFFFF" x="2" y="1" width="30" height="36"></rect>
                <path d="M24.01875,13.4671875 C24.01875,12.6328125 23.3484375,11.9625 22.51875,11.9625 L8.16875,11.9625 C7.3390625,11.9625 6.66875,12.6328125 6.66875,13.4625 C6.66875,14.2921875 7.3390625,14.9625 8.16875,14.9625 L22.5140625,14.9625 C23.34375,14.9625 24.0140625,14.2921875 24.01875,13.4671875 Z M8.16875,21.1828125 C7.3390625,21.1828125 6.66875,21.853125 6.66875,22.6828125 C6.66875,23.5125 7.3390625,24.1828125 8.16875,24.1828125 L16.284375,24.1828125 C17.1140625,24.1828125 17.784375,23.5125 17.784375,22.6828125 C17.784375,21.853125 17.1140625,21.1828125 16.284375,21.1828125 L8.16875,21.1828125 Z" id="形状" fill="#333333" fill-rule="nonzero"></path>
                <polygon id="路径-3" fill="#FDD65D" points="20.5 25.5 28.7625 22 37.0757259 25.5 37.0757259 33.7435588 28.7878629 40.4015625 20.5 33.7435588"></polygon>
                <path d="M3.009375,37.4015625 L3.009375,3.0375 L30.0140625,3.0375 L30.0140625,21.0078125 C30.0140625,21.8375 30.684375,22.5078125 31.5140625,22.5078125 C32.34375,22.5078125 33.0140625,21.8375 33.0140625,21.0078125 L33.0140625,3.0375 C33.0140625,1.3828125 31.66875,0.0375 30.0140625,0.0375 L3.009375,0.0375 C1.3546875,0.0375 0.009375,1.3828125 0.009375,3.0375 L0.009375,37.4015625 C0.009375,39.05625 1.3546875,40.4015625 3.009375,40.4015625 L25.4109375,40.4015625 C26.240625,40.4015625 26.9109375,39.73125 26.9109375,38.9015625 C26.9109375,38.071875 26.240625,37.4015625 25.4109375,37.4015625 L3.009375,37.4015625 Z" id="路径" fill="#333333" fill-rule="nonzero"></path>
                <path d="M36.9,23.325 L29.6953125,20.3484375 C29.4046875,20.23125 29.0953125,20.165625 28.78125,20.1609375 L28.734375,20.1609375 C28.4203125,20.165625 28.1109375,20.23125 27.8203125,20.3484375 L20.625,23.325 C19.6921875,23.709375 19.0828125,24.61875 19.0828125,25.63125 L19.1859375,32.625 C19.190625,32.9484375 19.2796875,33.2625 19.4484375,33.5390625 C21.309375,36.6140625 24.0375,39.2578125 27.7921875,41.6203125 C28.3875,41.990625 29.1421875,41.990625 29.7375,41.6203125 C33.4921875,39.2578125 36.2203125,36.6140625 38.08125,33.5390625 C38.25,33.2625 38.3390625,32.9484375 38.3484375,32.625 L38.4515625,25.65 L38.4515625,25.63125 C38.446875,24.6234375 37.8375,23.709375 36.9,23.325 Z M35.71875,32.3671875 C34.1484375,34.89375 31.865625,37.1109375 28.7625,39.1265625 C25.659375,37.10625 23.3765625,34.8890625 21.80625,32.3671875 L21.7078125,25.7203125 L28.7625,22.8046875 L35.8171875,25.7203125 L35.71875,32.3671875 Z" id="形状" fill="#333333" fill-rule="nonzero"></path>
                <path d="M27.140625,29.6015625 C26.6671875,29.053125 25.8375,28.9921875 25.2890625,29.465625 C24.740625,29.9390625 24.6796875,30.76875 25.153125,31.3171875 C25.1625,31.3265625 25.1671875,31.3359375 25.1765625,31.340625 L26.9109375,33.3 C27.3890625,33.8390625 28.209375,33.8953125 28.753125,33.421875 L33.8765625,28.9921875 C34.425,28.51875 34.4859375,27.6890625 34.0125,27.140625 C33.5390625,26.5921875 32.709375,26.53125 32.1609375,27.0046875 L28.0171875,30.5859375 L27.140625,29.6015625 L27.140625,29.6015625 Z" id="路径" fill="#333333" fill-rule="nonzero"></path>
            </g>
        </g>
    </g>
</svg>