<?xml version="1.0" encoding="UTF-8"?>
<svg width="46px" height="37px" viewBox="0 0 46 37" version="1.1" xmlns="http://www.w3.org/2000/svg" xmlns:xlink="http://www.w3.org/1999/xlink">
    <!-- Generator: Sketch 55.1 (78136) - https://sketchapp.com -->
    <title>youxishoubing</title>
    <desc>Created with Sketch.</desc>
    <g id="页面1" stroke="none" stroke-width="1" fill="none" fill-rule="evenodd">
        <g id="商品页" transform="translate(-1318.000000, -1110.000000)">
            <g id="youxishoubing" transform="translate(1318.000000, 1110.000000)">
                <path d="M5.5,35.5 C4.09392818,35.7543673 3.07833697,35.4012924 2.45322637,34.4407754 C1.51556047,33 -0.182169345,22.971087 1.7016184,20.6837891 C3.58540615,18.3964911 3.60733605,8.21821414 10.3318441,7.1227843 C14.8148495,6.39249773 17.7295736,7.16205096 19.0760165,9.43144398 L22.5309923,6.169375 L26.211332,9.43144398 C29.2617716,7.25673133 31.3506014,6.169375 32.4778215,6.169375 C34.1686517,6.169375 38.7432476,8.42315605 38.7432476,9.43144398 C38.7432476,10.4397319 43.7859413,16.5705828 43.7859413,22.2287713 C43.7859413,27.8869598 44.7762319,34.085845 41.1552583,35.5 C38.7412759,36.44277 34.8250683,33.2515018 29.4066356,25.9261954 C26.6172046,23.9561231 24.4816595,22.971087 23,22.971087 C20.7775108,22.971087 16.7563475,24.3760796 15.4737588,25.9261954 C14.6186996,26.959606 12.2680209,29.7977993 8.42172271,34.4407754 L5.5,35.5 Z" id="路径-2" fill="#FFFFFF"></path>
                <path d="M39.3286511,36.914155 C39.0591099,36.914155 38.7899971,36.8926721 38.5239728,36.8492724 C36.109938,36.4529683 34.1193652,33.7894833 32.0101023,30.9695889 C30.2574124,28.6259634 28.4463834,26.2038819 26.5820445,25.3298002 C24.8942318,24.537695 23.1868052,24.4748295 22.7039982,24.4748295 L22.3735772,24.4748295 C22.0270626,24.4748295 20.2110043,24.5160692 18.4784315,25.3298002 C16.6150983,26.2018702 14.8045723,28.6239518 13.0533912,30.9655655 C10.9411108,33.7874716 8.95104083,36.4519625 6.5380119,36.8497753 C6.2719754,36.8930198 6.00286162,36.9145489 5.73333361,36.914155 C4.55464369,36.9091468 3.40748859,36.5329208 2.45477264,35.8388983 C1.29050379,34.9899627 0.558246567,33.7562903 0.336457095,32.2681385 C-0.340981422,27.7312618 0.0145858137,22.3710988 1.31263242,17.5616374 C2.62023461,12.7209947 4.74257351,8.96163844 7.13850304,7.25169713 C8.78155547,6.07736978 10.6926664,5.45676169 12.6641281,5.45676169 C14.8377652,5.45676169 16.9817299,6.23679668 18.6992151,7.65303042 C18.7711332,7.7113696 18.8460688,7.76719414 18.9235191,7.81949822 C19.2210381,7.33121587 19.6272061,6.91816363 20.1104196,6.61248084 L20.1104196,1.2362242 C20.1099709,0.63714556 20.5394764,0.124114139 21.1292979,0.0192046858 C21.7191195,-0.0857047677 22.2991878,0.247757342 22.5053432,0.810247644 C22.6875125,0.332934362 23.1466556,0.0186888857 23.6575419,0.0216629494 C24.3272433,0.0254521755 24.8734907,0.559244457 24.892723,1.22868033 L24.892723,6.57777908 C25.3996688,6.8864312 25.8252871,7.31204953 26.1339393,7.8189953 C26.2117248,7.76602065 26.2871634,7.71002845 26.360255,7.6510187 C28.0802548,6.23579081 30.2257283,5.45625874 32.3978566,5.45625877 C34.3698213,5.45625877 36.2804292,6.07686686 37.9234816,7.25069129 C40.3194112,8.9606326 42.442756,12.7209947 43.7493523,17.5606315 C45.046896,22.3700929 45.4029661,27.730256 44.7260305,32.2671326 C44.5042411,33.7532728 43.7704751,34.9869451 42.607212,35.8378924 C41.6547916,36.5326121 40.5075133,36.9092305 39.3286511,36.914155 Z M22.6979631,22.0044672 C23.3115303,22.0044672 25.481144,22.0829234 27.6321496,23.0917887 C30.0562429,24.2288997 32.05788,26.9024432 33.9891079,29.488478 C35.6316574,31.6837409 37.4934817,34.1752259 38.926312,34.4095885 C39.0551837,34.4303956 39.1855379,34.4407754 39.316078,34.4402668 C39.9753678,34.4325438 40.6164905,34.2231654 41.153259,33.8402786 C41.7799022,33.3831208 42.1591069,32.733846 42.283832,31.9035186 C42.9376331,27.518525 42.5986623,22.5928882 41.3282766,18.0338829 C40.1680311,13.875708 38.3610255,10.5961412 36.4906514,9.26087817 C35.2544644,8.37774378 33.8965699,7.93014148 32.454687,7.93014148 C30.8064028,7.94223981 29.2117268,8.51715359 27.9349098,9.55961498 C27.3907461,10.0077202 26.7148164,10.3733459 25.9232142,10.6454277 C25.8274758,10.6920442 25.7260204,10.7258627 25.6214598,10.7460125 C24.2952494,11.1483516 23.0273783,11.1926089 22.5420567,11.1926089 L22.5209339,11.1926089 C22.0356123,11.1926089 20.7672382,11.1488545 19.4420337,10.7460125 C19.3374848,10.7258176 19.2360353,10.6920011 19.1402793,10.6454277 C18.3516946,10.3738488 17.6757649,10.008726 17.1285836,9.55961498 C15.851699,8.51733453 14.2570297,7.94260058 12.6088065,7.9306444 C11.1664207,7.9306444 9.80852612,8.3782467 8.57284205,9.26138109 C6.70397679,10.5966441 4.89596531,13.8767139 3.73571985,18.0343859 C2.46332234,22.5933911 2.12334578,27.5190279 2.78016439,31.9040215 C2.90388366,32.7323372 3.28308832,33.3841266 3.91073736,33.8407815 C4.44790407,34.2236308 5.0893326,34.4329944 5.74892425,34.4407754 C5.87895973,34.4410525 6.00880412,34.4307927 6.13718153,34.4100914 C7.56800006,34.1752259 9.4303273,31.6852496 11.0733797,29.488478 C13.0066192,26.9029462 15.0057418,24.2294026 17.4298351,23.0917887 C19.5803378,22.0834263 21.7549807,22.0049701 22.3705596,22.0049701 L22.5309923,22.0049701 C22.5677058,22.0049701 22.6240333,22.0044672 22.6979631,22.0044672 L22.6979631,22.0044672 Z M21.50201,8.65435193 C21.8410119,8.69508904 22.1820193,8.7169162 22.5234485,8.71973205 L22.5410508,8.71973205 C22.8816428,8.71688011 23.2218113,8.6950529 23.5599747,8.65435193 C23.3256121,8.51554493 22.9946882,8.40791919 22.5309923,8.40791919 C22.0672965,8.40791919 21.7363725,8.5155449 21.50201,8.65435193 L21.50201,8.65435193 Z M14.2241981,22.2287713 C14.5252537,22.2284946 14.7693162,21.984657 14.7698705,21.6836018 L14.7698705,18.9512161 L17.5017532,18.9512161 C17.6466081,18.9516168 17.7856892,18.8944575 17.8884,18.7923125 C17.9911108,18.6901676 18.0490377,18.5514044 18.0494373,18.4065495 L18.0494373,15.0047722 C18.0494373,14.8597475 17.9916565,14.720699 17.8888729,14.6183873 C17.7860892,14.5160756 17.6467763,14.4589337 17.5017532,14.4596027 L14.7698705,14.4596027 L14.7698705,11.7252053 C14.7695932,11.4239537 14.5254497,11.1798102 14.2241981,11.1795329 L10.8234266,11.1795329 C10.5221749,11.1798102 10.2780314,11.4239537 10.2777541,11.7252053 L10.2777541,14.4590998 L7.54385972,14.4590998 C7.24280411,14.4593765 6.99874157,14.703214 6.99818725,15.0042693 L6.99818725,18.4065495 C6.99832058,18.5511375 7.05588582,18.6897506 7.15821927,18.7918954 C7.26055272,18.8940402 7.39927175,18.9513496 7.54385972,18.9512161 L10.2777541,18.9512161 L10.2777541,21.6856135 C10.2794129,21.9858826 10.5231529,22.2284994 10.8234266,22.2287713 L14.2241981,22.2287713 Z" id="形状" fill="#333333" fill-rule="nonzero"></path>
                <path d="M32.4773186,15.0143278 C31.2141443,15.01405 30.1903384,13.9898689 30.1905236,12.7266946 C30.1907088,11.4635203 31.2148148,10.4396394 32.4779891,10.4397319 C33.7411634,10.4398245 34.7651195,11.4638555 34.7651195,12.7270298 C34.7637331,13.9898912 33.7401803,15.0132191 32.4773186,15.0143278 L32.4773186,15.0143278 Z" id="路径" fill="#43D8D6" fill-rule="nonzero"></path>
                <path d="M32.4773186,22.971087 C31.2141443,22.9708092 30.1903384,21.9466281 30.1905236,20.6834538 C30.1907088,19.4202795 31.2148149,18.3963986 32.4779891,18.3964911 C33.7411634,18.3965837 34.7651195,19.4206147 34.7651195,20.683789 C34.7637331,21.9466504 33.7401803,22.9699783 32.4773186,22.971087 L32.4773186,22.971087 Z M28.4996933,18.9924559 C29.762802,18.9919005 30.7863556,17.9675965 30.7859855,16.7044877 C30.7856151,15.4413789 29.7614612,14.4176752 28.4983524,14.4178603 C27.2352436,14.4180453 26.2113897,15.4420491 26.2113896,16.7051579 C26.207063,17.3132778 26.4467944,17.8977313 26.8769055,18.3276533 C27.3070166,18.7575754 27.8915754,18.9970498 28.4996933,18.9924559 L28.4996933,18.9924559 Z M38.7432476,16.7051579 C38.7432476,15.4419182 37.7191894,14.41786 36.4559497,14.41786 C35.1927099,14.41786 34.1686517,15.4419182 34.1686517,16.705158 C34.1686517,17.9683977 35.1927099,18.9924559 36.4559497,18.9924559 C37.7184186,18.990793 38.7413594,17.9676271 38.7427447,16.7051579 L38.7432476,16.7051579 Z" id="形状" fill="#43D8D6" fill-rule="nonzero"></path>
            </g>
        </g>
    </g>
</svg>