<?xml version="1.0" encoding="UTF-8"?>
<svg width="37px" height="43px" viewBox="0 0 37 43" version="1.1" xmlns="http://www.w3.org/2000/svg" xmlns:xlink="http://www.w3.org/1999/xlink">
    <!-- Generator: Sketch 55.1 (78136) - https://sketchapp.com -->
    <title>redianzixun</title>
    <desc>Created with Sketch.</desc>
    <g id="页面1" stroke="none" stroke-width="1" fill="none" fill-rule="evenodd">
        <g id="文章页" transform="translate(-1219.000000, -1429.000000)" fill-rule="nonzero">
            <g id="redianzixun" transform="translate(1220.000000, 1430.000000)">
                <path d="M2.90625,34.715625 C2.90625,34.715625 14.240625,49.4109375 28.7390625,36.84375 C44.55,23.1234375 15.553125,13.7765625 15.553125,13.7765625 L7.8,21.6703125 L2.90625,34.715625 Z" id="路径" fill="#FDD65D"></path>
                <path d="M9.8484375,40.228125 C7.1625,34.659375 8.596875,31.4578125 10.6640625,28.4578125 C12.909375,25.1578125 13.509375,21.8953125 13.509375,21.8953125 C13.509375,21.8953125 15.28125,24.2015625 14.5640625,27.8015625 C17.6859375,24.3234375 18.28125,18.7546875 17.803125,16.6265625 C24.88125,21.5765625 27.9046875,32.296875 23.8265625,40.2328125 C45.5015625,27.984375 29.2171875,9.609375 26.371875,7.5421875 C27.328125,9.609375 27.50625,13.1109375 25.575,14.821875 C22.3546875,2.540625 14.3625,0.0375 14.3625,0.0375 C15.31875,6.3609375 10.940625,13.2796875 6.7265625,18.43125 C6.5859375,15.9046875 6.4265625,14.175 5.0953125,11.7515625 C4.7953125,16.3265625 1.2984375,20.0625 0.3421875,24.65625 C-0.9328125,30.88125 1.29375,35.4328125 9.8484375,40.228125 Z" id="路径" stroke="#333333" stroke-width="2" fill="#FA6400" stroke-linejoin="round"></path>
            </g>
        </g>
    </g>
</svg>