<?xml version="1.0" encoding="UTF-8"?>
<svg width="36px" height="36px" viewBox="0 0 36 36" version="1.1" xmlns="http://www.w3.org/2000/svg" xmlns:xlink="http://www.w3.org/1999/xlink">
    <!-- Generator: Sketch 55.1 (78136) - https://sketchapp.com -->
    <title>diss</title>
    <desc>Created with Sketch.</desc>
    <g id="页面1" stroke="none" stroke-width="1" fill="none" fill-rule="evenodd">
        <g id="文章页" transform="translate(-1393.000000, -1515.000000)">
            <g id="diss" transform="translate(1393.000000, 1515.000000)">
                <polygon id="路径-9" fill="#FDD65D" points="1.5 3 2.61399846 1.3840651 8.32355182 1.3840651 8.32355182 21.1896564 2.61399846 21.1896564 1.5 20.011989"></polygon>
                <path d="M8.32355182,1.5 C8.96163658,1.5 15.807978,1.5 28.8625762,1.5 L30.6655595,3 L34.1894055,18 L32.6016006,21.1896564 L21.1209064,22.5306329 C21.6772792,23.8275258 21.8163723,25.9614878 21.538186,28.9325189 C21.1209064,33.3890655 19.1203506,34.7405315 17,34.7405315 C15.5864329,34.7405315 14.4620197,31.4176684 13.6267603,24.7719423 L11.1517107,22.5306329 L8.32355182,21.1896564 C7.68546707,8.06321879 7.68546707,1.5 8.32355182,1.5 Z" id="路径-10" fill="#FFFFFF"></path>
                <path d="M34.5340873,21.6435196 C35.4446597,20.5016602 35.780088,19.0047351 35.4438509,17.5834929 L32.1951971,3.69387232 C31.6885165,1.52979191 29.7582933,-0.000412173578 27.5356892,-8.32465759e-08 L3.91943373,-8.32465759e-08 C1.75891932,0.00212930904 0.00779007126,1.75262978 0.00488485547,3.91314329 L0.00488485547,18.7069051 C0.00701560799,20.8679676 1.75837129,22.6193233 3.91943373,22.621454 L7.16105971,22.621454 C10.2673983,22.621454 11.4002983,23.917753 11.982561,24.8928763 C12.8550767,26.3543313 13.1144068,28.3927781 13.3435169,30.1926273 C13.6299044,32.4415602 13.877287,34.3854816 15.2252412,35.4066377 C15.8928931,35.9115934 16.7155106,36.0957248 17.6727127,35.9534095 C19.7860069,35.6392617 21.4073469,34.5499348 22.3561155,32.8059576 C23.1291862,31.3884271 23.4496592,29.5379769 23.2823948,27.4538486 C23.1683276,26.0888952 22.8769105,24.7446201 22.4155014,23.4549648 L30.7846944,23.4549648 C32.2463935,23.4587963 33.6287962,22.7907861 34.5340873,21.6431682 L34.5340873,21.6435196 Z M2.61399846,3.91314329 C2.61458002,3.1924692 3.19875951,2.60844696 3.91943373,2.60805941 L6.66980842,2.60805941 L6.66980842,20.011989 L3.91943373,20.011989 C3.19917055,20.0116024 2.61516102,19.4282217 2.61399846,18.7079593 L2.61399846,3.91419745 L2.61399846,3.91314329 Z M32.9043137,18.1777031 C33.0550615,18.8241849 32.9021938,19.5041145 32.4892445,20.023861 C32.0762953,20.5436075 31.448519,20.8462125 30.7846944,20.8454998 L21.3079019,20.8454998 C20.6753317,20.8447876 20.0857814,21.1656886 19.7429708,21.6973149 C19.4001603,22.2289413 19.3511098,22.8983747 19.6127688,23.4742916 C20.707718,25.8964626 21.2151335,29.4504794 20.0664207,31.5563942 C19.5066473,32.5828213 18.5979378,33.1763288 17.2903941,33.3706506 C17.053202,33.4057902 16.8887488,33.3906802 16.801954,33.3249691 C16.7264039,33.2676916 16.5296223,33.0565028 16.3398686,32.3361414 C16.1641707,31.6642727 16.0513727,30.7900001 15.9333037,29.8616124 C15.6722166,27.8098125 15.37599,25.4842753 14.224466,23.5558154 C13.1435726,21.7447216 11.483579,20.6223635 9.28067896,20.2017427 L9.28067896,2.60804664 L27.5353378,2.60804664 C28.5467788,2.60460735 29.4260023,3.30151008 29.6535515,4.28702839 L32.9029082,18.1766489 L32.9043137,18.1777031 Z" id="形状" fill="#333333" fill-rule="nonzero"></path>
            </g>
        </g>
    </g>
</svg>