<?xml version="1.0" encoding="UTF-8"?>
<svg width="50px" height="27px" viewBox="0 0 50 27" version="1.1" xmlns="http://www.w3.org/2000/svg" xmlns:xlink="http://www.w3.org/1999/xlink">
    <!-- Generator: Sketch 55.1 (78136) - https://sketchapp.com -->
    <title>zhishi</title>
    <desc>Created with Sketch.</desc>
    <g id="页面1" stroke="none" stroke-width="1" fill="none" fill-rule="evenodd">
        <g id="文章页" transform="translate(-1385.000000, -1277.000000)" fill-rule="nonzero">
            <g id="zhishi" transform="translate(1386.000000, 1278.000000)">
                <path d="M4.14745931,16.555216 L4.14745931,20.6718391 C4.14753399,21.3094797 3.80739969,21.8987159 3.25519918,22.2175578 C2.70299868,22.5363996 2.02263803,22.5363996 1.47043753,22.2175578 C0.918237023,21.8987159 0.578102717,21.3094797 0.5781774,20.6718391 L0.5781774,16.555216 C0.580302959,15.5710916 1.37869171,14.7744295 2.36281837,14.7744295 L2.397509,14.7744295 C3.36806779,14.7932974 4.14554604,15.5844757 4.14745931,16.555216 L4.14745931,16.555216 Z" id="路径" fill="#FFDB93"></path>
                <path d="M22.406302,9.63635958 C24.0120123,9.89835336 25.6495729,9.89835336 27.2552832,9.63635958 L46.4276462,5.67777157 C47.090623,5.54671802 47.4221114,5.37326481 47.4259659,5.19981157 L47.2833488,7.98662672 L39.3661728,9.88690313 L27.2552832,12.8086263 C25.6495729,13.0706201 24.0120123,13.0706201 22.406302,12.8086263 L10.1065412,9.856067 L2.397509,7.99819026 L2.23561932,5.21137513 C2.23561932,5.38482835 2.57096221,5.55828159 3.233939,5.68933511 L22.406302,9.63635958 Z" id="路径" fill="#FFFFFF"></path>
                <path d="M46.4276462,4.73341513 C47.0944775,4.86446868 47.4259659,5.03792189 47.4259659,5.21137513 C47.4259659,5.38482838 47.090623,5.55828159 46.4276462,5.68933511 L27.2552832,9.63635958 C25.6495729,9.89835336 24.0120123,9.89835336 22.406302,9.63635958 L3.233939,5.68933511 C2.57096224,5.55828157 2.23561932,5.39639189 2.23561932,5.21137513 C2.23561932,5.02635838 2.56710771,4.86446868 3.233939,4.73341513 L22.406302,0.770972596 C24.0120123,0.508978821 25.6495729,0.508978821 27.2552832,0.770972596 L46.4276462,4.73341513 Z" id="路径" fill="#43D8D6"></path>
                <path d="M22.406302,12.8086263 C24.0120123,13.0706201 25.6495729,13.0706201 27.2552832,12.8086263 L39.3661728,9.89846669 L39.3661728,22.4757527 C39.0578115,23.6012713 32.6323332,24.4993736 24.7498478,24.4993736 C16.8673624,24.4993736 10.4380296,23.6012714 10.1335228,22.4757527 L10.1335228,9.856067 L22.406302,12.8086263 Z" id="路径" fill="#43D8D6"></path>
                <path d="M24.7382842,25.077551 C23.2928407,25.077551 10.8890079,25.0120242 9.64014473,22.8110956 C9.5675865,22.7143513 9.52836375,22.596683 9.52836375,22.4757527 L9.52836375,9.856067 L10.6847186,9.856067 L10.6847186,22.306154 C11.3207137,22.9768398 16.5859827,23.9211962 24.7382842,23.9211962 C32.8905858,23.9211962 38.1365821,22.9806943 38.7879953,22.3100085 L38.7879953,9.89846669 L39.9443516,9.89846669 L39.9443516,22.4757527 C39.9443516,22.6008983 39.9040261,22.7227106 39.8287147,22.8226591 C38.5451608,25.0120242 26.1837277,25.077551 24.7382842,25.077551 Z M1.81933158,8.0097538 L2.97568641,8.0097538 L2.97568641,14.7744295 L1.81933158,14.7744295 L1.81933158,8.0097538 Z" id="形状" stroke="#333333" fill="#333333"></path>
                <path d="M2.36281837,23.0346575 C1.05786982,23.0346575 0,21.9767877 0,20.6718391 L0,16.555216 C0.00212634077,15.251773 1.05937362,14.1962521 2.36281837,14.1962521 L2.41292706,14.1962521 C3.69676836,14.2234836 4.72383065,15.2710872 4.72563671,16.555216 L4.72563671,20.6718391 C4.72351455,21.9759076 3.66688687,23.0325353 2.36281837,23.0346575 L2.36281837,23.0346575 Z M2.38209093,15.3526069 C2.05976369,15.3484942 1.74911272,15.4731336 1.51901399,15.6988909 C1.28891525,15.9246481 1.15838179,16.2328689 1.15635482,16.555216 L1.15635482,20.6718391 C1.15644975,21.3380834 1.69657407,21.8781308 2.36281836,21.8781308 C3.02906264,21.8781308 3.56918696,21.3380834 3.56928189,20.6718391 L3.56928189,16.555216 C3.56726552,15.8978598 3.03936638,15.3631048 2.38209093,15.3526069 Z M46.3197198,5.29617448 L27.1396477,1.34144099 C25.6076772,1.09514856 24.046199,1.09514856 22.5142284,1.34144099 L3.34957447,5.300029 C3.12105175,5.3277263 2.89921971,5.3955808 2.69430673,5.50046383 L1.65358739,5.21137513 C1.65358739,4.44047192 2.67888867,4.25160064 3.11830352,4.16680127 L22.2906665,0.208213249 C23.9714136,-0.0681071009 25.6858994,-0.0694089145 27.3670642,0.204358727 L46.5432817,4.16294674 C46.9749875,4.24774609 48.0041433,4.44818094 48.0041433,5.20752061 C47.0318607,5.28530857 46.4703862,5.31485986 46.3197198,5.29617448 Z" id="形状" stroke="#333333" fill="#333333"></path>
                <path d="M24.8307926,13.5833841 C23.9807638,13.5922285 23.1317346,13.5225513 22.294521,13.3752402 L2.24718287,8.55709509 C1.99785452,8.49764407 1.81742907,8.28113354 1.80391352,8.02517187 L1.65723068,5.24992029 L1.65723068,5.21908416 C1.65329781,5.06572672 1.71027276,4.91700941 1.81582211,4.80567653 C1.92137147,4.69434365 2.06684091,4.62952372 2.22020126,4.62548868 C2.44534669,4.61688776 2.6541947,4.74249925 2.75212447,4.94541353 C2.9428492,5.0244709 3.1420177,5.08137618 3.34571995,5.11501222 L22.5219375,9.08130928 C24.0547738,9.31651301 25.6145205,9.31651301 27.1473568,9.08130928 L46.3158653,5.12272127 C46.5208794,5.08937312 46.7213571,5.03246332 46.9133152,4.95312255 C47.0347628,4.71129802 47.3076949,4.58605946 47.5702231,4.65169151 C47.8327513,4.71732356 48.014638,4.95626681 48.0081738,5.2267932 L47.8653807,8.00589928 C47.8590574,8.27254843 47.6711482,8.5002689 47.4105478,8.55709509 L27.3670642,13.3675312 C26.5301078,13.5175573 25.6810646,13.5898163 24.8307926,13.5833841 Z M2.93714126,7.53564833 L22.5412101,12.245867 C23.297503,12.3741837 24.0637309,12.4348111 24.8307926,12.4270292 C25.6056967,12.4351934 26.3797518,12.373269 27.1435023,12.2420125 L46.7282985,7.53564833 L46.7976798,6.19813124 L46.5394272,6.25209446 L27.3670642,10.214537 C26.5285753,10.3620193 25.6782509,10.4316969 24.8269381,10.4226809 C23.9769085,10.4315473 23.1278773,10.3618699 22.2906665,10.214537 L3.11830352,6.25594898 L2.86775998,6.20198576 L2.93714126,7.53564833 Z" id="形状" stroke="#333333" fill="#333333"></path>
            </g>
        </g>
    </g>
</svg>