<?xml version="1.0" encoding="UTF-8"?>
<svg width="44px" height="35px" viewBox="0 0 44 35" version="1.1" xmlns="http://www.w3.org/2000/svg" xmlns:xlink="http://www.w3.org/1999/xlink">
    <!-- Generator: Sketch 55.1 (78136) - https://sketchapp.com -->
    <title>zuanshi</title>
    <desc>Created with Sketch.</desc>
    <g id="页面1" stroke="none" stroke-width="1" fill="none" fill-rule="evenodd">
        <g id="文章页" transform="translate(-1214.000000, -1514.000000)">
            <g id="zuanshi" transform="translate(1215.000000, 1515.000000)">
                <polygon id="路径-8" fill="#FFFFFF" points="1.5 11.5 13.4144296 1.11037937 28.8159716 1.11037937 40.785415 10.8060576 21.1427075 31.1841423"></polygon>
                <polygon id="路径" fill="#FDD65D" fill-rule="nonzero" points="16.8036269 14.409761 21.3082562 31.9563645 38.4258473 14.409761"></polygon>
                <path d="M41.343131,12.2217982 L16.5462195,12.2217982 C16.074306,12.2217982 15.7310961,11.8356871 15.7310961,11.4066748 C15.7310961,10.9347613 16.1172072,10.5915514 16.5462195,10.5915514 L39.1551683,10.5915514 L29.2878851,1.75389784 L12.8996149,1.75389784 L3.03233174,10.5915514 L9.81072624,10.5915514 C10.2826398,10.5915514 10.6258496,10.9776625 10.6258496,11.4066748 C10.6258496,11.8785884 10.2397386,12.2217982 9.81072624,12.2217982 L0.84436896,12.2217982 C0.501159111,12.2217982 0.200850495,12.0072921 0.0721468003,11.6640822 C-0.0565568925,11.3208724 0.0292455694,10.9776625 0.286652955,10.7631564 L11.998689,0.252354751 C12.1702939,0.123651058 12.3418989,0.0378485953 12.556405,0.0378485953 L29.5881937,0.0378485953 C29.8026999,0.0378485953 29.9743048,0.123651058 30.1459097,0.252354751 L41.8579458,10.7631564 C42.1153532,10.9776625 42.2011557,11.3637736 42.072452,11.6640822 C41.9866495,12.007292 41.6863409,12.2217982 41.343131,12.2217982 Z" id="路径" stroke="#333333" stroke-width="0.5" fill="#333333" fill-rule="nonzero"></path>
                <path d="M21.09375,33.2434014 C20.8792438,33.2434014 20.6647377,33.1575989 20.4931328,32.985994 C20.2786266,32.7714879 1.14467758,12.8653167 0.286652955,11.9643908 C-0.056556893,11.621181 -0.056556893,11.1063662 0.286652955,10.7631564 C0.629862804,10.4199465 1.14467758,10.4199465 1.48788743,10.7631564 C2.30301081,11.5782797 17.7903552,27.7091426 21.1366512,31.1841423 L40.785415,10.8060576 C41.0857237,10.4628477 41.6434397,10.4628477 41.9866495,10.7631564 C42.3298594,11.063465 42.3298594,11.621181 42.0295507,11.9643908 L21.7801697,32.985994 C21.5227623,33.1575989 21.3082562,33.2434014 21.09375,33.2434014 Z" id="路径" stroke="#333333" stroke-width="0.5" fill="#333333" fill-rule="nonzero"></path>
                <path d="M21.09375,33.2434014 C20.7934414,33.2434014 20.4931328,33.0717965 20.3644291,32.8143891 L8.95270162,11.7927859 C8.86689916,11.621181 8.82399793,11.3637736 8.86689916,11.1921687 L11.7841829,0.68136706 C11.9128866,0.25235475 12.3848001,-0.00505263516 12.8138124,0.0807498258 C13.2428247,0.209453519 13.5002321,0.68136706 13.4144296,1.11037937 L10.5829484,11.2779711 L21.8659722,31.9992657 C22.0804783,32.3853768 21.9517746,32.9001916 21.5227623,33.1146977 C21.3511574,33.2005002 21.2224537,33.2434014 21.09375,33.2434014 L21.09375,33.2434014 Z" id="路径" stroke="#333333" stroke-width="0.5" fill="#333333" fill-rule="nonzero"></path>
                <path d="M21.09375,33.2434014 C20.9650463,33.2434014 20.8363426,33.2005002 20.7076389,33.1575989 C20.3215278,32.9430928 20.1499229,32.428278 20.3644291,32.0421669 L31.6474528,11.3208724 L28.8159716,1.11037937 C28.6872679,0.681367061 28.9446753,0.20945352 29.4165888,0.0807498258 C29.8456011,-0.047953867 30.3175147,0.209453519 30.4462184,0.68136706 L33.3635021,11.1921687 C33.4064033,11.4066748 33.4064033,11.621181 33.2776996,11.7927859 L21.8659722,32.8143891 C21.6943672,33.0717965 21.3940586,33.2434014 21.09375,33.2434014 L21.09375,33.2434014 Z" id="路径" stroke="#333333" stroke-width="0.5" fill="#333333" fill-rule="nonzero"></path>
            </g>
        </g>
    </g>
</svg>