<?xml version="1.0" encoding="UTF-8"?>
<svg width="42px" height="40px" viewBox="0 0 42 40" version="1.1" xmlns="http://www.w3.org/2000/svg" xmlns:xlink="http://www.w3.org/1999/xlink">
    <!-- Generator: Sketch 55.1 (78136) - https://sketchapp.com -->
    <title>qianming-</title>
    <desc>Created with Sketch.</desc>
    <g id="页面1" stroke="none" stroke-width="1" fill="none" fill-rule="evenodd">
        <g id="文章页" transform="translate(-1389.000000, -1191.000000)">
            <g id="qianming-" transform="translate(1389.000000, 1191.000000)">
                <polygon id="路径-2" fill="#FFFFFF" points="37.6190476 10 13.1838621 34.4607372 0.324137866 39.047619 6.59913658 25.0093165 29.7609876 2.78712475"></polygon>
                <path d="M28.389909,3.49350943 L35.7922766,10.8902734 L34.16723,12.51532 L26.770466,5.11295245 L28.389909,3.49350943 Z M24.7587703,7.12464816 L32.1611379,14.5214121 L30.5360913,16.1464588 L23.1393273,8.74409118 L24.7587703,7.12464816 Z M7.20826673,24.7816203 L14.6050307,32.1783843 L12.9799841,33.8034309 L5.58322015,26.4010633 L7.20826673,24.7816203 Z" id="形状" fill="#313131" fill-rule="nonzero"></path>
                <path d="M1.15636892,39.3790219 C0.848170426,39.3790219 0.545575569,39.2557425 0.327034826,39.0203909 C0.0300435319,38.7065888 -0.0652177839,38.2470929 0.0804759725,37.8380295 C1.36930603,34.2797377 4.48491272,25.8799277 5.58882371,24.7760167 L28.3730982,1.99174227 C29.6395139,0.725326612 31.3262002,0.0248754356 33.1137515,0.0248754356 C34.9069064,0.0248754356 36.5879891,0.719722976 37.8544047,1.99174227 C40.4712901,4.60862769 40.4712901,8.86176697 37.8544047,11.4730488 L15.0701303,34.2629268 C13.8709579,35.4620992 5.1741567,38.202264 1.49258553,39.3285894 C1.38051337,39.3622111 1.26844115,39.3790219 1.15636892,39.3790219 Z M7.21947394,26.3898561 C6.67032022,27.0678929 4.79871485,31.6964739 3.033578,36.4427308 C7.93673595,34.8961346 12.7390289,33.1982411 13.4562908,32.626673 L36.2293581,9.85360574 C37.9496661,8.13329776 37.9496661,5.33709683 36.2293581,3.61678886 C35.3944204,2.78185112 34.2905094,2.32235516 33.1081478,2.32235516 C31.9313899,2.32235516 30.8218753,2.78185112 29.9869376,3.61678886 L29.2472612,4.35646527 L7.21947394,26.3898561 Z M40.6225876,39.0708235 L18.012025,39.0708235 C17.3788172,39.0708235 16.8632852,38.5552914 16.8632852,37.9220836 C16.8632852,37.2888758 17.3788172,36.7733437 18.012025,36.7733437 L40.6225876,36.7733437 C41.2557954,36.7733437 41.7713274,37.2888758 41.7713274,37.9220836 C41.7713274,38.5608951 41.2557954,39.0708235 40.6225876,39.0708235 L40.6225876,39.0708235 Z" id="形状" fill="#313131" fill-rule="nonzero"></path>
                <path d="M29.2528648,4.35646527 C29.2528648,4.35646527 32.4245075,-0.0479714786 36.5543674,3.88015847 C39.9893798,7.141459 35.4224384,10.6213002 35.4224384,10.6213002 L29.2528648,4.35646527 Z" id="路径" fill="#43D8D6" fill-rule="nonzero"></path>
            </g>
        </g>
    </g>
</svg>