<?xml version="1.0" encoding="UTF-8"?>
<svg width="41px" height="44px" viewBox="0 0 41 44" version="1.1" xmlns="http://www.w3.org/2000/svg" xmlns:xlink="http://www.w3.org/1999/xlink">
    <!-- Generator: Sketch 55.1 (78136) - https://sketchapp.com -->
    <title>jishu</title>
    <desc>Created with Sketch.</desc>
    <g id="页面1" stroke="none" stroke-width="1" fill="none" fill-rule="evenodd">
        <g id="文章页" transform="translate(-1216.000000, -1347.000000)">
            <g id="jishu" transform="translate(1217.000000, 1348.000000)">
                <path d="M2.5,36.5 L4.5008491,40.4180215 L34.0140625,11.9758852 C37.322324,14.3377785 38.8263332,16.1502857 38.5260903,17.4134068 C38.0757259,19.3080884 39.6203125,12.8910841 36.8171875,10 C34.9484375,8.07261058 32.6053293,5.34745646 29.7878629,1.82453762 L27.2136839,3.7739097 L29.7878629,8.48347053 L2.5,36.5 Z" id="路径-5" fill="#FFFFFF"></path>
                <path d="M1.009375,9.5 C1.39907664,12.8034174 2.18128812,14.4551261 3.35600942,14.4551261 C4.53073072,14.4551261 6.49057654,14.4551261 9.23554688,14.4551261 L28.528125,34.44375 C27.1583333,37.1844454 27.1583333,39.1758692 28.528125,40.4180215 C29.8979167,41.6601738 31.7265625,41.6601738 34.0140625,40.4180215 L32,38 L34.0140625,34.44375 L36.8171875,38 C37.956456,34.7065104 37.4611552,32.4015714 35.3312851,31.0851831 C33.201415,29.7687947 31.3536076,29.7687947 29.7878629,31.0851831 L11.953125,11.8875 C12.2563724,8.96836484 11.350513,6.88631601 9.23554688,5.64135349 C7.12058076,4.39639097 5.67121266,4.39639097 4.88744259,5.64135349 L7.66875,7.95307173 L4.88744259,10.6762167 L1.009375,9.5 Z" id="路径-4" fill="#FDD65D"></path>
                <path d="M32.034375,42.28125 C30.496875,42.28125 28.978125,41.68125 27.853125,40.565625 C26.165625,38.878125 25.678125,36.346875 26.559375,34.171875 L8.11875,15.721875 C5.953125,16.603125 3.4125,16.115625 1.725,14.428125 C0.01875,12.721875 -0.478125,10.078125 0.50625,7.875 C0.628125,7.59375 0.890625,7.3875 1.190625,7.33125 C1.490625,7.275 1.809375,7.36875 2.025,7.59375 L4.209375,9.778125 L6.009375,7.978125 L3.825,5.79375 C3.609375,5.578125 3.50625,5.259375 3.5625,4.959375 C3.61875,4.659375 3.825,4.396875 4.10625,4.275 C6.31875,3.290625 8.953125,3.7875 10.659375,5.49375 C12.346875,7.18125 12.834375,9.7125 11.953125,11.8875 L30.4125,30.328125 C32.578125,29.446875 35.11875,29.934375 36.80625,31.621875 C38.5125,33.328125 39.009375,35.971875 38.025,38.175 C37.903125,38.45625 37.640625,38.6625 37.340625,38.71875 C37.040625,38.775 36.721875,38.68125 36.50625,38.45625 L34.3125,36.271875 L32.5125,38.071875 L34.696875,40.25625 C34.9125,40.471875 35.015625,40.790625 34.959375,41.090625 C34.903125,41.390625 34.696875,41.653125 34.415625,41.775 C33.65625,42.1125 32.840625,42.28125 32.034375,42.28125 L32.034375,42.28125 Z M8.315625,13.659375 C8.559375,13.659375 8.79375,13.753125 8.98125,13.93125 L28.36875,33.31875 C28.66875,33.61875 28.725,34.06875 28.528125,34.44375 C27.65625,36 27.928125,37.978125 29.19375,39.24375 C30,40.05 31.096875,40.453125 32.203125,40.415625 L30.54375,38.75625 C30.365625,38.578125 30.271875,38.34375 30.271875,38.090625 C30.271875,37.8375 30.375,37.603125 30.54375,37.425 L33.675,34.29375 C34.040625,33.928125 34.63125,33.928125 34.996875,34.29375 L36.65625,35.953125 C36.703125,34.85625 36.290625,33.75 35.484375,32.94375 C34.21875,31.678125 32.240625,31.40625 30.684375,32.278125 C30.31875,32.484375 29.859375,32.41875 29.559375,32.11875 L10.171875,12.740625 C9.871875,12.440625 9.815625,11.990625 10.0125,11.615625 C10.884375,10.059375 10.6125,8.08125 9.346875,6.815625 C8.540625,6.009375 7.44375,5.60625 6.3375,5.64375 L7.996875,7.303125 C8.175,7.48125 8.26875,7.715625 8.26875,7.96875 C8.26875,8.221875 8.165625,8.45625 7.996875,8.634375 L4.875,11.765625 C4.696875,11.94375 4.4625,12.0375 4.209375,12.0375 C3.95625,12.0375 3.721875,11.934375 3.54375,11.765625 L1.884375,10.10625 C1.8375,11.203125 2.25,12.309375 3.05625,13.115625 C4.321875,14.38125 6.3,14.653125 7.85625,13.78125 C7.996875,13.696875 8.15625,13.659375 8.315625,13.659375 Z" id="形状" stroke="#333333" stroke-width="0.5" fill="#333333" fill-rule="nonzero"></path>
                <path d="M3.95625,41.409375 L0.890625,38.34375 C0.7125,38.165625 0.61875,37.93125 0.61875,37.678125 C0.61875,37.425 0.721875,37.190625 0.890625,37.0125 L15.3119453,22.5911797 C15.6775703,22.2255547 16.2681953,22.2255547 16.6338203,22.5911797 C16.9994453,22.9568047 16.9994453,23.5474297 16.6338203,23.9130547 L2.8875,37.678125 L4.621875,39.4125 L18.3775703,25.6568047 C18.7431953,25.2911797 19.3338203,25.2911797 19.6994453,25.6568047 C20.0650703,26.0224297 20.0650703,26.6130547 19.6994453,26.9786797 L5.2875,41.409375 C5.109375,41.578125 4.865625,41.68125 4.621875,41.68125 C4.36875,41.68125 4.134375,41.578125 3.95625,41.409375 Z M22.6380547,23.4494453 C22.3943047,23.4494453 22.1599297,23.3556953 21.9724297,23.1775703 C21.6068047,22.8119453 21.6068047,22.2213203 21.9724297,21.8556953 L32.915625,10.9125 C33.225,10.603125 33.721875,10.546875 34.0875,10.790625 C34.115625,10.809375 34.828125,11.278125 35.83125,12.28125 C36.39375,12.84375 37.0125,13.753125 37.565625,14.68125 C37.44375,13.115625 37.115625,11.2875 36.346875,9.721875 C35.08125,7.153125 31.5375,3.646875 30.065625,2.25 L27.815625,4.5 L31.1625,7.846875 C31.528125,8.2125 31.528125,8.803125 31.1625,9.16875 L20.2193047,20.1119453 C19.8536797,20.4775703 19.2630547,20.4775703 18.8974297,20.1119453 C18.5318047,19.7463203 18.5318047,19.1556953 18.8974297,18.7900703 L29.175,8.5125 L25.828125,5.165625 C25.4625,4.8 25.4625,4.209375 25.828125,3.84375 L29.371875,0.3 C29.728125,-0.05625 30.290625,-0.065625 30.665625,0.2625 C30.890625,0.46875 36.2625,5.315625 38.025,8.90625 C40.03125,12.975 39.43125,18.2625 39.403125,18.4875 C39.35625,18.9 39.0375,19.2375 38.625,19.303125 C38.2125,19.36875 37.809375,19.153125 37.621875,18.778125 C37.115625,17.7 35.559375,14.671875 34.5,13.621875 C34.171875,13.29375 33.88125,13.03125 33.65625,12.84375 L23.3036797,23.1681953 C23.1161797,23.3556953 22.8818047,23.4494453 22.6380547,23.4494453 Z" id="形状" stroke="#333333" stroke-width="0.5" fill="#333333" fill-rule="nonzero"></path>
            </g>
        </g>
    </g>
</svg>