<?xml version="1.0" encoding="UTF-8"?>
<svg width="46px" height="46px" viewBox="0 0 46 46" version="1.1" xmlns="http://www.w3.org/2000/svg" xmlns:xlink="http://www.w3.org/1999/xlink">
    <!-- Generator: Sketch 55.1 (78136) - https://sketchapp.com -->
    <title>menpiao</title>
    <desc>Created with Sketch.</desc>
    <g id="页面1" stroke="none" stroke-width="1" fill="none" fill-rule="evenodd">
        <g id="商品页" transform="translate(-1318.000000, -1186.000000)">
            <g id="menpiao" transform="translate(1318.000000, 1186.000000)">
                <path d="M1.4375,28.2708333 C5.17528118,28.3424848 7.48485021,28.7669704 8.36620711,29.5442902 C9.247564,30.3216099 9.91390179,32.6124021 10.3652205,36.4166667 L19.9132957,45.0654905 L44.8970156,18.9903404 L35.861002,9.58333333 C33.1062053,10.394751 31.1247848,10.394751 29.9167405,9.58333333 C28.7086962,8.77191571 28.3226654,6.41826671 28.758648,2.52238633 L26.7020807,1.21505981 L1.4375,25.0014793 L1.4375,28.2708333 Z" id="路径-3" fill="#FFFFFF"></path>
                <path d="M28.1262242,13.3147382 C27.407296,12.5963859 27.1948287,11.5142849 27.588761,10.5774257 C27.8249243,9.97736103 27.6714047,9.2939512 27.2012875,8.85254381 C26.5522148,8.2040946 25.5005212,8.2040946 24.8514484,8.85254381 L8.85254403,24.8514482 C8.2040948,25.5005209 8.2040948,26.5522146 8.85254403,27.2012873 C9.29395144,27.6714045 9.97736126,27.8249241 10.5774259,27.5887608 C11.5144212,27.1935998 12.5974107,27.4054192 13.316477,28.1244855 C14.0355432,28.8435517 14.2473626,29.9265412 13.8522016,30.8635365 C13.621018,31.4679467 13.7735801,32.1520156 14.2396751,32.6009175 L18.7518661,37.1631051 C19.4009389,37.8115543 20.4526325,37.8115543 21.1017052,37.1631051 L37.1631054,21.1517016 C37.8115546,20.5026289 37.8115546,19.4509352 37.1631054,18.8018625 L32.6009178,14.2396749 C32.1520158,13.7735799 31.4679469,13.6210177 30.8635368,13.8522014 C29.9266775,14.2461337 28.8445766,14.0336664 28.1262242,13.3147382 L28.1262242,13.3147382 Z" id="路径" fill="#FDD65D" fill-rule="nonzero"></path>
                <path d="M45.0000687,17.1019789 L37.4005891,9.49000013 C36.3583368,8.50149534 34.8204876,8.24436299 33.5133553,8.84004465 C32.5273575,9.23861366 31.3985963,9.0090671 30.6465827,8.25705352 C29.8945691,7.50503993 29.6650225,6.37627868 30.0635915,5.3902809 C30.6596115,4.08113357 30.3971258,2.54088742 29.4011369,1.50304708 L28.9011711,1.0030813 C28.265068,0.361135194 27.3988126,-1.63064488e-06 26.4950859,-1.63064488e-06 C25.5913591,-1.63064488e-06 24.7251038,0.361135194 24.0890006,1.0030813 L1.00308153,24.0890004 C0.361135405,24.7251035 -1.42870257e-06,25.5913589 -1.42870257e-06,26.4950857 C-1.42870257e-06,27.3988124 0.361135405,28.2650678 1.00308153,28.9011709 L1.5030473,29.4011366 C2.54088763,30.3971256 4.08113375,30.6596113 5.39028108,30.0635913 C6.37627885,29.6650223 7.50504011,29.8945689 8.2570537,30.6465825 C9.00906729,31.398596 9.23861387,32.5273573 8.84004488,33.5133551 C8.24790699,34.820952 8.50469543,36.3567445 9.49000035,37.4005889 L17.1019791,45.0000685 C18.4357892,46.3168693 20.5803395,46.3168693 21.9141496,45.0000685 L45.0000687,21.9266485 C46.3183462,20.5885768 46.3183462,18.4400506 45.0000687,17.1019789 Z M43.2251902,20.15177 L20.1517702,43.2376892 C19.8030847,43.5742105 19.2505414,43.5742105 18.9018559,43.2376892 L11.2523797,35.6382095 C10.9676319,35.281825 10.9233492,34.7897954 11.1398874,34.3882952 C11.7447224,32.8911746 11.6104685,31.1967977 10.7774122,29.8136084 L11.7773437,28.8136769 C12.1071728,28.3099768 12.0310352,27.6427159 11.5962127,27.2262662 C11.1613902,26.8098165 10.4914657,26.762539 10.0024653,27.1137933 L8.99003457,28.1137248 C8.19460399,27.6305751 7.28335181,27.3714513 6.35271518,27.3637762 C5.68758123,27.3627783 5.02893388,27.4945078 4.41534787,27.7512497 C4.03446133,27.941738 3.57824992,27.8980582 3.24042831,27.6387573 L2.74046253,27.1387916 C2.41636349,26.7851819 2.41636349,26.2424869 2.74046253,25.8888772 L25.8513799,2.76546061 C26.2049897,2.44136157 26.7476847,2.44136157 27.1012944,2.76546061 L27.6012601,3.26542639 C27.860561,3.60324801 27.9042408,4.05945941 27.7137524,4.44034595 C26.9226999,6.35714405 27.3616083,8.56158199 28.8265083,10.0292151 C30.2914084,11.4968482 32.4950244,11.9398647 34.4132936,11.1523863 C34.8147939,10.9358481 35.3068235,10.9801308 35.6632081,11.2648786 L43.2626877,18.8643582 C43.5867867,19.2179679 43.5867867,19.7606629 43.2626877,20.1142726 L43.2251902,20.15177 Z" id="形状" fill="#333333" fill-rule="nonzero"></path>
                <path d="M16.0270527,21.101705 L14.2646734,22.8640843 C14.0280488,23.0987765 13.8949508,23.4182494 13.8949508,23.7515235 C13.8949508,24.0847976 14.0280488,24.4042706 14.2646734,24.6389627 C14.5005558,24.8729299 14.8198817,25.0033588 15.1521126,25.0014589 C15.480015,25.0000573 15.7942429,24.8698771 16.0270527,24.6389627 L17.8019312,22.8640843 C18.2865525,22.3765708 18.2865525,21.5892184 17.8019312,21.101705 C17.567239,20.8650804 17.247766,20.7319824 16.9144919,20.7319824 C16.5812178,20.7319824 16.2617449,20.8650804 16.0270527,21.101705 L16.0270527,21.101705 Z M22.039141,15.0896167 L20.2767617,16.8644952 C19.7921404,17.3520086 19.7921404,18.139361 20.2767617,18.6268745 C20.7642751,19.1114958 21.5516276,19.1114958 22.039141,18.6268745 L23.8140195,16.8644952 C24.131071,16.5474437 24.2548937,16.085331 24.1388448,15.6522306 C24.0227959,15.2191302 23.6845059,14.8808403 23.2514055,14.7647914 C22.8183051,14.6487425 22.3561925,14.7725652 22.039141,15.0896167 L22.039141,15.0896167 Z" id="形状" fill="#333333" fill-rule="nonzero"></path>
            </g>
        </g>
    </g>
</svg>