<?xml version="1.0" encoding="UTF-8"?>
<svg width="81px" height="80px" viewBox="0 0 81 80" version="1.1" xmlns="http://www.w3.org/2000/svg" xmlns:xlink="http://www.w3.org/1999/xlink">
    <!-- Generator: Sketch 55.1 (78136) - https://sketchapp.com -->
    <title>longimage</title>
    <desc>Created with Sketch.</desc>
    <g id="页面-1" stroke="none" stroke-width="1" fill="none" fill-rule="evenodd">
        <g id="分享弹窗" transform="translate(-146.000000, -357.000000)">
            <g id="longimage" transform="translate(146.500000, 357.000000)">
                <circle id="椭圆形" fill="#FFFFFF" cx="40" cy="40" r="40"></circle>
                <g id="changtu" transform="translate(18.500000, 18.000000)">
                    <path d="M17.0026965,20.9399926 C19.1881484,20.9399926 20.9776569,19.1504841 20.9776569,16.9650322 C20.9776569,14.7795804 19.1881484,12.9900719 17.0026965,12.9900719 C14.8172447,12.9900719 13.0277361,14.7795804 13.0277361,16.9650322 C13.0277361,19.1504841 14.8172447,20.9399926 17.0026965,20.9399926 L17.0026965,20.9399926 Z M17.0026965,14.977552 C18.1944083,14.977552 18.9901767,15.7733205 18.9901767,16.9650322 C18.9901767,18.156744 18.1944083,18.9525124 17.0026965,18.9525124 C15.8109848,18.9525124 15.0152164,18.156744 15.0152164,16.9650322 C15.0152164,15.7733205 15.8109848,14.977552 17.0026965,14.977552 Z" id="形状" fill="#333333" fill-rule="nonzero"></path>
                    <polygon id="矩形" fill="#1C9CFE" transform="translate(27.235418, 35.500000) scale(-1, 1) translate(-27.235418, -35.500000) " points="19 33 31 33.2040816 35.4708364 38 19 38"></polygon>
                    <polygon id="矩形" fill="#32C5FF" points="11 33 23 33.2040816 27.4708364 38 11 38"></polygon>
                    <path d="M34.9365998,7.02763128 C33.6611105,7.02763128 32.6926369,7.02763128 32.0311791,7.02763128 C30.3280094,7.02763128 28.3103738,7.02763128 25.9782723,7.02763128 C23.2798742,7.02763128 18.2850082,7.02763128 10.9936744,7.02763128 C9.80196262,7.02763128 9.0061942,7.82339972 9.0061942,9.01511146 L9.0061942,36.8398341 C9.0061942,38.0315459 9.80196265,38.8273144 10.9936744,38.8273144 L34.9365998,38.8273144 C36.1283116,38.8273144 36.92408,38.0315459 36.92408,36.8398341 L36.92408,9.01511146 C36.92408,7.82339969 36.1283116,7.02763128 34.9365998,7.02763128 Z M11.9926659,9.01410401 L25.9782723,9 L32.0311791,9.01511146 L33.9365998,9.01511146 C34.4888846,9.01511146 34.9365998,9.46282671 34.9365998,10.0151115 L34.9365998,26.3046364 L29.3196392,20.9788106 L26.2093279,24.2176005 L22.6821602,27.890466 L20.7680399,29.8836535 L16.7891977,26.3046364 L10.9936744,31.8711337 L10.9936744,10.0141035 C10.9936744,9.46221254 11.4407752,9.01466057 11.9926659,9.01410401 Z M10.9936744,34.3321931 L16.8668336,28.8899134 L25.7794401,36.8398341 L11.9936744,36.8398341 C11.4413896,36.8398341 10.9936744,36.3921189 10.9936744,35.8398341 L10.9936744,34.3321931 Z M22.1227871,31.0365473 L29.3196392,23.5602058 L34.9365998,28.8045139 L34.9365998,35.8359524 C34.9365998,36.3882371 34.4888846,36.8359524 33.9365998,36.8359524 L28.5277526,36.8359524 L22.1227871,31.0365473 Z" id="形状" fill="#333333" fill-rule="nonzero"></path>
                    <path d="M23,7 C24.7763862,5.9766945 26.1097195,5.46504175 27,5.46504175 C27.8902805,5.46504175 29.2236138,5.9766945 31,7 C30.3354387,7.01842085 30.0021054,7.35175418 30,8 C29.9978946,8.64824582 30.3312279,8.98157915 31,9 C29.0999995,9.84497236 27.7046974,10.2674585 26.8140937,10.2674585 C25.92349,10.2674585 24.6521254,9.84497236 23,9 C23.6666667,8.98157915 24,8.64824582 24,8 C24,7.35175418 23.6666667,7.01842085 23,7 Z" id="矩形" fill="#FFFFFF"></path>
                    <path d="M26.5510204,7.48979592 L27.3673469,7.48979592" id="路径" stroke="#333333" stroke-width="2" stroke-linecap="round" stroke-linejoin="round"></path>
                    <path d="M2.94897959,3.2755102 L9.5,3.2755102 C10.176267,3.2755102 10.7244898,3.82373296 10.7244898,4.5 C10.7244898,5.17626704 10.176267,5.7244898 9.5,5.7244898 L2.94897959,5.7244898 C2.27271255,5.7244898 1.7244898,5.17626704 1.7244898,4.5 C1.7244898,3.82373296 2.27271255,3.2755102 2.94897959,3.2755102 Z" id="矩形备份-2" fill="#32C5FF" transform="translate(6.224490, 4.500000) rotate(-270.000000) translate(-6.224490, -4.500000) "></path>
                    <path d="M6.37386826,1.14630234 L8.00652132,1.14630234 C8.68278836,1.14630234 9.23101112,1.69452509 9.23101112,2.37079213 C9.23101112,3.04705917 8.68278836,3.59528193 8.00652132,3.59528193 L6.37386826,3.59528193 C5.69760122,3.59528193 5.14937847,3.04705917 5.14937847,2.37079213 C5.14937847,1.69452509 5.69760122,1.14630234 6.37386826,1.14630234 Z" id="矩形备份-2" fill="#32C5FF" transform="translate(7.190195, 2.370792) scale(-1, -1) rotate(-126.000000) translate(-7.190195, -2.370792) "></path>
                    <path d="M4.37386826,1.14630234 L6.00652132,1.14630234 C6.68278836,1.14630234 7.23101112,1.69452509 7.23101112,2.37079213 C7.23101112,3.04705917 6.68278836,3.59528193 6.00652132,3.59528193 L4.37386826,3.59528193 C3.69760122,3.59528193 3.14937847,3.04705917 3.14937847,2.37079213 C3.14937847,1.69452509 3.69760122,1.14630234 4.37386826,1.14630234 Z" id="矩形备份-5" fill="#32C5FF" transform="translate(5.190195, 2.370792) scale(-1, 1) rotate(-126.000000) translate(-5.190195, -2.370792) "></path>
                    <circle id="椭圆形备份-2" fill="#32C5FF" cx="39.2244898" cy="38.2244898" r="1.2244898"></circle>
                    <circle id="椭圆形备份-3" fill="#32C5FF" cx="4.26530612" cy="13.2040816" r="1.2244898"></circle>
                    <circle id="椭圆形" fill="#1C9CFE" cx="1.81632653" cy="9.54296875" r="1.2244898"></circle>
                </g>
            </g>
        </g>
    </g>
</svg>